<svg width="230" height="136" fill="none" xmlns="http://www.w3.org/2000/svg"><g clip-path="url(#clip0)"><path opacity=".1" d="M48.453 134.486c16.398 0 29.69-.946 29.69-2.111 0-1.166-13.292-2.111-29.69-2.111-16.398 0-29.691.945-29.691 2.111 0 1.165 13.293 2.111 29.69 2.111zM230 79.662a36.307 36.307 0 0 1-5.251 18.874c0 6.96-3.245 13.269-8.509 17.867a29.048 29.048 0 0 1-4.423 3.183l-.34.201-.106.062a33.095 33.095 0 0 1-16.305 4.19H43.662c-1.206 0-2.402-.048-3.587-.145a42.4 42.4 0 0 1-12.276-2.843 36.733 36.733 0 0 1-2.256-.977 37.79 37.79 0 0 1-1.687-.842 37.623 37.623 0 0 1-6.928-4.703c-6.835-5.876-11.073-13.995-11.073-22.961A36.289 36.289 0 0 1 0 71.722c0-19.932 15.931-36.09 35.586-36.09a34.2 34.2 0 0 1 1.81.05c.085 0 .17 0 .256.012 3.314-5.647 7.743-10.836 13.069-15.404C65.25 7.845 86.477-.008 110.122-.008c19.868 0 38.029 5.539 51.939 14.69a35.022 35.022 0 0 1 17.275-4.525c19.65 0 35.585 16.158 35.585 36.09a37.203 37.203 0 0 1-.201 3.776A36.184 36.184 0 0 1 230 79.662z" fill="#6C63FF"/><path d="M192.605 23.991v96.339a3.697 3.697 0 0 1-1.081 2.622 3.713 3.713 0 0 1-1.202.805c-.45.186-.932.282-1.418.282H41.096a3.64 3.64 0 0 1-1.021-.145 3.696 3.696 0 0 1-2.68-3.564V35.682c.086 0 .17 0 .257.012 3.314-5.647 7.743-10.836 13.069-15.404h138.183a3.7 3.7 0 0 1 3.701 3.701z" fill="#fff"/><path opacity=".7" d="M52.273 48.437h131.084M52.273 72.663h131.084M52.273 96.89h131.084M52.273 121.719h131.084" stroke="#3F3D56" stroke-miterlimit="10" stroke-linecap="round"/><path opacity=".1" d="M193.61 135.491c16.398 0 29.691-.945 29.691-2.111 0-1.166-13.293-2.111-29.691-2.111s-29.691.945-29.691 2.111c0 1.166 13.293 2.111 29.691 2.111z" fill="#6C63FF"/><path d="M127.57 32.801h-20.481a3.615 3.615 0 1 0 0 7.23h20.481a3.614 3.614 0 0 0 0-7.23z" fill="#3F3D56"/><path opacity=".1" d="M126.97 34.011h-19.284a2.406 2.406 0 1 0 0 4.812h19.284a2.406 2.406 0 1 0 0-4.812z" fill="#000"/><path d="M126.633 34.275h-4.419a2.14 2.14 0 0 0-2.141 2.14v.003a2.14 2.14 0 0 0 2.141 2.141h4.419a2.141 2.141 0 0 0 2.141-2.141v-.002a2.141 2.141 0 0 0-2.141-2.141z" fill="#FF4677"/><path d="M124.357 37.755a1.34 1.34 0 1 0 0-2.679 1.34 1.34 0 0 0 0 2.679z" fill="#fff"/><path d="M127.57 80.46h-20.481a3.615 3.615 0 1 0 0 7.23h20.481a3.614 3.614 0 0 0 0-7.23z" fill="#3F3D56"/><path opacity=".1" d="M126.97 81.67h-19.284a2.407 2.407 0 1 0 0 4.811h19.284a2.406 2.406 0 1 0 0-4.811z" fill="#000"/><path d="M126.633 81.933h-4.419a2.14 2.14 0 0 0-2.141 2.142v.002a2.14 2.14 0 0 0 2.141 2.14h4.419a2.141 2.141 0 0 0 2.141-2.14v-.002a2.141 2.141 0 0 0-2.141-2.142z" fill="#FF4677"/><path d="M124.357 85.413a1.34 1.34 0 1 0 0-2.678 1.34 1.34 0 0 0 0 2.678z" fill="#fff"/><path d="M127.57 104.29h-20.481a3.615 3.615 0 0 0 0 7.23h20.481a3.615 3.615 0 0 0 0-7.23z" fill="#3F3D56"/><path opacity=".1" d="M126.97 105.498h-19.284a2.407 2.407 0 1 0 0 4.812h19.284a2.406 2.406 0 1 0 0-4.812z" fill="#000"/><path d="M126.633 105.762h-4.419a2.14 2.14 0 0 0-2.141 2.141v.002a2.14 2.14 0 0 0 2.141 2.141h4.419a2.14 2.14 0 0 0 2.141-2.141v-.002a2.14 2.14 0 0 0-2.141-2.141z" fill="#FF4677"/><path d="M124.357 109.244a1.34 1.34 0 1 0-.001-2.68 1.34 1.34 0 0 0 .001 2.68z" fill="#fff"/><path d="M127.57 56.632h-20.481a3.615 3.615 0 1 0 0 7.23h20.481a3.614 3.614 0 0 0 0-7.23z" fill="#3F3D56"/><path opacity=".1" d="M126.97 57.84h-19.284a2.407 2.407 0 1 0 0 4.81h19.284a2.406 2.406 0 1 0 0-4.81z" fill="#000"/><path d="M108.024 62.39h4.419a2.141 2.141 0 0 0 2.141-2.142v-.002a2.141 2.141 0 0 0-2.141-2.14h-4.419a2.142 2.142 0 0 0-2.142 2.14v.002c0 1.183.959 2.141 2.142 2.141z" fill="#AC3BFA"/><path d="M110.299 61.585a1.339 1.339 0 1 0 0-2.677 1.339 1.339 0 0 0 0 2.677z" fill="#fff"/><path d="M76.298 36.382a9.449 9.449 0 0 1-4.606 8.116l-.129.077-.243.134-.231.121-.036.018a9.222 9.222 0 0 1-1.942.71 9.384 9.384 0 0 1-1.394.231 9.476 9.476 0 0 1-1.904-.016h-.06a7.233 7.233 0 0 1-.356-.046c-.377-.06-.75-.14-1.118-.244l-.183-.054-.16-.05-.053-.018a9.321 9.321 0 0 1-2.503-1.269l-.024-.016-.016-.012-.173-.127-.13-.1a8.847 8.847 0 0 1-.732-.638 9.45 9.45 0 1 1 15.993-6.817z" fill="#AC3BFA"/><path d="M71.318 44.681l-.24.072a.529.529 0 0 1-.37-.122l-.078-.075a.293.293 0 0 0-.184-.102h-.02a.2.2 0 0 1-.083 0 .022.022 0 0 1-.016 0 .1.1 0 0 1-.046-.08 3.944 3.944 0 0 1-.107-.55 5.144 5.144 0 0 1 0-.603v-.478c.027-.18.042-.361.046-.543a2.034 2.034 0 0 0-.054-.575 1.614 1.614 0 0 0-.112-.301 30.134 30.134 0 0 0-.204-1.408.975.975 0 0 0-.326-.981 1.06 1.06 0 0 0-.257-.159 3.244 3.244 0 0 0-.233-.084l-1.262-.402a10.528 10.528 0 0 1-.34-.537 3.752 3.752 0 0 1-.266-.513 2.085 2.085 0 0 0 .521-2.744c-.02-.032-.044-.062-.066-.093a1.351 1.351 0 0 0-.054-.468v-.012a.665.665 0 0 0-.173-.336l-.043-.046a2.338 2.338 0 0 0-.336-.301c-.418-.314-.978-.696-1.49-.823a1.705 1.705 0 0 0-.767 0l-.04-.014-.075-.014.059.028a1.681 1.681 0 0 0-.819.014c-.331.103-.448.374-.589.672a2.999 2.999 0 0 1-1.005 1.186c-.276.189-.603.354-.736.667-.133.314-.038.63-.012.947a2.631 2.631 0 0 1-.955 2.264c-.376.302-.877.553-.959 1.035-.056.344.13.674.273.99.3.671.403 1.49.05 2.13-.033.061-.07.12-.104.176.191.233.402.454.603.667.23.228.47.443.722.645l.129.103.17.127.017.014.024.016c.475.35.982.652 1.516.903a.098.098 0 0 1 .012-.035.135.135 0 0 0 0 .04c.31.146.627.274.95.383l.051.018.159.052.18.054c.363.104.73.187 1.103.248.116.018.233.034.352.046h.058a9.218 9.218 0 0 0 3.25-.22 2.4 2.4 0 0 0 .164-.044 8.995 8.995 0 0 0 1.46-.533c.098-.046.2-.092.29-.14l.037-.018.227-.123a.016.016 0 0 1-.004-.01c0-.003 0-.007.002-.01zm-8.056-.277a.422.422 0 0 0 0-.05.847.847 0 0 1 0-.161.25.25 0 0 1 .036-.089v.097a.546.546 0 0 1-.036.203z" fill="url(#paint0_linear)"/><path opacity=".5" d="M71.318 44.695l-.243.072a.545.545 0 0 1-.374-.12c-.026-.022-.054-.05-.08-.075a.294.294 0 0 0-.188-.1h-.02a.2.2 0 0 1-.084 0 .022.022 0 0 1-.016 0 .107.107 0 0 1-.048-.08 3.856 3.856 0 0 1-.107-.541 5.016 5.016 0 0 1 0-.603v-.473c.026-.178.042-.357.046-.537.01-.19-.009-.381-.054-.567a1.783 1.783 0 0 0-.115-.297c-.032-.268-.072-.535-.11-.804a12.47 12.47 0 0 0-.097-.603c0-.033.016-.065.022-.099a.948.948 0 0 0-.351-.869 1.074 1.074 0 0 0-.262-.156 3.022 3.022 0 0 0-.237-.085l-1.28-.402a13.22 13.22 0 0 1-.344-.529 3.5 3.5 0 0 1-.27-.506 2.01 2.01 0 0 0 .529-2.708c-.02-.033-.044-.06-.067-.09a1.318 1.318 0 0 0-.054-.463.714.714 0 0 0-.044-.153.82.82 0 0 0-.13-.191l-.045-.046a.62.62 0 0 0-.062-.065 2.357 2.357 0 0 0-.284-.219c-.424-.31-.993-.685-1.512-.804a1.75 1.75 0 0 0-.778 0l-.04-.012-.074-.014.058.028a1.732 1.732 0 0 0-.83.014c-.336.1-.455.368-.603.662a2.985 2.985 0 0 1-1.006 1.17c-.28.187-.603.35-.746.659-.142.31-.04.621-.012.935a2.573 2.573 0 0 1-.969 2.234c-.382.297-.89.544-.973 1.02-.058.34.133.666.278.978.303.661.402 1.47.05 2.103-.034.058-.07.117-.107.173.195.23.401.448.62.657.232.226.476.439.731.638l.131.1.173.127.016.012.024.016c.483.346.998.644 1.538.89a1.008 1.008 0 0 1 .06-.137 1.17 1.17 0 0 0 .18-.401.384.384 0 0 0 0-.05.842.842 0 0 1 0-.16.254.254 0 0 1 .036-.086c.022-.04.054-.078.08-.118a.424.424 0 0 0 .038-.067 19.515 19.515 0 0 1 .276.426.516.516 0 0 1 .104.258.422.422 0 0 0 0 .167c.03.07.131.128.093.2a.265.265 0 0 0 0 .238c.026.04.054.078.084.115l.053.018.16.05.183.054a9.724 9.724 0 0 0 1.474.29h.06a9.442 9.442 0 0 0 1.904.016 9.37 9.37 0 0 0 1.394-.231c.056-.012.11-.029.166-.045a9.222 9.222 0 0 0 1.775-.666l.037-.017.231-.12.012-.01z" fill="#fff"/><path d="M76.097 60.307a9.403 9.403 0 0 1-1.685 5.384 8.755 8.755 0 0 1-.927 1.144l-.102.108c-.105.107-.211.201-.322.31a.345.345 0 0 1-.04.038 9.228 9.228 0 0 1-1.53 1.14l-.129.076-.243.135-.165.087-.066.034-.036.018a2.785 2.785 0 0 1-.202.09c-.034.018-.068.032-.102.049l-.201.084a8.349 8.349 0 0 1-.54.213l-.246.082h-.028a.343.343 0 0 1-.06.019l-.047.016-.137.04-.046.014-.058.016-.085.022a.317.317 0 0 1-.058.016l-.143.039a5.4 5.4 0 0 1-.317.07 9.074 9.074 0 0 1-1.076.16 9.4 9.4 0 0 1-.826.04h-.065c-.265 0-.524-.011-.784-.033l-.229-.022h-.096l-.32-.043-.255-.044-.065-.012a5.29 5.29 0 0 1-.353-.076.067.067 0 0 1-.029 0 7.01 7.01 0 0 1-.416-.105l-.183-.054-.16-.05-.053-.019a9.635 9.635 0 0 1-1.59-.695l-.093-.052-.136-.079-.075-.044a10.474 10.474 0 0 1-.603-.402l-.024-.016-.016-.012-.173-.127-.13-.1a9.265 9.265 0 0 1-1.351-1.295 9.45 9.45 0 1 1 16.616-6.164z" fill="#AC3BFA"/><path d="M70.568 68.713a.35.35 0 0 0-.096-.095.464.464 0 0 1-.18-.442.456.456 0 0 0 0-.053 2.738 2.738 0 0 0-.233-.593 5.179 5.179 0 0 1-.166-.422c-.073-.2-.131-.384-.131-.384s0-.018-.01-.052c-.024-.127-.09-.483-.149-.816v-.059c-.074-.43-.786-1.57-.786-1.57a.079.079 0 0 0-.03-.038 17.697 17.697 0 0 1-.702-.386c-.402-.509-.784-.633-1.047-.64h-.099a.668.668 0 0 0-.066 0 .799.799 0 0 0-.105.027l-.038.012a.376.376 0 0 0-.052.022l-.012.098a2.231 2.231 0 0 1 .056-.727l.02-.069h.117a1.972 1.972 0 0 0 1.868-2.515v-.028l.058-.028c.237-.09.543.064.738-.1a.577.577 0 0 0 .147-.258c.054-.132.09-.27.106-.412a.692.692 0 0 0 0-.129v-.026.01a.478.478 0 0 0-.102-.255c-.127-.151-.34-.19-.503-.3a1.26 1.26 0 0 1-.32-.384 1.375 1.375 0 0 0-.311-.39.454.454 0 0 0-.467-.076.548.548 0 0 1-.155.074.324.324 0 0 1-.169-.046c-.552-.263-1.196-.217-1.809-.139-.244.02-.483.079-.71.173a.862.862 0 0 0-.478.533c-.05.189-.012.402-.072.58-.04.127-.123.238-.17.36a.79.79 0 0 0-.044.212v-.012.14c.031.247.078.492.14.733.072.392.035.817.2 1.187a.704.704 0 0 0 .065.128 9.124 9.124 0 0 1-.181.374.856.856 0 0 0-.093-.02h-.072a.302.302 0 0 0-.073 0 .226.226 0 0 0-.05.022l-.02.018-.014.01a.08.08 0 0 0-.016.026.03.03 0 0 0 0 .015.244.244 0 0 0-.02.076v.02c0 .042 0 .084-.012.129-.012.044 0 .05-.01.074a.573.573 0 0 1-.01.062v.017c0 .024-.01.05-.017.074l-.03.09-.012.026a.788.788 0 0 1-.038.077l-.068.07a.078.078 0 0 0-.043.077l-.03.024a.102.102 0 0 0-.042.016c-.014-.032-.07-.032-.245.18a3.325 3.325 0 0 1-.804.624s-1.18.84-1.245 1.228c-.064.389-.444 2.065-.243 2.626.026.073.076.185.143.322v.012s.058.223.15.553c.024.014.049.032.075.046l.136.078.093.055c.201.114.418.223.633.323.312.144.632.27.957.38l.052.018.161.053.183.054c.137.038.276.074.416.107a.07.07 0 0 0 .029 0c.116.03.235.054.353.076l.065.012.255.046.32.042h.096l.23.023c.259.022.518.034.784.034h.064a9.366 9.366 0 0 0 1.902-.203c.106-.02.213-.044.317-.073l.143-.038a.309.309 0 0 0 .058-.016l.085-.022.058-.016.046-.014.137-.04.046-.019a.298.298 0 0 0 .06-.018h.029l.245-.082c.183-.066.364-.139.541-.217l.201-.085c.034-.016.068-.03.103-.05a.6.6 0 0 0-.08-.122zm-3.898-5.326h-.012v-.012l.012.012z" fill="url(#paint1_linear)"/><path opacity=".5" d="M70.568 68.725a.448.448 0 0 0-.096-.093.453.453 0 0 1-.18-.436.415.415 0 0 0 0-.052 2.675 2.675 0 0 0-.233-.586 4.93 4.93 0 0 1-.166-.416c-.073-.2-.131-.38-.131-.38l-.01-.05c-.024-.127-.09-.477-.149-.804v-.058c-.074-.425-.786-1.55-.786-1.55a.07.07 0 0 0-.03-.037 18.838 18.838 0 0 1-.702-.382c-.402-.502-.784-.625-1.047-.631h-.099a.611.611 0 0 0-.066 0 .784.784 0 0 0-.105.026l-.038.012a.368.368 0 0 0-.052.022l-.012.099a2.178 2.178 0 0 1 .056-.72c0-.022.014-.044.02-.066h.117a1.944 1.944 0 0 0 1.868-2.483v-.026l.032-.008c.237-.089.543.064.738-.099a.568.568 0 0 0 .146-.255c.054-.129.09-.264.107-.402a.67.67 0 0 0 0-.127v-.026.01a.473.473 0 0 0-.103-.251c-.126-.151-.34-.187-.502-.298a1.205 1.205 0 0 1-.32-.378 1.386 1.386 0 0 0-.308-.386.452.452 0 0 0-.466-.072.6.6 0 0 1-.155.072.324.324 0 0 1-.169-.046c-.553-.262-1.196-.215-1.81-.137a2.305 2.305 0 0 0-.709.171.853.853 0 0 0-.478.525c-.05.187-.012.39-.073.575-.04.124-.122.233-.169.355a.734.734 0 0 0-.044.202v-.013.139c.031.244.077.486.139.724.072.386.036.804.201 1.172a.753.753 0 0 0 .064.127 8.92 8.92 0 0 1-.18.368.861.861 0 0 0-.093-.02h-.072a.302.302 0 0 0-.073 0 .248.248 0 0 0-.048.02l-.02.018-.014.01a.084.084 0 0 0-.016.026.034.034 0 0 0 0 .014.233.233 0 0 0-.02.076v.02c0 .043 0 .085-.013.127-.012.042 0 .05-.01.075-.01.024 0 .04-.01.06-.01.02 0 .01 0 .016s-.01.05-.016.074l-.03.09-.012.025a.629.629 0 0 1-.038.074.214.214 0 0 1-.038.027.078.078 0 0 0-.043.076l-.03.024a.092.092 0 0 0-.042.014c-.014-.03-.07-.03-.245.18a3.317 3.317 0 0 1-.804.614s-1.18.83-1.245 1.207c-.064.375-.444 2.038-.243 2.591.026.073.076.183.143.318v.012s.058.221.15.547l.075.044.136.078.093.053c.206.115.417.221.633.32.312.141.632.267.957.375l.053.018.16.05.183.055c.137.038.276.074.417.104a.066.066 0 0 0 .028 0c.116.03.235.055.353.077l.065.012.255.044.32.042h.096l.23.022c.259.022.518.035.784.035h.064a9.783 9.783 0 0 0 2.219-.271l.143-.039a.317.317 0 0 0 .059-.016l.084-.022.058-.016.046-.014.137-.04.047-.017c.02-.004.04-.01.06-.018h.028l.245-.082c.183-.065.364-.137.541-.213l.201-.085c.034-.016.069-.03.103-.048a.603.603 0 0 0-.09-.094zm-3.898-5.256h-.012v-.012l.012.012z" fill="#fff"/><path d="M76.298 84.03a9.403 9.403 0 0 1-1.685 5.385 8.804 8.804 0 0 1-.927 1.143l-.102.109c-.105.107-.211.201-.322.31a9.21 9.21 0 0 1-1.57 1.178l-.129.076-.243.135-.118.062h-.015l-.032.018-.066.035-.036.018-.201.09-.103.048-.2.085-.286.118-.151.057-.103.038-.245.082h-.028l-.06.018-.047.017-.136.04-.047.014h-.058l-.084.022a.31.31 0 0 1-.059.016l-.142.038c-.105.026-.212.05-.318.07a9.138 9.138 0 0 1-1.076.161 9.803 9.803 0 0 1-.826.04h-.064a8.86 8.86 0 0 1-.785-.034l-.229-.022h-.096c-.097 0-.201-.024-.29-.038h-.03l-.255-.044-.064-.012a5.317 5.317 0 0 1-.354-.077.067.067 0 0 1-.028 0 7.03 7.03 0 0 1-.417-.104l-.183-.055-.16-.05-.053-.018-.147-.05-.102-.036a4.132 4.132 0 0 1-.22-.085l-.074-.03-.094-.038a8.489 8.489 0 0 1-.94-.452l-.093-.053-.137-.078-.075-.044c-.1-.063-.2-.125-.3-.201a6.84 6.84 0 0 1-.293-.201l-.024-.016-.016-.013-.173-.126-.13-.1a9.265 9.265 0 0 1-1.351-1.295 9.449 9.449 0 1 1 16.592-6.15z" fill="#AC3BFA"/><path opacity=".3" d="M69.42 93.118l.006-.002-.006.002zm-7.414-.316l-.037-.016a.125.125 0 0 0 .037.016z" fill="#6C63FF"/><path d="M76.298 107.955a9.405 9.405 0 0 1-1.685 5.384 8.743 8.743 0 0 1-.922 1.138l-.029.03-.074.079c-.105.106-.211.201-.322.309a.37.37 0 0 1-.04.039c-.05.046-.102.094-.157.138-.2.185-.428.36-.655.525l-.04.028-.083.058c-.036.029-.072.053-.11.079-.16.108-.32.213-.485.311l-.072.045-.057.032-.243.135-.118.062h-.015l-.032.018-.066.034-.036.018-.201.091-.103.048-.2.084-.286.119-.151.056-.103.039-.04.014-.201.068h-.028l-.06.018-.047.016-.054.016-.082.024-.047.014h-.058l-.084.023a.386.386 0 0 1-.059.016l-.142.038a5.61 5.61 0 0 1-.318.07 9.229 9.229 0 0 1-.837.137h-.038l-.2.02a10.25 10.25 0 0 1-.827.04h-.23c-.2 0-.413-.014-.618-.032h-.06l-.17-.016h-.096l-.201-.024-.097-.014h-.03l-.255-.044-.064-.013-.17-.032-.07-.016-.114-.028a.067.067 0 0 1-.028 0 7.054 7.054 0 0 1-.417-.104l-.072-.023h-.026l-.085-.024-.078-.024-.083-.026-.052-.018-.147-.05-.102-.036-.094-.043-.123-.048-.075-.03-.094-.038a8.624 8.624 0 0 1-.776-.366c-.056-.026-.11-.057-.165-.087l-.042-.024-.048-.026-.137-.078-.075-.045a3.49 3.49 0 0 1-.3-.201c-.1-.066-.2-.132-.293-.201l-.024-.016-.016-.012-.082-.06-.09-.067-.017-.012c-.038-.03-.078-.058-.114-.088a9.296 9.296 0 0 1-1.351-1.295 9.452 9.452 0 0 1 .117-12.514 9.446 9.446 0 0 1 12.434-1.422 9.456 9.456 0 0 1 4.037 7.784z" fill="#AC3BFA"/><path opacity=".5" d="M72.939 112.177a.315.315 0 0 0-.181-.155.316.316 0 0 0-.238.018l-2.752 1.408a.335.335 0 0 0-.034-.107.251.251 0 0 0-.113-.201.178.178 0 0 1-.06-.058.583.583 0 0 1 0-.062.182.182 0 0 0-.032-.143.36.36 0 0 0-.151-.258h-.01v-.07a.28.28 0 0 0-.038-.127c-.01-.13-.105-.251-.294-.43a.671.671 0 0 1-.15-.269v-.012c-.035-.131-.069-.278-.117-.426a2.425 2.425 0 0 0-.08-.25c-.15-.384-.312-.334-.379-.402-.066-.068-.498-.155-.72-.269-.186-.097-.804 0-.993.044v-.038a1.864 1.864 0 0 0 1.287-2.168l-.012-.046a.755.755 0 0 0 .286-.056.374.374 0 0 0 .13-.241c.053-.175.065-.359.037-.539 0-.018-.017-.036-.023-.054a.3.3 0 0 0-.014-.047.203.203 0 0 0 0-.048.794.794 0 0 0-.062-.165.028.028 0 0 1 0 .014 5.828 5.828 0 0 0-.463-.621c-.16-.241-.253-.547-.496-.708a1.03 1.03 0 0 0-.41-.111 1.02 1.02 0 0 0-.42.069 2.385 2.385 0 0 1-.39.101 4.115 4.115 0 0 1-.666-.041 1.436 1.436 0 0 0-.885.236.496.496 0 0 0-.144.144.763.763 0 0 0-.065.262 1.265 1.265 0 0 1-.172.476c-.069.117-.155.219-.218.338a.518.518 0 0 0-.058.388c.022.068.062.129.078.201a.736.736 0 0 1-.14.459.869.869 0 0 0-.097.436.56.56 0 0 0 .123.315c.01.029.024.057.04.083l.01.014a.669.669 0 0 0 .04.056l.02.02.04.041a.68.68 0 0 0 .393.122c.01.022.021.044.034.065v.036a.193.193 0 0 0 0 .034c-.012 0-.414.054-.543.223a.782.782 0 0 1-.476.201s-.392.131-.384.165c.008.034-.115.08-.362.147-.248.066-.654.301-.654.36 0 .058-.647.693-.647.76a1.604 1.604 0 0 0-.173.741c.024.435.05.982-.048 1.072-.099.09 0 .44 0 .44a.246.246 0 0 1 0 .262c-.083.148.016.76.016.76v.637c.02.091.033.184.036.277l.016.012.09.067.083.06.016.012.024.016c.097.069.201.135.294.201.098.067.2.129.3.201l.074.045.136.078.049.026.042.024c.054.03.108.061.165.087a7.026 7.026 0 0 0 .776.366l.094.038.075.03.122.048.097.036.102.037.147.05.052.018.083.026.078.024.085.024h.026l.072.022c.137.039.276.075.416.105.01.002.02.002.028 0l.115.028.07.016.17.032.064.012.255.045h.03l.097.014.2.024h.097l.17.016h.06c.2.018.401.028.619.032h.229c.28 0 .553-.016.826-.04l.201-.02h.038a8.418 8.418 0 0 0 .837-.137c.106-.02.213-.044.317-.07l.143-.038a.3.3 0 0 0 .059-.017l.084-.022h.058l.046-.014.083-.024.054-.016.046-.016.06-.018h.029l.2-.068.041-.015.103-.038.15-.056.286-.119.201-.084.103-.048.2-.091.037-.018.066-.034.032-.018h.014l.119-.062.243-.135.056-.032.073-.045a7.951 7.951 0 0 0 .595-.39h.04l.042-.062.04-.028a8.737 8.737 0 0 0 .813-.664 6.684 6.684 0 0 0 .362-.347l.074-.079.028-.03c.093-.094.183-.201.268-.293l-.992-1.987zm-4.582 3.153l-.05.012a.087.087 0 0 1 .015-.043s-.307.013-.619.037a.463.463 0 0 1 .016-.155c.072-.221.124-.448.153-.678l.535.817-.05.01zm.102 1.552a.73.73 0 0 0 0-.081c.018-.012.03-.022.032-.03a2.016 2.016 0 0 0-.03-.267h.048l.565-.089s.075 0 .201-.028l.047.091a2.909 2.909 0 0 0-.724.323c-.014.026-.064.055-.135.081h-.004z" fill="#fff"/><path d="M172.679 33.539l-.804-.804a.429.429 0 0 0-.603 0l-4.998 4.958-2.116-2.131a.423.423 0 0 0-.465-.095.416.416 0 0 0-.138.095l-.804.804a.413.413 0 0 0-.092.138.417.417 0 0 0 0 .327.412.412 0 0 0 .092.138l3.217 3.235a.426.426 0 0 0 .603 0l6.1-6.054a.418.418 0 0 0 .134-.304.414.414 0 0 0-.032-.166.41.41 0 0 0-.094-.141zm0 23.551l-.804-.804a.429.429 0 0 0-.603 0l-4.988 4.966-2.116-2.132a.424.424 0 0 0-.301-.127.422.422 0 0 0-.302.127l-.804.805a.427.427 0 0 0 0 .603l3.217 3.235a.439.439 0 0 0 .301.125.428.428 0 0 0 .302-.125l6.094-6.07a.427.427 0 0 0 .004-.603zm0 47.528l-.804-.804a.435.435 0 0 0-.302-.125.42.42 0 0 0-.301.125l-4.999 4.957-2.115-2.131a.42.42 0 0 0-.465-.093.442.442 0 0 0-.138.093l-.804.805a.42.42 0 0 0-.093.465.442.442 0 0 0 .093.138l3.217 3.235a.429.429 0 0 0 .603 0l6.1-6.056a.42.42 0 0 0 .103-.469.419.419 0 0 0-.095-.14z" fill="#3ACC6C"/><path d="M32.29 21.237c1.194-.906.689-3.583-1.128-5.978-1.817-2.396-4.258-3.604-5.453-2.698-1.194.906-.69 3.582 1.128 5.978 1.817 2.396 4.258 3.603 5.453 2.698z" fill="#6C63FF"/><path opacity=".1" d="M32.29 21.237c1.194-.906.689-3.583-1.128-5.978-1.817-2.396-4.258-3.604-5.453-2.698-1.194.906-.69 3.582 1.128 5.978 1.817 2.396 4.258 3.603 5.453 2.698z" fill="#000"/><path d="M32.19 21.134c1.099-.833.554-3.4-1.216-5.734s-4.096-3.55-5.193-2.718c-1.098.833-.553 3.4 1.217 5.734s4.095 3.55 5.193 2.718z" fill="#6C63FF"/><path opacity=".3" d="M25.758 12.748a24.472 24.472 0 0 0 3.873 5.612c.293.316.603.625.892.935l1.68 1.729" fill="#407D3B"/><path d="M25.05 12.19c1.195-.906.69-3.582-1.127-5.978s-4.259-3.604-5.453-2.698c-1.194.906-.69 3.583 1.128 5.978 1.817 2.396 4.258 3.604 5.452 2.698z" fill="#6C63FF"/><path opacity=".1" d="M25.05 12.19c1.195-.906.69-3.582-1.127-5.978s-4.259-3.604-5.453-2.698c-1.194.906-.69 3.583 1.128 5.978 1.817 2.396 4.258 3.604 5.452 2.698z" fill="#000"/><path d="M24.954 12.087c1.098-.833.553-3.4-1.218-5.733-1.77-2.334-4.095-3.551-5.193-2.718-1.098.832-.552 3.4 1.218 5.733 1.77 2.334 4.095 3.55 5.193 2.718z" fill="#6C63FF"/><path opacity=".3" d="M18.52 3.701a24.472 24.472 0 0 0 3.873 5.612c.293.315.603.625.892.934l1.68 1.73" fill="#407D3B"/><path d="M30.37 11.322c2.045-1.552 3.075-3.636 2.302-4.656-.774-1.02-3.06-.59-5.105.963-2.045 1.551-3.075 3.636-2.301 4.656.773 1.02 3.059.589 5.104-.963z" fill="#6C63FF"/><path opacity=".1" d="M30.37 11.322c2.045-1.552 3.075-3.636 2.302-4.656-.774-1.02-3.06-.59-5.105.963-2.045 1.551-3.075 3.636-2.301 4.656.773 1.02 3.059.589 5.104-.963z" fill="#000"/><path d="M30.248 11.162c1.993-1.512 3.032-3.498 2.32-4.436-.71-.937-2.903-.472-4.896 1.04-1.993 1.513-3.032 3.498-2.32 4.436.711.938 2.903.472 4.896-1.04z" fill="#6C63FF"/><path opacity=".3" d="M32.512 6.703a20.91 20.91 0 0 0-4.791 3.307 57.72 57.72 0 0 0-.805.764l-1.475 1.434" fill="#407D3B"/><path d="M22.792 16.85c2.225-1.28 3.512-3.217 2.874-4.327-.639-1.11-2.96-.972-5.186.308-2.225 1.28-3.512 3.217-2.873 4.327.638 1.11 2.96.972 5.185-.308z" fill="#6C63FF"/><path opacity=".1" d="M22.792 16.85c2.225-1.28 3.512-3.217 2.874-4.327-.639-1.11-2.96-.972-5.186.308-2.225 1.28-3.512 3.217-2.873 4.327.638 1.11 2.96.972 5.185-.308z" fill="#000"/><path d="M22.691 16.677c2.169-1.247 3.451-3.085 2.865-4.106-.587-1.02-2.82-.836-4.99.41-2.168 1.248-3.45 3.086-2.864 4.106.587 1.02 2.82.837 4.99-.41z" fill="#6C63FF"/><path opacity=".3" d="M17.708 17.023a20.863 20.863 0 0 1 4.912-3.127c.336-.15.674-.295 1.005-.438l1.896-.804" fill="#407D3B"/><path d="M25.265 12.458c.436-.337.241-1.32-.435-2.195-.677-.875-1.58-1.31-2.016-.973-.436.338-.242 1.32.435 2.196.677.874 1.579 1.31 2.016.972z" fill="#6C63FF"/><path opacity=".1" d="M25.265 12.458c.436-.337.241-1.32-.435-2.195-.677-.875-1.58-1.31-2.016-.973-.436.338-.242 1.32.435 2.196.677.874 1.579 1.31 2.016.972z" fill="#000"/><path d="M25.236 12.415c.402-.31.193-1.253-.466-2.105-.659-.852-1.518-1.29-1.92-.98-.401.31-.192 1.252.466 2.104.66.852 1.519 1.291 1.92.98z" fill="#6C63FF"/><path opacity=".3" d="M22.877 9.327a9.06 9.06 0 0 1 1.62 1.914c.085.132.168.27.248.402l.452.762" fill="#407D3B"/><path d="M27.76 15.674c.436-.338.241-1.32-.435-2.195-.677-.875-1.58-1.31-2.016-.973-.436.338-.242 1.32.435 2.195.677.875 1.579 1.31 2.015.973z" fill="#6C63FF"/><path opacity=".1" d="M27.76 15.674c.436-.338.241-1.32-.435-2.195-.677-.875-1.58-1.31-2.016-.973-.436.338-.242 1.32.435 2.195.677.875 1.579 1.31 2.015.973z" fill="#000"/><path d="M27.734 15.628c.401-.31.192-1.253-.467-2.105-.659-.852-1.518-1.29-1.92-.98-.4.31-.192 1.253.467 2.105.659.851 1.518 1.29 1.92.98z" fill="#6C63FF"/><path opacity=".3" d="M25.372 12.54a9.003 9.003 0 0 1 1.62 1.913c.087.135.168.27.248.402l.455.762" fill="#407D3B"/><path d="M25.302 12.903a.406.406 0 1 0 0-.812.406.406 0 0 0 0 .812z" fill="#6C63FF"/><path opacity=".3" d="M25.302 12.903a.406.406 0 1 0 0-.812.406.406 0 0 0 0 .812z" fill="#407D3B"/><path d="M193.54 133.321c-.054-.279-1.313-6.91 2.473-15.681 1.481-3.432 1.359-6.39-.36-8.788a8.533 8.533 0 0 0-3.016-2.594l.446-.989a9.588 9.588 0 0 1 3.458 2.952c1.345 1.875 2.52 5.106.475 9.851-3.653 8.472-2.413 14.984-2.413 15.048l-1.063.201z" fill="#6C63FF"/><path d="M199.179 116.966c1.524-.131 2.791-.273 2.831.201.04.475-1.16 1.385-2.682 1.516s-2.791-.149-2.831-.623c-.04-.475 1.16-.963 2.682-1.094z" fill="#6C63FF"/><path opacity=".1" d="M199.179 116.966c1.524-.131 2.791-.273 2.831.201.04.475-1.16 1.385-2.682 1.516s-2.791-.149-2.831-.623c-.04-.475 1.16-.963 2.682-1.094z" fill="#000"/><path d="M199.185 116.97c1.484-.126 2.714-.323 2.749.081.034.404-1.14 1.252-2.624 1.379-1.484.126-2.714-.097-2.748-.499-.035-.402 1.139-.832 2.623-.961z" fill="#6C63FF"/><path opacity=".3" d="M196.584 117.947a21.367 21.367 0 0 0 3.456-.201c.217-.03.432-.064.647-.098.402-.063.804-.547 1.206-.603" fill="#407D3B"/><path d="M196.509 125.816c1.522-.128 2.791-.271 2.831.201.04.473-1.16 1.388-2.684 1.518-1.524.131-2.788-.148-2.831-.623-.042-.474 1.162-.965 2.684-1.096z" fill="#6C63FF"/><path opacity=".1" d="M196.509 125.816c1.522-.128 2.791-.271 2.831.201.04.473-1.16 1.388-2.684 1.518-1.524.131-2.788-.148-2.831-.623-.042-.474 1.162-.965 2.684-1.096z" fill="#000"/><path d="M196.515 125.822c1.484-.126 2.714-.323 2.749.079.034.402-1.14 1.254-2.614 1.381s-2.714-.097-2.748-.499c-.035-.402 1.13-.834 2.613-.961z" fill="#6C63FF"/><path opacity=".3" d="M193.914 126.799a21.597 21.597 0 0 0 4.103-.299c.402-.062.804-.547 1.206-.603" fill="#407D3B"/><path d="M194.225 116.184c-1.425-.553-2.601-1.045-2.774-.603-.173.442.724 1.657 2.147 2.212 1.424.554 2.72.643 2.893.201.173-.443-.842-1.255-2.266-1.81z" fill="#6C63FF"/><path opacity=".1" d="M194.225 116.184c-1.425-.553-2.601-1.045-2.774-.603-.173.442.724 1.657 2.147 2.212 1.424.554 2.72.643 2.893.201.173-.443-.842-1.255-2.266-1.81z" fill="#000"/><path d="M194.213 116.198c-1.387-.539-2.513-1.075-2.66-.697-.146.378.742 1.524 2.129 2.062 1.388.539 2.632.672 2.779.296.147-.376-.856-1.13-2.248-1.661z" fill="#6C63FF"/><path opacity=".3" d="M196.439 117.857a21.523 21.523 0 0 1-3.259-1.17c-.201-.091-.402-.185-.603-.278-.368-.173-.617-.75-.983-.925" fill="#407D3B"/><path d="M191.849 125.058c-1.425-.554-2.602-1.047-2.775-.603-.172.445.724 1.657 2.15 2.212 1.425.555 2.718.643 2.891.201.173-.442-.843-1.257-2.266-1.81z" fill="#6C63FF"/><path opacity=".1" d="M191.849 125.058c-1.425-.554-2.602-1.047-2.775-.603-.172.445.724 1.657 2.15 2.212 1.425.555 2.718.643 2.891.201.173-.442-.843-1.257-2.266-1.81z" fill="#000"/><path d="M191.841 125.06c-1.387-.538-2.513-1.073-2.66-.697-.147.376.742 1.524 2.129 2.065 1.387.54 2.632.671 2.779.293.146-.378-.861-1.12-2.248-1.661z" fill="#6C63FF"/><path opacity=".3" d="M194.063 126.731a21.786 21.786 0 0 1-3.861-1.449c-.366-.173-.615-.75-.983-.923" fill="#407D3B"/><path d="M191.31 126.902c-1.451.476-2.674.842-2.525 1.297.149.454 1.608.818 3.064.342 1.456-.477 2.507-1.231 2.364-1.687-.142-.457-1.451-.431-2.903.048z" fill="#6C63FF"/><path opacity=".1" d="M191.31 126.902c-1.451.476-2.674.842-2.525 1.297.149.454 1.608.818 3.064.342 1.456-.477 2.507-1.231 2.364-1.687-.142-.457-1.451-.431-2.903.048z" fill="#000"/><path d="M191.306 126.908c-1.407.464-2.614.766-2.497 1.152.117.386 1.54.706 2.956.241 1.415-.464 2.458-1.154 2.332-1.538-.127-.384-1.376-.311-2.791.145z" fill="#6C63FF"/><path opacity=".3" d="M194.083 126.785a21.357 21.357 0 0 1-3.261 1.167l-.634.162c-.402.101-.953-.187-1.347-.088" fill="#407D3B"/><path d="M202.439 107.469c.279-1.148-1.362-2.533-3.666-3.093s-4.397-.083-4.676 1.065c-.279 1.148 1.362 2.533 3.666 3.093 2.303.559 4.397.083 4.676-1.065z" fill="#6C63FF"/><path opacity=".1" d="M202.439 107.469c.279-1.148-1.362-2.533-3.666-3.093s-4.397-.083-4.676 1.065c-.279 1.148 1.362 2.533 3.666 3.093 2.303.559 4.397.083 4.676-1.065z" fill="#000"/><path d="M202.327 107.453c.256-1.056-1.354-2.355-3.597-2.9-2.243-.545-4.27-.131-4.527.926-.256 1.056 1.354 2.354 3.597 2.899 2.243.546 4.27.131 4.527-.925z" fill="#6C63FF"/><path opacity=".3" d="M194.213 105.518a19.228 19.228 0 0 0 5.159 1.5c.338.049.676.089 1.005.129l1.886.221" fill="#407D3B"/><path d="M196.144 101.385c.524-2.312.014-4.398-1.138-4.66-1.152-.26-2.511 1.403-3.035 3.715-.523 2.312-.013 4.398 1.139 4.659 1.152.261 2.511-1.402 3.034-3.714z" fill="#6C63FF"/><path opacity=".1" d="M196.144 101.385c.524-2.312.014-4.398-1.138-4.66-1.152-.26-2.511 1.403-3.035 3.715-.523 2.312-.013 4.398 1.139 4.659 1.152.261 2.511-1.402 3.034-3.714z" fill="#000"/><path d="M195.988 101.35c.51-2.252.064-4.271-.996-4.512-1.061-.24-2.333 1.39-2.843 3.642-.51 2.252-.064 4.271.996 4.511 1.06.241 2.333-1.39 2.843-3.641z" fill="#6C63FF"/><path opacity=".3" d="M193.192 104.968a19.301 19.301 0 0 0 1.423-5.185c.045-.336.079-.676.113-1.006l.201-1.89" fill="#407D3B"/><path d="M194.004 110.707c.524-2.313.014-4.398-1.138-4.659-1.153-.261-2.511 1.402-3.035 3.714-.523 2.312-.014 4.398 1.139 4.658 1.152.261 2.51-1.401 3.034-3.713z" fill="#6C63FF"/><path opacity=".1" d="M194.004 110.707c.524-2.313.014-4.398-1.138-4.659-1.153-.261-2.511 1.402-3.035 3.714-.523 2.312-.014 4.398 1.139 4.658 1.152.261 2.51-1.401 3.034-3.713z" fill="#000"/><path d="M193.848 110.672c.509-2.252.063-4.272-.997-4.512-1.06-.24-2.333 1.391-2.843 3.642-.51 2.252-.063 4.271.997 4.511 1.06.24 2.333-1.39 2.843-3.641z" fill="#6C63FF"/><path opacity=".3" d="M191.053 114.288a19.332 19.332 0 0 0 1.419-5.185c.042-.336.079-.675.113-1.005l.201-1.89" fill="#407D3B"/><path d="M192.012 105.228c.279-1.148-1.362-2.533-3.666-3.092-2.303-.56-4.397-.083-4.676 1.065-.279 1.148 1.362 2.532 3.666 3.092 2.303.56 4.397.083 4.676-1.065z" fill="#6C63FF"/><path opacity=".1" d="M192.012 105.228c.279-1.148-1.362-2.533-3.666-3.092-2.303-.56-4.397-.083-4.676 1.065-.279 1.148 1.362 2.532 3.666 3.092 2.303.56 4.397.083 4.676-1.065z" fill="#000"/><path d="M191.9 105.214c.256-1.056-1.354-2.354-3.597-2.9-2.243-.545-4.27-.13-4.526.926-.257 1.056 1.353 2.354 3.596 2.9 2.243.545 4.27.13 4.527-.926z" fill="#6C63FF"/><path opacity=".3" d="M183.781 103.279a19.282 19.282 0 0 0 5.161 1.502c.336.048.673.088 1.005.128l1.888.222" fill="#407D3B"/><path d="M197.552 111.396c.805-.611.465-2.415-.76-4.029-1.224-1.615-2.87-2.429-3.675-1.818-.805.611-.465 2.414.76 4.029 1.225 1.614 2.87 2.428 3.675 1.818z" fill="#6C63FF"/><path opacity=".1" d="M197.552 111.396c.805-.611.465-2.415-.76-4.029-1.224-1.615-2.87-2.429-3.675-1.818-.805.611-.465 2.414.76 4.029 1.225 1.614 2.87 2.428 3.675 1.818z" fill="#000"/><path d="M197.486 111.326c.741-.562.374-2.292-.819-3.865-1.193-1.573-2.761-2.393-3.501-1.831-.741.562-.374 2.292.819 3.865 1.193 1.573 2.761 2.393 3.501 1.831z" fill="#6C63FF"/><path opacity=".3" d="M193.148 105.661c.69 1.377 1.57 2.65 2.613 3.782.201.213.402.422.603.631l1.132 1.164" fill="#407D3B"/><path d="M192.758 106.564c.808-.606.478-2.412-.738-4.033-1.216-1.621-2.857-2.444-3.665-1.838-.809.607-.478 2.412.738 4.033 1.215 1.621 2.856 2.444 3.665 1.838z" fill="#6C63FF"/><path opacity=".1" d="M192.758 106.564c.808-.606.478-2.412-.738-4.033-1.216-1.621-2.857-2.444-3.665-1.838-.809.607-.478 2.412.738 4.033 1.215 1.621 2.856 2.444 3.665 1.838z" fill="#000"/><path d="M192.609 105.227c.741-.561.374-2.292-.819-3.865-1.193-1.572-2.761-2.392-3.501-1.83-.741.561-.374 2.291.819 3.864s2.761 2.393 3.501 1.831z" fill="#6C63FF"/><path opacity=".3" d="M188.27 99.563c.69 1.377 1.57 2.65 2.614 3.782.201.215.402.422.603.631l1.132 1.164" fill="#407D3B"/><path d="M196.259 104.716c1.378-1.046 2.073-2.451 1.551-3.138-.521-.688-2.061-.397-3.44.649-1.378 1.045-2.072 2.45-1.551 3.137.522.688 2.062.397 3.44-.648z" fill="#6C63FF"/><path opacity=".1" d="M196.259 104.716c1.378-1.046 2.073-2.451 1.551-3.138-.521-.688-2.061-.397-3.44.649-1.378 1.045-2.072 2.45-1.551 3.137.522.688 2.062.397 3.44-.648z" fill="#000"/><path d="M196.177 104.608c1.343-1.019 2.043-2.357 1.563-2.988-.479-.632-1.956-.318-3.299.701-1.342 1.019-2.042 2.357-1.563 2.988.479.632 1.956.318 3.299-.701z" fill="#6C63FF"/><path opacity=".3" d="M197.699 101.588a14.008 14.008 0 0 0-3.228 2.23c-.183.167-.36.339-.539.512l-1.005.967" fill="#407D3B"/><path d="M191.148 108.442c1.5-.862 2.367-2.167 1.937-2.915-.43-.748-1.994-.655-3.494.207-1.5.862-2.367 2.168-1.937 2.916.43.748 1.995.655 3.494-.208z" fill="#6C63FF"/><path opacity=".1" d="M191.148 108.442c1.5-.862 2.367-2.167 1.937-2.915-.43-.748-1.994-.655-3.494.207-1.5.862-2.367 2.168-1.937 2.916.43.748 1.995.655 3.494-.208z" fill="#000"/><path d="M191.082 108.326c1.461-.841 2.325-2.079 1.93-2.766-.395-.687-1.9-.563-3.361.277-1.461.84-2.326 2.078-1.93 2.766.395.687 1.9.563 3.361-.277z" fill="#6C63FF"/><path opacity=".3" d="M187.723 108.542c1-.853 2.115-1.562 3.312-2.107.225-.102.454-.201.681-.295l1.279-.541" fill="#407D3B"/><path d="M192.814 105.465c.294-.227.163-.889-.293-1.479-.455-.589-1.064-.882-1.358-.655-.294.228-.163.89.293 1.479.456.59 1.064.883 1.358.655z" fill="#6C63FF"/><path opacity=".1" d="M192.814 105.465c.294-.227.163-.889-.293-1.479-.455-.589-1.064-.882-1.358-.655-.294.228-.163.89.293 1.479.456.59 1.064.883 1.358.655z" fill="#000"/><path d="M192.797 105.436c.271-.209.13-.844-.315-1.419-.444-.574-1.023-.87-1.294-.661-.27.209-.129.845.315 1.419.444.574 1.024.87 1.294.661z" fill="#6C63FF"/><path opacity=".3" d="M191.208 103.355c.422.378.789.812 1.091 1.291.057.09.113.181.167.273l.306.513" fill="#407D3B"/><path d="M194.498 107.632c.294-.228.163-.89-.293-1.479-.456-.59-1.064-.883-1.358-.655-.294.227-.163.889.293 1.479.456.589 1.064.882 1.358.655z" fill="#6C63FF"/><path opacity=".1" d="M194.498 107.632c.294-.228.163-.89-.293-1.479-.456-.59-1.064-.883-1.358-.655-.294.227-.163.889.293 1.479.456.589 1.064.882 1.358.655z" fill="#000"/><path d="M194.478 107.602c.271-.209.13-.844-.314-1.419-.445-.574-1.024-.87-1.295-.661-.27.21-.129.845.315 1.419.444.575 1.024.871 1.294.661z" fill="#6C63FF"/><path opacity=".3" d="M192.888 105.521a6.003 6.003 0 0 1 1.259 1.564l.306.512" fill="#407D3B"/><g opacity=".1" fill="#6C63FF"><path opacity=".1" d="M24.375 119.493a24.368 24.368 0 0 1 .056-4.676c0-.07.014-.143.022-.215.015-.129.03-.26.047-.392 0-.04 0-.083.016-.125a14.463 14.463 0 0 1 .064-.49 31.69 31.69 0 0 1 2.14-7.662l.076-.179c.026-.063.052-.127.08-.191.028-.065.032-.073.046-.109.014-.036.027-.06.039-.09.068-.165.132-.326.2-.485v-.02c.96-2.549.962-4.624.541-6.269a8.252 8.252 0 0 0-1.295-2.778l-.094-.127a3.401 3.401 0 0 0-.2-.253 9.705 9.705 0 0 0-2.027-1.886l-.125-.085a4.819 4.819 0 0 0-.185-.12l-.155-.097a9.986 9.986 0 0 0-.245-.146l-.12-.065c-.16-.088-.258-.132-.274-.14l-.024.054-.038.082v.03l-.02.04v.027l-.03.068v.012l-.025.056v.017l-.05.112-.103.225-.012.028-.024.05-.024.057-.054.119.076.038.044.024a.018.018 0 0 1 .012 0h.012l.025.012.046.024.139.079.088.05c.163.096.36.223.58.378l.2.15.097.073c.094.072.2.153.291.235l.083.075c.056.046.114.098.17.15l.027.025a8.295 8.295 0 0 1 1.1 1.238 7.178 7.178 0 0 1 1.184 2.612.795.795 0 0 1 .02.096c.362 1.687.126 3.571-.706 5.629a.11.11 0 0 1 0 .023c-.044.108-.088.217-.137.327v.014a1.397 1.397 0 0 0-.034.081l-.14.334c-.03.07-.059.14-.087.201a32.825 32.825 0 0 0-2.115 7.639v.021c-.022.15-.044.299-.063.446v.046a.067.067 0 0 0 0 .02v.036c-.014.117-.028.234-.04.348l-.012.113c0 .032 0 .062-.01.094a13.357 13.357 0 0 0-.066.686 25.167 25.167 0 0 0-.054 3.651l1.067.655z"/><path opacity=".1" d="M29.027 104.479c1.506-.129 2.759-.269 2.799.201.04.471-1.148 1.371-2.654 1.5s-2.76-.147-2.8-.615c-.04-.469 1.148-.957 2.655-1.086z"/><path opacity=".1" d="M29.027 104.479c1.506-.129 2.759-.269 2.799.201.04.471-1.148 1.371-2.654 1.5s-2.76-.147-2.8-.615c-.04-.469 1.148-.957 2.655-1.086z"/><path opacity=".1" d="M29.031 104.485c1.468-.127 2.686-.322 2.72.079.035.4-1.127 1.24-2.595 1.365-1.468.124-2.686-.095-2.72-.495-.034-.4 1.128-.824 2.595-.949z"/><path opacity=".3" d="M26.458 105.45a21.466 21.466 0 0 0 3.418-.201l.641-.098c.402-.063.794-.541 1.19-.604l-5.249.903z"/><path opacity=".1" d="M26.386 113.237c1.506-.129 2.76-.27 2.8.201.04.47-1.15 1.371-2.656 1.5-1.506.128-2.76-.147-2.806-.618-.047-.47 1.154-.955 2.662-1.083z"/><path opacity=".1" d="M26.386 113.237c1.506-.129 2.76-.27 2.8.201.04.47-1.15 1.371-2.656 1.5-1.506.128-2.76-.147-2.806-.618-.047-.47 1.154-.955 2.662-1.083z"/><path opacity=".1" d="M26.39 113.241c1.467-.125 2.686-.32 2.72.078.034.398-1.128 1.241-2.596 1.367-1.467.127-2.684-.096-2.718-.498-.034-.402 1.134-.821 2.594-.947z"/><path opacity=".3" d="M23.816 114.208a21.233 21.233 0 0 0 3.418-.201c.215-.03.428-.065.641-.097.402-.062.805-.541 1.19-.603l-5.249.901z"/><path opacity=".1" d="M24.126 103.707c-1.408-.547-2.572-1.035-2.742-.603-.171.432.715 1.639 2.123 2.185 1.407.547 2.69.638 2.86.201.171-.436-.834-1.234-2.241-1.783z"/><path opacity=".1" d="M24.126 103.707c-1.408-.547-2.572-1.035-2.742-.603-.171.432.715 1.639 2.123 2.185 1.407.547 2.69.638 2.86.201.171-.436-.834-1.234-2.241-1.783z"/><path opacity=".1" d="M24.126 103.711c-1.373-.535-2.487-1.063-2.632-.691-.145.371.734 1.507 2.105 2.042 1.371.535 2.604.664 2.748.292.145-.372-.858-1.11-2.221-1.643z"/><path opacity=".3" d="M26.315 105.362a21.337 21.337 0 0 1-3.216-1.158l-.596-.27c-.361-.171-.603-.742-.973-.913l4.785 2.341z"/><path opacity=".1" d="M21.773 112.485c-1.407-.549-2.573-1.036-2.744-.603-.17.432.716 1.638 2.125 2.185 1.41.547 2.69.637 2.861.201.171-.436-.832-1.234-2.242-1.783z"/><path opacity=".1" d="M21.773 112.485c-1.407-.549-2.573-1.036-2.744-.603-.17.432.716 1.638 2.125 2.185 1.41.547 2.69.637 2.861.201.171-.436-.832-1.234-2.242-1.783z"/><path opacity=".1" d="M21.767 112.489c-1.373-.535-2.486-1.064-2.631-.692-.145.372.732 1.508 2.105 2.043 1.373.535 2.603.663 2.748.291.145-.371-.85-1.109-2.222-1.642z"/><path opacity=".3" d="M23.965 114.139a21.232 21.232 0 0 1-3.217-1.158l-.587-.275c-.362-.171-.603-.742-.973-.913l4.777 2.346z"/><path opacity=".1" d="M21.24 114.308c-1.435.473-2.643.835-2.496 1.283.147.448 1.594.804 3.03.34 1.435-.465 2.48-1.218 2.334-1.665-.147-.446-1.43-.428-2.867.042z"/><path opacity=".1" d="M21.24 114.308c-1.435.473-2.643.835-2.496 1.283.147.448 1.594.804 3.03.34 1.435-.465 2.48-1.218 2.334-1.665-.147-.446-1.43-.428-2.867.042z"/><path opacity=".1" d="M21.237 114.316c-1.408.459-2.596.758-2.47 1.138.128.38 1.523.698 2.922.24 1.4-.459 2.433-1.142 2.308-1.522-.125-.38-1.361-.316-2.76.144z"/><path opacity=".3" d="M23.985 114.188a20.984 20.984 0 0 1-3.227 1.154c-.2.056-.418.108-.627.161-.39.098-.943-.185-1.333-.087l5.187-1.228z"/><path opacity=".1" d="M32.24 95.08c.275-1.137-1.348-2.507-3.627-3.06-2.279-.555-4.35-.083-4.626 1.054-.276 1.136 1.348 2.506 3.626 3.06 2.279.553 4.35.081 4.626-1.055z"/><path opacity=".1" d="M32.24 95.08c.275-1.137-1.348-2.507-3.627-3.06-2.279-.555-4.35-.083-4.626 1.054-.276 1.136 1.348 2.506 3.626 3.06 2.279.553 4.35.081 4.626-1.055z"/><path opacity=".1" d="M32.129 95.066c.253-1.045-1.34-2.329-3.56-2.868-2.219-.54-4.224-.13-4.478.914-.254 1.045 1.34 2.329 3.56 2.868 2.219.54 4.224.13 4.478-.914z"/><path opacity=".3" d="M24.108 93.154a19.103 19.103 0 0 0 5.106 1.486c.332.048.668.086 1.006.126l1.865.218-7.977-1.83z"/><path opacity=".1" d="M26.016 89.065c.518-2.287.014-4.35-1.127-4.609-1.14-.258-2.485 1.387-3.002 3.674-.518 2.287-.014 4.35 1.127 4.609 1.14.258 2.484-1.387 3.002-3.674z"/><path opacity=".1" d="M26.016 89.065c.518-2.287.014-4.35-1.127-4.609-1.14-.258-2.485 1.387-3.002 3.674-.518 2.287-.014 4.35 1.127 4.609 1.14.258 2.484-1.387 3.002-3.674z"/><path opacity=".1" d="M25.86 89.03c.505-2.228.064-4.226-.985-4.463-1.048-.238-2.307 1.376-2.811 3.603-.505 2.228-.064 4.226.985 4.464 1.048.237 2.307-1.376 2.811-3.604z"/><path opacity=".3" d="M23.102 92.61a19.16 19.16 0 0 0 1.408-5.128c.042-.333.076-.67.11-1.005l.19-1.87-1.708 8.002z"/><path opacity=".1" d="M23.9 98.285c.518-2.287.013-4.35-1.127-4.609-1.14-.258-2.485 1.387-3.003 3.674-.518 2.287-.013 4.35 1.127 4.609 1.14.258 2.485-1.387 3.003-3.674z"/><path opacity=".1" d="M23.9 98.285c.518-2.287.013-4.35-1.127-4.609-1.14-.258-2.485 1.387-3.003 3.674-.518 2.287-.013 4.35 1.127 4.609 1.14.258 2.485-1.387 3.003-3.674z"/><path opacity=".1" d="M23.745 98.252c.505-2.227.064-4.225-.984-4.463-1.049-.237-2.307 1.376-2.812 3.604-.504 2.227-.063 4.226.985 4.463 1.048.237 2.307-1.376 2.811-3.604z"/><path opacity=".3" d="M20.985 101.831a19.038 19.038 0 0 0 1.408-5.129c.042-.333.076-.669.11-1.005l.19-1.87-1.708 8.004z"/><path opacity=".1" d="M21.922 92.865c.276-1.136-1.347-2.506-3.626-3.06-2.279-.554-4.35-.082-4.626 1.055-.276 1.136 1.348 2.506 3.626 3.06 2.279.553 4.35.081 4.626-1.055z"/><path opacity=".1" d="M21.922 92.865c.276-1.136-1.347-2.506-3.626-3.06-2.279-.554-4.35-.082-4.626 1.055-.276 1.136 1.348 2.506 3.626 3.06 2.279.553 4.35.081 4.626-1.055z"/><path opacity=".1" d="M21.811 92.851c.254-1.044-1.34-2.328-3.558-2.867-2.22-.54-4.225-.13-4.479.914-.253 1.044 1.34 2.328 3.56 2.868 2.219.54 4.224.13 4.477-.915z"/><path opacity=".3" d="M13.792 90.94a19.1 19.1 0 0 0 5.106 1.486c.332.048.668.087 1.006.125l1.866.219-7.978-1.83z"/><path opacity=".1" d="M27.411 98.96c.796-.603.46-2.387-.751-3.984-1.212-1.597-2.839-2.402-3.635-1.798-.796.604-.46 2.388.751 3.985 1.212 1.597 2.839 2.402 3.635 1.798z"/><path opacity=".1" d="M27.411 98.96c.796-.603.46-2.387-.751-3.984-1.212-1.597-2.839-2.402-3.635-1.798-.796.604-.46 2.388.751 3.985 1.212 1.597 2.839 2.402 3.635 1.798z"/><path opacity=".1" d="M27.346 98.893c.733-.556.37-2.268-.81-3.824-1.18-1.556-2.731-2.367-3.464-1.812-.732.556-.37 2.268.811 3.824 1.18 1.556 2.731 2.367 3.463 1.812z"/><path opacity=".3" d="M23.06 93.297a16.331 16.331 0 0 0 2.582 3.741c.2.201.402.418.603.624l1.12 1.151-4.305-5.516z"/><path opacity=".1" d="M22.584 92.926c.797-.604.46-2.388-.75-3.985-1.212-1.597-2.84-2.401-3.636-1.797-.796.603-.46 2.387.752 3.984 1.21 1.597 2.838 2.402 3.634 1.798z"/><path opacity=".1" d="M22.584 92.926c.797-.604.46-2.388-.75-3.985-1.212-1.597-2.84-2.401-3.636-1.797-.796.603-.46 2.387.752 3.984 1.21 1.597 2.838 2.402 3.634 1.798z"/><path opacity=".1" d="M22.521 92.86c.732-.556.37-2.268-.81-3.824-1.181-1.556-2.732-2.367-3.464-1.812-.733.556-.37 2.268.81 3.824 1.18 1.556 2.732 2.367 3.464 1.812z"/><path opacity=".3" d="M18.235 87.265a16.287 16.287 0 0 0 2.582 3.74c.2.213.402.418.603.625l1.12 1.152-4.305-5.517z"/><path opacity=".1" d="M26.13 92.35c1.364-1.034 2.052-2.425 1.536-3.105-.517-.68-2.04-.393-3.405.642-1.364 1.035-2.051 2.425-1.535 3.106.516.68 2.04.392 3.404-.642z"/><path opacity=".1" d="M26.13 92.35c1.364-1.034 2.052-2.425 1.536-3.105-.517-.68-2.04-.393-3.405.642-1.364 1.035-2.051 2.425-1.535 3.106.516.68 2.04.392 3.404-.642z"/><path opacity=".1" d="M26.048 92.244c1.329-1.008 2.021-2.332 1.547-2.958-.475-.625-1.936-.315-3.265.693-1.329 1.008-2.021 2.332-1.546 2.958.474.625 1.936.315 3.264-.693z"/><path opacity=".3" d="M27.562 89.258a13.968 13.968 0 0 0-3.195 2.211 42.32 42.32 0 0 0-.533.509l-.983.957 4.71-3.677z"/><path opacity=".1" d="M21.075 96.037c1.484-.853 2.343-2.145 1.917-2.885-.426-.74-1.974-.649-3.458.205-1.485.853-2.343 2.145-1.917 2.886.425.74 1.974.648 3.458-.206z"/><path opacity=".1" d="M21.075 96.037c1.484-.853 2.343-2.145 1.917-2.885-.426-.74-1.974-.649-3.458.205-1.485.853-2.343 2.145-1.917 2.886.425.74 1.974.648 3.458-.206z"/><path opacity=".1" d="M21.01 95.92c1.445-.831 2.3-2.057 1.909-2.737-.392-.68-1.88-.559-3.327.273-1.445.831-2.3 2.057-1.909 2.737.391.68 1.88.559 3.326-.273z"/><path opacity=".3" d="M17.692 96.148a13.872 13.872 0 0 1 3.275-2.085c.224-.1.45-.201.676-.294l1.264-.532-5.215 2.91z"/><path opacity=".1" d="M22.732 93.103c.29-.225.16-.88-.29-1.463-.451-.583-1.053-.874-1.344-.649-.29.225-.16.88.29 1.463.452.584 1.053.874 1.344.65z"/><path opacity=".1" d="M22.732 93.103c.29-.225.16-.88-.29-1.463-.451-.583-1.053-.874-1.344-.649-.29.225-.16.88.29 1.463.452.584 1.053.874 1.344.65z"/><path opacity=".1" d="M22.713 93.075c.267-.206.128-.834-.312-1.403-.44-.568-1.012-.861-1.28-.655-.266.207-.126.835.313 1.403.44.569 1.012.862 1.28.655z"/><path opacity=".3" d="M21.138 91.015c.419.373.783.802 1.082 1.277.056.088.11.18.165.271l.301.507-1.548-2.055z"/><path opacity=".1" d="M24.397 95.246c.29-.225.16-.88-.29-1.463-.451-.584-1.053-.874-1.343-.65-.291.226-.161.88.29 1.464.45.583 1.052.873 1.343.649z"/><path opacity=".1" d="M24.397 95.246c.29-.225.16-.88-.29-1.463-.451-.584-1.053-.874-1.343-.65-.291.226-.161.88.29 1.464.45.583 1.052.873 1.343.649z"/><path opacity=".1" d="M24.377 95.216c.267-.206.127-.834-.312-1.403-.44-.568-1.013-.861-1.28-.655-.267.207-.127.835.313 1.403.44.568 1.012.862 1.28.655z"/><path opacity=".3" d="M22.803 93.158a6.032 6.032 0 0 1 1.246 1.546l.302.509-1.548-2.055z"/><path opacity=".1" d="M22.757 93.4a.27.27 0 1 0 0-.54.27.27 0 0 0 0 .54z"/><path opacity=".3" d="M22.757 93.4a.27.27 0 1 0 0-.54.27.27 0 0 0 0 .54z"/></g><path d="M32.908 90.084c.36.549.717 1.77.7 1.98-.019.212 1.005 1.345 1.29 1.7.238.329.448.678.627 1.043l.951 1.769a9.466 9.466 0 0 0 1.701-.762l.342.038c.263-.025.525-.065.784-.12 0 .044-.012.088-.016.13-.163 1.321-.283 2.413-.283 2.413s.321 1.168.77.804l.024-.02c.012.056.024.12.036.2.174.906.25 1.828.227 2.749-.09 1.361.201 3.432.201 3.432s.623-.052 1.542-.108a47.016 47.016 0 0 0 .368.938l.018.047.04.098.026.067.037.086.042.101.026.066.056.135a.417.417 0 0 1 .02.044c.017.036.03.074.047.11l.02.043.048.11.014.032a7.1 7.1 0 0 0 .185.39v.014l.05.095v.014l.05.089c.017.03.035.056.049.08.402.619.7 1.733.7 1.733l.375 2.282s.079.553.113 1.049c.012.181.018.354.014.491 0 .038 0 .117.01.229a.35.35 0 0 1 0 .048c.034.415.12 1.207.23 2.129.021.187.044.378.068.573a25.387 25.387 0 0 0 .062 3.459s-.27 4.298-.201 4.704c.042.235-.157.762-.332 1.206l-.054-.048s-.96 1.005-.941 2.163c.018 1.158.109 2.725.109 2.725s.088.635-.109.804c-.197.169 0 1.061 0 1.061s1.685 1.544 3.1-.128c0 0 .278-.957.163-1.573-.01-.05-.02-.114-.032-.201a18.419 18.419 0 0 0-.161-1.998l-.165-1.206c.177-.018.447-.973.322-1.207-.125-.233.108-1.206.108-1.206l.423-1.305.054.131v.018a.45.45 0 0 1 .022.056v.018l.078.202.025.07v.014c.026.072.05.147.072.221l.02.068v.017c.02.072.038.14.052.201v.014l.012.058v.08a.792.792 0 0 1 0 .141v.167c-.064.464-.02.936.129 1.379v.02c0 .02.014.039.022.057a.798.798 0 0 0 .125.233l-.054 4.624s.663 1.021 2.187.804c1.524-.217 1.309-1.876 1.094-2.141-.215-.265-.322-1.432-.322-1.432s-.27-1.911-.448-2.601a.825.825 0 0 0-.419-.603c-.068-.217-.164-.418-.172-.449a5.627 5.627 0 0 1-.39-.924.727.727 0 0 1-.025-.332 1.093 1.093 0 0 0 0-.217v-.195c-.046-1.158-.317-4.355-.464-6.016.237-1.22.39-2.181.356-2.306-.09-.317.143-2.635.143-2.635s.287-2.353.681-3.097c.262-.49.774-2.338 1.09-3.53l.056-.217c.336-.011.665-.089.97-.231 0 0-.234-2.053.339-3.115.402-.727.67-3.952.677-6.071v-.308c.477.402.805.95.921.895a26.088 26.088 0 0 0 3.364-2.077c1.307-1.062-2.348-7.025-2.76-7.483-.413-.459-1.261-5.766-1.261-5.766.128.166.303.289.503.354.269.052.77.424 1.326.888.557.465 3.1 0 3.1 0 1.848.089 2.188-1.485 2.188-1.485s.915-2.124.95-2.884c.037-.76 1.408-3.82 1.408-3.82a2.973 2.973 0 0 0-1.234-1.11c.1-.327.245-.602.446-.693.573-.25 6.954-2.614 4.695-3.418-2.26-.804-5.736 1.81-5.736 1.81s-.18.06-.465.643c-.15.308-.346.83-.498 1.257a4.876 4.876 0 0 0-.046.13l-.101.01s-.824 1.788-.824 2.212c0 .424-1.006 2.459-1.006 2.459s-.5.514-.321.92c.179.407-.404.314-.404.314l-.79-.619s-.68-.442-1.006-.513c-.325-.07-.878-.653-.878-.653s-.646-.426-.591-.497c.054-.07-.358-.402-.591-.512-.234-.11-.342-.336-.573-.76-.232-.425-.594-.107-.772-.177-.18-.07-2.413.21-2.634.265-.221.054-1.024.07-1.436-.213a1.079 1.079 0 0 0-.907-.1 4.777 4.777 0 0 1-.21-.547.828.828 0 0 1-.027-.097 3.856 3.856 0 0 0 2.332-3.53 3.803 3.803 0 0 0-1.123-2.706c.217-.105.532-.332.536-.59a.373.373 0 0 0-.104-.265c-.08-.09-.201-.137-.286-.225a.497.497 0 0 1-.116-.356c0-.163.042-.338.044-.507a.736.736 0 0 0-.02-.2.777.777 0 0 0-.66-.517v.014a1.252 1.252 0 0 0-.355-.016c-.415.044-.805.23-1.207.277-.641.07-1.262-.2-1.888-.366-.625-.165-1.383-.169-1.809.306-.426.474-.402 1.278-.937 1.62-.247.16-.56.175-.828.296a1.705 1.705 0 0 0-.702.66 3.418 3.418 0 0 0-.529 2.21c.045.419.167.827.218 1.245.05.437.02.88-.087 1.305-.115.44-.358.903-.804 1.042a1.365 1.365 0 0 0-.298.1c-.253.155-.219.523-.155.804l.266 1.18c-.252.19-.64.109-.883.306a.73.73 0 0 0-.2.32 1.73 1.73 0 0 0 .401 1.793c0 .022-.016.044-.022.066-.006.023-.028.1-.04.155-.215 1.028-.143 1.15-.288 1.327-.263.46-.556.902-.876 1.323-.198.24-.312.54-.324.85 0 0-1.075 1.575-1.407 1.752-.332.176-.86 1.379-.86 1.379s-.843.549-.843 1.168a10.31 10.31 0 0 1-.16 1.538c-.021.099.122 1.196.48 1.745zm3.08-.955c.16-.25 0-.726 0-.726s1.057-1.38 1.206-2.177c.149-.796 1.112-1.325 1.112-1.325s.502-.201.537 0c.034.201.126.617.126.617s-.09 1.028.288 1.434c.378.406.434 2.123.434 2.123s.603 1.699.318 2.23c-.1.186-.256 1.11-.415 2.225a5.163 5.163 0 0 0-.402-.048c-.114-.107-.84-.774-1.218-.905-.414-.14-.804-1.309-.826-1.574-.022-.266-.376-1.15-.752-1.309-.376-.159-.565-.318-.408-.565z" fill="url(#paint2_linear)"/><path d="M62.325 74.581a2.89 2.89 0 0 0-2.897-1.359v2.067h1.255l.989-.256.653-.452z" fill="#4C4981"/><path opacity=".1" d="M62.325 74.581a2.89 2.89 0 0 0-2.897-1.359v2.067h1.255l.989-.256.653-.452z" fill="#000"/><path d="M59.344 73.763l1.536 1.078s.014-.218.052-.511c.076-.557.25-1.394.62-1.556.564-.248 6.85-2.614 4.623-3.408-2.227-.794-5.65 1.81-5.65 1.81s-.176.06-.458.643c-.148.305-.341.828-.49 1.252-.135.386-.233.692-.233.692z" fill="#AE6E79"/><path d="M47.06 75.421l-.175-.082-.493.56.402.857.686-.273-.16-.686-.26-.376z" fill="#4C4981"/><path d="M49.386 125.569s.442-.054.619.635c.177.69.44 2.596.44 2.596s.107 1.166.318 1.429c.21.264.424 1.926-1.078 2.138-1.502.211-2.153-.805-2.153-.805l.052-4.624 1.802-1.369zm-5.236.207s-.944 1.005-.926 2.159c.018 1.154.106 2.719.106 2.719s.087.635-.106.804c-.193.169 0 1.059 0 1.059s1.66 1.542 3.054-.13c0 0 .273-.953.158-1.569-.114-.615-.422-3.385-.422-3.385l-1.864-1.657z" fill="#444053"/><path d="M41.818 104.662s.955 2.666 1.361 3.285c.407.619.688 1.729.688 1.729l.364 2.278c.072.51.113 1.023.122 1.538-.018.511.92 7.98.92 7.98l1.483 1.889s.653 1.325.547 1.872c-.107.547.07 1.43.281 1.695 0 0 .036 1.731.089 2.119.052.388-.201 1.484 0 1.677.2.193 2.79.106 2.86-.201.071-.308-.317-1.854-.317-1.854l-.23-1.484s-.46-.804-.353-1.077c.107-.274-.201-.883-.211-.935-.01-.052-.495-.919-.402-1.255.092-.335-.55-7.45-.55-7.45l-1.809-12.767-4.843.961z" fill="#AE6E79"/><path opacity=".1" d="M41.818 104.662s.145.402.344.929c.316.832.768 1.978 1.017 2.356.402.617.688 1.729.688 1.729l.364 2.278c.072.509.113 1.022.122 1.536 0 .201.135 1.492.31 2.978.268 2.271.603 5.004.603 5.004l1.484 1.889s.074.151.169.372c.185.435.448 1.136.378 1.5-.107.547.07 1.43.281 1.695 0 0 .036 1.731.089 2.119.052.388-.201 1.482 0 1.677.2.195 2.79.106 2.86-.201.071-.308-.317-1.854-.317-1.854l-.23-1.484s-.458-.804-.353-1.077c.104-.274-.201-.883-.211-.935-.01-.052-.495-.919-.402-1.255.066-.255-.286-4.439-.457-6.421l-.09-1.029-1.566-10.982-.125-.886-.129-.899-4.829.961z" fill="#000"/><path d="M43.4 131.219c-.018.201 2.49.476 2.847.265.358-.211 0-2.843 0-2.843l-.163-1.206c.175-.018.44-.971.318-1.206-.123-.236.107-1.207.107-1.207l.416-1.303.253-.804c.402-.911 1.005-3.508 1.381-5.45.234-1.219.384-2.178.35-2.3-.088-.318.141-2.632.141-2.632s.283-2.348.672-3.09c.257-.491.761-2.334 1.073-3.524.159-.604.27-1.05.27-1.05s-2.67-.223-4.287-.301c-.746-.037-1.268-.041-1.206.02.062.06.074.384.072.852 0 1.206-.177 3.342-.354 3.914-.247.805-.494 3.179-.39 3.408.105.229.073 1.765.073 1.765a7.847 7.847 0 0 0-.31 1.918 25.809 25.809 0 0 0 .06 3.45s-.263 4.293-.2 4.697c.062.404-.566 1.679-.566 1.926 0 .247-.176 1.924-.176 1.924l-.38 2.777zm-1.395-51.576l.306.326.2.213 1.157 1.243 2.975.335 1.585-.424.402-.104s0-.805-.073-1.753c-.1-1.227-.342-2.715-.916-3.12a2.28 2.28 0 0 1-.674-.851 4.826 4.826 0 0 1-.288-.714c-.012-.032-.02-.062-.03-.092a7.951 7.951 0 0 1-.281-1.31s-.382-.2-.909-.458c-1.383-.643-3.77-1.536-2.94.459a7.387 7.387 0 0 1 .347 1.027c.277 1.108.094 1.781-.113 2.151a1.482 1.482 0 0 1-.119.185.977.977 0 0 1-.2.201l-.344 2.182-.029.18-.056.324z" fill="#AE6E79"/><path opacity=".1" d="M42.518 73.497c.157.378-.077-.307 0 0 .63.449 2.113 1.723 2.945 1.723.563 0 .732-.102 1.206-.32a7.915 7.915 0 0 1-.311-1.407s-4.988-2.75-3.84.004z" fill="#000"/><path d="M41.25 71.177a3.846 3.846 0 0 0 3.847 3.842 3.85 3.85 0 1 0-3.848-3.85v.008z" fill="#AE6E79"/><path opacity=".1" d="M40.698 88.252l.547 1.43s.449.02 1.144.042c2.348.074 7.525.169 7.757-.43.052-.154.08-.314.08-.477.03-.918-.402-2.332-.402-2.332s-.247-2.814-.247-2.947.215-2.121.215-2.121l-.422-1.589-1.185-.824s-.53.814-.848.883a2.24 2.24 0 0 0-.74.46s-1.041.635-1.377.282c-.336-.354-2.95-1.906-2.95-1.906l-1.377 1.518-.195 8.011z" fill="#000"/><path d="M40.698 88.454l.547 1.43s.449.021 1.144.041h.069c.3 0 .643.02 1.005.028 1.865.043 4.437.055 5.782-.142.505-.073.834-.175.89-.318a1.703 1.703 0 0 0 .081-.465c.03-.92-.402-2.332-.402-2.332s-.247-2.826-.247-2.95c0-.122.21-2.1.21-2.1l-.422-1.59-.814-.57-.37-.259a5.298 5.298 0 0 1-.402.533 1.068 1.068 0 0 1-.442.35 2.212 2.212 0 0 0-.74.458s-1.041.638-1.377.284c-.257-.272-1.846-1.243-2.58-1.685l-.37-.223-.184.2-1.193 1.316-.185 7.994z" fill="#fff"/><path opacity=".1" d="M59.344 73.763l1.536 1.078s.014-.218.052-.511a3.108 3.108 0 0 1-1.353-1.257 24.8 24.8 0 0 0-.235.69z" fill="#000"/><path d="M53.941 77.418l.336-.089s.547.583.865.654c.317.07.989.513.989.513l.776.617s.583.088.402-.318c-.18-.406.32-.919.32-.919s.987-2.03.987-2.453c0-.422.804-2.211.804-2.211s1.025 1.994 2.897 1.359c0 0-1.36 3.054-1.395 3.82-.034.766-.937 2.879-.937 2.879s-.334 1.57-2.153 1.482c0 0-2.507.466-3.054 0-.547-.467-1.044-.835-1.307-.887a1.026 1.026 0 0 1-.495-.354v-2.105l.965-1.988z" fill="#3F3D56"/><path opacity=".1" d="M57.084 79.406s-.44 1.643-.16 1.82l.16-1.82zM42.39 89.925c2.347.076 7.524.169 7.756-.43.052-.153.08-.313.08-.475l-7.674.403-.163.502zm-.572 14.737s.145.402.344.931c.975-.06 2.266-.123 3.49-.131.434 0 .859 0 1.259.014a9.567 9.567 0 0 1 2.059.227 5.421 5.421 0 0 0 1.833.238c.159-.603.27-1.05.27-1.05s-2.67-.223-4.287-.301l-.129-.899-4.839.971z" fill="#000"/><path d="M39.745 98.2l.3.636s.042.189.094.49c.174.903.25 1.822.226 2.74-.09 1.362.2 3.418.2 3.418s6.499-.547 8.404 0c1.907.547 2.845 0 2.845 0s-.23-2.048.334-3.106c.386-.726.657-3.947.668-6.061 0-.978-.05-1.717-.173-1.868-.388-.477-2.047-5.246-2.047-5.246l-.38.02-1.005.055-5.746.303-.903.047-.094.291-2.723 8.281z" fill="#65617D"/><path d="M36.884 96.081l-.052.565s2.845-.927 2.702-2.067c-.142-1.14 0-1.005 0-1.005l-2.288.201-.362 2.306z" fill="#4C4981"/><path opacity=".1" d="M36.884 96.081l-.052.565s2.845-.927 2.702-2.067c-.142-1.14 0-1.005 0-1.005l-2.288.201-.362 2.306zm18.302-16.212a2.53 2.53 0 0 1-1.005.52.656.656 0 0 0 .295-.138c.201-.145.402-.302.593-.457a1.88 1.88 0 0 1 .551-.38 3.011 3.011 0 0 1-.434.455zm-.044.744a1.26 1.26 0 0 0-.22.347 1.45 1.45 0 0 0-.062.453 1.4 1.4 0 0 0 .079.641l.462-1.1a6.25 6.25 0 0 1 .255-.552c.04-.079.304-.403.274-.465-.087-.189-.702.571-.788.676zm-12.721 6.091a1.464 1.464 0 0 1-.832-.386c.47.058.915.243 1.377.34.429.1.878.058 1.28-.119-.538.26-1.262.27-1.825.165zm1.317-3.231a.32.32 0 0 0 .24-.06c.352-.2.7-.411 1.041-.631a6.361 6.361 0 0 0 1.021-.706c-.701.634-1.353 1.168-2.302 1.397zm-.978 3.744c-.186.01-.37-.005-.552-.042a.744.744 0 0 1-.452-.3.252.252 0 0 1 .19.032c.56.234 1.175.307 1.774.212a2.537 2.537 0 0 1-.96.098zm3.345 8.199c.367.111.745.186 1.127.22.298.016.596.01.893-.015l1.448-.093.723-.046c.085 0 .435 0 .262-.17-.087-.085-.57-.031-.694-.035-.24 0-.48-.012-.72-.014a27.015 27.015 0 0 0-3.04.153zm1.672.716c.245-.01.563.136.815.166.282.035.567.046.852.035a4.777 4.777 0 0 0 1.642-.336c-1.103.056-2.207.096-3.309.135zm3.088.765c-.106.022-.21.051-.313.087-.603.175-1.259.022-1.874-.13.178.218.432.361.712.401a3.31 3.31 0 0 0 1.387.05c.145-.028.507-.08.581-.23.11-.242-.352-.208-.493-.178zm-3.417 1.13a5.072 5.072 0 0 0-.541.141c-.686.169-1.397-.064-2.087-.221a9.697 9.697 0 0 0-2.525-.235c.188.036.37.096.542.179a11.857 11.857 0 0 0 1.77.392c.798.115 1.607.15 2.412.106.37-.022 1.006.016 1.33-.17a1.475 1.475 0 0 0-.901-.192zm-.252-21.777s-.036 1.626.23 2.368c.082.231.212.658.353 1.134.157.53.324 1.124.455 1.584l.217.778s.603 4.858.75 7.172v.12c0 .131.022.266.044.403.342 2.297 2.326 5.844 2.992 6.127.207.096.397.226.56.384 0-.977-.05-1.716-.172-1.867-.389-.477-2.047-5.246-2.047-5.246l-.38.02a1.67 1.67 0 0 0 .018-.2c.03-.921-.402-2.333-.402-2.333s-.248-2.826-.248-2.95c0-.122.212-2.1.212-2.1l-.423-1.59-.814-.57c-.1-1.226-.342-2.713-.917-3.12a2.28 2.28 0 0 1-.673-.85c-.113.016.094-.084.094-.084l.151.82z" fill="#000"/><path d="M46.885 75.339a1.06 1.06 0 0 1 .894.1c.402.284 1.207.266 1.408.214.2-.053 2.412-.336 2.595-.266.183.07.529-.247.758.177.23.424.336.654.565.758.23.105.635.442.583.513-.052.07.583.494.583.494l-1.289 4.184s.83 5.298 1.237 5.758c.406.46 4.007 6.41 2.718 7.47a25.892 25.892 0 0 1-3.23 2.17c-.142.07-.654-.882-1.36-1.184-.706-.301-2.889-4.272-3.032-6.532-.142-2.26-.76-7.292-.76-7.292s-.758-2.754-1.023-3.496c-.265-.742-.23-2.368-.23-2.368l-.417-.7z" fill="#3F3D56"/><path opacity=".1" d="M39.745 98.2l.3.636s.042.189.094.49a.275.275 0 0 0 .153-.066c.442-.354 3.038-3.016 3.16-5.386.091-1.745.049-3.25.02-3.919 0-.21-.017-.337-.017-.366 0 0-2.01-2.436-1.784-3.3.228-.865.75-5.5.75-5.5l.079-.603.132-1.023.322-2.481-.332.078a.978.978 0 0 1-.2.201l-.344 2.182-1.193 1.315-.2 7.997.546 1.432s.448.02 1.144.04h.068L39.745 98.2z" fill="#000"/><path d="M38.632 84.993s.496-.2.53 0c.035.201.125.618.125.618s-.082 1.033.281 1.435c.364.402.44 2.113.44 2.113s.604 1.695.312 2.226c-.1.19-.259 1.156-.42 2.31-.1.72-.2 1.516-.29 2.24-.158 1.316-.279 2.412-.279 2.412s.318 1.166.76.804c.442-.362 3.038-3.016 3.16-5.386a42.242 42.242 0 0 0 0-4.292s-2.01-2.437-1.783-3.302c.227-.864.752-5.486.752-5.486l.093-.716.098-.768.022-.169.32-2.46c-.056.013-2.037.462-2.298.721-.261.26-1.872.635-1.872.635a1.407 1.407 0 0 0-1.005 1.03c-.016.05-.03.102-.04.155-.211 1.025-.14 1.148-.284 1.325-.142.177 1.378 4.555 1.378 4.555z" fill="#3F3D56"/><path opacity=".1" d="M39.607 95.934c.726-.142 1.793-.476 1.769-1.206-.022-.69-.852-.939-1.48-1.027-.106.714-.207 1.51-.29 2.234z" fill="#000"/><path d="M37.36 95.569c.03.062.15.116.309.162.386.092.78.156 1.176.191 0 0 2.455-.2 2.412-1.306-.024-.805-1.134-1.006-1.757-1.06-.245-.02-.414-.016-.414-.016s-1.832 1.8-1.725 2.029z" fill="#AE6E79"/><path opacity=".1" d="M37.361 95.569c.028.062.149.116.308.162.641-.856 1.534-1.954 1.97-2.05 0 0-.05-.05-.133-.125-.245-.02-.414-.016-.414-.016s-1.837 1.8-1.731 2.029z" fill="#000"/><path d="M37.98 80.331l-.724.107c-.26.458-.55.9-.866 1.322a1.442 1.442 0 0 0-.318.849s-1.06 1.572-1.395 1.747c-.336.175-.846 1.377-.846 1.377s-.83.55-.83 1.166a10.254 10.254 0 0 1-.16 1.536c-.018.089.123 1.184.477 1.731.354.547.706 1.766.69 1.979-.017.213.987 1.34 1.27 1.695.236.328.442.677.617 1.041l.937 1.765s1.977-2.913 2.702-3.072c0 0-.804-.778-1.218-.919-.414-.14-.804-1.306-.804-1.57 0-.263-.372-1.148-.742-1.307-.37-.159-.565-.317-.402-.565.163-.247 0-.723 0-.723s1.041-1.378 1.182-2.174c.14-.796 1.096-1.323 1.096-1.323l.547-1.343-1.213-3.319z" fill="#3F3D56"/><path opacity=".1" d="M35.352 86.924c-.398-.339-.9-.53-1.423-.541.34.028.663.154.93.364.098.1.185.21.26.33.085.118.766.986.875.85.16-.203-.505-.88-.642-1.004zm1.601-.837a.604.604 0 0 1-.505-.358 1.997 1.997 0 0 1-.157-.625 9.233 9.233 0 0 0-.219-1.074.703.703 0 0 1-.036-.223.64.64 0 0 1 .068-.215c.038-.113.09-.221.155-.322.13.15.167.48.221.674.067.241.129.48.185.724.03.12.27 1.42.288 1.42zm.625-7.129c.071.093.153.177.243.251.284.23.672.422.708.784a.874.874 0 0 0 .042.35c.093.157.322.145.5.113a.86.86 0 0 0 .423-.155c.191-.163.201-.45.352-.653a.89.89 0 0 1 .716-.32c.269-.01.538.05.804.064.173.008.346-.004.517-.036a2.207 2.207 0 0 0 .52-.155 2.302 2.302 0 0 0 .67-.426 1.24 1.24 0 0 0 .462-.937 5.98 5.98 0 0 0-.15-.643c-.11-.623.305-1.206.755-1.659.18-.177.37-.35.55-.53.277-.258.498-.572.645-.921.118-.371.157-.763.116-1.15a7.555 7.555 0 0 1-.034-1.187c.133-1.407 1.33-2.479 2.53-3.064l.051-.028a3.849 3.849 0 1 0-5.175 5.63l.035.132c.277 1.108.094 1.782-.113 2.151-.056.015-2.037.463-2.298.722-.261.26-1.872.636-1.872.636a1.408 1.408 0 0 0-.997 1.031z" fill="#000"/><path d="M48.272 67.633c-.08-.09-.201-.137-.28-.225-.25-.272 0-.714-.092-1.072-.099-.402-.585-.57-.993-.529-.408.043-.788.23-1.196.276-.632.07-1.245-.201-1.86-.364-.615-.163-1.361-.169-1.788.303-.426.473-.402 1.277-.924 1.619-.244.157-.551.173-.815.293-.288.15-.528.379-.691.66a3.456 3.456 0 0 0-.52 2.211c.043.419.164.827.212 1.245.05.435.022.876-.084 1.3-.113.441-.354.903-.786 1.04-.102.022-.2.056-.294.1-.25.155-.215.523-.153.805l.264 1.178c-.248.189-.632.109-.87.306a.728.728 0 0 0-.202.317 1.738 1.738 0 0 0 .517 1.908c.281.23.671.422.708.784a.832.832 0 0 0 .042.348c.092.159.32.147.5.115a.875.875 0 0 0 .42-.157c.202-.161.202-.45.352-.653a.894.894 0 0 1 .716-.32c.272 0 .539.052.804.064a2.39 2.39 0 0 0 1.707-.615 1.239 1.239 0 0 0 .463-.939 5.595 5.595 0 0 0-.151-.641c-.107-.624.307-1.207.756-1.661.448-.454.975-.858 1.196-1.45.271-.735 0-1.556.08-2.336.133-1.407 1.331-2.479 2.532-3.066.285-.142.74-.49.43-.844z" fill="#444053"/><path opacity=".1" d="M38.829 79.758c.2-.16.2-.45.351-.653a.896.896 0 0 1 .716-.32c.272 0 .539.05.804.064a2.386 2.386 0 0 0 1.707-.617 1.238 1.238 0 0 0 .463-.937 6.089 6.089 0 0 0-.151-.643c-.109-.623.306-1.206.756-1.659.45-.452.975-.858 1.194-1.451.274-.734 0-1.554.083-2.335.132-1.407 1.33-2.48 2.529-3.066.281-.136.733-.486.424-.838-.078-.09-.201-.137-.28-.225-.249-.272 0-.716-.092-1.072a.553.553 0 0 0-.09-.2.763.763 0 0 1 .65.514c.09.358-.158.804.093 1.072.08.088.201.134.28.225.31.354-.145.701-.424.838-1.207.585-2.399 1.66-2.532 3.066-.074.78.191 1.608-.08 2.334-.221.593-.748 1.005-1.196 1.452-.449.446-.863 1.037-.756 1.66.063.211.113.425.15.642a1.235 1.235 0 0 1-.462.937 2.383 2.383 0 0 1-1.707.617c-.271-.014-.538-.072-.804-.064a.893.893 0 0 0-.716.32c-.144.2-.16.492-.351.653a.875.875 0 0 1-.42.157c-.182.032-.403.044-.501-.115a.403.403 0 0 1-.04-.201.824.824 0 0 0 .402-.155z" fill="#000"/></g><defs><linearGradient id="paint0_linear" x1="65.466" y1="45.823" x2="65.466" y2="32.353" gradientUnits="userSpaceOnUse"><stop stop-color="gray" stop-opacity=".25"/><stop offset=".54" stop-color="gray" stop-opacity=".12"/><stop offset="1" stop-color="gray" stop-opacity=".1"/></linearGradient><linearGradient id="paint1_linear" x1="3349.48" y1="5698.82" x2="3349.48" y2="4950.66" gradientUnits="userSpaceOnUse"><stop stop-color="gray" stop-opacity=".25"/><stop offset=".54" stop-color="gray" stop-opacity=".12"/><stop offset="1" stop-color="gray" stop-opacity=".1"/></linearGradient><linearGradient id="paint2_linear" x1="-6653.27" y1="52527.7" x2="-6653.27" y2="29751.4" gradientUnits="userSpaceOnUse"><stop stop-color="gray" stop-opacity=".25"/><stop offset=".54" stop-color="gray" stop-opacity=".12"/><stop offset="1" stop-color="gray" stop-opacity=".1"/></linearGradient><clipPath id="clip0"><path fill="#fff" d="M0 0h230v135.491H0z"/></clipPath></defs></svg>