<svg width="43" height="38" fill="none" xmlns="http://www.w3.org/2000/svg"><path d="M19.229.458h2.747a2.747 2.747 0 0 1 2.747 2.747v2.747h-.916V3.205c0-1.012-.82-1.832-1.831-1.832h-2.747c-1.011 0-1.831.82-1.831 1.832v2.747h-.916V3.205A2.747 2.747 0 0 1 19.229.458z" fill="#fff"/><path fill-rule="evenodd" clip-rule="evenodd" d="M25.18 6.41h-1.83V3.205c0-.759-.616-1.374-1.374-1.374h-2.747c-.759 0-1.374.615-1.374 1.374V6.41h-1.83V3.205A3.205 3.205 0 0 1 19.228 0h2.747a3.205 3.205 0 0 1 3.205 3.205V6.41zm-.457-3.205A2.747 2.747 0 0 0 21.976.458h-2.747a2.747 2.747 0 0 0-2.747 2.747v2.747h.916V3.205c0-1.012.82-1.832 1.83-1.832h2.748c1.011 0 1.831.82 1.831 1.832v2.747h.916V3.205z" fill="#fff"/><path fill-rule="evenodd" clip-rule="evenodd" d="M42.12 19.046H0V7.326c0-.438.171-.857.477-1.166a1.61 1.61 0 0 1 1.15-.483h38.866c.432 0 .846.174 1.151.483.305.309.477.728.477 1.165v11.72z" fill="#fff"/><path d="M17.398 22.434H0V36.57c0 .38.171.743.477 1.011.305.268.718.419 1.15.419h38.866c.432 0 .846-.15 1.151-.419.305-.268.477-.631.477-1.01V22.433H25.639v1.373c0 1.012-.82 1.832-1.832 1.832H19.23a1.831 1.831 0 0 1-1.831-1.832v-1.373z" fill="#fff"/></svg>