<svg width="25" height="18" fill="none" xmlns="http://www.w3.org/2000/svg"><g clip-path="url(#clip0)" fill="#fff"><path d="M12.5 5.743c1.604 0 2.905-1.285 2.905-2.871S14.105 0 12.5 0c-1.604 0-2.905 1.286-2.905 2.872 0 1.586 1.3 2.871 2.905 2.871zm6.29 4.427c.055-.83-.419-1.689-1.126-2.182a2.337 2.337 0 0 0-.79-.361 20.754 20.754 0 0 0-8.756.002c-.28.067-.545.192-.784.359-.704.492-1.179 1.352-1.124 2.186.093 1.234.186 2.495.279 3.782.126 1.69 1.506 3.276 3.086 3.537a20.628 20.628 0 0 0 5.859-.001c1.57-.26 2.951-1.846 3.077-3.537.093-1.286.186-2.547.28-3.785zm1.166-3.232c1.332 0 2.412-1.068 2.412-2.385 0-1.317-1.08-2.385-2.412-2.385-1.332 0-2.412 1.068-2.412 2.385 0 1.317 1.08 2.385 2.412 2.385z"/><path d="M24.997 10.838c.045-.717-.351-1.46-.943-1.885a1.927 1.927 0 0 0-.66-.312 16.808 16.808 0 0 0-7.32.002 1.91 1.91 0 0 0-.657.31c-.589.425-.985 1.168-.94 1.889.078 1.066.156 2.155.234 3.267.105 1.46 1.26 2.83 2.58 3.055a16.7 16.7 0 0 0 4.891 0l.008-.001c1.313-.224 2.467-1.595 2.573-3.055.078-1.111.155-2.2.233-3.27zm-19.515-3.9c1.333 0 2.413-1.068 2.413-2.385 0-1.317-1.08-2.385-2.413-2.385-1.332 0-2.412 1.068-2.412 2.385 0 1.317 1.08 2.385 2.412 2.385zm5.041 3.9c.045-.717-.351-1.46-.942-1.885a1.926 1.926 0 0 0-.662-.312 16.808 16.808 0 0 0-7.32.002 1.91 1.91 0 0 0-.655.31c-.59.425-.986 1.168-.94 1.889.077 1.066.155 2.155.233 3.267.105 1.46 1.26 2.83 2.58 3.055a16.7 16.7 0 0 0 4.892 0l.007-.001c1.313-.224 2.468-1.595 2.573-3.055.078-1.111.156-2.2.234-3.27z"/></g><defs><clipPath id="clip0"><path fill="#fff" d="M0 0h25v17.778H0z"/></clipPath></defs></svg>