<svg width="48" height="72" fill="none" xmlns="http://www.w3.org/2000/svg"><path d="M24 0C14.617 0 7 7.617 7 17v14.063A23.94 23.94 0 0 0 0 48c0 13.231 10.769 24 24 24s24-10.769 24-24a23.94 23.94 0 0 0-7-16.938V17c0-9.383-7.617-17-17-17zm0 4c7.237 0 13 5.763 13 13v10.844A23.856 23.856 0 0 0 24 24a23.856 23.856 0 0 0-13 3.844V17c0-7.237 5.763-13 13-13zm0 24c11.07 0 20 8.93 20 20s-8.93 20-20 20S4 59.07 4 48s8.93-20 20-20zm0 10c-3.29 0-6 2.71-6 6 0 2.588 1.683 4.823 4 5.656V56a2.002 2.002 0 0 0 2.772 1.873A2 2 0 0 0 26 56v-6.344c2.317-.833 4-3.068 4-5.656 0-3.29-2.71-6-6-6zm0 4c1.128 0 2 .872 2 2 0 1.128-.872 2-2 2-1.128 0-2-.872-2-2 0-1.128.872-2 2-2z" fill="#BDBDBD"/></svg>