<svg width="34" height="45" fill="none" xmlns="http://www.w3.org/2000/svg"><path d="M5.28 44.333a4.552 4.552 0 0 1-4.552-4.552V16.823a4.552 4.552 0 0 1 9.104 0V39.78a4.552 4.552 0 0 1-4.552 4.552zM.53 4.75a4.75 4.75 0 1 1 9.5 0 4.75 4.75 0 0 1-9.5 0z" fill="#5703A5"/><path d="M17.155 40.447a4.552 4.552 0 0 1-4.552-4.552V16.823a4.552 4.552 0 1 1 9.104 0v19.072a4.552 4.552 0 0 1-4.552 4.552zM12.405 4.75a4.75 4.75 0 1 1 9.5 0 4.75 4.75 0 0 1-9.5 0z" fill="#AC3BFA"/><path d="M29.03 37.208a4.552 4.552 0 0 1-4.552-4.552V16.823a4.552 4.552 0 0 1 9.104 0v15.833a4.552 4.552 0 0 1-4.552 4.552zM24.28 4.75a4.75 4.75 0 1 1 9.5 0 4.75 4.75 0 0 1-9.5 0z" fill="#FF4677"/></svg>