<svg width="391" height="94" fill="none" xmlns="http://www.w3.org/2000/svg"><path d="M151.585 41.237c0 1.919-1.523 3.44-3.383 3.44h-9.701v32.541c0 1.918-1.523 3.44-3.384 3.44a3.417 3.417 0 0 1-3.44-3.44V44.677h-9.643c-1.863 0-3.384-1.521-3.384-3.44a3.392 3.392 0 0 1 3.384-3.383h26.168a3.394 3.394 0 0 1 3.383 3.383zm10.156 21.375h11.957c-1.129-2.143-3.214-3.383-5.753-3.383-2.595 0-4.849 1.298-6.204 3.383zm16.412 5.695h-17.371c.79 3.217 3.666 5.698 7.163 5.698 1.805 0 4.455-.734 5.923-2.144 1.352-1.296 3.496-1.296 4.792.056 1.354 1.296 1.297 3.498-.056 4.794-3.102 2.989-7.444 4.005-10.659 4.005-7.84 0-14.099-6.317-14.099-14.156 0-7.727 6.259-14.156 14.099-14.156.845 0 1.636.057 2.483.227 3.834.732 7.105 3.101 9.134 6.484.903 1.581 1.919 3.666 1.806 5.528 0 .508-.226 1.07-.451 1.636-.452 1.07-1.411 2.028-2.764 2.028m25.89-2.086c0-3.89-3.215-7.05-7.049-7.05-3.892 0-7.107 3.16-7.107 7.05 0 3.89 3.215 6.992 7.107 6.992 3.834 0 7.049-3.101 7.049-6.992zm7.839-10.658V77.16c0 1.75-1.41 3.216-3.271 3.216s-2.988-1.465-2.988-3.216v-.674c-2.427 2.086-5.245 3.325-8.629 3.325-7.558 0-13.648-6.09-13.648-13.59s6.09-13.649 13.648-13.649c3.384 0 6.202 1.296 8.629 3.27v-.28c0-1.748 1.127-3.214 2.988-3.214s3.271 1.466 3.271 3.214zm43.092 7.726v13.872c0 1.92-1.467 3.385-3.328 3.385-1.861 0-3.44-1.465-3.44-3.385V63.119c0-2.2-1.975-3.89-4.285-3.89-2.482 0-4.456 1.69-4.456 3.89v14.042c0 1.92-1.523 3.385-3.328 3.385-1.916 0-3.383-1.465-3.383-3.385V63.119c0-2.2-1.975-3.89-4.4-3.89-2.424 0-4.399 1.69-4.399 3.89V77.33c0 1.806-1.465 3.328-3.384 3.328-1.804 0-3.382-1.522-3.382-3.328V55.79c0-1.861 1.578-3.44 3.382-3.44 1.072 0 2.088.563 2.596 1.352a11.533 11.533 0 0 1 5.187-1.24c2.989 0 5.697 1.128 7.783 3.044 1.974-1.916 4.681-3.044 7.784-3.044 6.033 0 11.053 4.795 11.053 10.659v.169zm46.816-4.286c0 1.861-1.522 3.328-3.382 3.328h-16.131V76.88c0 1.863-1.521 3.328-3.383 3.328a3.298 3.298 0 0 1-3.328-3.328V40.787c0-1.863 1.467-3.383 3.328-3.383h19.514a3.39 3.39 0 0 1 3.382 3.383 3.392 3.392 0 0 1-3.382 3.382h-16.131V55.62h16.131a3.357 3.357 0 0 1 3.382 3.383zm15.119 18.104a3.419 3.419 0 0 1-3.44 3.44c-2.368 0-4.681-1.186-6.147-3.047-1.692-2.199-1.58-4.68-1.58-7.33V41.124a3.393 3.393 0 0 1 3.384-3.382c1.919 0 3.44 1.52 3.44 3.382v30.622c0 .17-.056.338-.056.508 0 .17.056.338.056.508 0 .508.395.958.903.958 1.917 0 3.44 1.524 3.44 3.386zm17.26-18.047a7.195 7.195 0 0 0-7.218 7.218 7.197 7.197 0 0 0 7.218 7.22 7.198 7.198 0 0 0 7.219-7.22 7.196 7.196 0 0 0-7.219-7.218zm0 21.372c-7.782 0-14.156-6.315-14.156-14.154 0-7.784 6.374-14.156 14.156-14.156 7.783 0 14.155 6.373 14.212 14.211-.057 7.784-6.429 14.099-14.212 14.099zM390.23 70.17v.338c-.225 5.695-5.132 10.32-11.165 10.32-2.989 0-5.752-1.185-7.783-3.044-2.03 1.859-4.738 3.044-7.784 3.044-6.146 0-11.166-4.795-11.166-10.659V56.013a3.394 3.394 0 0 1 3.384-3.382 3.393 3.393 0 0 1 3.384 3.382V70.17c0 2.143 1.974 3.891 4.398 3.891 2.427 0 4.4-1.748 4.4-3.89V56.012a3.394 3.394 0 0 1 3.384-3.382 3.392 3.392 0 0 1 3.383 3.382V70.17c0 2.143 1.975 3.891 4.4 3.891 2.424 0 4.399-1.748 4.399-3.89V55.9a3.39 3.39 0 0 1 3.384-3.382 3.39 3.39 0 0 1 3.382 3.382v14.27z" fill="#7412DB"/><path d="M7.908 26.119a7.541 7.541 0 0 0-7.542 7.54v52.777a7.543 7.543 0 0 0 7.542 7.541h4.19a7.54 7.54 0 0 0 7.536-7.541V33.659a7.538 7.538 0 0 0-7.537-7.54h-4.19z" fill="url(#paint0_linear)"/><path d="M.366 10.201c0 5.552 4.502 10.054 10.054 10.054 5.553 0 10.053-4.502 10.053-10.054 0-5.55-4.5-10.052-10.053-10.052C4.868.15.366 4.651.366 10.201z" fill="url(#paint1_linear)"/><path d="M33.038 34.344a7.54 7.54 0 0 0-7.538 7.54v44.552a7.54 7.54 0 0 0 7.538 7.541h4.19a7.541 7.541 0 0 0 7.54-7.541V41.884a7.54 7.54 0 0 0-7.54-7.54h-4.19z" fill="url(#paint2_linear)"/><path d="M25.5 18.427c0 5.553 4.5 10.053 10.053 10.053 5.552 0 10.052-4.501 10.052-10.054 0-5.552-4.5-10.054-10.052-10.054S25.5 12.875 25.5 18.427z" fill="url(#paint3_linear)"/><path d="M58.172 41.197a7.543 7.543 0 0 0-7.541 7.542v37.697a7.543 7.543 0 0 0 7.541 7.541h4.19a7.54 7.54 0 0 0 7.538-7.541V48.739a7.54 7.54 0 0 0-7.539-7.542h-4.189z" fill="url(#paint4_linear)"/><path d="M50.63 25.281c0 5.552 4.502 10.054 10.055 10.054 5.552 0 10.053-4.502 10.053-10.054 0-5.552-4.5-10.053-10.053-10.053-5.553 0-10.054 4.501-10.054 10.053z" fill="url(#paint5_linear)"/><defs><linearGradient id="paint0_linear" x1="10.002" y1="93.976" x2="10.002" y2="26.119" gradientUnits="userSpaceOnUse"><stop stop-color="#5703A5"/><stop offset=".916" stop-color="#7603F6"/><stop offset="1" stop-color="#7603F6"/></linearGradient><linearGradient id="paint1_linear" x1="10.42" y1="20.255" x2="10.42" y2=".149" gradientUnits="userSpaceOnUse"><stop stop-color="#5703A5"/><stop offset=".916" stop-color="#7603F6"/><stop offset="1" stop-color="#7603F6"/></linearGradient><linearGradient id="paint2_linear" x1="35.134" y1="93.976" x2="35.134" y2="34.344" gradientUnits="userSpaceOnUse"><stop stop-color="#AC3BFA"/><stop offset=".916" stop-color="#C45AFA"/><stop offset="1" stop-color="#C45AFA"/></linearGradient><linearGradient id="paint3_linear" x1="35.553" y1="28.48" x2="35.553" y2="8.374" gradientUnits="userSpaceOnUse"><stop stop-color="#AC3BFA"/><stop offset=".916" stop-color="#C45AFA"/><stop offset="1" stop-color="#C45AFA"/></linearGradient><linearGradient id="paint4_linear" x1="60.266" y1="93.976" x2="60.266" y2="41.198" gradientUnits="userSpaceOnUse"><stop stop-color="#FF4677"/><stop offset=".999" stop-color="#FF76A4"/><stop offset="1" stop-color="#FF76A4"/></linearGradient><linearGradient id="paint5_linear" x1="60.685" y1="35.334" x2="60.685" y2="15.228" gradientUnits="userSpaceOnUse"><stop stop-color="#FF4677"/><stop offset=".999" stop-color="#FF76A4"/><stop offset="1" stop-color="#FF76A4"/></linearGradient></defs></svg>