<svg width="97" height="105" fill="none" xmlns="http://www.w3.org/2000/svg"><path d="M80.883 59.574c0 17.901-14.592 32.414-32.592 32.414S15.697 77.475 15.697 59.574c0-17.902 14.592-32.415 32.593-32.415 18 0 32.592 14.513 32.592 32.415zM41.344 2.736C45.01-.91 50.954-.912 54.62 2.734a9.304 9.304 0 0 1 0 13.207c-3.666 3.646-9.611 3.645-13.278-.001a9.3 9.3 0 0 1 0-13.204zM80.97 88.928c3.667-3.646 9.614-3.648 13.281 0a9.302 9.302 0 0 1-.003 13.206c-3.664 3.644-9.607 3.647-13.275-.001a9.302 9.302 0 0 1-.003-13.205zm-78.222.132c3.667-3.646 9.613-3.648 13.28 0a9.301 9.301 0 0 1-.002 13.206c-3.665 3.644-9.607 3.647-13.275-.001a9.302 9.302 0 0 1-.003-13.204z" fill="#fff"/></svg>