<svg xmlns="http://www.w3.org/2000/svg" viewBox="0 0 100 100"><path d="M59.781 7c-.177.012-.36.048-.531.094a2.716 2.716 0 0 0-1.656 1.281L23.562 67.719a1 1 0 0 0-.156.437L22 91.937a1 1 0 0 0 1.563.907L43.28 79.719a1 1 0 0 0 .313-.344l34.031-59.344c.75-1.307.303-3.023-1-3.781l-15.28-8.875A2.741 2.741 0 0 0 59.78 7zm-.031 2a.733.733 0 0 1 .563.094L75.624 18a.744.744 0 0 1 .281 1.031l-5.656 9.844-16.594-9.656 5.657-9.844c.107-.187.26-.325.437-.375zm-7.094 11.969l16.625 9.656L42.375 77.5l-16.594-9.625 26.875-46.906zM25.313 69.906l15.53 9-16.718 11.125 1.188-20.125z" fill="#5A01AB" stroke="#5A01AB" stroke-width="2"/></svg>