<svg width="23" height="28" fill="none" xmlns="http://www.w3.org/2000/svg"><path d="M17 5A5 5 0 1 1 7 5a5 5 0 0 1 10 0z" fill="#fff"/><path fill-rule="evenodd" clip-rule="evenodd" d="M6.81 10a1.827 1.827 0 0 0-.412.242c-.255.2-.656.465-1.128.778-1.327.881-3.218 2.136-4.01 3.328-.623.937-.636 3.209-.649 5.432-.009 1.61-.017 3.195-.258 4.229-.24 1.033.355 2.079 1.38 2.355 1.995.537 5.242 1.323 7.683 1.484 1.753.115 2.747.126 4.5 0 2.29-.164 5.322-.933 7.216-1.468 1.01-.285 1.59-1.322 1.353-2.344-.236-1.015-.236-2.548-.236-4.12 0-2.235 0-4.55-.677-5.568-.792-1.192-2.683-2.447-4.01-3.328a40.661 40.661 0 0 1-.847-.57 5.99 5.99 0 0 1-4.8 2.398A5.996 5.996 0 0 1 6.81 10z" fill="#fff"/></svg>