<svg width="230" height="156" fill="none" xmlns="http://www.w3.org/2000/svg"><g clip-path="url(#clip0)"><path opacity=".1" d="M124.442 22.81c-14.135-.023-27.753-4.414-40.783-9.301C70.629 8.622 57.704 3.173 43.825.835 34.888-.668 24.753-.567 17.792 4.77 11.096 9.908 9.18 18.432 8.26 26.317c-.688 5.927-.997 12.152 1.66 17.583 1.846 3.772 4.994 6.884 7.222 10.48 7.753 12.512 3.153 28.436-4.314 41.196-3.503 5.973-7.608 11.707-10.25 18.036-2.643 6.329-3.713 13.511-.984 19.773 2.71 6.209 8.803 10.736 15.321 13.825 13.261 6.297 28.671 7.682 43.669 8.244 33.204 1.248 66.459-.974 99.627-3.209 12.274-.824 24.603-1.657 36.619-4.121 6.672-1.367 13.539-3.404 18.26-7.905 5.991-5.711 7.194-15.065 2.805-21.802-7.365-11.311-26.693-13.496-31.994-25.72-2.919-6.729-.441-14.42 3.221-20.892 7.858-13.87 21.416-26.276 21.601-41.818.126-10.675-6.973-21.11-17.543-25.78C182.098-.698 167.02.51 159.295 9.543c-7.954 9.303-22.372 13.286-34.853 13.265z" fill="#6C63FF"/><path d="M194.75 127.147s-2.496-1.647-4.97-.475c0 0 .762 1.468 3.894 1.328l1.076-.853zm.307.089s.76 2.893-1.144 4.861c0 0-1.145-1.194 0-4.115l1.144-.746zm3.114-2.776s-.185-2.462-5.738-1.645c0 0-.027 1.588 1.923 2.339 1.95.752 2.842.118 3.815-.694zm.341-.018s2.35.755.256 5.965c0 0-1.55-.347-1.828-2.419-.279-2.072.554-2.791 1.572-3.546zm3.146-3.49s.317-4.048-5.36-3.631c0 0-.406 3.656 4.357 4.604l1.003-.973zm3.751-4.57s-.78-4.586-6.452-3.219c0 0-.023 3.967 5.524 4.314l.928-1.095zm2.74-4.724s-1.302-4.469-6.924-3.13c0 0 1.337 4.017 6.551 3.956l.373-.826zm2.604-4.613s-1.273-4.637-6.702-3.25c0 0 1.811 4.406 6.345 4.036l.357-.786zm1.68-4.383s-.979-5.663-6.034-4.416c0 0 1.47 5.159 5.666 5.241l.368-.825zm1.572-5.295s-1.174-5.718-6.296-4.062c0 0 2.008 5.4 5.935 4.842l.361-.78zm.975-4.929s-1.867-5.716-5.825-5.562c0 0 1.909 6.039 5.484 6.703l.341-1.141zm.619-4.808s-2.031-6.881-5.252-6.351c0 0 1.406 5.26 5.139 7.421l.113-1.07zm.346-5.744s-1.903-5.736-5.078-5.963c0 0 1.296 5.642 5.013 7.452l.065-1.49zm.392-5.348s-2.375-5.742-4.469-5.87c0 0 1.03 5.65 4.266 6.813l.203-.943zm.262-4.98s-1.467-6.244-3.559-6.752c0 0 .289 5.099 3.35 7.217l.209-.465zm.79-6.518s-1.536-4.968-3.236-5.726c0 0 .337 5.858 2.844 6.943l.392-1.217zm.656-4.28l.311-8.762s-3.173 6.611-.545 10.308l.234-1.545zm2.456-8.707s2.287-6.4 2.843-6.755c0 0-4.489 4.15-4.05 9.49l1.207-2.735zm-18.689 68.871s4.026-.528 3.904 5.163c0 0-3.638.591-4.824-4.113l.92-1.05zm3.786-4.694s4.654-.016 4.266 5.809c0 0-3.904.696-5.194-4.71l.928-1.099zm2.596-4.2s4.223-1.981 6.926 3.129c0 0-3.902 1.652-7.298-2.305l.372-.824zm2.655-4.942s4.322-2.108 6.861 2.886c0 0-4.503 1.552-7.219-2.096l.358-.79z" fill="#6C63FF"/><path d="M212.378 102.784s4.162-3.975 7.483.047c0 0-4.251 3.27-7.676.839l.193-.886zm1.391-5.554s4.189-4.061 7.483.188c0 0-4.7 3.337-7.631.666l.148-.853zm.784-4.955s3.226-5.078 7.022-3.942c0 0-3.345 5.376-6.985 5.136l-.037-1.194zm.951-4.678s3.25-6.395 6.323-5.28c0 0-2.342 4.915-6.406 6.359l.083-1.079zm.223-6.034s3.342-5.033 6.472-4.42c0 0-2.73 5.104-6.795 5.876l.323-1.456zm.256-5.139s2.588-5.646 4.694-5.697c0 0-1.243 5.61-4.521 6.648l-.173-.95zm.512-4.99s2.878-5.72 5.041-5.73c0 0-1.472 4.889-4.943 6.234l-.098-.504zm.435-6.043s2.153-4.732 3.934-5.268c0 0-1.076 5.768-3.699 6.524l-.235-1.256z" fill="#6C63FF"/><path d="M218.303 60.594l4.81-7.328s-1.231 7.228-5.513 8.733l.703-1.405zm3.302-7.952s5.592-3.859 5.793-4.485c0 0-2.843 5.407-8.124 6.362l2.331-1.877zm.334-1.736s6.42-6.173 8.059-6.165c0 0-5.295.242-8.214 5.835l.155.33z" fill="#6C63FF"/><path d="M216.991 66.307l.233.03c1.207-9.444 2.966-15.03 4.954-15.716l-.077-.221c-2.106.731-3.873 6.231-5.11 15.907z" fill="#444053"/><path d="M215.218 88.887l.353.03c.073-.88.13-1.785.169-2.682.337-7.818.861-14.994 1.547-20.374l-.203-.254c-.688 5.39-1.359 12.785-1.696 20.611-.04.894-.097 1.792-.17 2.67z" fill="#444053"/><path d="M188.157 131.644c.063-.029 6.285-2.805 12.741-9.433a51.246 51.246 0 0 0 9.313-13.202c2.984-6.079 4.804-13.55 5.415-20.806l-.368.172c-1.371 16.288-8.786 27.42-14.685 33.481-6.393 6.569-12.544 9.319-12.605 9.343l.189.445z" fill="#444053"/><path d="M213.004 9.928H17.839a1.739 1.739 0 0 0-1.738 1.739v5.065h198.641v-5.065a1.739 1.739 0 0 0-1.738-1.739z" fill="#3F3D56"/><path d="M16.1 16.732v113.994a3.507 3.507 0 0 0 3.506 3.505h191.631a3.51 3.51 0 0 0 2.479-1.026 3.508 3.508 0 0 0 1.026-2.479V16.732H16.101z" fill="#fff"/><path opacity=".8" d="M19.249 14.09a.812.812 0 1 0 0-1.625.812.812 0 0 0 0 1.625z" fill="#FA5959"/><path opacity=".8" d="M21.483 14.09a.812.812 0 1 0 0-1.625.812.812 0 0 0 0 1.625z" fill="#FED253"/><path opacity=".8" d="M23.717 14.09a.812.812 0 1 0 0-1.625.812.812 0 0 0 0 1.625z" fill="#8CCF4D"/><g opacity=".3" stroke="#3F3D56" stroke-miterlimit="10"><path opacity=".3" d="M207.329 23.636H23.717v103.586H207.33V23.636z"/><path opacity=".3" d="M183.362 23.636H47.684v103.586h135.678V23.636z"/><path opacity=".3" d="M159.395 23.636H71.651v103.586h87.744V23.636z"/><path opacity=".3" d="M135.428 23.636h-39.81v103.586h39.81V23.636zm-19.905 0v103.586"/><path opacity=".3" d="M207.329 38.666H23.717v73.526H207.33V38.666z"/><path opacity=".3" d="M207.329 53.493H23.717v43.872H207.33V53.493z"/><path opacity=".3" d="M207.329 68.32H23.717v14.218H207.33V68.32z"/></g><path opacity=".1" d="M66.878 29.425h-14.42v5.28h14.42v-5.28zM40.677 43.846H29.912v5.28h10.765v-5.28zm49.559-14.421H75.815v5.28h14.42v-5.28zm21.936 0H97.751v5.28h14.421v-5.28zm20.311 0h-14.421v5.28h14.421v-5.28zm22.748 0H140.81v5.28h14.421v-5.28zm23.155 0h-14.421v5.28h14.421v-5.28zm24.576 0h-14.421v5.28h14.421v-5.28z" fill="#3F3D56"/><path d="M90.368 58.053h-9.37v9.07h9.37v-9.07z" fill="url(#paint0_linear)"/><path d="M90.207 58.21h-9.046v8.758h9.046v-8.759z" fill="#5A01AB"/><path d="M109.671 56.087h-9.369v9.07h9.369v-9.07z" fill="url(#paint1_linear)"/><path d="M109.511 56.243h-9.047v8.758h9.047v-8.758z" fill="#AC3BFA"/><path d="M146.841 86.96h-9.37v9.07h9.37v-9.07z" fill="url(#paint2_linear)"/><path d="M146.68 87.116h-9.046v8.758h9.046v-8.758z" fill="#AC3BFA"/><path d="M64.325 41.888h-9.37v9.07h9.37v-9.07z" fill="url(#paint3_linear)"/><path d="M64.162 42.044h-9.046v8.758h9.046v-8.758z" fill="#AC3BFA"/><path d="M82.942 54.886h-9.37v9.071h9.37v-9.07z" fill="url(#paint4_linear)"/><path d="M82.78 55.043h-9.047V63.8h9.047v-8.758z" fill="#FF69B4"/><path d="M157.8 86.894h-9.369v9.071h9.369v-9.07z" fill="url(#paint5_linear)"/><path d="M157.64 87.051h-9.047v8.758h9.047v-8.758z" fill="#5A01AB"/><path d="M174.252 42.007h-9.369v9.071h9.369v-9.07z" fill="url(#paint6_linear)"/><path d="M174.092 42.164h-9.047v8.758h9.047v-8.758z" fill="#5A01AB"/><path d="M173.237 70.849h-9.37v9.07h9.37v-9.07z" fill="url(#paint7_linear)"/><path d="M173.076 71.005h-9.046v8.758h9.046v-8.758z" fill="#5A01AB"/><path d="M180.346 72.88h-9.37v9.07h9.37v-9.07z" fill="url(#paint8_linear)"/><path d="M180.185 73.036h-9.046v8.758h9.046v-8.758z" fill="#5A01AB"/><path d="M150.375 83.728h-9.37V92.8h9.37v-9.07z" fill="url(#paint9_linear)"/><path d="M150.212 83.885h-9.046v8.758h9.046v-8.758z" fill="#FF69B4"/><path d="M151.39 56.308h-9.369v9.071h9.369v-9.07z" fill="url(#paint10_linear)"/><path d="M151.228 56.465h-9.047v8.758h9.047v-8.758z" fill="#FF69B4"/><path opacity=".1" d="M40.677 58.063H29.912v5.281h10.765v-5.28zm0 14.827H29.912v5.281h10.765v-5.28zm0 14.827H29.912v5.281h10.765v-5.28zm0 14.827H29.912v5.281h10.765v-5.281zm0 14.827H29.912v5.281h10.765v-5.281z" fill="#3F3D56"/><path d="M62.613 71.308c.3-.191.18-.703-.128-.88-.309-.176-.693-.117-1.04-.048a.424.424 0 0 0-.224-.447v-.077c.204-.203.126-.61-.121-.788-.248-.18-.634-.187-.967-.171a1.289 1.289 0 0 0-.406-1.097.34.34 0 0 0-.224-.107c-.203 0-.26.26-.274.453a8.57 8.57 0 0 1-.25 1.5l-6.313 10.562c-.702 1.016 1.481-2.03.778-1.005a8.934 8.934 0 0 1-1.243 1.541 6.125 6.125 0 0 1-1.403.94c-.34.01-.675-.084-.959-.271a3.86 3.86 0 0 1-.922-.912c-.55-.7-1.048-1.44-1.489-2.212a2.865 2.865 0 0 1-.341-.79c-.093-.439 0-.914-.173-1.327a2.173 2.173 0 0 0-.272-.43l-.437-.579v-.026c-.048-.858-.745-1.52-1.395-2.084-.552-.484-1.152-.987-1.88-1.08-.39-.052-.79.023-1.18-.025-.32-.04-.622-.16-.94-.213a3.977 3.977 0 0 0-.92-.019l-.13-.12a3.64 3.64 0 0 0 1.644-1.38c.3-.486.465-1.047.743-1.546.34-.61.843-1.114 1.219-1.698.908-1.388 1.075-3.173.707-4.79s-1.229-3.085-2.234-4.395c-1.95-2.523-5.22-3.453-8.3-2.965-.203.032-.406.07-.609.115a7.826 7.826 0 0 0-1.509.482 3.86 3.86 0 0 0-1.647 1.285 3 3 0 0 0-.287.532 3.35 3.35 0 0 0-.138.44 4.55 4.55 0 0 0-.075 1.372c.012.157.029.313.047.47l.03.235c.02.156.043.313.065.47.033.235.063.47.086.702.018.164.027.329.026.494v.123a2.012 2.012 0 0 1-.055.364c-.016.066-.036.13-.06.193a2.44 2.44 0 0 1-.287.526c-.158.22-.33.432-.514.632l-.177.203c-.058.067-.115.136-.174.203-.232.27-.445.558-.636.859a4.17 4.17 0 0 0-.25.471 3.352 3.352 0 0 0-.144.378c-.052.173-.088.35-.11.528 0 .045 0 .09-.012.134v.266c.005.089.014.177.028.264a1.874 1.874 0 0 0 .157.504c0 .022.02.045.032.067l.033.067c.022.045.045.087.065.132.03.065.053.133.067.203v.149a.83.83 0 0 1-.3.517c-.041.039-.082.073-.124.11l-.066.053-.132.104-.125.101a2.527 2.527 0 0 0-.307.305 11.347 11.347 0 0 0-3.4.333 4.598 4.598 0 0 1-1.219.221.61.61 0 0 1-.528-.221.778.778 0 0 1-.055-.488 4.206 4.206 0 0 0-.325-1.99 1.107 1.107 0 0 0-.325-.473.459.459 0 0 0-.54-.029 5.063 5.063 0 0 1-.14 3.386c-.223.509-.485 1-.782 1.468-.463.79-.723 1.694-1.136 2.513.462 1.562.358 3.23.61 4.842.225 1.501.75 2.94 1.275 4.363.407 1.074.829 2.196 1.69 2.951.278.28.652.443 1.046.455a1.83 1.83 0 0 0 .813-.309c.25-.137.482-.307.688-.505.076-.084.144-.174.203-.27.025.135.077.265.153.381a41.224 41.224 0 0 1 1.625-3.134 2.64 2.64 0 0 0 .487-.333c0 .037.018.073.028.11-.026.097-.05.203-.077.294-.026.092-.057.19-.085.28a9.24 9.24 0 0 1-.15.448c-.03.08-.065.176-.1.264-.035.087-.047.126-.073.186a6.481 6.481 0 0 1-.203.455c.056.028.115.052.174.072l.04.012c.052.016.105.03.16.04h.058c.04.007.08.01.12.013h.177c.145-.007.29-.031.429-.074l.079.325c.202.73.333 1.479.39 2.235.038.853-.11 1.72.055 2.559.083.437.252.855.312 1.294.04.413.032.83-.022 1.24l-.284 2.992a2.56 2.56 0 0 1-.256 1.057c-.14.243-.368.522-.226.763.234-.062.473-.108.713-.136a25.74 25.74 0 0 0-.241.957c-.074.238-.093.49-.057.737.05.232.203.44.219.676.037.366-.217.689-.357 1.028-.358.865.022 1.84.406 2.698l1.12 2.542.921 2.086c.272.61.546 1.239.813 1.865a60.507 60.507 0 0 1 2.928 8.782c.025.137.077.266.153.382.154.203.436.268.666.394.688.38.768 1.513.138 1.985.128 1.527-1.016 3.004-1.605 4.417-1.356 3.25-1.11 6.918-1.576 10.412l.526-.307a.65.65 0 0 1 .17.112 3.187 3.187 0 0 1-.38 1.05c-.306.526-.775.995-.846 1.6-.043.366.07.732.067 1.099v.102c-.046-.045-.118-.041-.223.042-.166.174-.28.39-.331.624a11.84 11.84 0 0 0-.238.794l-.272.939a10.917 10.917 0 0 1-.55 1.655 7.097 7.097 0 0 0-.488 1.121c-.072.315-.1.64-.083.963-.006.31.039.618.132.914a2.28 2.28 0 0 0 1.33 1.261 6.233 6.233 0 0 0 1.848.349c.162.021.326.016.486-.014a1.31 1.31 0 0 0 .469-.246c.857-.629 1.3-1.787 1.377-2.843a4.2 4.2 0 0 0-.116-.646c.053-1.156-.115-2.317-.028-3.469.018.132.037.262.057.392l.203 1.294a.27.27 0 0 0-.07-.122c-.15.479-.176.988-.076 1.481.1.489.244.97.426 1.435l.276.772c.067.233.179.451.33.64.241.266.609.366.962.451.76.222 1.542.358 2.332.406a.519.519 0 0 0 .307-.057c.048-.035.094-.074.138-.115a1.31 1.31 0 0 1 .223-.13c.34-.179.596-.483.715-.847a1.339 1.339 0 0 0-.132-1.095 2.57 2.57 0 0 0-.315-.382l-1.39-1.473a8.858 8.858 0 0 0-.677-.719.26.26 0 0 0-.103-.064.274.274 0 0 0-.12-.009c-.379-.942-.33-2.043-.265-3.077.02-.309.189-.948.256-1.474.268-.091.518-.228.737-.407.212-.154.362-.379.425-.633.7-3.579 1.828-7.048 2.892-10.536.106-.343.203-.688.31-1.031.045-.147.086-.295.129-.443l.105-.36c.057-.203.114-.406.169-.609.016-.055.03-.11.047-.165v-.032c.067-.25.132-.5.203-.75.024-.097.05-.19.075-.288.08-.317.158-.638.234-.957.012-.044.021-.088.028-.134a.567.567 0 0 0-.022-.339.449.449 0 0 0-.08-.114 1.649 1.649 0 0 0-.07-.077 1.132 1.132 0 0 1-.078-.087.788.788 0 0 1-.142-.266v-.293c0-.089-.012-.203-.018-.308a3.27 3.27 0 0 1 .091-.407l.075-.237c.025-.079.061-.203.094-.295a.743.743 0 0 0 .184-.501c.127-.315.265-.623.417-.925.187-.306.313-.645.372-.999a3.932 3.932 0 0 0-.118-.948c-.203-1.321.406-2.606.855-3.859.333-.925.586-1.876.755-2.844.133-.741.224-1.519.62-2.161.13-.18.242-.374.333-.577a2.27 2.27 0 0 0 .09-.654c.05-.897.266-1.776.64-2.594.082-.158.138-.329.166-.505a.205.205 0 0 0 0-.035v-.049l.103-.016c.177-1.119.356-2.366.234-3.493a5.328 5.328 0 0 0-1.785-3.372h.02c.35-.177.506-.61.512-.991a1.93 1.93 0 0 0-.72-1.51.721.721 0 0 1-.243-.251.766.766 0 0 1-.03-.327 1.672 1.672 0 0 0-1.03-1.552.388.388 0 0 1-.169-.097.406.406 0 0 1-.044-.297 1.815 1.815 0 0 0-.876-1.657c.081-.435.163-.89.039-1.317-.124-.426-.524-.812-.963-.751.357-.975-.15-2.06-.016-3.09.059-.442.235-.867.258-1.311.02-.407-.08-.841.117-1.195.197-.353.663-.63.543-1.015-.051-.165-.203-.279-.275-.439-.07-.16.214-.406.36-.317.07-.053.138-.108.203-.164.021.206.062.41.122.609.1.333.252.646.356.977.158.506.203 1.054.459 1.517.406.742 1.265 1.11 1.846 1.724.341.36.587.813.938 1.154.267.25.56.47.873.656l1.877 1.219c.195.141.412.249.642.319a1.096 1.096 0 0 0 1.29-.928 1.269 1.269 0 0 1-.461-.287c.026 0 .053 0 .079-.012a2.96 2.96 0 0 0 1.204-.64c1.337-1.064 2.298-2.516 3.236-3.944.983-1.497 5.713-5.458 5.713-5.458v-1.604a5.776 5.776 0 0 0 1.577-1.343 1.74 1.74 0 0 0 .396-1.016.904.904 0 0 0-.581-.887zM23.27 75.157c-.09.584-.202 1.163-.335 1.739a16.526 16.526 0 0 1-.56 1.964l-.073.203-.204-.378c-.152-.319-.276-.65-.406-.981l-.784-2.112c-.101-.275-.203-.591-.05-.843a.942.942 0 0 1 .446-.335 8.834 8.834 0 0 1 1.719-.583 4.7 4.7 0 0 0 .552-.147 8.324 8.324 0 0 0-.305 1.473zm.868-2.64a.316.316 0 0 1 0-.307.698.698 0 0 1 .203-.142l.059-.041c-.082.168-.173.331-.262.495v-.006zm1.624-2.298c-.23.192-.44.407-.625.642a6.7 6.7 0 0 0-.536.829.61.61 0 0 0-.224-.61 1.287 1.287 0 0 1-.203-.138.426.426 0 0 1 .085-.597c.187-.128.406-.203.632-.215l.937-.138c-.029.079-.047.156-.067.233l.002-.006zm8.767 67.971a3.403 3.403 0 0 0-.055-.839h.345c-.095.27-.193.557-.29.839z" fill="url(#paint11_linear)"/><path d="M33.574 55.43c-1.625.263-3.432.888-4.062 2.412-.47 1.151-.106 2.447.014 3.684.046.327.034.659-.034.981-.134.522-.504.945-.861 1.349a7.15 7.15 0 0 0-1.238 1.734c-.292.65-.385 1.422-.083 2.072.103.167.172.353.203.546.02.423-.422.691-.747.961-1.219 1.016-1.168 2.844-1.178 4.434a22.487 22.487 0 0 1-2.11 9.382 2.865 2.865 0 0 0 3.203-.419 10.673 10.673 0 0 1-.728 2.096c1.032.5 2.277-.32 2.795-1.344.518-1.024.58-2.214.947-3.3.367-1.087 1.015-2.032 1.302-3.127.091-.361.148-.747.37-1.048a2.74 2.74 0 0 1 .65-.554 6.344 6.344 0 0 0 2.296-3.114c1.264.279 2.554.559 3.841.441 1.288-.118 2.604-.7 3.285-1.802.3-.485.463-1.044.74-1.543.342-.61.844-1.113 1.22-1.696.905-1.388 1.072-3.169.704-4.786-.367-1.616-1.218-3.079-2.234-4.389-1.946-2.526-5.216-3.463-8.295-2.97z" fill="#303D5C"/><path d="M23.32 75.746c-.092.58-.204 1.162-.334 1.736-.147.665-.335 1.32-.56 1.963a1.873 1.873 0 0 0-.177.901c.04.19.113.372.217.536.741 1.319 1.745 2.592 1.828 4.103.02.376 0 .784.203 1.095a41.178 41.178 0 0 1 1.897-3.607c.723-1.219 1.528-2.466 1.735-3.876a7.264 7.264 0 0 0-.027-1.99c-.095-.741-.262-1.501-.713-2.094-.491-.642-1.828-1.61-2.707-1.41-1.022.234-1.233 1.816-1.363 2.643z" fill="#6C63FF"/><path d="M49.498 82.85c.97-.395 1.962-.812 2.732-1.527.47-.466.887-.983 1.243-1.541l2.285-3.297c.54-.784 1.099-1.606 1.218-2.55a8.4 8.4 0 0 0 2.281-5.188c.017-.193.082-.447.275-.453a.34.34 0 0 1 .223.108 1.284 1.284 0 0 1 .406 1.094c.333-.016.695-.024.967.17.272.196.345.68.053.84a.418.418 0 0 1 .29.473c.35-.07.734-.126 1.042.049.309.174.427.686.128.877a.906.906 0 0 1 .58.867 1.723 1.723 0 0 1-.397 1.016c-.877 1.178-2.425 1.653-3.443 2.713a8.218 8.218 0 0 0-.895 1.197l-2.947 4.485c-.937 1.421-1.898 2.878-3.234 3.938a2.96 2.96 0 0 1-1.205.64 1.326 1.326 0 0 1-1.265-.352c-.294-.335-.34-.812-.367-1.261-.05-.756.08-1.536.03-2.297z" fill="#EE8E9E"/><path d="M39.629 145.136c.117.117.223.245.315.382a1.332 1.332 0 0 1 .132 1.093 1.46 1.46 0 0 1-.713.845c-.08.036-.155.079-.226.13-.043.042-.09.082-.138.118a.57.57 0 0 1-.306.057c-.79-.05-1.57-.187-2.33-.407-.35-.087-.72-.186-.963-.451a1.84 1.84 0 0 1-.329-.639l-.276-.77a8.911 8.911 0 0 1-.425-1.434c-.1-.491-.074-1 .078-1.479a.466.466 0 0 1 .101.303 3.31 3.31 0 0 0 .593 1.434c.065.106.142.204.232.29.202.155.44.255.692.291.485.105.979.168 1.475.189a.403.403 0 0 0 .203-.025.36.36 0 0 0 .169-.203.896.896 0 0 0 0-.609c-.134-.376-.502-.622-.677-.979-.132-.264.049-.555.317-.331a8.4 8.4 0 0 1 .68.719l1.396 1.476z" fill="#303D5C"/><path d="M37.076 139.801c-.08 1.241-.134 2.581.544 3.623.246.374.573.689.851 1.04.16.176.266.394.305.628.038.455-.388.845-.837.93-.449.085-.908-.057-1.343-.203a3.239 3.239 0 0 1-1.139-.536c-.591-.5-.748-1.333-.865-2.096l-.276-1.776a4.246 4.246 0 0 1 .251-2.681l.455-1.332a.607.607 0 0 1 .203-.331.567.567 0 0 1 .348-.065c.434.022 1.533.181 1.745.642.178.4-.212 1.68-.242 2.157z" fill="#EE8E9E"/><path opacity=".05" d="M37.076 139.801c-.08 1.241-.134 2.581.544 3.623.246.374.573.689.851 1.04.16.176.266.394.305.628.038.455-.388.845-.837.93-.449.085-.908-.057-1.343-.203a3.239 3.239 0 0 1-1.139-.536c-.591-.5-.748-1.333-.865-2.096l-.276-1.776a4.246 4.246 0 0 1 .251-2.681l.455-1.332a.607.607 0 0 1 .203-.331.567.567 0 0 1 .348-.065c.434.022 1.533.181 1.745.642.178.4-.212 1.68-.242 2.157z" fill="#000"/><path d="M46.84 103.016v.034a1.52 1.52 0 0 1-.167.502 7.21 7.21 0 0 0-.642 2.587c.002.222-.028.442-.09.654a3.247 3.247 0 0 1-.333.575c-.396.644-.487 1.422-.62 2.159-.17.964-.422 1.911-.755 2.832-.453 1.255-1.062 2.538-.855 3.859.078.31.117.628.118.948a2.748 2.748 0 0 1-.372.997 12.88 12.88 0 0 0-.76 1.956c-.121.425-.202.929.078 1.27.087.083.164.177.23.278a.744.744 0 0 1 0 .479 69.66 69.66 0 0 1-.963 3.608c-1.142 3.832-2.438 7.626-3.201 11.553-.11.564-.835.968-1.396 1.092a1.826 1.826 0 0 1-1.714-.538c-.589-.634-.676-1.607-.632-2.484.203-4.04 2.235-7.738 3.201-11.665.35-1.419.56-2.869.63-4.33.225-4.875.317-10.029-1.062-14.715-.287-.975-.626-2.076-.11-2.949.325-.553.928-.88 1.525-1.115a9.805 9.805 0 0 1 7.609.203c.002.097-.002.195-.012.292a3 3 0 0 0 .154 1.345c.079.181.126.375.138.573zm-16.7 38.034l-.259.938c-.137.565-.32 1.117-.548 1.652a7.097 7.097 0 0 0-.487 1.121c-.073.315-.1.639-.084.962-.005.31.04.618.132.912a2.265 2.265 0 0 0 1.329 1.26 6.198 6.198 0 0 0 1.848.347c.162.022.325.018.486-.012.17-.049.33-.133.469-.246.857-.628 1.298-1.785 1.375-2.843a3.503 3.503 0 0 0-.145-.728c-.066-.089-.714.277-.436.583.406.451-.79.218-1.4.179a5.205 5.205 0 0 1-.794-.13l-.987-.203c-.323-.069-.694-.181-.812-.49-.118-.308.134-.678.329-.978.516-.799.65-1.776.77-2.718.022-.185.253-1.385-.224-1.016-.164.175-.278.39-.331.624-.087.254-.16.52-.231.786z" fill="#303D5C"/><path opacity=".05" d="M42.432 121.391c-.28-.341-.203-.845-.075-1.27.044-.158.095-.314.148-.471l-3.875-1.312c-.015.349-.03.695-.047 1.04a22.435 22.435 0 0 1-.628 4.332c-.969 3.924-3.002 7.623-3.2 11.661-.047.93.052 1.97.74 2.596a1.83 1.83 0 0 0 1.603.43c.563-.124 1.286-.53 1.398-1.094.767-3.927 2.057-7.719 3.2-11.555a62.18 62.18 0 0 0 .963-3.6.74.74 0 0 0 0-.477 1.402 1.402 0 0 0-.227-.28z" fill="#000"/><path d="M31.724 136.793c-.307.528-.774.995-.845 1.6-.043.364.069.729.067 1.097a3.57 3.57 0 0 1-.16.896 50.128 50.128 0 0 1-1.305 4.034c-.08.171-.116.359-.103.548.049.311.351.516.64.64.924.394 1.964.367 2.967.327.292.012.581-.059.835-.203.36-.246.449-.732.471-1.166.07-1.259-.144-2.525 0-3.776.05-.457.146-.906.218-1.359.099-.629.15-1.292-.057-1.895a4.346 4.346 0 0 0-.711-1.192 3.747 3.747 0 0 0-.985-.983c-.118-.069-.453-.284-.573-.15-.061.069-.035.253-.043.339a3.219 3.219 0 0 1-.416 1.243z" fill="#EE8E9E"/><path opacity=".05" d="M39.17 104.588c-.18.245-.144.587-.071.883.128.536.343 1.05.518 1.572.286.937.508 1.893.666 2.86.162.873.508 1.846.367 2.726a19.417 19.417 0 0 1 2.058 6.461c.08.579-1.206 1.326-1.182 1.909.049 1.162.975 1.255.292 2.181-.034.047.256 1.085.218 1.13-.279.335-.632.609-.93.916a7.02 7.02 0 0 0-.982 1.436c-1.767 3.193-4.322 6.812-3.534 10.377a.628.628 0 0 1-.337.639 1.73 1.73 0 0 1-.747.173h-.122c-.59-.634-.676-1.607-.632-2.484.203-4.04 2.234-7.739 3.201-11.665.35-1.419.56-2.87.63-4.33.225-4.875.317-10.03-1.062-14.715-.287-.975-.626-2.076-.11-2.949.325-.553.928-.88 1.525-1.116a9.823 9.823 0 0 1 7.609.204c.002.097-.002.195-.012.292-.052.454 0 .914.154 1.345.085.184.137.382.152.585 0 0 .07-.786.067-.774-1.574.225-3.235 1.255-4.824 1.489a11.21 11.21 0 0 0-2.419.532c-.19.06-.361.172-.493.323z" fill="#000"/><path d="M28.204 95.94c-.213.676-.4 1.36-.563 2.05-.072.24-.091.49-.057.738.051.231.204.439.22.674.036.366-.218.689-.358 1.028-.357.863.025 1.838.406 2.693l1.122 2.539.922 2.084c.274.619.546 1.239.812 1.862a60.375 60.375 0 0 1 2.927 8.773c.025.135.076.265.15.382.157.203.44.268.667.394.69.377.77 1.511.138 1.982.13 1.525-1.016 2.998-1.603 4.412-1.357 3.249-1.11 6.905-1.576 10.399l.526-.309c.506.232.488.949.76 1.434.406.729 1.405.831 2.234.776a1.72 1.72 0 0 0 .745-.173.63.63 0 0 0 .337-.64c-.786-3.564 1.768-7.184 3.537-10.376.265-.518.594-1 .979-1.436.3-.317.652-.583.932-.916.78-.937.88-2.257.827-3.476a19.45 19.45 0 0 0-2.214-8.207c.142-.878-.203-1.851-.366-2.724a21.355 21.355 0 0 0-.672-2.858c-.175-.526-.388-1.038-.518-1.574-.071-.296-.11-.638.07-.883a1.09 1.09 0 0 1 .5-.323 11.255 11.255 0 0 1 2.42-.533l5.45-.782c.174-1.119.352-2.366.23-3.491a5.368 5.368 0 0 0-3.844-4.49c-.238-.064-.516-.104-.711.046a28.354 28.354 0 0 0-14.43.924z" fill="#303D5C"/><path d="M33.146 66.506a2.675 2.675 0 0 1-.238 1.56 2.45 2.45 0 0 1-.61.685 4.672 4.672 0 0 1-1.795.891c-.386.098-.812.163-1.074.47-.382.46-.126 1.16.203 1.663.564.877 1.348 1.672 2.354 1.946.812.22 1.66.085 2.48.227.595.104 1.155.35 1.742.49a5.146 5.146 0 0 0 4.727-1.318c-.873-.67-1.78-1.383-2.234-2.387a3.386 3.386 0 0 1-.171-2.283c.203-.743.68-1.466.534-2.234-.146-.768-.894-1.282-1.625-1.538a10.601 10.601 0 0 0-2.06-.408c-.383-.053-2.82-.59-2.973-.325-.085.15.42 1.04.484 1.237.148.427.234.873.256 1.324z" fill="#EE8E9E"/><path d="M36.219 68.286a4.944 4.944 0 1 0 0-9.888 4.944 4.944 0 0 0 0 9.888z" fill="#EE8E9E"/><path d="M33.607 71.513l3.353.565c.824.167 1.663.252 2.504.252.46-.046.922-.046 1.381 0 .317.052.62.172.937.213.392.049.79-.027 1.182.024.727.094 1.326.597 1.879 1.079.648.564 1.344 1.218 1.395 2.082a.632.632 0 0 1-.04.288.848.848 0 0 1-.25.26c-.61.506-.961 1.26-1.4 1.925A7.417 7.417 0 0 1 42.883 80c-.147-.093-.425.152-.362.315.063.162.224.274.276.439.12.38-.349.66-.544 1.015-.195.356-.096.788-.116 1.192-.024.445-.203.87-.258 1.31-.136 1.03.374 2.115.015 3.088.44-.055.838.325.962.75.124.424.045.88-.038 1.315a1.81 1.81 0 0 1 .877 1.654.284.284 0 0 0 .203.394 1.673 1.673 0 0 1 1.03 1.55.777.777 0 0 0 .03.329c.06.101.142.187.242.25a1.926 1.926 0 0 1 .72 1.506c0 .392-.163.813-.51.99-.712.361-1.473.501-2.253.67-.719.17-1.446.3-2.18.388-.675.055-1.353.076-2.03.063l-4.485-.019c-1.262 0-2.523 0-3.78-.095-1.174-.08-2.375-.225-3.512.083-.142-.242.085-.52.225-.761.161-.33.248-.69.256-1.057l.285-2.987a5.53 5.53 0 0 0 .022-1.24c-.06-.44-.227-.857-.313-1.293-.162-.837-.014-1.702-.052-2.555a11.703 11.703 0 0 0-.392-2.235l-.89-3.656c-.142-.587-.218-1.269-.437-1.828-.684-1.76-1.4-3.501-2.15-5.224a.555.555 0 0 1 .04-.463l.741-1.328c.199-.377.425-.74.679-1.082a4.265 4.265 0 0 1 2.502-1.536 4.412 4.412 0 0 1 2.91.43c.346.185.667.407 1.016.59.6.284 1.33.597 1.995.552z" fill="#6C63FF"/><path d="M45.505 74.769l1.168 1.558c.107.132.198.277.272.43.175.407.08.886.172 1.323.073.28.19.546.344.79.439.772.935 1.51 1.485 2.207.253.355.566.663.924.913a1.518 1.518 0 0 0 1.243.22.765.765 0 0 0-.407.37c-.444.882-.477 1.926-.288 2.893.053.332.163.652.325.946.162.297.426.526.743.644a1.09 1.09 0 0 1-1.29.926 2.097 2.097 0 0 1-.64-.319l-1.876-1.218a5.222 5.222 0 0 1-.873-.656c-.352-.35-.595-.792-.937-1.152-.58-.61-1.433-.983-1.844-1.722-.258-.463-.303-1.016-.46-1.515-.105-.331-.257-.644-.356-.977-.309-1.028-.086-2.155.384-3.12.469-.965 1.216-1.72 1.91-2.541z" fill="#6C63FF"/><path d="M41.103 60.523a6.553 6.553 0 0 0-1.738-1.81c-.924-.688-1.987-1.261-3.138-1.326a3.394 3.394 0 0 0-1.412.23c-.022-1.396-.367-2.326-1.24-2.186-1.626.262-3.433.887-4.063 2.41-.47 1.152-.106 2.448.014 3.685.046.327.034.659-.034.981-.134.522-.504.945-.862 1.349a7.152 7.152 0 0 0-1.236 1.734c-.293.65-.386 1.422-.084 2.072.103.167.172.353.203.546.02.423-.422.691-.747.961-1.219 1.016-1.168 2.844-1.178 4.434a22.487 22.487 0 0 1-2.11 9.382 2.866 2.866 0 0 0 3.203-.419 10.673 10.673 0 0 1-.728 2.096c1.032.5 2.277-.32 2.795-1.344.518-1.024.58-2.214.947-3.3.367-1.087 1.015-2.032 1.302-3.127.091-.361.148-.747.37-1.048a2.74 2.74 0 0 1 .65-.554c1.064-.764-.504-6.55-.088-7.793.61.136 1.757-2.844 2.405-5.89.452.155.934.203 1.407.14.165-.036.334-.048.502-.035.156.032.305.093.439.179.48.294.98.551 1.499.77 1.072.406 2.25.347 3.394.29a3.382 3.382 0 0 0-.472-2.427z" fill="#303D5C"/><path opacity=".1" d="M24.058 82.985a22.425 22.425 0 0 0 2.12-9.374c.011-1.584-.042-3.424 1.179-4.434.325-.27.768-.538.747-.96a1.526 1.526 0 0 0-.203-.547c-.302-.646-.203-1.421.082-2.071a7.11 7.11 0 0 1 1.238-1.735c.356-.406.728-.827.86-1.349a2.89 2.89 0 0 0 .036-.98c-.122-1.238-.483-2.533-.014-3.685.61-1.475 2.313-2.106 3.898-2.383a.891.891 0 0 0-.427-.028c-1.625.262-3.432.888-4.062 2.41-.47 1.153-.106 2.448.014 3.685.046.327.034.659-.034.981-.134.522-.504.945-.862 1.349a7.152 7.152 0 0 0-1.236 1.735c-.293.65-.386 1.421-.084 2.071.103.167.172.353.203.547.02.422-.422.69-.747.96-1.219 1.016-1.168 2.844-1.178 4.434-.02 3.24-.74 6.438-2.11 9.374a2.78 2.78 0 0 0 1.57.294 2.682 2.682 0 0 1-.99-.294zm2.476 1.669c.313-.671.554-1.374.721-2.096a2.71 2.71 0 0 1-.702.465 10.663 10.663 0 0 1-.61 1.625c.297.142.632.184.955.122a1.518 1.518 0 0 1-.364-.115zm8.862-27.038c.302-.117.62-.191.943-.219h-.112c-.28-.014-.56.007-.835.063.002.045.004.1.004.156zm3.366 5.038a11.085 11.085 0 0 1-1.497-.77 1.299 1.299 0 0 0-.441-.179 1.522 1.522 0 0 0-.46.028c.11.04.217.09.318.15.48.295.98.552 1.499.77a6.702 6.702 0 0 0 2.506.325c-.655 0-1.306-.11-1.925-.325zM34.915 61.6c0 .044-.019.089-.029.133.244.037.49.043.735.02a3.25 3.25 0 0 1-.706-.154z" fill="#000"/><path d="M24.625 84.526a1.814 1.814 0 0 1-.487 1.445 3.198 3.198 0 0 1-.689.505 1.83 1.83 0 0 1-.812.307 1.546 1.546 0 0 1-1.044-.453c-.861-.756-1.292-1.875-1.69-2.95-.526-1.421-1.05-2.857-1.276-4.358-.241-1.609-.138-3.274-.599-4.836.406-.812.67-1.718 1.136-2.506.295-.47.556-.96.781-1.467a5.078 5.078 0 0 0 .139-3.384.459.459 0 0 1 .54.029c.148.127.26.29.325.473a4.2 4.2 0 0 1 .325 1.989.772.772 0 0 0 .055.485.61.61 0 0 0 .528.223c.414-.02.823-.095 1.218-.221a11.321 11.321 0 0 1 3.76-.31c.254.007.504.068.733.178a.683.683 0 0 1 .378.61l-3.006.44a1.24 1.24 0 0 0-.632.215.426.426 0 0 0-.085.595c.064.052.131.099.203.139a.61.61 0 0 1-.024.989.696.696 0 0 0-.203.142c-.122.164.04.382.093.58a.733.733 0 0 1-.362.75c-.26.143-.544.239-.838.283a8.997 8.997 0 0 0-1.717.582.942.942 0 0 0-.447.336c-.148.252-.05.568.051.843l.784 2.108c.122.33.246.662.406.98.204.407.445.801.65 1.22.206.418.34.782.49 1.18.392 1.074 1.182 1.724 1.316 2.86z" fill="#EE8E9E"/><path d="M61.12 70.849h-9.37v9.07h9.37v-9.07z" fill="url(#paint12_linear)"/><path d="M60.96 71.005h-9.047v8.758h9.047v-8.758z" fill="#5A01AB"/><path d="M59.392 70.315a.934.934 0 0 0-.344.501.203.203 0 0 0 .08.228.228.228 0 0 0 .138 0c.224-.04.435-.139.609-.287a.61.61 0 0 0-.18.147.204.204 0 0 0-.025.219.284.284 0 0 0 .203.104c.29.052.588.038.871-.041-.132.05-.254.121-.361.213a.485.485 0 0 0-.165.376.187.187 0 0 0 .065.14c.03.019.063.03.098.035.268.047.543.047.812 0a.417.417 0 0 0 .341-.203.512.512 0 0 0-.079-.392 2.192 2.192 0 0 1-.203-.992.39.39 0 0 0-.028-.203.361.361 0 0 0-.181-.132c-.287-.126-.677-.3-.995-.203a2.093 2.093 0 0 0-.657.49z" fill="#EE8E9E"/></g><defs><linearGradient id="paint0_linear" x1="85.684" y1="67.124" x2="85.684" y2="58.053" gradientUnits="userSpaceOnUse"><stop stop-color="gray" stop-opacity=".25"/><stop offset=".54" stop-color="gray" stop-opacity=".12"/><stop offset="1" stop-color="gray" stop-opacity=".1"/></linearGradient><linearGradient id="paint1_linear" x1="4943.37" y1="2966.03" x2="4943.37" y2="2560.93" gradientUnits="userSpaceOnUse"><stop stop-color="gray" stop-opacity=".25"/><stop offset=".54" stop-color="gray" stop-opacity=".12"/><stop offset="1" stop-color="gray" stop-opacity=".1"/></linearGradient><linearGradient id="paint2_linear" x1="6695.17" y1="4375.68" x2="6695.17" y2="3970.58" gradientUnits="userSpaceOnUse"><stop stop-color="gray" stop-opacity=".25"/><stop offset=".54" stop-color="gray" stop-opacity=".12"/><stop offset="1" stop-color="gray" stop-opacity=".1"/></linearGradient><linearGradient id="paint3_linear" x1="2806.11" y1="2317.69" x2="2806.11" y2="1912.58" gradientUnits="userSpaceOnUse"><stop stop-color="gray" stop-opacity=".25"/><stop offset=".54" stop-color="gray" stop-opacity=".12"/><stop offset="1" stop-color="gray" stop-opacity=".1"/></linearGradient><linearGradient id="paint4_linear" x1="3683.54" y1="2911.22" x2="3683.54" y2="2506.12" gradientUnits="userSpaceOnUse"><stop stop-color="gray" stop-opacity=".25"/><stop offset=".54" stop-color="gray" stop-opacity=".12"/><stop offset="1" stop-color="gray" stop-opacity=".1"/></linearGradient><linearGradient id="paint5_linear" x1="7211.7" y1="4372.71" x2="7211.7" y2="3967.61" gradientUnits="userSpaceOnUse"><stop stop-color="gray" stop-opacity=".25"/><stop offset=".54" stop-color="gray" stop-opacity=".12"/><stop offset="1" stop-color="gray" stop-opacity=".1"/></linearGradient><linearGradient id="paint6_linear" x1="7987.03" y1="2323.15" x2="7987.03" y2="1918.05" gradientUnits="userSpaceOnUse"><stop stop-color="gray" stop-opacity=".25"/><stop offset=".54" stop-color="gray" stop-opacity=".12"/><stop offset="1" stop-color="gray" stop-opacity=".1"/></linearGradient><linearGradient id="paint7_linear" x1="7939.22" y1="3640.06" x2="7939.22" y2="3234.95" gradientUnits="userSpaceOnUse"><stop stop-color="gray" stop-opacity=".25"/><stop offset=".54" stop-color="gray" stop-opacity=".12"/><stop offset="1" stop-color="gray" stop-opacity=".1"/></linearGradient><linearGradient id="paint8_linear" x1="8274.26" y1="3732.81" x2="8274.26" y2="3327.7" gradientUnits="userSpaceOnUse"><stop stop-color="gray" stop-opacity=".25"/><stop offset=".54" stop-color="gray" stop-opacity=".12"/><stop offset="1" stop-color="gray" stop-opacity=".1"/></linearGradient><linearGradient id="paint9_linear" x1="6861.64" y1="4228.13" x2="6861.64" y2="3823.03" gradientUnits="userSpaceOnUse"><stop stop-color="gray" stop-opacity=".25"/><stop offset=".54" stop-color="gray" stop-opacity=".12"/><stop offset="1" stop-color="gray" stop-opacity=".1"/></linearGradient><linearGradient id="paint10_linear" x1="6909.5" y1="2976.14" x2="6909.5" y2="2571.03" gradientUnits="userSpaceOnUse"><stop stop-color="gray" stop-opacity=".25"/><stop offset=".54" stop-color="gray" stop-opacity=".12"/><stop offset="1" stop-color="gray" stop-opacity=".1"/></linearGradient><linearGradient id="paint11_linear" x1="5545.93" y1="52615.2" x2="15611.8" y2="52615.2" gradientUnits="userSpaceOnUse"><stop stop-color="gray" stop-opacity=".25"/><stop offset=".54" stop-color="gray" stop-opacity=".12"/><stop offset="1" stop-color="gray" stop-opacity=".1"/></linearGradient><linearGradient id="paint12_linear" x1="2655.15" y1="3640.06" x2="2655.15" y2="3234.95" gradientUnits="userSpaceOnUse"><stop stop-color="gray" stop-opacity=".25"/><stop offset=".54" stop-color="gray" stop-opacity=".12"/><stop offset="1" stop-color="gray" stop-opacity=".1"/></linearGradient><clipPath id="clip0"><path fill="#fff" d="M0 0h230v155.812H0z"/></clipPath></defs></svg>