<svg width="25" height="25" fill="none" xmlns="http://www.w3.org/2000/svg"><path fill-rule="evenodd" clip-rule="evenodd" d="M15.37 3.539l1.39.544 2.22-1.633c.463-.272 1.019-.181 1.297.09l2.037 1.997c.37.363.37.907.092 1.27l-1.574 2.269.556 1.361 2.778.454c.463 0 .833.453.833.907v2.813c0 .454-.37.907-.833.998l-2.778.454-.556 1.361 1.667 2.178c.278.454.185.998-.093 1.27L20.37 21.87c-.37.363-.926.363-1.296.09l-2.315-1.542-1.389.544-.463 2.722c-.092.454-.555.817-1.018.817h-2.87c-.463 0-.926-.363-.926-.817l-.463-2.722-1.39-.544-2.314 1.542c-.37.273-.926.273-1.296-.09l-2.037-1.997c-.278-.272-.37-.816-.093-1.18l1.667-2.268a4.228 4.228 0 0 1-.556-1.361L.833 14.61C.37 14.52 0 14.065 0 13.611v-2.813c0-.454.37-.907.833-.907l2.778-.454c.093-.544.278-.907.556-1.361L2.5 5.807c-.278-.363-.185-.907.185-1.27l2.037-1.996c.278-.272.834-.363 1.204-.091L8.24 4.083l1.39-.543.463-2.722c0-.454.463-.817.925-.817h2.87c.464 0 .927.363 1.02.817l.462 2.722zM12.5 7.078c-2.87 0-5.278 2.36-5.278 5.172 0 2.813 2.408 5.172 5.278 5.172 2.87 0 5.278-2.36 5.278-5.172 0-2.813-2.408-5.172-5.278-5.172z" fill="#fff"/></svg>