<svg width="26" height="13" fill="none" xmlns="http://www.w3.org/2000/svg"><path d="M24.326 5.544a.682.682 0 0 0-.596.698v3.794l-8.815-8.83a.682.682 0 0 0-.957-.02h-.001L7.613 7.102l-5.44-5.44a.684.684 0 0 0-.978.958l.002.002 5.908 5.907a.682.682 0 0 0 .957.02c0 .001 0 0 0 0l6.344-5.914 8.364 8.377h-3.811a.68.68 0 0 0-.637.945.679.679 0 0 0 .637.419h5.453a.683.683 0 0 0 .681-.682v-5.45a.683.683 0 0 0-.767-.699zm0 0z" fill="#fff"/><path d="M24.326 5.544a.682.682 0 0 0-.596.698v3.794l-8.815-8.83a.682.682 0 0 0-.957-.02h-.001L7.613 7.102l-5.44-5.44a.684.684 0 0 0-.978.958l.002.002 5.908 5.907a.682.682 0 0 0 .957.02m16.264-3.004a.682.682 0 0 1 .767.698v5.45a.682.682 0 0 1-.681.683h-5.453a.684.684 0 0 1-.637-.945.679.679 0 0 1 .637-.419h3.81l-8.363-8.377L8.061 8.55m16.265-3.005s0 0 0 0zm0 0l.029.225M8.062 8.55s0 0 0 0z" stroke="#fff"/></svg>