<svg width="211" height="161" fill="none" xmlns="http://www.w3.org/2000/svg"><g clip-path="url(#clip0)"><path d="M41.644 1.64s-.733 2.878 4.391 11.015c5.125 8.137 4.769 9.29 4.473 11.616-.295 2.327-.278 3.6-3.255 6.457 0 0-8.92 2.947-10.113 4.785-1.192 1.837 1.97 8.518 1.97 8.518s3.038 8.115-7.87 11.229c0 0-8.535.011-10.902 1.904 0 0 .916-3.294-1.931-8.137s1.075-9.565 1.075-9.565 3.158-1.75 5.163-1.885c2.005-.134 2.641-1.058 1.352-3.377 0 0-1.865-.979-4.448 1.117-2.582 2.096-4.511 3.59-6.761 3.413-2.25-.176-5.46-1.131-7.565-5.32-2.106-4.19-3.215-10.114-4.792-12.818C.854 17.888 0 17.295 0 17.295s1.993 1.522 8.876-3.646c6.882-5.168 10.474-2.957 10.474-2.957s5.53 1.495 6.417 11.309c0 0 1.609 9.352 4.878 3.687 0 0-1.107-3.19-3.318-7.886-2.211-4.697 3.707-9.117 8.04-10.597 4.333-1.48 6.277-5.565 6.277-5.565z" fill="#FF69B4"/><path d="M6.027 19.367l-.02-.049c1.362-.571 7.641 2.851 12.662 5.824l-.027.045c-7.083-4.192-11.563-6.258-12.615-5.82z" fill="#444053"/><path d="M18.54 25.122l.053-.03c4.01 2.378 8.822 5.396 12.425 7.846.343.233.698.464 1.062.68l-.056.093a22.66 22.66 0 0 1-1.066-.685c-3.6-2.448-8.41-5.528-12.419-7.904z" fill="#444053"/><path d="M31.919 33.652l.09-.07c7.228 4.365 17.397 3.326 17.486 3.326l-1.122 1.282c-.09.006-9.175-.143-16.454-4.538z" fill="#444053"/><path d="M38.93 8.217s-2.367 6.632-.569 11.304c1.8 4.674-1.944 16.252-1.944 16.252s-1.243 4.87-3.242 6.088c0 0-2.9 3.622-4.6 4.037-1.699.415-5.608 4.09-5.505 6.123M42.13 8.684s-1.668 3.405-4.152 3.376m7.497 1.051s-1.009 4.683-7.261 5.992m9.866.987s-2.943 4.742-9.283 4.165m8.732 4.72s-5.537 3.65-9.724 1.646M35.017 8.684s1.446 3.08 3.047 2.153m-8.344 2.526s1.944 4.133 8.029 3.407m-8.617 2.808s5.352 3.272 9.692 2.386m-6.874 4.238s4.235 3.4 6.223 2.618m-7.215-.084s1.145 3.572.02 4.247m-3.771 1.109s2.183-2.182 1.575-2.583m-5.587-15.541s1.911 9.136-.572 11.602m-7.421 10.137s8.652-5.591 9.406-8.894M10.19 33.766s8.139-3.818 10.346-7.476" stroke="#444053" stroke-miterlimit="10"/><path d="M15.655 13.04s3.938 6.61 1.478 11.237m-9.597 3.485s6.028-2.456 7.248-4.822m-5.976-7.884s2.016 3.742 1.077 5.368" stroke="#444053" stroke-width=".75" stroke-miterlimit="10"/><path d="M29.702 37.192s5.445-.734 6.028.697m2.678 10.531s-.294-5.992-3.695-8.308m-11.236-.509s5.715.679 7.736 4.43m1.849 8.734s.883-4.39-3.292-7.493m-10.41-.368s4.74-.245 7.28 2.023m-.746 6.654s-.443-3.484-1.68-4.143" stroke="#444053" stroke-miterlimit="10"/><path opacity=".1" d="M99.432 38.624c-10.671 5.403-22.341 7.76-33.72 9.575-11.379 1.816-22.864 3.215-34.077 7.012-7.211 2.442-14.833 6.397-18.388 12.541-3.426 5.9-2.16 12.191-.348 17.674 1.362 4.123 3.112 8.296 6.838 10.816 2.59 1.75 5.953 2.57 8.777 4.058 9.822 5.176 11.415 17.317 9.832 28.484-.743 5.239-2.019 10.546-2.001 15.681.017 5.134 1.49 10.222 5.538 13.255 4.014 3.006 10.041 3.617 15.947 3.131 12.001-.978 24.068-5.986 35.561-11.367 25.449-11.911 49.826-26.112 74.147-40.278 8.996-5.242 18.033-10.51 26.316-16.72 4.599-3.447 9.14-7.408 11.263-12.147 2.705-6.016.642-12.57-4.811-15.276-9.14-4.54-24.422 1.447-32.304-4.483-4.354-3.264-4.922-9.236-4.212-14.843 1.521-12.046 7.806-25.323 3.009-35.516C163.504 3.219 154.835-.855 145.368.153c-9.918 1.056-20.91 7.618-23.866 16.463-3.037 9.109-12.648 17.228-22.07 22.008zm25.582 115.194c10.752 0 19.469-2.166 19.469-4.839 0-2.673-8.717-4.839-19.469-4.839s-19.468 2.166-19.468 4.839c0 2.673 8.716 4.839 19.468 4.839z" fill="#6C63FF"/><path d="M208.571 26.556H28.617A2.437 2.437 0 0 0 26.187 29v100.456a2.437 2.437 0 0 0 2.43 2.444H208.57a2.437 2.437 0 0 0 2.429-2.444V29.001a2.437 2.437 0 0 0-2.429-2.445z" fill="url(#paint0_linear)"/><path d="M208.299 28.038H28.91a2.437 2.437 0 0 0-2.429 2.444v98.623a2.436 2.436 0 0 0 2.43 2.444h179.388a2.437 2.437 0 0 0 2.429-2.444V30.482a2.437 2.437 0 0 0-2.429-2.444z" fill="#fff"/><path d="M208.299 28.038H28.91a2.437 2.437 0 0 0-2.429 2.444v98.623a2.436 2.436 0 0 0 2.43 2.444h179.388a2.437 2.437 0 0 0 2.429-2.444V30.482a2.437 2.437 0 0 0-2.429-2.444z" fill="#fff"/><path opacity=".04" d="M208.299 28.038H28.91a2.437 2.437 0 0 0-2.429 2.444v98.623a2.436 2.436 0 0 0 2.43 2.444h179.388a2.437 2.437 0 0 0 2.429-2.444V30.482a2.437 2.437 0 0 0-2.429-2.444z" fill="#5A5773"/><path d="M209.794 26.85H27.419c-.248 0-.486.1-.662.276a.944.944 0 0 0-.274.665v3.984H210.73v-3.984a.935.935 0 0 0-.936-.941z" fill="#5A5773"/><path d="M30.16 30.582c.699 0 1.265-.57 1.265-1.272 0-.703-.566-1.272-1.264-1.272-.699 0-1.264.57-1.264 1.272 0 .702.566 1.272 1.264 1.272zm3.404 0c.698 0 1.264-.57 1.264-1.272 0-.703-.566-1.272-1.264-1.272-.698 0-1.264.57-1.264 1.272 0 .702.566 1.272 1.264 1.272zm3.403 0c.698 0 1.264-.57 1.264-1.272 0-.703-.566-1.272-1.264-1.272-.698 0-1.264.57-1.264 1.272 0 .702.566 1.272 1.264 1.272z" fill="#fff"/><path opacity=".1" d="M190.466 54.688H40.796a1.988 1.988 0 0 0-1.981 1.994v55.5c0 1.102.887 1.994 1.981 1.994h149.67a1.987 1.987 0 0 0 1.981-1.994v-55.5a1.988 1.988 0 0 0-1.981-1.994z" fill="#6C63FF"/><path d="M194.162 52.761l-149.62-3.837a1.987 1.987 0 0 0-2.032 1.942l-1.406 55.483a1.988 1.988 0 0 0 1.93 2.044l149.622 3.837a1.987 1.987 0 0 0 2.031-1.943l1.406-55.482a1.99 1.99 0 0 0-1.931-2.044z" fill="#fff"/><path opacity=".2" d="M65.54 61.496l107.023 2.738M65.329 69.909l107.022 2.737M65.117 78.32l107.022 2.737M64.903 86.732l107.024 2.737" stroke="#5A5773" stroke-miterlimit="10"/><path opacity=".2" d="M74.63 84.696l-.27 10.695" stroke="#5A5773" stroke-miterlimit="10" stroke-dasharray="12 12"/><path opacity=".2" d="M64.691 95.144l107.022 2.736" stroke="#5A5773" stroke-miterlimit="10"/><path opacity=".2" d="M86.464 95.7l.403-15.943" stroke="#5A5773" stroke-miterlimit="10" stroke-dasharray="12 12"/><path opacity=".2" d="M157.262 78.497c-1.908.166-3.771-.91-4.913-2.04-1.182-1.175-2.04-2.62-2.868-4.024a78.476 78.476 0 0 0-.809-1.344c-1.445-2.306-2.888-3.855-4.539-4.879a8.626 8.626 0 0 0-1.931-.888 1.358 1.358 0 0 1-.275.418 1.355 1.355 0 0 1-.952.421h-.065a1.355 1.355 0 0 1-.873-.35 1.37 1.37 0 0 1-.439-.838 5.884 5.884 0 0 0-1.791.37c-1.698.644-2.987 2.028-4.16 3.391a77.531 77.531 0 0 0-4.065 5.14c-.259.355-.518.713-.777 1.074-1.385 1.945-2.816 3.954-4.668 5.526-2.485 2.12-5.474 3.035-7.996 2.446-3.026-.707-5.191-3.397-6.737-5.663a38.116 38.116 0 0 0-.599-.887c-1.443-2.152-2.935-4.377-5.136-5.675-2.9-1.712-6.904-1.416-9.53.699-1.279 1.031-2.24 2.432-3.17 3.786-.32.466-.65.947-.99 1.41-1.751 2.365-3.515 3.649-5.417 3.927-.754.084-1.515.084-2.27 0-.501-.035-1.02-.075-1.528-.061a7.317 7.317 0 0 0-3.573 1.112 7.376 7.376 0 0 0-2.566 2.737l-.269 11.264 84.072 2.152.471-18.635a1.159 1.159 0 0 1-1.363-.182 1.168 1.168 0 0 1-.274-.405v-.002z" fill="#6C63FF"/><path opacity=".2" d="M99.56 69.582l-.667 26.437m12.392-16.322l-.42 16.627m12.08-14.676l-.377 14.976m11.693-28.379l-.723 28.658m12.24-29.658l-.756 29.954m13.511-18.692l-.482 19.024" stroke="#5A5773" stroke-miterlimit="10" stroke-dasharray="12 12"/><path d="M142.085 64a1.367 1.367 0 0 0-.972-.38 1.358 1.358 0 0 0-.871.337 1.37 1.37 0 0 0-.047 2.018c.241.242.565.382.906.392h.064a1.358 1.358 0 0 0 1.326-1.22 1.06 1.06 0 0 0 0-.178 1.372 1.372 0 0 0-.406-.968zm-.068 1.41a.971.971 0 0 1-1.849-.403.978.978 0 0 1 .952-.998h.045c.25.006.488.11.664.287a.98.98 0 0 1 .283.67v.06a.912.912 0 0 1-.095.384zm16.528 14.015a1.17 1.17 0 0 0 1.167-1.174 1.17 1.17 0 0 0-1.167-1.175 1.17 1.17 0 0 0-1.167 1.175 1.17 1.17 0 0 0 1.167 1.174z" fill="#6C63FF"/><path d="M140.168 65.007a.73.73 0 0 0 .017.154c-.132 0-.264 0-.389.01a5.914 5.914 0 0 0-1.793.37c-1.698.644-2.987 2.027-4.162 3.391a78.534 78.534 0 0 0-4.066 5.137c-.259.356-.513.716-.778 1.076-1.386 1.945-2.818 3.953-4.667 5.526-2.488 2.12-5.478 3.033-8.003 2.444-3.022-.704-5.186-3.397-6.742-5.663-.195-.291-.401-.587-.599-.886-1.445-2.153-2.939-4.378-5.14-5.675-2.9-1.712-6.908-1.417-9.53.698-1.261 1.03-2.234 2.43-3.165 3.785-.32.466-.651.95-.992 1.409-1.75 2.366-3.516 3.65-5.418 3.927a10.36 10.36 0 0 1-2.27 0 14.755 14.755 0 0 0-1.53-.06 7.304 7.304 0 0 0-3.797 1.255 7.37 7.37 0 0 0-2.58 3.073l-.357-.156a7.775 7.775 0 0 1 2.72-3.239 7.708 7.708 0 0 1 4.002-1.325c.525-.007 1.05.014 1.572.063.726.08 1.458.08 2.184 0 1.795-.26 3.483-1.495 5.161-3.773.337-.456.665-.935.984-1.399.947-1.37 1.927-2.8 3.25-3.869a8.92 8.92 0 0 1 9.968-.73c2.28 1.345 3.798 3.607 5.269 5.797.194.293.389.587.597.882 1.507 2.207 3.607 4.828 6.507 5.503 2.403.561 5.268-.321 7.662-2.362 1.806-1.54 3.228-3.523 4.599-5.456.255-.36.513-.72.778-1.078a83.413 83.413 0 0 1 4.084-5.164c1.208-1.401 2.528-2.824 4.319-3.499a6.329 6.329 0 0 1 1.933-.391c.13 0 .265-.012.389 0a.894.894 0 0 0-.017.225zm18.445 13.427c-2.281.858-4.692-.422-6.065-1.78-1.183-1.174-2.04-2.62-2.869-4.025a62.99 62.99 0 0 0-.811-1.343c-1.445-2.307-2.888-3.857-4.541-4.88a8.655 8.655 0 0 0-1.931-.887 4.817 4.817 0 0 0-.389-.11.92.92 0 0 0 .096-.38c.128.032.254.07.388.109.715.225 1.399.54 2.037.935 1.707 1.055 3.189 2.644 4.667 5.004.278.446.55.906.817 1.354.816 1.381 1.66 2.812 2.806 3.943 1.289 1.276 3.547 2.487 5.657 1.695l.138.365z" fill="#6C63FF"/><path opacity=".5" d="M69.373 59.839l-3.616-.093a.176.176 0 0 0-.18.171l-.035 1.409a.176.176 0 0 0 .17.18l3.617.093a.176.176 0 0 0 .18-.171l.035-1.409a.175.175 0 0 0-.17-.18z" fill="#6C63FF"/><path d="M69.159 68.249l-3.617-.093a.175.175 0 0 0-.179.172l-.036 1.408a.176.176 0 0 0 .17.18l3.617.093a.175.175 0 0 0 .18-.171l.035-1.409a.176.176 0 0 0-.17-.18z" fill="#6C63FF"/><path opacity=".5" d="M68.946 76.663l-3.616-.093a.175.175 0 0 0-.18.172l-.035 1.408a.175.175 0 0 0 .17.18l3.616.094a.176.176 0 0 0 .18-.172l.035-1.409a.176.176 0 0 0-.17-.18zm-.213 8.41l-3.616-.093a.175.175 0 0 0-.18.172l-.035 1.408a.176.176 0 0 0 .17.18l3.616.094a.176.176 0 0 0 .18-.172l.035-1.408a.176.176 0 0 0-.17-.18zm-.213 8.412l-3.616-.093a.175.175 0 0 0-.18.172l-.035 1.409a.176.176 0 0 0 .17.18l3.616.093a.176.176 0 0 0 .18-.172l.035-1.408a.176.176 0 0 0-.17-.18zm7.357 3.712l-3.616-.093a.175.175 0 0 0-.179.172l-.036 1.408a.176.176 0 0 0 .17.18l3.617.094a.175.175 0 0 0 .18-.172l.035-1.409a.176.176 0 0 0-.17-.18zm12.345.316l-3.616-.092a.175.175 0 0 0-.18.171l-.035 1.409a.176.176 0 0 0 .17.18l3.617.093a.176.176 0 0 0 .179-.172l.036-1.408a.176.176 0 0 0-.17-.18z" fill="#6C63FF"/><path d="M100.212 98.375l-3.618-.11a.176.176 0 0 0-.18.171l-.042 1.41a.176.176 0 0 0 .17.181l3.617.109a.175.175 0 0 0 .18-.17l.042-1.41a.175.175 0 0 0-.169-.181z" fill="#6C63FF"/><path opacity=".5" d="M112.622 98.139l-3.616-.093a.175.175 0 0 0-.179.172l-.036 1.408a.176.176 0 0 0 .171.18l3.616.093a.175.175 0 0 0 .179-.171l.036-1.409a.176.176 0 0 0-.171-.18zm11.702.301l-3.616-.092a.176.176 0 0 0-.18.171l-.035 1.409a.175.175 0 0 0 .17.18l3.616.093a.175.175 0 0 0 .18-.171l.035-1.409a.175.175 0 0 0-.17-.18z" fill="#6C63FF"/><path d="M135.293 98.72l-3.616-.093a.175.175 0 0 0-.179.172l-.036 1.408a.177.177 0 0 0 .171.181l3.615.093a.177.177 0 0 0 .18-.172l.036-1.409a.176.176 0 0 0-.171-.18zm11.566.296l-3.616-.092a.176.176 0 0 0-.18.171l-.035 1.409a.174.174 0 0 0 .17.18l3.616.093a.176.176 0 0 0 .18-.172l.035-1.408a.175.175 0 0 0-.17-.18zm12.431 1.144l-3.427-.104a.271.271 0 0 0-.278.264l-.037 1.217a.271.271 0 0 0 .263.28l3.426.104a.272.272 0 0 0 .279-.264l.036-1.217a.271.271 0 0 0-.262-.28zm31.462 18.325c.445 0 .877.156 1.221.44a1.947 1.947 0 0 1 .477 2.411 1.93 1.93 0 0 1-.961.876 1.913 1.913 0 0 1-2.338-.713 1.947 1.947 0 0 1 .864-2.867 1.92 1.92 0 0 1 .737-.147zm0-.301a2.22 2.22 0 0 0-2.058 1.384 2.259 2.259 0 0 0 .484 2.442 2.218 2.218 0 0 0 3.427-.343 2.251 2.251 0 0 0-1.002-3.313 2.202 2.202 0 0 0-.851-.17z" fill="#6C63FF"/><path d="M190.155 121.082l.116-.156a.62.62 0 0 0 .426.178c.195 0 .348-.1.348-.259 0-.158-.142-.285-.535-.285v-.18c.351 0 .483-.118.483-.27 0-.153-.119-.225-.292-.225a.568.568 0 0 0-.368.15l-.124-.15a.772.772 0 0 1 .502-.196c.301 0 .525.147.525.403 0 .18-.13.299-.321.364v.01a.416.416 0 0 1 .373.391c0 .278-.26.446-.571.446a.749.749 0 0 1-.562-.221z" fill="#6C63FF"/><path d="M199.948 118.617c.446 0 .877.155 1.222.439a1.944 1.944 0 0 1-.485 3.288 1.916 1.916 0 0 1-2.337-.714 1.946 1.946 0 0 1 .239-2.446 1.904 1.904 0 0 1 1.361-.567zm0-.302a2.235 2.235 0 0 0-2.057 1.383 2.25 2.25 0 0 0 .483 2.442 2.22 2.22 0 0 0 3.426-.339 2.258 2.258 0 0 0-.277-2.83 2.236 2.236 0 0 0-.722-.486 2.23 2.23 0 0 0-.853-.17z" fill="#5A5773"/><path d="M199.977 120.321c0-.096 0-.217.014-.313h-.014c-.054.084-.116.168-.171.252l-.389.511h1.052v.205h-1.324v-.164l.79-1.045h.289v1.663h-.241l-.006-1.109zm-5.103-1.045a.201.201 0 0 1 .286 0l1.004 1.014a.188.188 0 0 1 .059.141.188.188 0 0 1-.059.14l-.988.998a.19.19 0 0 1-.144.065.197.197 0 0 1-.144-.065.188.188 0 0 1-.046-.065.192.192 0 0 1 .046-.222l.848-.861-.862-.857a.196.196 0 0 1-.063-.145.196.196 0 0 1 .063-.145v.002z" fill="#5A5773"/><path d="M193.163 120.421a2.206 2.206 0 0 0 1.349 2.037 2.175 2.175 0 0 0 2.386-.477c.306-.308.515-.7.599-1.128.084-.427.04-.87-.126-1.273a2.196 2.196 0 0 0-2.024-1.357 2.183 2.183 0 0 0-1.544.644 2.211 2.211 0 0 0-.64 1.554zm.337 0c-.001-.432.147-.85.418-1.184a1.843 1.843 0 0 1 2.307-.465 1.876 1.876 0 0 1 .902 2.186c-.125.413-.387.77-.744 1.01a1.846 1.846 0 0 1-2.341-.232 1.848 1.848 0 0 1-.542-1.315z" fill="#5A5773"/><path opacity=".2" d="M75.741 36.994h-42.69a.753.753 0 0 0-.751.756v3.156c0 .417.336.755.75.755h42.691c.415 0 .75-.338.75-.755V37.75a.753.753 0 0 0-.75-.756z" fill="#5A5773"/><path d="M137.529 148.161a37.22 37.22 0 0 1-.533-2.211s.013-1.292-.599-2.241l-.012-.323-.091-2.387c.147-.44.331-.866.55-1.274.401-.767-.132-3.499-.132-3.499s-1.733-3.814-1.441-6.287c.291-2.474-3.668-10.792-3.668-10.792-.01-.817.074-1.631.249-2.429.031-.167.04-.338.027-.508v-.063.02c-.115-1.619-1.505-4.609-1.505-4.609l-.051-5.798s.683-3.448-.82-7.98a42.74 42.74 0 0 1-1.095-3.832c-.025-.11-.051-.217-.072-.319 2.722-.526 4.786-.955 4.786-.955s-1.838-6.604-2.952-7.729c-1.115-1.125-2.11-4.757-2.11-4.757s-.737-4.687.109-6.098c.846-1.41.884-3.788.884-3.788s1.996-1.581 2.227-2.256c.232-.675.601-2.194.572-2.987-.029-.792-.315-1.489-.245-1.91.07-.42-.675-1.976-.362-2.739a2.09 2.09 0 0 0 .109-.728v-.032a10.14 10.14 0 0 0-.255-1.946 5.48 5.48 0 0 0-2.073-1.016l-.052-.176-.136-.472a2.316 2.316 0 0 0-.207-.113l-.011-.17-.045-.675.263-1.527c.529-2.671-2.993-2.935-2.993-2.935a1.843 1.843 0 0 0-1.029-.838c-.716-.223.035 3.984.375 4.24.255.197 1.074 1.492 1.469 2.13l.062.104a1.9 1.9 0 0 0-.154.176l.169.913.026.14a3.863 3.863 0 0 0-.524.978s.669.685.572 1.481c-.097.797.265 1.771.282 1.824-.039-.043-.509-.517-.955-.38-.445.137-1.692.566-1.692.566s-.935.196-.842.409c.094.213-.599 1.15-.599 1.15l-2.621-2.314c-.027-.07-.056-.141-.082-.216a5.982 5.982 0 0 1-.26-1.047 5.96 5.96 0 0 0 .799-.291 1.76 1.76 0 0 0 .683-.478c.243-.315.276-.73.365-1.113.171-.748.584-1.425.858-2.14a6.913 6.913 0 0 0 .358-3.787 2.527 2.527 0 0 0-.43-1.092c-.436-.556-1.192-.76-1.75-1.194-.559-.434-.942-1.117-1.589-1.436-.584-.286-1.284-.223-1.926-.09a10.297 10.297 0 0 0-3.547 1.446c-.359.233-.754.503-1.182.442-.366-.053-.644-.335-.889-.605 0-.011 0-.023.01-.035l-.029-.033a4.499 4.499 0 0 0-.319 1.92c0 .101.008.203.023.305 0 .035 0 .07.01.105a.646.646 0 0 1 0 .089.513.513 0 0 1-.014.135.994.994 0 0 1-.223.354c-.073.09-.138.187-.195.29 0-.036.02-.071.031-.104a1.512 1.512 0 0 0-.231.812.797.797 0 0 0 .212.565c.131.12.274.227.426.32-.04.281-.054.566-.043.85.035.848.288 1.672.734 2.392a4.897 4.897 0 0 0 1.81 1.718l.093.215c.356.843.638 1.832.566 2.757 0 .069-.014.135-.023.196a1.28 1.28 0 0 0-.088.11s-4.175.195-5.192-.656c-1.017-.851-2.398 2.284-2.398 2.284s-1.486.35-1.795.07c-.309-.28-2.056.037-2.056.037a3.766 3.766 0 0 0-2.647-.857 7.682 7.682 0 0 0-1.954-.998l-.047-.015a2.138 2.138 0 0 0-.947-.085s-2.118-1.628-2.752-2.522c-.633-.894-3.617-4.184-3.63-4.197l-.014-.167-.05-.493c-.085.016-.17.026-.255.031a9.448 9.448 0 0 0-.724-1.54s-.023-.626.152-.782c.175-.157-.17-2.446-.17-2.446s-2.016-4.282-3.55-.967c0 0-3.053 2.225-.329 4.571 0 0 1.07.47 1.233.869.107.26.492.978.75 1.46l.115.215-.029.026.055.407.021.158c-.484.303-.809.597-.72.804.16.356.275.73.343 1.114 0 0 3.811 4.444 4.358 6.383 0 0 9.976 5.456 13.201 5.75l-.444 2.934s-.105 1.762-.039 2.38c.067.618-.252 3.473-.252 3.473s-.389 4.19-.844 4.79c-.455.602-.269 3.099-.269 3.099a21.035 21.035 0 0 1-.505 3.567c-.411 1.6 0 3.546 0 3.546s-1.482 3.813 2.312 1.12c0 0 1.908-.195 4.105-.353v.22c0 .287.012.588.022.92.052 2.153.153 5.11.334 7.345.323 3.951 1.82 11.741 1.82 11.741l.15 3.935a5.402 5.402 0 0 0-.068 1.129 7.34 7.34 0 0 0 1.204 3.898l.4 2.614s.778 1.701.821 2.74c.001.085-.006.169-.019.252a1.823 1.823 0 0 0-.02.404c0 1.193.829 4.017.829 4.017s.153 2.873.583 3.023c.371.13-.426 1.675-.663 2.122 0-.028-.014-.055-.02-.083l-.048.088c-.08.236-.117.484-.107.732a1.044 1.044 0 0 0 .513.992c.833.47 1.286.869.601 1.063a7.459 7.459 0 0 0-.747.196l-.038-.094a.454.454 0 0 0-.247.493c-.012.209.07.515.291.965.743 1.514 1.241 2.08 1.241 2.08l.327-.051c-.044.128-.104.25-.177.364-.118.185-.278.34-.467.45a1.48 1.48 0 0 1-.583.225 1.636 1.636 0 0 0-1.191.64c-.404.571-.643 1.338.226 1.97l3.1.944s5.288.485 4.963-.693a36.232 36.232 0 0 1-.533-2.211 4.74 4.74 0 0 0-.508-2.09 2.409 2.409 0 0 0-.194-.304l.185-.029s.286-2.64.778-3.158c.112-.122.136-.21.106-.278.047-.145-.089-.223-.264-.264a1.61 1.61 0 0 0-.033.105 2.46 2.46 0 0 0-.5-.035s-.223-1.37.313-1.89a.517.517 0 0 0 .092-.413 2.283 2.283 0 0 0-.078-.558s-.012.022-.02.033c-.328-1.236-1.351-3.183-1.351-3.183s-.09-1.249.233-1.762c.323-.512-.303-6.79-.303-6.79s.012-3.047-.428-4.448c-.44-1.401.344-3.101.344-3.101s0-.034-.013-.09a.085.085 0 0 0 .009-.022s-.025-.196-.068-.477v.029c-.116-.802-.336-2.254-.482-2.924-.208-.951-.169-5.543-.169-5.543l.696-1.988 1.497 3.326 1.626 4.444s.759.922.811 1.885v.442c-.003.57.174 1.125.506 1.587 0 0 .467 2.109 1.085 2.628.618.519.661 1.565.661 1.565s.844 3.055 1.208 3.583c.305.447.369 1.701.389 2.084v.112s.144 1.098.175 2.025v.306c.009.252-.011.505-.061.753 0 .012 0 .027-.011.043v-.156a7.948 7.948 0 0 0-.146 1.929c.023 1.11.241 2.415.937 3.16 1.206 1.29 1.928 1.094 1.928 1.094s-.492 1.689-1.167 2.049a.314.314 0 0 0-.07.049c0-.031-.016-.065-.022-.096a.81.81 0 0 0-.177.628c-.021.736.485 1.908.942 2.438.165.153.366.261.583.317a.92.92 0 0 1-.105.071 2.118 2.118 0 0 1-.231.121c-.109.054-.226.09-.347.106a1.64 1.64 0 0 0-1.188.64c-.404.569-.645 1.336.224 1.968l3.102.944s5.287.475 4.963-.703z" fill="url(#paint1_linear)"/><path d="M117.506 150.909l-3.001-.94c-.842-.634-.613-1.401-.22-1.97a1.568 1.568 0 0 1 1.15-.64c.2-.033.39-.109.558-.223.185-.111.34-.266.453-.45a2.24 2.24 0 0 0 .294-1.165s3.214-1.084 4.14-.16c.165.167.306.357.416.565.318.65.487 1.363.496 2.086 0 0 .204 1.034.519 2.212.315 1.178-4.805.685-4.805.685zm14.443-2.03l-3.002-.947c-.843-.634-.611-1.401-.22-1.97a1.555 1.555 0 0 1 1.149-.638c.117-.017.23-.052.335-.106.077-.035.153-.074.225-.119.811-.492.745-1.615.745-1.615s3.215-1.084 4.142-.16c.124.125.234.263.327.413.595.949.583 2.244.583 2.244s.206 1.035.52 2.211c.313 1.176-4.804.687-4.804.687z" fill="#2D293D"/><path opacity=".1" d="M120.88 145.353c.165.167.306.358.416.566l-4.85.757a2.24 2.24 0 0 0 .294-1.164s3.214-1.083 4.14-.159zm14.764-1.616l.035.917c-.708 1.286-4.385 1.153-5.474.564.078-.035.153-.074.225-.119.811-.492.745-1.615.745-1.615s3.215-1.084 4.142-.16c.124.125.234.263.327.413z" fill="#000"/><path d="M136.072 139.758c-.212.409-.39.834-.531 1.272l.126 3.292c-.777 1.407-5.101 1.115-5.709.391-.609-.724-1.303-2.661-.654-3.021.65-.36 1.124-2.045 1.124-2.045s-.698.196-1.867-1.096c-1.168-1.291-.951-4.262-.777-4.978.173-.716-.121-3.084-.121-3.084s-.021-1.667-.373-2.196c-.352-.528-1.167-3.585-1.167-3.585s-.039-1.043-.64-1.565c-.601-.523-1.054-2.63-1.054-2.63a2.75 2.75 0 0 1-.482-1.775c.083-1.047-.788-2.141-.788-2.141l-1.579-4.444-1.455-3.327-.671 1.989s-.031 4.59.171 5.541c.203.951.549 3.486.549 3.486s-.766 1.698-.338 3.099c.427 1.401.418 4.45.418 4.45s.614 6.278.301 6.79c-.313.513-.222 1.762-.222 1.762s1.838 3.6 1.319 4.121c-.519.52-.302 1.888-.302 1.888s1.167-.045.681.476c-.486.52-.749 3.158-.749 3.158l-4.984.783s-.482-.566-1.204-2.082c-.721-1.517.072-1.38.732-1.566.659-.186.223-.587-.584-1.062-.807-.476-.389-1.613-.389-1.613s1.122-2.088.702-2.239c-.42-.15-.572-3.023-.572-3.023s-.958-3.385-.777-4.305c.18-.92-.778-3.1-.778-3.1l-.389-2.614c-1.607-2.538-1.12-4.931-1.12-4.931l-.156-4.043s-1.459-7.788-1.776-11.741c-.194-2.532-.305-5.992-.352-8.153a202.349 202.349 0 0 1-.036-2.015l17.817-2.567s.014.831.426 2.66c.22.98.556 2.251 1.066 3.834 1.458 4.532.803 7.98.803 7.98l.056 5.799s1.721 3.813 1.441 5.16a11.166 11.166 0 0 0-.231 2.426s3.843 8.323 3.564 10.796c-.278 2.474 1.401 6.288 1.401 6.288s.515 2.733.13 3.5z" fill="#575988"/><path opacity=".05" d="M125.014 118.446l5.418-.941s-2.956 3.287-5.418.941z" fill="#000"/><path opacity=".1" d="M129.44 112.182s.261 1.93-.892 2.705c0 0 2.1-.415.892-2.705zm-.569-6.154s-4.409 3.947-6.076 3.699c-1.666-.249 6.076-3.699 6.076-3.699zm-10.535 14.45s-3.43.921-3.481 2.324c-.05 1.403 3.481-2.324 3.481-2.324z" fill="#000"/><path opacity=".05" d="M119.758 137.823s-4.85 1.106-3.441 1.677c1.41.571 3.709.978 3.709.978s1.575.028-.268-2.655zm-4.39 2.706a.977.977 0 0 1-.472-.694l-.047.09s-.414 1.142.389 1.612c.094.053.179.106.263.159.142-.034.299-.059.447-.104.665-.192.228-.593-.58-1.063zm6.274-.575c.13-.131.113-.45.016-.859-.208.333-.243.836-.232 1.217a.966.966 0 0 1 .216-.358zm-1.536-20.708c-.162.5-.253 1.02-.272 1.544.079-.365.193-.723.338-1.068l-.066-.476zm11.102-2.614c.028-.151.038-.304.029-.458-.05.315-.081.605-.103.859.022-.135.047-.264.074-.401zm-10.653 17.438c.062-.104.088-.45.088-.93a3.156 3.156 0 0 0-.195 1.174c.026-.085.062-.167.107-.244zm1.326 7.817c-.305.951-.472 2.581-.472 2.581l-4.985.783s-.482-.565-1.199-2.086a4.653 4.653 0 0 1-.156-.362c-.294.151-.401.468.029 1.37.722 1.516 1.202 2.082 1.202 2.082l4.984-.783s.273-2.64.751-3.16c.231-.251.07-.366-.154-.425zm-6.901-7.226s.151 2.874.571 3.025c.195-.485.313-.941.125-1.008-.42-.15-.572-3.025-.572-3.025s-.959-3.383-.778-4.305c.181-.922-.778-3.1-.778-3.1l-.389-2.612c-1.589-2.527-1.1-4.924-1.1-4.924l-.156-4.041s-1.459-7.788-1.776-11.741c-.194-2.53-.305-5.992-.352-8.152 0-.391-.015-.736-.021-1.027l-.142.02s0 .802.035 2.015c.049 2.152.15 5.62.354 8.15.317 3.953 1.776 11.741 1.776 11.741l.142 4.039s-.489 2.397 1.1 4.924l.389 2.614s.955 2.174.778 3.098c-.177.923.794 4.309.794 4.309zm15.104 8.929a4.855 4.855 0 0 1-.869-1.947c-.494.483.163 2.262.741 2.955.609.727 4.932 1.019 5.708-.392l-.032-.794c-1.075 1.164-4.974.867-5.548.178zm6.112-4.951a8.227 8.227 0 0 0-.53 1.272l.021.587c.085-.217.21-.507.389-.851.118-.333.167-.687.142-1.039-.012.011-.016.021-.022.031zm-6.013.89c.145-.326.269-.662.37-1.005 0 0-.698.195-1.867-1.096-.85-.94-.972-2.769-.897-3.971-.18.716-.398 3.687.778 4.977.757.843 1.319 1.052 1.616 1.095zm-2.512-9.156c.103.818.162 1.641.177 2.466.015-.132.038-.263.07-.392.181-.716-.121-3.082-.121-3.082s-.021-1.669-.373-2.197c-.352-.529-1.167-3.585-1.167-3.585s-.039-1.041-.64-1.566c-.601-.524-1.058-2.624-1.058-2.624a2.737 2.737 0 0 1-.482-1.775c.084-1.047-.778-2.138-.778-2.138l-1.593-4.452-1.454-3.327-.671 1.996v.634l.544-1.614 1.455 3.326 1.581 4.446s.871 1.094.778 2.139a2.75 2.75 0 0 0 .482 1.777s.455 2.109 1.054 2.63c.599.52.642 1.565.642 1.565s.821 3.057 1.167 3.585c.346.529.387 2.188.387 2.188z" fill="#000"/><path d="M128.215 53.58l-.253 1.535.045.675.031.499-1.719.246-.208-.352c-.389-.638-1.176-1.935-1.423-2.13-.331-.257-1.062-4.464-.368-4.241.423.146.778.445.996.84 0 0 3.409.26 2.899 2.929z" fill="#FFCDD3"/><path opacity=".1" d="M128.038 56.289l-1.719.246-.208-.352a1.524 1.524 0 0 1 1.896-.391l.031.497z" fill="#000"/><path d="M128.507 57.097l-2.258.618-.062-.338-.163-.914s.855-1.245 2.193-.391l.133.463.157.562z" fill="#DCE6F2"/><path d="M91.472 55.17l-2.38 1.408-.24-.454c-.249-.479-.622-1.201-.727-1.46-.16-.39-1.194-.872-1.194-.872-2.64-2.348.313-4.57.313-4.57 1.48-3.312 3.438.98 3.438.98s.335 2.283.165 2.445c-.169.163-.145.783-.145.783a9.198 9.198 0 0 1 .77 1.74z" fill="#FFCDD3"/><path opacity=".1" d="M91.472 55.17l-2.38 1.408-.24-.454c.333-.3 1.511-1.342 1.914-1.313.194.019.39.019.583 0 .078.218.123.358.123.358z" fill="#000"/><path d="M91.748 55.901l-2.68 1.46-.078-.587-.054-.407s1.532-1.426 2.001-1.393c.238.024.478.015.714-.03l.05.495.047.462z" fill="#DCE6F2"/><path d="M121.977 63.942s-11.863 1.814-9.666 1c1.531-.567 2.11-1.583 2.196-2.689.07-.925-.195-1.913-.548-2.757a11.968 11.968 0 0 0-1.15-2.125s8.917-5.395 7.277-.744a7.356 7.356 0 0 0-.433 2.192 6.12 6.12 0 0 0 .317 2.19 6.547 6.547 0 0 0 2.007 2.933z" fill="#FFCDD3"/><path opacity=".1" d="M120.086 56.627a7.358 7.358 0 0 0-.433 2.192c-.831.76-1.774.748-2.982.795-.929.035-1.944.301-2.707-.12a11.9 11.9 0 0 0-1.149-2.125s8.911-5.393 7.271-.742z" fill="#000"/><path d="M116.325 59.942c2.724 0 4.932-2.221 4.932-4.962 0-2.741-2.208-4.963-4.932-4.963-2.723 0-4.932 2.222-4.932 4.963 0 2.74 2.209 4.962 4.932 4.962z" fill="#FFCDD3"/><path opacity=".1" d="M121.977 63.942s-11.863 1.814-9.666 1c1.531-.567 2.11-1.583 2.196-2.689.57-.669 1.75-1.174 2.499-1.46a3.558 3.558 0 0 1 2.159-.119c.281.072.55.186.799.337a6.546 6.546 0 0 0 2.013 2.931zm6.53-6.845l-2.258.618-.062-.338a2.005 2.005 0 0 1 2.162-.84l.158.56zm-36.759-1.196l-2.68 1.46-.078-.587c.955-.618 2.571-1.278 2.711-1.334l.047.461zm36.098 38.073c-4.586.912-11.118 2.121-12.172 1.841-.875-.23-3.635-.096-6.029.08-.027-1.213-.037-2.015-.037-2.015l17.818-2.567s.008.831.42 2.661z" fill="#000"/><path d="M132.408 92.706s-15.097 3.213-16.748 2.777c-1.651-.437-10.001.428-10.001.428-3.672 2.687-2.241-1.123-2.241-1.123s-.406-1.945-.011-3.546a21.96 21.96 0 0 0 .486-3.565s-.179-2.497.254-3.098c.434-.6.811-4.788.811-4.788s.306-2.851.242-3.474c-.065-.622.033-2.38.033-2.38l.426-2.934c-3.112-.298-12.785-5.765-12.785-5.765-.531-1.942-4.226-6.388-4.226-6.388a4.768 4.768 0 0 0-.332-1.113c-.275-.657 3.4-2.135 3.4-2.135s2.906 3.31 3.52 4.203c.615.895 2.669 2.525 2.669 2.525.308-.042.621-.012.916.086a.264.264 0 0 1 .049.014c.676.24 1.315.576 1.896 1 1.485-.141 2.561.86 2.561.86s1.688-.315 1.989-.035c.302.28 1.739-.066 1.739-.066s1.332-3.141 2.318-2.282c.986.86 5.027.661 5.027.661.511-.741 1.801-1.309 2.61-1.606a3.556 3.556 0 0 1 2.158-.12c.31.08.604.212.87.392l2.543 2.32s.669-.943.584-1.148c-.086-.205.815-.407.815-.407s1.186-.423 1.637-.564c.451-.14.887.337.924.38-.016-.053-.366-1.049-.274-1.824.091-.775-.555-1.481-.555-1.481 1.313-3.64 4.699-.765 4.699-.765s.447 1.943.144 2.706c-.304.763.42 2.321.354 2.74-.066.418.208 1.119.239 1.91.031.79-.331 2.29-.56 2.972-.23.683-2.139 2.252-2.139 2.252s-.033 2.38-.85 3.787-.099 6.098-.099 6.098.972 3.633 2.047 4.76c1.076 1.128 2.861 7.736 2.861 7.736z" fill="#656691"/><path opacity=".1" d="M109.206 66.147s-.508-1.358-.928-1.465a9.748 9.748 0 0 1-1.221-.495l.247-.525s1.573.37 1.837.818c.265.448.065 1.667.065 1.667zm-8.438-2.719c-.069.42-3.738.937-3.738.937l1.79-1.957.048.016c.678.24 1.318.578 1.9 1.004z" fill="#000"/><path d="M89.885 58.455c.182 0 .33-.149.33-.333a.332.332 0 0 0-.33-.332.332.332 0 0 0-.33.332c0 .184.147.333.33.333zm.449.65c.183 0 .33-.15.33-.333a.332.332 0 0 0-.33-.332.332.332 0 0 0-.33.332c0 .184.148.333.33.333zm.438.599c.182 0 .33-.15.33-.333a.332.332 0 0 0-.33-.333.332.332 0 0 0-.331.333c0 .184.148.333.33.333zm.461.649c.182 0 .33-.149.33-.333a.332.332 0 0 0-.33-.332.332.332 0 0 0-.331.332c0 .184.148.333.33.333zm39.03-1.608c.149 0 .27-.122.27-.272a.271.271 0 0 0-.27-.272.271.271 0 0 0-.27.272c0 .15.121.272.27.272zm.064.612c.15 0 .271-.122.271-.272a.271.271 0 0 0-.541 0c0 .15.121.272.27.272zm.06.613c.15 0 .271-.122.271-.272a.271.271 0 0 0-.541 0c0 .15.121.272.27.272z" fill="#575988"/><path opacity=".1" d="M109.659 77.439c-.041-.05 9.747 11.451 16.724 4.316.008 0-11.382 2.006-16.724-4.316zm-5.13 6.373s5.591-.063 6.236 1.53l.065 1.683a1.066 1.066 0 0 1-1.039.041c-.583-.285-4.018-1.88-5.177-1.004l-.085-2.25z" fill="#000"/><path d="M104.636 83.808s5.348-.06 5.964 1.46l.062 1.603a1.017 1.017 0 0 1-.994.039c-.55-.27-3.842-1.793-4.951-.955l-.081-2.147z" fill="#656691"/><path opacity=".1" d="M107.113 71.5a18.111 18.111 0 0 0 2.311 3.653 14.553 14.553 0 0 0 3.518 3.166s-5.704-6.06-5.829-6.82zm-2.077-6.47s1.087 4.012 3.542 5.293l-3.542-5.293zm-1.412.464c-.027-.075-.706 3.233 3.287 4.892 0 .002-1.688-.503-3.287-4.892zm24.286-3.66c-.062 0 1.986 1.206 2.549 1.78 0 0-1.372-1.899-2.549-1.78z" fill="#000"/><path d="M115.166 59.527c.08.253.177.529.411.654a.996.996 0 0 0 .468.086c1.505.037 3.071.043 4.438-.587.256-.103.483-.267.661-.48.236-.313.267-.727.352-1.11.166-.748.556-1.426.829-2.142a7.114 7.114 0 0 0 .342-3.8 2.548 2.548 0 0 0-.418-1.092c-.42-.557-1.155-.761-1.7-1.195-.544-.435-.91-1.12-1.538-1.439-.566-.287-1.243-.225-1.863-.094a9.739 9.739 0 0 0-3.421 1.45c-.348.233-.729.503-1.143.44-.364-.052-.636-.348-.879-.624a4.657 4.657 0 0 0-.286 2.175.996.996 0 0 1 0 .326.997.997 0 0 1-.216.352c-.354.449-.56 1.141-.177 1.566.167.184.416.278.583.466.292.338.218.843.228 1.29a.664.664 0 0 0 .126.434.635.635 0 0 0 .613.123c.207-.072.427-.102.645-.088.237.067.443.213.584.415.721.851 1.031 1.816 1.361 2.874z" fill="#2D293D"/><path opacity=".1" d="M121.294 58.807a1.666 1.666 0 0 1-.659.478c-1.362.636-2.933.63-4.44.587a1.033 1.033 0 0 1-.469-.086c-.231-.126-.33-.403-.41-.656-.331-1.056-.64-2.023-1.361-2.884a1.08 1.08 0 0 0-.584-.413 1.664 1.664 0 0 0-.645.086.64.64 0 0 1-.615-.121.68.68 0 0 1-.126-.437c-.01-.446.064-.95-.226-1.287-.163-.196-.412-.282-.583-.468a.984.984 0 0 1-.133-.99c-.247.43-.34.978-.019 1.33.165.184.416.278.583.468.292.337.218.842.228 1.288a.666.666 0 0 0 .126.434.635.635 0 0 0 .613.123c.207-.07.427-.1.646-.087.236.066.442.213.583.414.729.861 1.037 1.826 1.361 2.885.08.252.177.528.411.655.147.066.308.095.468.086 1.506.036 3.071.041 4.438-.587.256-.102.483-.266.661-.477a1.39 1.39 0 0 0 .195-.411.743.743 0 0 1-.043.07zm-9.864-6.854a.7.7 0 0 0 .14-.257.887.887 0 0 0 0-.325 4.631 4.631 0 0 1 .162-1.802l-.029-.033a4.657 4.657 0 0 0-.286 2.174c.012.08.017.161.013.242zm2.972 10.613s6.186.588 6.705-.37l-6.705.37zm11.869-3.026s3.42-.128 4.222 1.132l-4.222-1.133z" fill="#000"/><path d="M201.066 124.922s1.154 1.516-.532 3.808c-1.687 2.291-3.075 4.224-2.513 5.653 0 0 2.544-4.254 4.613-4.315 2.069-.061.71-2.591-1.568-5.146z" fill="#FF69B4"/><path opacity=".1" d="M201.066 124.922c.102.145.181.306.236.475 2.02 2.387 3.096 4.616 1.155 4.671-1.809.053-3.979 3.307-4.498 4.127.017.066.038.132.062.196 0 0 2.544-4.254 4.613-4.315 2.069-.061.71-2.599-1.568-5.154z" fill="#000"/><path d="M203.211 126.853c0 .534-.06.967-.134.967-.074 0-.132-.433-.132-.967s.074-.282.148-.282.118-.252.118.282z" fill="#FFD037"/><path d="M203.946 127.491c-.466.254-.873.409-.908.344-.035-.064.315-.325.778-.587.463-.262.282-.07.319 0 .037.071.276-.013-.189.243z" fill="#FFD037"/><path d="M194.976 124.922s-1.154 1.516.53 3.808c1.685 2.291 3.077 4.224 2.515 5.653 0 0-2.544-4.254-4.613-4.315-2.069-.061-.71-2.591 1.568-5.146z" fill="#FF69B4"/><path opacity=".1" d="M194.976 124.922a1.787 1.787 0 0 0-.236.475c-2.02 2.387-3.096 4.616-1.155 4.671 1.809.053 3.977 3.307 4.498 4.127a1.937 1.937 0 0 1-.062.196s-2.544-4.254-4.613-4.315c-2.069-.061-.71-2.599 1.568-5.154z" fill="#000"/><path d="M192.831 126.853c0 .534.06.967.134.967.074 0 .132-.433.132-.967s-.074-.282-.148-.282-.118-.252-.118.282z" fill="#FFD037"/><path d="M192.095 127.491c.467.254.874.409.909.344.035-.064-.315-.325-.778-.587-.463-.262-.284-.07-.319 0-.035.071-.278-.013.188.243z" fill="#FFD037"/><path opacity=".1" d="M198.019 145.989c6.659 0 12.057-.833 12.057-1.861s-5.398-1.861-12.057-1.861c-6.659 0-12.057.833-12.057 1.861s5.398 1.861 12.057 1.861z" fill="#6C63FF"/><path d="M204.226 132.336l-.058.474-.08.669-.033.28-.081.669-.035.28-.082.667-.922 7.612c-.083.679-1.186 1.21-2.516 1.21h-4.796c-1.332 0-2.433-.531-2.514-1.21l-.926-7.612-.08-.667-.033-.28-.084-.669-.033-.28-.081-.669-.057-.474c-.046-.391.551-.708 1.303-.708h9.813c.745 0 1.344.323 1.295.708z" fill="#65617D"/><path d="M204.168 132.81l-.081.669h-12.136l-.079-.669h12.296zm-.115.947l-.079.671h-11.906l-.081-.671h12.066zm-.116.949l-.08.669h-11.674l-.082-.669h11.836z" fill="#9D9CB5"/></g><defs><linearGradient id="paint0_linear" x1="118.593" y1="131.9" x2="118.593" y2="26.556" gradientUnits="userSpaceOnUse"><stop stop-color="gray" stop-opacity=".25"/><stop offset=".54" stop-color="gray" stop-opacity=".12"/><stop offset="1" stop-color="gray" stop-opacity=".1"/></linearGradient><linearGradient id="paint1_linear" x1="36323.4" y1="82676.5" x2="34205" y2="27875.4" gradientUnits="userSpaceOnUse"><stop stop-color="gray" stop-opacity=".25"/><stop offset=".54" stop-color="gray" stop-opacity=".12"/><stop offset="1" stop-color="gray" stop-opacity=".1"/></linearGradient><clipPath id="clip0"><path fill="#fff" d="M0 0h211v161H0z"/></clipPath></defs></svg>