<svg xmlns="http://www.w3.org/2000/svg" viewBox="0 0 100 100"><path d="M68.2 95H31.8c-3.3 0-6.1-2.5-6.6-5.7l-8.9-65.4c-.2-1.4.9-2.7 2.4-2.7h62.5c1.4 0 2.6 1.3 2.4 2.7l-8.9 65.4c-.4 3.2-3.2 5.7-6.5 5.7zM20.9 24.8c-.4 0-.7.4-.7.7l8.6 63.3c.2 1.5 1.5 2.6 3 2.6h36.3c1.5 0 2.8-1.1 3-2.6l8.6-63.3c.1-.4-.3-.8-.7-.8H20.9zM82.2 14H65.8V8c0-1.7-1.3-3-3-3H37.3c-1.6 0-3 1.3-3 3v6H17.8c-1 0-1.8.8-1.8 1.8s.8 1.8 1.8 1.8h64.3c1 0 1.8-.8 1.8-1.8.1-1-.7-1.8-1.7-1.8zm-20 0H37.9V9c0-.2.2-.4.3-.4h23.6c.2 0 .4.2.4.4v5z" fill="#5A01AB"/></svg>