<svg width="52" height="53" fill="none" xmlns="http://www.w3.org/2000/svg"><path d="M26 23.375a11.375 11.375 0 1 0 0-22.75 11.375 11.375 0 0 0 0 22.75zm0-20a8.625 8.625 0 1 1 0 17.25 8.625 8.625 0 0 1 0-17.25zm2 22.25h-4A23.375 23.375 0 0 0 .625 49 3.375 3.375 0 0 0 4 52.375h44A3.375 3.375 0 0 0 51.375 49 23.375 23.375 0 0 0 28 25.625zm20 24H4A.625.625 0 0 1 3.375 49 20.625 20.625 0 0 1 24 28.375h4A20.625 20.625 0 0 1 48.625 49a.624.624 0 0 1-.625.625z" fill="#BDBDBD" stroke="#BDBDBD" stroke-width=".75"/></svg>