<svg width="445" height="645" fill="none" xmlns="http://www.w3.org/2000/svg"><path d="M325 0H37v645h317.5C512.5 389 437 135 325 0z" fill="#AC3BFA"/><path d="M324.5 0H0v645h324.5c158-256 65.833-536.667 0-645z" fill="#5703A5"/><path d="M0 532c85 0 157 52 226 52s118-15.9 146-33.5c0 0-12.607 29-14 32.5-.677 1.701-12.117 25.152-19 37.5-7.278 13.057-14.5 24.5-14.5 24.5H0V532z" fill="#932AE1" fill-opacity=".5"/><path d="M144 582c39-21 151-53.5 236-53.5L367.5 562l-21 45-21.5 38H0v-46.5c28 17.6 105 4.5 144-16.5z" fill="#932AE1" fill-opacity=".5"/></svg>