<svg width="59" height="10" fill="none" xmlns="http://www.w3.org/2000/svg"><path d="M7.289.849a.754.754 0 0 1-.75.76H4.394v7.202a.756.756 0 0 1-1.51 0V1.61H.749A.754.754 0 0 1 0 .849c0-.412.337-.75.749-.75h5.79c.413 0 .75.338.75.75zm2.11 4.73h2.646c-.25-.474-.712-.749-1.273-.749a1.62 1.62 0 0 0-1.373.749zm3.632 1.26H9.185A1.646 1.646 0 0 0 10.771 8.1c.399 0 .985-.162 1.31-.474a.749.749 0 0 1 1.06.013c.3.287.288.773-.012 1.06-.686.662-1.647.886-2.358.886a3.116 3.116 0 0 1-3.12-3.132c0-1.71 1.385-3.133 3.12-3.133.187 0 .361.012.549.05a3.02 3.02 0 0 1 2.021 1.435c.2.35.425.811.4 1.224 0 .112-.05.236-.1.361-.1.237-.312.45-.611.45zm5.591-.461c0-.861-.711-1.56-1.56-1.56-.861 0-1.572.699-1.572 1.56 0 .861.71 1.548 1.572 1.548.849 0 1.56-.687 1.56-1.548zm1.735-2.36v4.78a.714.714 0 0 1-.724.713c-.412 0-.661-.325-.661-.712v-.15c-.537.462-1.161.737-1.91.737a3.012 3.012 0 0 1-3.02-3.008c0-1.66 1.348-3.02 3.02-3.02.749 0 1.373.287 1.91.723V4.02c0-.387.25-.712.661-.712.412 0 .724.325.724.712zm9.398 1.711v3.07a.733.733 0 0 1-.736.749.754.754 0 0 1-.761-.75V5.692c0-.487-.437-.86-.949-.86-.55 0-.986.373-.986.86V8.8a.74.74 0 0 1-.736.749.735.735 0 0 1-.75-.75V5.692c0-.487-.436-.86-.973-.86-.536 0-.973.373-.973.86v3.146a.74.74 0 0 1-.749.736.757.757 0 0 1-.749-.736V4.069a.77.77 0 0 1 .75-.762c.236 0 .46.125.573.3a2.55 2.55 0 0 1 1.148-.275c.662 0 1.261.25 1.723.674.437-.424 1.036-.674 1.722-.674 1.335 0 2.446 1.061 2.446 2.36v.037zM39.84 4.78a.74.74 0 0 1-.748.737h-3.57v3.22a.74.74 0 0 1-.748.736.73.73 0 0 1-.737-.736V.749A.74.74 0 0 1 34.773 0h4.319c.412 0 .749.337.749.749a.751.751 0 0 1-.75.749h-3.569v2.534h3.57c.412 0 .749.324.749.748zm3.209 4.007a.756.756 0 0 1-.761.76 1.764 1.764 0 0 1-1.36-.673c-.375-.487-.35-1.036-.35-1.623V.825a.75.75 0 0 1 .749-.749c.424 0 .76.337.76.749V7.6c0 .038-.012.075-.012.112 0 .038.013.075.013.113 0 .112.087.212.2.212.424 0 .76.337.76.748zm3.681-3.994c-.886 0-1.597.711-1.597 1.597s.711 1.598 1.598 1.598c.886 0 1.597-.712 1.597-1.598 0-.886-.711-1.597-1.597-1.597zm0 4.73a3.135 3.135 0 0 1-3.132-3.133 3.143 3.143 0 0 1 3.133-3.132c1.722 0 3.133 1.41 3.145 3.144a3.151 3.151 0 0 1-3.145 3.121zM59 7.252v.074c-.05 1.261-1.136 2.284-2.471 2.284a2.557 2.557 0 0 1-1.723-.674 2.532 2.532 0 0 1-1.722.674c-1.36 0-2.471-1.06-2.471-2.358V4.119a.75.75 0 0 1 .749-.749.75.75 0 0 1 .748.749v3.133c0 .474.437.86.974.86.537 0 .973-.386.973-.86V4.119a.75.75 0 0 1 .75-.749.75.75 0 0 1 .748.749v3.133c0 .474.437.86.974.86.536 0 .973-.386.973-.86V4.094c0-.412.337-.75.749-.75s.749.338.749.75V7.25z" fill="#5703A5"/></svg>