<svg xmlns="http://www.w3.org/2000/svg" viewBox="0 0 100 100" x="0px" y="0px"><path d="M13.443,79.65936c0,2.071.924,2.4101,2.06226,2.4101h68.9895c1.13825,0,2.06226-.33905,2.06226-2.4101,0-4.88165-.21259-6.92987-3.32355-10.97888C75.3656,58.44116,73.6441,53.12567,73.6441,38.44031c0-12.51111-9.27673-21.37854-19.05969-23.54651a6.01093,6.01093,0,1,0-9.16882,0c-9.783,2.168-19.05969,11.0354-19.05969,23.54651,0,14.68536-1.7215,20.00085-9.58936,30.24017C13.65558,72.72949,13.443,74.77771,13.443,79.65936Z" fill="#111" /><path d="M58.66345,86.33655H41.33655a8.66345,8.66345,0,0,0,17.3269,0Z" fill="#111" /><copyright>Bell by Markus from the Noun Project</copyright></svg>