<svg width="32" height="32" viewBox="0 0 32 32" fill="none" xmlns="http://www.w3.org/2000/svg">
<path d="M4.30176 25.491C4.30176 26.1537 4.59744 26.2622 4.96168 26.2622H27.0383C27.4026 26.2622 27.6982 26.1537 27.6982 25.491C27.6982 23.9289 27.6302 23.2734 26.6347 21.9778C24.117 18.7012 23.5661 17.0002 23.5661 12.3009C23.5661 8.29735 20.5976 5.45977 17.467 4.76602C17.7044 4.48612 17.8567 4.14415 17.906 3.78048C17.9554 3.41681 17.8996 3.04661 17.7454 2.71359C17.5912 2.38057 17.3449 2.09863 17.0356 1.90104C16.7263 1.70344 16.367 1.59845 16 1.59845C15.633 1.59845 15.2737 1.70344 14.9644 1.90104C14.6551 2.09863 14.4088 2.38057 14.2546 2.71359C14.1004 3.04661 14.0446 3.41681 14.094 3.78048C14.1433 4.14415 14.2956 4.48612 14.533 4.76602C11.4024 5.45978 8.43389 8.29735 8.43389 12.3009C8.43389 17.0002 7.88301 18.7012 5.36529 21.9778C4.36979 23.2734 4.30176 23.9289 4.30176 25.491Z" fill="white"/>
<path d="M18.7723 27.6277H13.2277C13.2277 28.3629 13.5198 29.0681 14.0397 29.588C14.5596 30.1079 15.2647 30.4 16 30.4C16.7353 30.4 17.4404 30.1079 17.9603 29.588C18.4802 29.0681 18.7723 28.3629 18.7723 27.6277Z" fill="white"/>
</svg>
