<svg width="43" height="38" viewBox="0 0 43 38" fill="none" xmlns="http://www.w3.org/2000/svg">
<path d="M19.2289 0.457831H21.9759C23.493 0.457831 24.7229 1.6877 24.7229 3.20482V5.95181H23.8072V3.20482C23.8072 2.19341 22.9873 1.37349 21.9759 1.37349H19.2289C18.2175 1.37349 17.3976 2.19341 17.3976 3.20482V5.95181H16.4819V3.20482C16.4819 1.6877 17.7118 0.457831 19.2289 0.457831Z" fill="white"/>
<path fill-rule="evenodd" clip-rule="evenodd" d="M25.1807 6.40964H23.3494V3.20482C23.3494 2.44626 22.7345 1.83133 21.9759 1.83133H19.2289C18.4704 1.83133 17.8554 2.44626 17.8554 3.20482V6.40964H16.0241V3.20482C16.0241 1.43485 17.459 0 19.2289 0H21.9759C23.7459 0 25.1807 1.43485 25.1807 3.20482V6.40964ZM24.7229 3.20482C24.7229 1.6877 23.493 0.457831 21.9759 0.457831H19.2289C17.7118 0.457831 16.4819 1.6877 16.4819 3.20482V5.95181H17.3976V3.20482C17.3976 2.19341 18.2175 1.37349 19.2289 1.37349H21.9759C22.9873 1.37349 23.8072 2.19341 23.8072 3.20482V5.95181H24.7229V3.20482Z" fill="white"/>
<path fill-rule="evenodd" clip-rule="evenodd" d="M42.1205 19.0458H0V7.32532C0 6.88819 0.171413 6.46896 0.476529 6.15987C0.781645 5.85077 1.19547 5.67712 1.62697 5.67712H40.4935C40.925 5.67712 41.3388 5.85077 41.644 6.15987C41.9491 6.46896 42.1205 6.88819 42.1205 7.32532V19.0458Z" fill="white"/>
<path d="M17.3976 22.4337H0V36.5704C0 36.9496 0.171413 37.3132 0.476529 37.5813C0.781645 37.8494 1.19547 38 1.62697 38H40.4935C40.925 38 41.3388 37.8494 41.644 37.5813C41.9491 37.3132 42.1205 36.9496 42.1205 36.5704V22.4337H25.6386V23.8072C25.6386 24.8186 24.8186 25.6386 23.8072 25.6386H19.2289C18.2175 25.6386 17.3976 24.8186 17.3976 23.8072V22.4337Z" fill="white"/>
</svg>
