<svg width="25" height="18" viewBox="0 0 25 18" fill="none" xmlns="http://www.w3.org/2000/svg">
<g clip-path="url(#clip0)">
<path d="M12.4999 5.74348C14.1041 5.74348 15.4047 4.45771 15.4047 2.87173C15.4047 1.28575 14.1041 0 12.4999 0C10.8957 0 9.59509 1.28575 9.59509 2.87173C9.59509 4.45771 10.8957 5.74348 12.4999 5.74348Z" fill="white"/>
<path d="M18.7907 10.17C18.8447 9.33953 18.3711 8.48095 17.6637 7.98777C17.4234 7.8201 17.1561 7.69457 16.8731 7.62688C14.0121 7.00535 10.988 7.00535 8.11842 7.62883C7.83803 7.69596 7.57294 7.82092 7.33404 7.98777C6.62952 8.48009 6.15535 9.3401 6.20961 10.1742C6.3025 11.4083 6.3957 12.6693 6.48886 13.9562C6.615 15.6461 7.99539 17.2321 9.57491 17.493C10.5454 17.632 11.5226 17.7017 12.4999 17.7017C13.4772 17.7017 14.4544 17.632 15.4249 17.493C15.428 17.4927 15.4308 17.4922 15.4339 17.4916C17.0046 17.2321 18.385 15.6461 18.5112 13.9553C18.6043 12.6693 18.6972 11.4083 18.7907 10.17Z" fill="white"/>
<path d="M19.9561 6.93768C21.2884 6.93768 22.3684 5.86993 22.3684 4.55285C22.3684 3.23578 21.2884 2.16803 19.9561 2.16803C18.6239 2.16803 17.5439 3.23578 17.5439 4.55285C17.5439 5.86993 18.6239 6.93768 19.9561 6.93768Z" fill="white"/>
<path d="M24.9965 10.8379C25.0416 10.1205 24.6457 9.37877 24.0542 8.95271C23.8533 8.80789 23.6297 8.69945 23.3932 8.64095C21.001 8.10402 18.4725 8.10402 16.0732 8.64264C15.8387 8.70066 15.6171 8.80858 15.4174 8.95271C14.8283 9.37804 14.4318 10.1209 14.4772 10.8415C14.5549 11.9076 14.6328 12.9969 14.7107 14.1086C14.8162 15.5684 15.9704 16.9385 17.291 17.1639C18.1024 17.284 18.9195 17.3442 19.7366 17.3442C20.5537 17.3442 21.3708 17.284 22.1822 17.1639C22.1849 17.1637 22.1872 17.1632 22.1898 17.1627C23.5032 16.9385 24.6573 15.5684 24.7628 14.1079C24.8407 12.9969 24.9184 11.9076 24.9965 10.8379Z" fill="white"/>
<path d="M5.48246 6.93768C6.81469 6.93768 7.89474 5.86993 7.89474 4.55285C7.89474 3.23578 6.81469 2.16803 5.48246 2.16803C4.15021 2.16803 3.07018 3.23578 3.07018 4.55285C3.07018 5.86993 4.15021 6.93768 5.48246 6.93768Z" fill="white"/>
<path d="M10.5228 10.8379C10.5679 10.1205 10.172 9.37877 9.58053 8.95271C9.37961 8.80789 9.15605 8.69945 8.91947 8.64095C6.52732 8.10402 3.9988 8.10402 1.5995 8.64264C1.36506 8.70066 1.14344 8.80858 0.943675 8.95271C0.354599 9.37804 -0.0418398 10.1209 0.00352858 10.8415C0.0812013 11.9076 0.159111 12.9969 0.237022 14.1086C0.342485 15.5684 1.49665 16.9385 2.81732 17.1639C3.62872 17.284 4.44583 17.3442 5.26294 17.3442C6.08004 17.3442 6.89715 17.284 7.70855 17.1639C7.71118 17.1637 7.71355 17.1632 7.71614 17.1627C9.02947 16.9385 10.1836 15.5684 10.2891 14.1079C10.367 12.9969 10.4447 11.9076 10.5228 10.8379Z" fill="white"/>
</g>
<defs>
<clipPath id="clip0">
<rect width="25" height="17.7778" fill="white"/>
</clipPath>
</defs>
</svg>
