<svg width="48" height="72" viewBox="0 0 48 72" fill="none" xmlns="http://www.w3.org/2000/svg">
<path d="M24 0C14.6166 0 7 7.61659 7 17V31.0625C2.67381 35.4045 0 41.4003 0 48C0 61.2311 10.7689 72 24 72C37.2311 72 48 61.2311 48 48C48 41.4003 45.3262 35.4045 41 31.0625V17C41 7.61659 33.3834 0 24 0ZM24 4C31.2366 4 37 9.76341 37 17V27.8438C33.2515 25.4179 28.7881 24 24 24C19.2119 24 14.7485 25.4179 11 27.8438V17C11 9.76341 16.7634 4 24 4ZM24 28C35.0694 28 44 36.9306 44 48C44 59.0694 35.0694 68 24 68C12.9306 68 4 59.0694 4 48C4 36.9306 12.9306 28 24 28ZM24 38C20.71 38 18 40.71 18 44C18 46.588 19.683 48.8228 22 49.6562V56C21.9963 56.265 22.0452 56.5281 22.144 56.7741C22.2429 57.02 22.3896 57.2439 22.5757 57.4326C22.7618 57.6213 22.9835 57.7712 23.228 57.8735C23.4725 57.9758 23.7349 58.0285 24 58.0285C24.2651 58.0285 24.5275 57.9758 24.772 57.8735C25.0165 57.7712 25.2382 57.6213 25.4243 57.4326C25.6104 57.2439 25.7571 57.02 25.856 56.7741C25.9548 56.5281 26.0037 56.265 26 56V49.6562C28.317 48.8228 30 46.588 30 44C30 40.71 27.29 38 24 38ZM24 42C25.1282 42 26 42.8718 26 44C26 45.1282 25.1282 46 24 46C22.8718 46 22 45.1282 22 44C22 42.8718 22.8718 42 24 42Z" fill="#BDBDBD"/>
</svg>
