<svg width="391" height="94" viewBox="0 0 391 94" fill="none" xmlns="http://www.w3.org/2000/svg">
<path d="M151.585 41.2369C151.585 43.1556 150.062 44.6769 148.202 44.6769H138.501V77.2182C138.501 79.1356 136.978 80.6582 135.117 80.6582C133.199 80.6582 131.677 79.1356 131.677 77.2182V44.6769H122.034C120.171 44.6769 118.65 43.1556 118.65 41.2369C118.65 39.3769 120.171 37.8542 122.034 37.8542H148.202C150.062 37.8542 151.585 39.3769 151.585 41.2369Z" fill="#7412DB"/>
<path d="M161.741 62.612H173.698C172.569 60.4693 170.484 59.2293 167.945 59.2293C165.35 59.2293 163.096 60.5266 161.741 62.612ZM178.153 68.3066H160.782C161.572 71.524 164.448 74.0053 167.945 74.0053C169.75 74.0053 172.4 73.2706 173.868 71.8613C175.22 70.5653 177.364 70.5653 178.66 71.9173C180.014 73.2133 179.957 75.4146 178.604 76.7106C175.502 79.7 171.16 80.716 167.945 80.716C160.105 80.716 153.846 74.3986 153.846 66.56C153.846 58.8333 160.105 52.404 167.945 52.404C168.79 52.404 169.581 52.4613 170.428 52.6306C174.262 53.3626 177.533 55.732 179.562 59.1146C180.465 60.696 181.481 62.7813 181.368 64.6426C181.368 65.1506 181.142 65.7133 180.917 66.2786C180.465 67.3493 179.506 68.3066 178.153 68.3066" fill="#7412DB"/>
<path d="M204.043 66.2213C204.043 62.3306 200.828 59.1719 196.994 59.1719C193.102 59.1719 189.887 62.3306 189.887 66.2213C189.887 70.1119 193.102 73.2133 196.994 73.2133C200.828 73.2133 204.043 70.1119 204.043 66.2213ZM211.882 55.5626V77.1613C211.882 78.9119 210.472 80.3773 208.611 80.3773C206.75 80.3773 205.623 78.9119 205.623 77.1613V76.4866C203.196 78.5733 200.378 79.8119 196.994 79.8119C189.436 79.8119 183.346 73.7213 183.346 66.2213C183.346 58.7213 189.436 52.5733 196.994 52.5733C200.378 52.5733 203.196 53.8693 205.623 55.8439V55.5626C205.623 53.8146 206.75 52.3493 208.611 52.3493C210.472 52.3493 211.882 53.8146 211.882 55.5626Z" fill="#7412DB"/>
<path d="M254.974 63.289V63.5157V77.161C254.974 79.081 253.507 80.5464 251.646 80.5464C249.785 80.5464 248.206 79.081 248.206 77.161V63.5157V63.289V63.1197C248.206 60.9197 246.231 59.229 243.921 59.229C241.439 59.229 239.465 60.9197 239.465 63.1197V63.289V63.5157V77.161C239.465 79.081 237.942 80.5464 236.137 80.5464C234.221 80.5464 232.754 79.081 232.754 77.161V63.5157V63.289V63.1197C232.754 60.9197 230.779 59.229 228.354 59.229C225.93 59.229 223.955 60.9197 223.955 63.1197V77.3304C223.955 79.1357 222.49 80.6584 220.571 80.6584C218.767 80.6584 217.189 79.1357 217.189 77.3304V55.789C217.189 53.9277 218.767 52.349 220.571 52.349C221.643 52.349 222.659 52.9117 223.167 53.701C224.745 52.9117 226.494 52.461 228.354 52.461C231.343 52.461 234.051 53.589 236.137 55.505C238.111 53.589 240.818 52.461 243.921 52.461C249.954 52.461 254.974 57.2557 254.974 63.1197V63.289Z" fill="#7412DB"/>
<path d="M301.79 59.0026C301.79 60.864 300.268 62.3306 298.408 62.3306H282.277V76.88C282.277 78.7426 280.756 80.208 278.894 80.208C277.033 80.208 275.566 78.7426 275.566 76.88V40.7866C275.566 38.924 277.033 37.404 278.894 37.404H298.408C300.268 37.404 301.79 38.924 301.79 40.7866C301.79 42.648 300.268 44.1693 298.408 44.1693H282.277V55.62H298.408C300.268 55.62 301.79 57.0866 301.79 59.0026Z" fill="#7412DB"/>
<path d="M316.909 77.1067C316.909 79.0227 315.386 80.5467 313.469 80.5467C311.101 80.5467 308.788 79.3614 307.322 77.5001C305.63 75.3014 305.742 72.8201 305.742 70.1694V53.3067V41.1254C305.742 39.2627 307.266 37.7427 309.126 37.7427C311.045 37.7427 312.566 39.2627 312.566 41.1254V71.7467C312.566 71.9161 312.51 72.0854 312.51 72.2547C312.51 72.4241 312.566 72.5934 312.566 72.7627C312.566 73.2707 312.961 73.7214 313.469 73.7214C315.386 73.7214 316.909 75.2454 316.909 77.1067Z" fill="#7412DB"/>
<path d="M334.169 59.0598C330.165 59.0598 326.951 62.2731 326.951 66.2785C326.951 70.2811 330.165 73.4971 334.169 73.4971C338.173 73.4971 341.388 70.2811 341.388 66.2785C341.388 62.2731 338.173 59.0598 334.169 59.0598ZM334.169 80.4318C326.387 80.4318 320.013 74.1171 320.013 66.2785C320.013 58.4945 326.387 52.1225 334.169 52.1225C341.952 52.1225 348.324 58.4945 348.381 66.3331C348.324 74.1171 341.952 80.4318 334.169 80.4318Z" fill="#7412DB"/>
<path d="M390.23 70.1693V70.508C390.005 76.2026 385.098 80.828 379.065 80.828C376.076 80.828 373.313 79.6426 371.282 77.784C369.252 79.6426 366.544 80.828 363.498 80.828C357.352 80.828 352.332 76.0333 352.332 70.1693V69.9426V69.7186V56.0133C352.332 54.1533 353.856 52.6306 355.716 52.6306C357.578 52.6306 359.1 54.1533 359.1 56.0133V69.7186V69.9426V70.1693C359.1 72.312 361.074 74.06 363.498 74.06C365.925 74.06 367.898 72.312 367.898 70.1693V69.9426V69.7186V56.0133C367.898 54.1533 369.421 52.6306 371.282 52.6306C373.144 52.6306 374.665 54.1533 374.665 56.0133V69.7186V69.9426V70.1693C374.665 72.312 376.64 74.06 379.065 74.06C381.489 74.06 383.464 72.312 383.464 70.1693V55.9013C383.464 54.0386 384.985 52.5186 386.848 52.5186C388.708 52.5186 390.23 54.0386 390.23 55.9013V70.1693Z" fill="#7412DB"/>
<path d="M7.9078 26.1186C3.7438 26.1186 0.366455 29.4946 0.366455 33.6586V86.4359C0.366455 90.5999 3.7438 93.9773 7.9078 93.9773H12.0971C16.2611 93.9773 19.6344 90.5999 19.6344 86.4359V33.6586C19.6344 29.4946 16.2611 26.1186 12.0971 26.1186H7.9078Z" fill="url(#paint0_linear)"/>
<path d="M0.366455 10.2013C0.366455 15.7533 4.86768 20.2546 10.4197 20.2546C15.973 20.2546 20.4731 15.7533 20.4731 10.2013C20.4731 4.65062 15.973 0.149286 10.4197 0.149286C4.86768 0.149286 0.366455 4.65062 0.366455 10.2013Z" fill="url(#paint1_linear)"/>
<path d="M33.0385 34.3439C28.8745 34.3439 25.4998 37.7199 25.4998 41.8839V86.4359C25.4998 90.5999 28.8745 93.9773 33.0385 93.9773H37.2278C41.3918 93.9773 44.7678 90.5999 44.7678 86.4359V41.8839C44.7678 37.7199 41.3918 34.3439 37.2278 34.3439H33.0385Z" fill="url(#paint2_linear)"/>
<path d="M25.4998 18.4266C25.4998 23.98 30.0011 28.4813 35.5531 28.4813C41.1051 28.4813 45.6051 23.98 45.6051 18.4266C45.6051 12.8746 41.1051 8.37328 35.5531 8.37328C30.0011 8.37328 25.4998 12.8746 25.4998 18.4266Z" fill="url(#paint3_linear)"/>
<path d="M58.172 41.1973C54.008 41.1973 50.6306 44.5746 50.6306 48.7386V86.4359C50.6306 90.5999 54.008 93.9773 58.172 93.9773H62.3612C66.5252 93.9773 69.9 90.5999 69.9 86.4359V48.7386C69.9 44.5746 66.5252 41.1973 62.3612 41.1973H58.172Z" fill="url(#paint4_linear)"/>
<path d="M50.6306 25.2813C50.6306 30.8333 55.132 35.3346 60.6853 35.3346C66.2373 35.3346 70.7385 30.8333 70.7385 25.2813C70.7385 19.7293 66.2373 15.2279 60.6853 15.2279C55.132 15.2279 50.6306 19.7293 50.6306 25.2813Z" fill="url(#paint5_linear)"/>
<defs>
<linearGradient id="paint0_linear" x1="10.0015" y1="93.9759" x2="10.0015" y2="26.1189" gradientUnits="userSpaceOnUse">
<stop stop-color="#5703A5"/>
<stop offset="0.915525" stop-color="#7603F6"/>
<stop offset="1" stop-color="#7603F6"/>
</linearGradient>
<linearGradient id="paint1_linear" x1="10.4203" y1="20.2548" x2="10.4203" y2="0.148992" gradientUnits="userSpaceOnUse">
<stop stop-color="#5703A5"/>
<stop offset="0.915525" stop-color="#7603F6"/>
<stop offset="1" stop-color="#7603F6"/>
</linearGradient>
<linearGradient id="paint2_linear" x1="35.1338" y1="93.9759" x2="35.1338" y2="34.344" gradientUnits="userSpaceOnUse">
<stop stop-color="#AC3BFA"/>
<stop offset="0.915525" stop-color="#C45AFA"/>
<stop offset="1" stop-color="#C45AFA"/>
</linearGradient>
<linearGradient id="paint3_linear" x1="35.5525" y1="28.4798" x2="35.5525" y2="8.37408" gradientUnits="userSpaceOnUse">
<stop stop-color="#AC3BFA"/>
<stop offset="0.915525" stop-color="#C45AFA"/>
<stop offset="1" stop-color="#C45AFA"/>
</linearGradient>
<linearGradient id="paint4_linear" x1="60.2661" y1="93.9759" x2="60.2661" y2="41.1982" gradientUnits="userSpaceOnUse">
<stop stop-color="#FF4677"/>
<stop offset="0.998891" stop-color="#FF76A4"/>
<stop offset="1" stop-color="#FF76A4"/>
</linearGradient>
<linearGradient id="paint5_linear" x1="60.685" y1="35.3341" x2="60.685" y2="15.2283" gradientUnits="userSpaceOnUse">
<stop stop-color="#FF4677"/>
<stop offset="0.998891" stop-color="#FF76A4"/>
<stop offset="1" stop-color="#FF76A4"/>
</linearGradient>
</defs>
</svg>
