<svg width="34" height="45" viewBox="0 0 34 45" fill="none" xmlns="http://www.w3.org/2000/svg">
<path d="M5.28023 44.3331C2.76613 44.3331 0.728027 42.2952 0.728027 39.7812V16.8229C0.728027 14.3088 2.76613 12.2708 5.28023 12.2708C7.79423 12.2708 9.83233 14.3088 9.83233 16.8229V39.7812C9.83233 42.2952 7.79423 44.3331 5.28023 44.3331Z" fill="#5703A5"/>
<path d="M0.530518 4.75004C0.530518 2.12675 2.65712 8.10623e-06 5.28042 8.10623e-06C7.90382 8.10623e-06 10.0305 2.12675 10.0305 4.75004C10.0305 7.37334 7.90382 9.49997 5.28042 9.49997C2.65712 9.49997 0.530518 7.37334 0.530518 4.75004Z" fill="#5703A5"/>
<path d="M17.1553 40.4468C14.6412 40.4468 12.6033 38.4088 12.6033 35.8948V16.8229C12.6033 14.3088 14.6412 12.2709 17.1553 12.2709C19.6693 12.2709 21.7074 14.3088 21.7074 16.8229V35.8948C21.7074 38.4088 19.6693 40.4468 17.1553 40.4468Z" fill="#AC3BFA"/>
<path d="M12.4053 4.75004C12.4053 2.12675 14.5319 8.10623e-06 17.1552 8.10623e-06C19.7786 8.10623e-06 21.9051 2.12675 21.9051 4.75004C21.9051 7.37334 19.7786 9.49997 17.1552 9.49997C14.5319 9.49997 12.4053 7.37334 12.4053 4.75004Z" fill="#AC3BFA"/>
<path d="M29.0302 37.2082C26.516 37.2082 24.478 35.1702 24.478 32.6562V16.8229C24.478 14.3089 26.516 12.2709 29.0302 12.2709C31.5442 12.2709 33.5821 14.3089 33.5821 16.8229V32.6562C33.5821 35.1702 31.5442 37.2082 29.0302 37.2082Z" fill="#FF4677"/>
<path d="M24.2803 4.75004C24.2803 2.12675 26.4069 8.10623e-06 29.0303 8.10623e-06C31.6536 8.10623e-06 33.7802 2.12675 33.7802 4.75004C33.7802 7.37334 31.6536 9.49997 29.0303 9.49997C26.4069 9.49997 24.2803 7.37334 24.2803 4.75004Z" fill="#FF4677"/>
</svg>
