<svg width="97" height="105" viewBox="0 0 97 105" fill="none" xmlns="http://www.w3.org/2000/svg">
<path d="M80.8826 59.5735C80.8826 77.4755 66.2906 91.988 48.2905 91.988C30.2903 91.988 15.6983 77.4755 15.6983 59.5735C15.6983 41.6715 30.2903 27.159 48.2905 27.159C66.2906 27.159 80.8826 41.6715 80.8826 59.5735Z" fill="white"/>
<path d="M41.3439 2.73605C45.0112 -0.91127 50.9545 -0.912177 54.621 2.7343C58.2875 6.38077 58.2877 12.2952 54.6216 15.9414C50.9555 19.5875 45.0098 19.5861 41.3433 15.9396C37.6768 12.2931 37.6777 6.3822 41.3439 2.73605Z" fill="white"/>
<path d="M80.9704 88.9284C84.6371 85.2818 90.5835 85.2802 94.2511 88.9279C97.9187 92.5755 97.9148 98.4871 94.2482 102.134C90.5838 105.778 84.641 105.781 80.9734 102.133C77.3058 98.4855 77.3061 92.5728 80.9704 88.9284Z" fill="white"/>
<path d="M2.74801 89.0605C6.41467 85.4138 12.361 85.4123 16.0287 89.0599C19.6963 92.7075 19.6924 98.6191 16.0257 102.266C12.3614 105.91 6.41859 105.913 2.75096 102.265C-0.916682 98.6176 -0.916306 92.7048 2.74801 89.0605Z" fill="white"/>
</svg>
