<svg xmlns="http://www.w3.org/2000/svg" viewBox="0 0 100 100"><path d="M 59.78125 7 C 59.603912 7.0118489 59.420465 7.0477884 59.25 7.09375 C 58.56814 7.2775966 57.968602 7.721222 57.59375 8.375 L 23.5625 67.71875 A 1.0000997 1.0000997 0 0 0 23.40625 68.15625 L 22 91.9375 A 1.0000997 1.0000997 0 0 0 23.5625 92.84375 L 43.28125 79.71875 A 1.0000997 1.0000997 0 0 0 43.59375 79.375 L 77.625 20.03125 C 78.374731 18.7237 77.928367 17.007719 76.625 16.25 L 61.34375 7.375 C 60.854984 7.0908561 60.313264 6.9644532 59.78125 7 z M 59.75 9 C 59.92728 8.9498197 60.128968 8.9870535 60.3125 9.09375 L 75.625 18 C 75.992053 18.213389 76.120959 18.656792 75.90625 19.03125 L 70.25 28.875 L 53.65625 19.21875 L 59.3125 9.375 C 59.419848 9.1877749 59.57272 9.0501803 59.75 9 z M 52.65625 20.96875 L 69.28125 30.625 L 42.375 77.5 L 25.78125 67.875 L 52.65625 20.96875 z M 25.3125 69.90625 L 40.84375 78.90625 L 24.125 90.03125 L 25.3125 69.90625 z " fill="#5A01AB" stroke="#5A01AB" stroke-width="2"/><copyright>edit by hans draiman from the Noun Project</copyright></svg>


