<svg width="12" height="22" viewBox="0 0 12 22" fill="none" xmlns="http://www.w3.org/2000/svg">
<path d="M7 19.5C7 20.0523 6.55228 20.5 6 20.5C5.44772 20.5 5 20.0523 5 19.5C5 18.9477 5.44772 18.5 6 18.5C6.55228 18.5 7 18.9477 7 19.5Z" fill="#FF4677"/>
<path fill-rule="evenodd" clip-rule="evenodd" d="M2 0.25H10C10.9665 0.25 11.75 1.0335 11.75 2V20C11.75 20.9665 10.9665 21.75 10 21.75H2C1.0335 21.75 0.25 20.9665 0.25 20V2C0.25 1.0335 1.0335 0.25 2 0.25ZM2 1C1.44772 1 1 1.44772 1 2V20C1 20.5523 1.44772 21 2 21H10C10.5523 21 11 20.5523 11 20V2C11 1.44772 10.5523 1 10 1H2Z" fill="#FF4677"/>
</svg>
