<svg width="31" height="31" viewBox="0 0 31 31" fill="none" xmlns="http://www.w3.org/2000/svg">
<path d="M15.2461 0.625102C23.3211 0.625102 29.8671 7.17118 29.8671 15.2462C29.8671 23.3212 23.3211 29.8672 15.2461 29.8672C7.17108 29.8672 0.625 23.3212 0.624999 15.2462C0.624999 7.17118 7.17108 0.625103 15.2461 0.625102Z" stroke="#AC3BFA" stroke-width="1.25"/>
<path d="M12.8932 11.4292L20.0302 15.4922L12.8932 19.5553L12.8932 11.4292ZM20.628 16.2561C21.224 15.9168 21.224 15.0677 20.628 14.7284L13.2644 10.5364C12.6705 10.1983 11.925 10.6198 11.925 11.3002L11.925 19.6843C11.925 20.3647 12.6705 20.7862 13.2644 20.4481L20.628 16.2561Z" fill="#AC3BFA" stroke="#AC3BFA" stroke-width="0.15"/>
</svg>
