<svg width="25" height="25" viewBox="0 0 25 25" fill="none" xmlns="http://www.w3.org/2000/svg">
<path d="M11.5154 1.88462V11.5154H1.88462C1.34083 11.5154 0.9 11.9562 0.9 12.5C0.9 13.0438 1.34083 13.4846 1.88462 13.4846H11.5154V23.1154C11.5154 23.6592 11.9562 24.1 12.5 24.1C13.0438 24.1 13.4846 23.6592 13.4846 23.1154V13.4846H23.1154C23.6592 13.4846 24.1 13.0438 24.1 12.5C24.1 11.9562 23.6592 11.5154 23.1154 11.5154H13.4846V1.88462C13.4846 1.34083 13.0438 0.9 12.5 0.9C11.9562 0.9 11.5154 1.34083 11.5154 1.88462Z" fill="#5801A7" stroke="#5A01AB" stroke-width="0.2"/>
</svg>
