<svg width="23" height="28" viewBox="0 0 23 28" fill="none" xmlns="http://www.w3.org/2000/svg">
<path d="M17 5C17 7.76142 14.7614 10 12 10C9.23858 10 7 7.76142 7 5C7 2.23858 9.23858 0 12 0C14.7614 0 17 2.23858 17 5Z" fill="white"/>
<path fill-rule="evenodd" clip-rule="evenodd" d="M6.80941 10C6.66331 10.062 6.5249 10.1428 6.3979 10.242C6.14314 10.4411 5.74231 10.707 5.27021 11.0203C3.94279 11.9012 2.05184 13.156 1.25949 14.3479C0.636529 15.285 0.623853 17.5568 0.611448 19.78C0.602463 21.3903 0.59362 22.9751 0.353135 24.0087C0.112735 25.042 0.707979 26.0879 1.73237 26.3638C3.72831 26.9014 6.97459 27.6875 9.41574 27.8479C11.1693 27.9631 12.1629 27.9736 13.9157 27.8479C16.2069 27.6836 19.2377 26.9149 21.1319 26.3799C22.1422 26.0945 22.7227 25.0584 22.4847 24.036C22.2485 23.0215 22.2487 21.488 22.2488 19.9152C22.249 17.6807 22.2492 15.3666 21.572 14.3479C20.7796 13.156 18.8887 11.9012 17.5613 11.0203C17.2377 10.8056 16.9477 10.6132 16.7152 10.4492C15.6205 11.9058 13.8781 12.8479 11.9157 12.8479C9.75824 12.8479 7.86673 11.7092 6.80941 10Z" fill="white"/>
</svg>
