<svg width="230" height="156" viewBox="0 0 230 156" fill="none" xmlns="http://www.w3.org/2000/svg">
<g clip-path="url(#clip0)">
<path opacity="0.1" d="M124.442 22.8092C110.307 22.7869 96.6886 18.3957 83.659 13.5088C70.6295 8.62199 57.7036 3.17254 43.8251 0.834745C34.8882 -0.668271 24.753 -0.566716 17.7924 4.77102C11.0959 9.90768 9.17853 18.4322 8.26047 26.317C7.57193 32.2437 7.2632 38.4691 9.91988 43.9002C11.7662 47.672 14.9144 50.7836 17.1425 54.3807C24.8952 66.8923 20.2948 82.8162 12.8284 95.5755C9.32477 101.549 5.21991 107.283 2.57745 113.612C-0.0650186 119.941 -1.13541 127.123 1.59439 133.385C4.30388 139.594 10.3972 144.121 16.915 147.21C30.1761 153.507 45.586 154.892 60.5837 155.454C93.7882 156.702 127.043 154.48 160.211 152.245C172.485 151.421 184.814 150.588 196.83 148.124C203.502 146.757 210.369 144.72 215.09 140.219C221.081 134.508 222.284 125.154 217.895 118.417C210.53 107.106 191.202 104.921 185.901 92.6975C182.982 85.9684 185.46 78.2766 189.122 71.8055C196.98 57.9351 210.538 45.5292 210.723 29.9872C210.849 19.3117 203.75 8.87791 193.18 4.20638C182.098 -0.696706 167.02 0.509768 159.295 9.54411C151.341 18.8466 136.923 22.8296 124.442 22.8092Z" fill="#6C63FF"/>
<path d="M194.75 127.147C194.75 127.147 192.254 125.5 189.78 126.672C189.78 126.672 190.542 128.14 193.674 128L194.75 127.147Z" fill="#6C63FF"/>
<path d="M195.057 127.236C195.057 127.236 195.817 130.129 193.913 132.097C193.913 132.097 192.768 130.903 193.913 127.982L195.057 127.236Z" fill="#6C63FF"/>
<path d="M198.171 124.46C198.171 124.46 197.986 121.998 192.433 122.815C192.433 122.815 192.406 124.403 194.356 125.154C196.306 125.906 197.198 125.272 198.171 124.46Z" fill="#6C63FF"/>
<path d="M198.512 124.442C198.512 124.442 200.862 125.197 198.768 130.407C198.768 130.407 197.218 130.06 196.94 127.988C196.661 125.916 197.494 125.197 198.512 124.442Z" fill="#6C63FF"/>
<path d="M201.658 120.952C201.658 120.952 201.975 116.904 196.298 117.321C196.298 117.321 195.892 120.977 200.655 121.925L201.658 120.952Z" fill="#6C63FF"/>
<path d="M205.409 116.382C205.409 116.382 204.629 111.796 198.957 113.163C198.957 113.163 198.934 117.13 204.481 117.477L205.409 116.382Z" fill="#6C63FF"/>
<path d="M208.149 111.658C208.149 111.658 206.847 107.189 201.225 108.528C201.225 108.528 202.562 112.545 207.776 112.484L208.149 111.658Z" fill="#6C63FF"/>
<path d="M210.753 107.045C210.753 107.045 209.48 102.408 204.051 103.795C204.051 103.795 205.862 108.201 210.396 107.831L210.753 107.045Z" fill="#6C63FF"/>
<path d="M212.433 102.662C212.433 102.662 211.454 96.9993 206.399 98.2464C206.399 98.2464 207.869 103.405 212.065 103.487L212.433 102.662Z" fill="#6C63FF"/>
<path d="M214.005 97.367C214.005 97.367 212.831 91.6494 207.709 93.3048C207.709 93.3048 209.717 98.7055 213.644 98.1469L214.005 97.367Z" fill="#6C63FF"/>
<path d="M214.98 92.4375C214.98 92.4375 213.113 86.722 209.155 86.8764C209.155 86.8764 211.064 92.9148 214.639 93.579L214.98 92.4375Z" fill="#6C63FF"/>
<path d="M215.599 87.6299C215.599 87.6299 213.568 80.7485 210.347 81.2786C210.347 81.2786 211.753 86.5392 215.486 88.7003L215.599 87.6299Z" fill="#6C63FF"/>
<path d="M215.945 81.8859C215.945 81.8859 214.042 76.1501 210.867 75.9226C210.867 75.9226 212.163 81.565 215.88 83.3747L215.945 81.8859Z" fill="#6C63FF"/>
<path d="M216.337 76.5381C216.337 76.5381 213.962 70.7962 211.868 70.6682C211.868 70.6682 212.898 76.3187 216.134 77.4805L216.337 76.5381Z" fill="#6C63FF"/>
<path d="M216.599 71.5578C216.599 71.5578 215.132 65.3142 213.04 64.8064C213.04 64.8064 213.329 69.9045 216.39 72.0229L216.599 71.5578Z" fill="#6C63FF"/>
<path d="M217.389 65.0399C217.389 65.0399 215.853 60.0718 214.153 59.3142C214.153 59.3142 214.49 65.1719 216.997 66.2565L217.389 65.0399Z" fill="#6C63FF"/>
<path d="M218.045 60.7605L218.356 51.9983C218.356 51.9983 215.183 58.6095 217.811 62.3061L218.045 60.7605Z" fill="#6C63FF"/>
<path d="M220.501 52.053C220.501 52.053 222.788 45.6531 223.344 45.2976C223.344 45.2976 218.855 49.4471 219.294 54.7889L220.501 52.053Z" fill="#6C63FF"/>
<path d="M201.812 120.924C201.812 120.924 205.838 120.396 205.716 126.087C205.716 126.087 202.078 126.678 200.892 121.974L201.812 120.924Z" fill="#6C63FF"/>
<path d="M205.598 116.23C205.598 116.23 210.252 116.214 209.864 122.039C209.864 122.039 205.96 122.735 204.67 117.329L205.598 116.23Z" fill="#6C63FF"/>
<path d="M208.194 112.03C208.194 112.03 212.417 110.049 215.12 115.159C215.12 115.159 211.218 116.811 207.822 112.854L208.194 112.03Z" fill="#6C63FF"/>
<path d="M210.849 107.088C210.849 107.088 215.171 104.98 217.71 109.974C217.71 109.974 213.207 111.526 210.491 107.878L210.849 107.088Z" fill="#6C63FF"/>
<path d="M212.378 102.784C212.378 102.784 216.54 98.8091 219.861 102.831C219.861 102.831 215.61 106.101 212.185 103.67L212.378 102.784Z" fill="#6C63FF"/>
<path d="M213.769 97.2308C213.769 97.2308 217.958 93.1686 221.252 97.4177C221.252 97.4177 216.552 100.755 213.621 98.0839L213.769 97.2308Z" fill="#6C63FF"/>
<path d="M214.553 92.275C214.553 92.275 217.779 87.1972 221.575 88.3326C221.575 88.3326 218.23 93.709 214.59 93.4693L214.553 92.275Z" fill="#6C63FF"/>
<path d="M215.504 87.5974C215.504 87.5974 218.754 81.2015 221.827 82.3166C221.827 82.3166 219.485 87.2318 215.421 88.6759L215.504 87.5974Z" fill="#6C63FF"/>
<path d="M215.727 81.5629C215.727 81.5629 219.069 76.5299 222.199 77.1433C222.199 77.1433 219.469 82.2474 215.404 83.0192L215.727 81.5629Z" fill="#6C63FF"/>
<path d="M215.983 76.4243C215.983 76.4243 218.571 70.7778 220.677 70.7271C220.677 70.7271 219.434 76.3369 216.156 77.3748L215.983 76.4243Z" fill="#6C63FF"/>
<path d="M216.495 71.4338C216.495 71.4338 219.373 65.7143 221.536 65.7041C221.536 65.7041 220.064 70.593 216.593 71.9376L216.495 71.4338Z" fill="#6C63FF"/>
<path d="M216.93 65.3914C216.93 65.3914 219.083 60.6589 220.864 60.1227C220.864 60.1227 219.788 65.891 217.165 66.6466L216.93 65.3914Z" fill="#6C63FF"/>
<path d="M218.303 60.5938L223.113 53.2656C223.113 53.2656 221.882 60.4943 217.6 61.9994L218.303 60.5938Z" fill="#6C63FF"/>
<path d="M221.605 52.6421C221.605 52.6421 227.197 48.7831 227.398 48.1575C227.398 48.1575 224.555 53.5643 219.274 54.5189L221.605 52.6421Z" fill="#6C63FF"/>
<path d="M221.939 50.9055C221.939 50.9055 228.359 44.733 229.998 44.7411C229.998 44.7411 224.703 44.9828 221.784 50.5764L221.939 50.9055Z" fill="#6C63FF"/>
<path d="M216.991 66.3074L217.224 66.3378C218.431 56.8932 220.19 51.3077 222.178 50.6212L222.101 50.3998C219.995 51.131 218.228 56.6312 216.991 66.3074Z" fill="#444053"/>
<path d="M215.218 88.8872L215.571 88.9176C215.644 88.0361 215.701 87.1323 215.74 86.2346C216.077 78.4169 216.601 71.241 217.287 65.8606L217.084 65.6067C216.396 70.9972 215.725 78.3925 215.388 86.2183C215.348 87.112 215.291 88.0097 215.218 88.8872Z" fill="#444053"/>
<path d="M188.157 131.644C188.22 131.615 194.442 128.839 200.898 122.211C204.681 118.331 207.824 113.874 210.211 109.009C213.195 102.93 215.015 95.4598 215.626 88.2026L215.258 88.3753C213.887 104.663 206.472 115.795 200.573 121.856C194.18 128.425 188.029 131.175 187.968 131.199L188.157 131.644Z" fill="#444053"/>
<path d="M213.004 9.92798H17.8391C17.378 9.92798 16.9358 10.1112 16.6098 10.4372C16.2837 10.7633 16.1005 11.2055 16.1005 11.6666V16.7322H214.742V11.6666C214.742 11.2055 214.559 10.7633 214.233 10.4372C213.907 10.1112 213.465 9.92798 213.004 9.92798Z" fill="#3F3D56"/>
<path d="M16.1005 16.7322V130.726C16.1005 131.656 16.4699 132.547 17.1273 133.205C17.7848 133.862 18.6764 134.231 19.6062 134.231H211.237C212.166 134.231 213.058 133.862 213.716 133.205C214.373 132.547 214.742 131.656 214.742 130.726V16.7322H16.1005Z" fill="white"/>
<path opacity="0.8" d="M19.2487 14.0897C19.6974 14.0897 20.0612 13.726 20.0612 13.2773C20.0612 12.8286 19.6974 12.4648 19.2487 12.4648C18.8 12.4648 18.4363 12.8286 18.4363 13.2773C18.4363 13.726 18.8 14.0897 19.2487 14.0897Z" fill="#FA5959"/>
<path opacity="0.8" d="M21.483 14.0897C21.9317 14.0897 22.2954 13.726 22.2954 13.2773C22.2954 12.8286 21.9317 12.4648 21.483 12.4648C21.0343 12.4648 20.6705 12.8286 20.6705 13.2773C20.6705 13.726 21.0343 14.0897 21.483 14.0897Z" fill="#FED253"/>
<path opacity="0.8" d="M23.7172 14.0897C24.1659 14.0897 24.5296 13.726 24.5296 13.2773C24.5296 12.8286 24.1659 12.4648 23.7172 12.4648C23.2685 12.4648 22.9047 12.8286 22.9047 13.2773C22.9047 13.726 23.2685 14.0897 23.7172 14.0897Z" fill="#8CCF4D"/>
<g opacity="0.3">
<path opacity="0.3" d="M207.329 23.636H23.7172V127.222H207.329V23.636Z" stroke="#3F3D56" stroke-miterlimit="10"/>
<path opacity="0.3" d="M183.362 23.636H47.6841V127.222H183.362V23.636Z" stroke="#3F3D56" stroke-miterlimit="10"/>
<path opacity="0.3" d="M159.395 23.636H71.6512V127.222H159.395V23.636Z" stroke="#3F3D56" stroke-miterlimit="10"/>
<path opacity="0.3" d="M135.428 23.636H95.6182V127.222H135.428V23.636Z" stroke="#3F3D56" stroke-miterlimit="10"/>
<path opacity="0.3" d="M115.523 23.636V127.222" stroke="#3F3D56" stroke-miterlimit="10"/>
<path opacity="0.3" d="M207.329 38.6661H23.7172V112.192H207.329V38.6661Z" stroke="#3F3D56" stroke-miterlimit="10"/>
<path opacity="0.3" d="M207.329 53.4932H23.7172V97.3649H207.329V53.4932Z" stroke="#3F3D56" stroke-miterlimit="10"/>
<path opacity="0.3" d="M207.329 68.3202H23.7172V82.5379H207.329V68.3202Z" stroke="#3F3D56" stroke-miterlimit="10"/>
</g>
<path opacity="0.1" d="M66.8781 29.4246H52.4573V34.7054H66.8781V29.4246Z" fill="#3F3D56"/>
<path opacity="0.1" d="M40.6769 43.8455H29.912V49.1263H40.6769V43.8455Z" fill="#3F3D56"/>
<path opacity="0.1" d="M90.2358 29.4246H75.8149V34.7054H90.2358V29.4246Z" fill="#3F3D56"/>
<path opacity="0.1" d="M112.172 29.4246H97.7509V34.7054H112.172V29.4246Z" fill="#3F3D56"/>
<path opacity="0.1" d="M132.483 29.4246H118.062V34.7054H132.483V29.4246Z" fill="#3F3D56"/>
<path opacity="0.1" d="M155.231 29.4246H140.81V34.7054H155.231V29.4246Z" fill="#3F3D56"/>
<path opacity="0.1" d="M178.386 29.4246H163.965V34.7054H178.386V29.4246Z" fill="#3F3D56"/>
<path opacity="0.1" d="M202.962 29.4246H188.541V34.7054H202.962V29.4246Z" fill="#3F3D56"/>
<path d="M90.3678 58.053H80.9983V67.1239H90.3678V58.053Z" fill="url(#paint0_linear)"/>
<path d="M90.2074 58.2094H81.1608V66.9675H90.2074V58.2094Z" fill="#5A01AB"/>
<path d="M109.671 56.0869H100.302V65.1578H109.671V56.0869Z" fill="url(#paint1_linear)"/>
<path d="M109.511 56.2433H100.464V65.0014H109.511V56.2433Z" fill="#AC3BFA"/>
<path d="M146.841 86.9596H137.471V96.0305H146.841V86.9596Z" fill="url(#paint2_linear)"/>
<path d="M146.68 87.116H137.634V95.8741H146.68V87.116Z" fill="#AC3BFA"/>
<path d="M64.325 41.8875H54.9556V50.9584H64.325V41.8875Z" fill="url(#paint3_linear)"/>
<path d="M64.1625 42.0438H55.116V50.8019H64.1625V42.0438Z" fill="#AC3BFA"/>
<path d="M82.9421 54.8865H73.5726V63.9574H82.9421V54.8865Z" fill="url(#paint4_linear)"/>
<path d="M82.7796 55.0428H73.733V63.801H82.7796V55.0428Z" fill="#FF69B4"/>
<path d="M157.8 86.8945H148.431V95.9654H157.8V86.8945Z" fill="url(#paint5_linear)"/>
<path d="M157.64 87.051H148.593V95.8091H157.64V87.051Z" fill="#5A01AB"/>
<path d="M174.252 42.0072H164.883V51.0781H174.252V42.0072Z" fill="url(#paint6_linear)"/>
<path d="M174.092 42.1637H165.045V50.9218H174.092V42.1637Z" fill="#5A01AB"/>
<path d="M173.237 70.8489H163.867V79.9198H173.237V70.8489Z" fill="url(#paint7_linear)"/>
<path d="M173.076 71.0054H164.03V79.7635H173.076V71.0054Z" fill="#5A01AB"/>
<path d="M180.346 72.88H170.976V81.9509H180.346V72.88Z" fill="url(#paint8_linear)"/>
<path d="M180.185 73.0364H171.139V81.7945H180.185V73.0364Z" fill="#5A01AB"/>
<path d="M150.375 83.7281H141.005V92.799H150.375V83.7281Z" fill="url(#paint9_linear)"/>
<path d="M150.212 83.8845H141.166V92.6426H150.212V83.8845Z" fill="#FF69B4"/>
<path d="M151.39 56.3082H142.021V65.3791H151.39V56.3082Z" fill="url(#paint10_linear)"/>
<path d="M151.228 56.4646H142.181V65.2227H151.228V56.4646Z" fill="#FF69B4"/>
<path opacity="0.1" d="M40.6769 58.0631H29.912V63.344H40.6769V58.0631Z" fill="#3F3D56"/>
<path opacity="0.1" d="M40.6769 72.8901H29.912V78.171H40.6769V72.8901Z" fill="#3F3D56"/>
<path opacity="0.1" d="M40.6769 87.7173H29.912V92.9981H40.6769V87.7173Z" fill="#3F3D56"/>
<path opacity="0.1" d="M40.6769 102.544H29.912V107.825H40.6769V102.544Z" fill="#3F3D56"/>
<path opacity="0.1" d="M40.6769 117.371H29.912V122.652H40.6769V117.371Z" fill="#3F3D56"/>
<path d="M62.6127 71.3079C62.9134 71.117 62.7935 70.6052 62.4848 70.4285C62.1761 70.2518 61.7922 70.3107 61.4449 70.3797C61.4597 70.2912 61.446 70.2002 61.4059 70.12C61.3657 70.0397 61.3012 69.9742 61.2214 69.9329V69.8557C61.4246 69.6526 61.3474 69.2464 61.0996 69.0676C60.8518 68.8889 60.4659 68.8808 60.1328 68.897C60.1564 68.6951 60.132 68.4905 60.0614 68.2998C59.9908 68.1092 59.876 67.938 59.7266 67.8002C59.6683 67.7374 59.5885 67.699 59.5031 67.6926C59.3 67.6926 59.2432 67.9526 59.2289 68.1455C59.1903 68.6523 59.1067 69.1546 58.9791 69.6465L52.6664 80.2082C51.9637 81.2238 54.1471 78.1771 53.4444 79.2028C53.0884 79.7612 52.6715 80.2782 52.2013 80.7444C51.7792 81.1212 51.3069 81.4377 50.7978 81.6849C50.4579 81.6948 50.1232 81.5997 49.8392 81.4127C49.4825 81.1629 49.1708 80.8545 48.917 80.5007C48.3668 79.8012 47.8691 79.0619 47.4282 78.2888C47.2754 78.0442 47.1603 77.7778 47.087 77.4987C46.9936 77.06 47.087 76.5847 46.9144 76.1724C46.8409 76.0187 46.7495 75.8742 46.6422 75.7418L46.2055 75.163V75.1366C46.1568 74.2794 45.4601 73.6173 44.8101 73.0527C44.2577 72.5693 43.6585 72.0655 42.9293 71.9721C42.5394 71.9213 42.1392 71.9965 41.7493 71.9477C41.4304 71.9071 41.1278 71.7873 40.8109 71.7345C40.506 71.6928 40.1972 71.6867 39.8908 71.7162L39.7608 71.5964C40.4349 71.3116 41.0076 70.8303 41.404 70.2152C41.7046 69.7298 41.8691 69.1692 42.1474 68.6695C42.4866 68.0602 42.9903 67.5565 43.366 66.9715C44.2739 65.5843 44.4405 63.799 44.0729 62.1822C43.7052 60.5654 42.844 59.097 41.8386 57.7869C39.8888 55.2643 36.6187 54.334 33.5396 54.8215C33.3365 54.854 33.1333 54.8926 32.9302 54.9373C32.4122 55.0463 31.9066 55.2075 31.4211 55.4186C30.7643 55.6876 30.1943 56.1324 29.7739 56.7043C29.6606 56.8715 29.5646 57.0498 29.4875 57.2365C29.4308 57.3791 29.3846 57.5258 29.3494 57.6752C29.255 58.1264 29.2296 58.5894 29.2743 59.0482C29.2864 59.2046 29.3027 59.361 29.321 59.5174L29.3514 59.753C29.3717 59.9094 29.3941 60.0658 29.4164 60.2222C29.4489 60.4578 29.4794 60.6934 29.5017 60.925C29.5196 61.0889 29.5285 61.2536 29.5281 61.4185C29.5281 61.4612 29.5281 61.5018 29.5281 61.5424C29.521 61.665 29.5026 61.7867 29.4733 61.906C29.4573 61.9716 29.4369 62.036 29.4124 62.0989C29.3392 62.2855 29.243 62.4623 29.126 62.625C28.9678 62.8459 28.7962 63.0568 28.6121 63.2567L28.4354 63.4598C28.3765 63.5268 28.3196 63.5958 28.2607 63.6629C28.0285 63.9337 27.8161 64.2208 27.625 64.522C27.5318 64.6736 27.4483 64.831 27.3752 64.9933C27.3196 65.1162 27.2714 65.2423 27.231 65.371C27.1793 65.5436 27.1426 65.7203 27.1213 65.8991C27.1213 65.9438 27.1213 65.9885 27.1091 66.0332C27.1091 66.1205 27.1091 66.2099 27.1091 66.2992C27.1136 66.3877 27.123 66.4759 27.1375 66.5633C27.1518 66.6499 27.1722 66.7354 27.1985 66.8192C27.2239 66.9041 27.2558 66.987 27.2939 67.067C27.2939 67.0893 27.3142 67.1117 27.3264 67.134L27.3589 67.2011C27.3813 67.2457 27.4036 67.2884 27.4239 67.3331C27.4546 67.3978 27.4771 67.466 27.4909 67.5362C27.4909 67.5585 27.4909 67.5829 27.4909 67.6073C27.4909 67.6317 27.4909 67.6601 27.4909 67.6845C27.4586 67.8885 27.3515 68.0731 27.1903 68.2024C27.1497 68.241 27.1091 68.2755 27.0665 68.3121L27.0015 68.3649L26.8694 68.4685L26.7435 68.57C26.6329 68.6627 26.5303 68.7647 26.4368 68.8747C25.2931 68.8135 24.1468 68.9258 23.0367 69.2078C22.6424 69.3362 22.2324 69.4107 21.8181 69.4292C21.7187 69.4384 21.6185 69.423 21.5264 69.3844C21.4343 69.3458 21.3531 69.2851 21.29 69.2078C21.2196 69.0555 21.2004 68.8845 21.2352 68.7203C21.2899 68.0403 21.1784 67.3571 20.9102 66.7298C20.8454 66.5463 20.7333 66.383 20.5852 66.2566C20.5098 66.1952 20.4168 66.1594 20.3197 66.1543C20.2226 66.1492 20.1264 66.1751 20.0449 66.2282C20.3885 67.3394 20.339 68.535 19.9048 69.614C19.6818 70.1226 19.4204 70.6136 19.1228 71.0825C18.6597 71.8726 18.3997 72.7764 17.9874 73.595C18.4485 75.1569 18.3449 76.8244 18.5968 78.4371C18.8222 79.9381 19.3462 81.3761 19.8723 82.7999C20.2785 83.8744 20.701 84.9955 21.5622 85.7511C21.8397 86.0311 22.2141 86.1939 22.6082 86.2061C22.8999 86.17 23.1786 86.0641 23.4206 85.8974C23.6718 85.7605 23.9034 85.5904 24.1092 85.3916C24.1853 85.3082 24.2533 85.2178 24.3123 85.1215C24.3375 85.2575 24.3893 85.3873 24.4646 85.5033C24.9602 84.435 25.5045 83.391 26.0895 82.3693C26.2637 82.2766 26.4272 82.1648 26.577 82.0362C26.577 82.0728 26.5952 82.1093 26.6054 82.1459C26.579 82.2434 26.5546 82.349 26.5282 82.4404C26.5018 82.5318 26.4713 82.6293 26.4429 82.7207C26.4145 82.8121 26.4002 82.8568 26.3779 82.9238C26.3556 82.9909 26.3231 83.0863 26.2926 83.1676C26.2621 83.2488 26.2276 83.3443 26.1931 83.4316C26.1585 83.5189 26.1464 83.5575 26.12 83.6185C26.057 83.7728 25.992 83.9231 25.9168 84.0734C25.9734 84.101 26.0318 84.1247 26.0915 84.1445L26.1301 84.1567C26.1828 84.1733 26.2363 84.1869 26.2906 84.1973H26.3495C26.3892 84.2035 26.4292 84.2076 26.4693 84.2095H26.514H26.646C26.7914 84.2032 26.9353 84.1786 27.0746 84.1364L27.1538 84.4614C27.3564 85.1916 27.487 85.9399 27.5438 86.6956C27.5823 87.5486 27.4341 88.4159 27.5986 89.2548C27.6819 89.6915 27.8505 90.1099 27.9114 90.5486C27.9507 90.9618 27.9432 91.3781 27.889 91.7896C27.7943 92.7862 27.6995 93.7835 27.6047 94.7814C27.596 95.1477 27.5087 95.5079 27.3488 95.8376C27.2086 96.0813 26.9811 96.3596 27.1233 96.6013C27.3574 96.539 27.5957 96.4935 27.8362 96.4652C27.7489 96.782 27.6697 97.1009 27.5945 97.4218C27.5212 97.6604 27.5018 97.9122 27.5377 98.1591C27.5884 98.3907 27.7408 98.5999 27.757 98.8355C27.7936 99.2011 27.5397 99.524 27.3996 99.8632C27.0421 100.728 27.4219 101.703 27.8058 102.561L28.9269 105.103L29.847 107.189C30.1192 107.799 30.3934 108.428 30.6595 109.054C31.8585 111.902 32.8377 114.838 33.5883 117.836C33.6134 117.973 33.6652 118.102 33.7406 118.218C33.895 118.421 34.1773 118.486 34.4068 118.612C35.0954 118.992 35.1746 120.125 34.545 120.597C34.6729 122.124 33.5294 123.601 32.9404 125.014C31.5836 128.264 31.8294 131.932 31.3643 135.426L31.8903 135.119C31.9527 135.147 32.0103 135.185 32.0609 135.231C32.0487 135.296 32.0345 135.363 32.0183 135.434C31.9471 135.731 31.8336 136.016 31.6811 136.281C31.3744 136.807 30.9052 137.276 30.8341 137.881C30.7915 138.247 30.9032 138.613 30.9012 138.98C30.9012 139.015 30.9012 139.047 30.9012 139.082C30.8545 139.037 30.7834 139.041 30.6777 139.124C30.5124 139.298 30.3979 139.514 30.3467 139.748C30.2553 140.01 30.1822 140.276 30.109 140.542L29.8369 141.481C29.6979 142.046 29.5138 142.6 29.2864 143.136C29.092 143.495 28.9289 143.87 28.799 144.257C28.7266 144.572 28.6985 144.897 28.7157 145.22C28.7104 145.53 28.7549 145.838 28.8477 146.134C28.9696 146.425 29.1509 146.687 29.38 146.905C29.609 147.122 29.8809 147.289 30.1781 147.395C30.773 147.604 31.3962 147.722 32.0264 147.744C32.188 147.765 32.3518 147.76 32.5118 147.73C32.6832 147.681 32.8429 147.597 32.981 147.484C33.8381 146.855 34.2809 145.697 34.3581 144.641C34.3364 144.423 34.2977 144.207 34.2423 143.995C34.2951 142.839 34.1266 141.678 34.2139 140.526C34.2322 140.658 34.2505 140.788 34.2708 140.918L34.4739 142.212C34.462 142.166 34.4382 142.124 34.4048 142.09C34.2545 142.569 34.2279 143.078 34.3276 143.571C34.4289 144.06 34.5716 144.541 34.7542 145.006L35.0304 145.778C35.097 146.011 35.2088 146.229 35.3594 146.418C35.6011 146.684 35.9688 146.784 36.3222 146.869C37.0818 147.091 37.8639 147.227 38.6539 147.275C38.7595 147.288 38.8664 147.268 38.9606 147.218C39.0089 147.183 39.055 147.144 39.0987 147.103C39.1689 147.052 39.2437 147.009 39.3221 146.973C39.6615 146.794 39.918 146.49 40.0371 146.126C40.0942 145.944 40.112 145.753 40.0892 145.564C40.0665 145.375 40.0037 145.193 39.905 145.031C39.8127 144.894 39.7073 144.766 39.5902 144.649L38.2009 143.176C37.9885 142.924 37.762 142.684 37.5226 142.457C37.494 142.428 37.4587 142.406 37.4198 142.393C37.3809 142.381 37.3395 142.378 37.2991 142.384C36.9214 141.442 36.9701 140.341 37.0351 139.307C37.0554 138.998 37.224 138.359 37.291 137.833C37.559 137.742 37.8086 137.605 38.0283 137.426C38.24 137.272 38.3904 137.047 38.4528 136.793C39.1535 133.214 40.2808 129.745 41.3451 126.257C41.4507 125.914 41.5482 125.569 41.6558 125.226C41.7005 125.079 41.7412 124.931 41.7838 124.783C41.8265 124.635 41.8549 124.543 41.8894 124.423C41.9463 124.22 42.0032 124.017 42.058 123.814C42.0743 123.759 42.0885 123.704 42.1047 123.649C42.1038 123.639 42.1038 123.628 42.1047 123.617C42.1717 123.367 42.2367 123.117 42.3078 122.867C42.3322 122.77 42.3586 122.677 42.383 122.579C42.4622 122.262 42.5414 121.941 42.6166 121.622C42.6289 121.578 42.6384 121.534 42.645 121.488C42.6724 121.376 42.6646 121.257 42.6227 121.149C42.6024 121.107 42.5757 121.069 42.5434 121.035C42.5211 121.009 42.4967 120.983 42.4723 120.958C42.448 120.934 42.4195 120.901 42.3952 120.871C42.331 120.792 42.2828 120.702 42.253 120.605C42.253 120.507 42.253 120.402 42.253 120.312C42.253 120.223 42.2408 120.109 42.2347 120.004C42.2565 119.866 42.287 119.731 42.3261 119.597C42.3505 119.518 42.3769 119.439 42.4013 119.36C42.4256 119.281 42.4622 119.157 42.4947 119.065C42.6162 118.927 42.6821 118.748 42.6795 118.564C42.8055 118.249 42.9442 117.941 43.0959 117.639C43.283 117.333 43.4092 116.994 43.4676 116.64C43.4667 116.32 43.4272 116.002 43.3498 115.692C43.1467 114.371 43.756 113.086 44.2049 111.833C44.5379 110.908 44.7907 109.957 44.9604 108.989C45.0925 108.248 45.1839 107.47 45.5799 106.828C45.7106 106.648 45.8223 106.454 45.913 106.251C45.9745 106.039 46.0046 105.818 46.0024 105.597C46.0524 104.7 46.2694 103.821 46.6422 103.003C46.7248 102.845 46.7811 102.674 46.8088 102.498C46.8098 102.486 46.8098 102.475 46.8088 102.463V102.414L46.9123 102.398C47.089 101.279 47.2678 100.032 47.1459 98.9045C46.9874 97.5988 46.3515 96.3979 45.3606 95.5329H45.3809C45.7302 95.3562 45.8866 94.9236 45.8927 94.5417C45.8936 94.2524 45.8294 93.9666 45.7049 93.7054C45.5805 93.4442 45.3989 93.2142 45.1737 93.0326C45.073 92.97 44.9893 92.8835 44.93 92.7808C44.8963 92.6752 44.8859 92.5637 44.8995 92.4538C44.9012 92.1221 44.8041 91.7975 44.6208 91.5212C44.4374 91.2449 44.176 91.0293 43.8697 90.902C43.8062 90.8844 43.7482 90.8508 43.7012 90.8045C43.649 90.715 43.633 90.6089 43.6565 90.508C43.6753 90.1782 43.6037 89.8495 43.4495 89.5574C43.2952 89.2653 43.0641 89.0209 42.7811 88.8506C42.8623 88.4159 42.9436 87.961 42.8197 87.5344C42.6958 87.1079 42.2956 86.722 41.8569 86.7829C42.2144 85.808 41.7066 84.7234 41.8407 83.6936C41.8996 83.2508 42.0763 82.8263 42.0986 82.3815C42.1189 81.9753 42.0194 81.5406 42.2164 81.1872C42.4134 80.8338 42.8786 80.5576 42.7587 80.1717C42.708 80.0072 42.5556 79.8934 42.4845 79.733C42.4134 79.5725 42.6978 79.3267 42.844 79.4161C42.9131 79.3633 42.9822 79.3085 43.0472 79.2516C43.0684 79.4581 43.1092 79.6621 43.169 79.8609C43.2685 80.194 43.4209 80.5068 43.5245 80.8379C43.6829 81.3436 43.7276 81.892 43.9835 82.3551C44.3897 83.0965 45.2489 83.4641 45.8298 84.0795C46.171 84.439 46.4168 84.892 46.7681 85.2332C47.035 85.4824 47.3278 85.7024 47.6415 85.8892L49.5182 87.1079C49.7129 87.2492 49.9298 87.357 50.1601 87.4268C50.3061 87.4546 50.4563 87.4524 50.6015 87.4203C50.7467 87.3881 50.8838 87.3268 51.0045 87.2399C51.1252 87.1531 51.2269 87.0425 51.3035 86.9151C51.38 86.7876 51.4298 86.6459 51.4498 86.4986C51.2773 86.4375 51.12 86.3398 50.9888 86.2122C51.0152 86.2122 51.0416 86.2122 51.068 86.2C51.5138 86.0834 51.9262 85.8643 52.2724 85.5602C53.6089 84.4959 54.5696 83.0437 55.508 81.6158C56.491 80.1189 61.2214 76.1582 61.2214 76.1582V74.5536C61.8234 74.2047 62.3573 73.7499 62.7976 73.2111C63.0349 72.9237 63.1738 72.5677 63.1936 72.1955C63.2027 72.0053 63.1514 71.817 63.0471 71.6576C62.9428 71.4982 62.7908 71.3758 62.6127 71.3079ZM23.2703 75.1569C23.1796 75.7405 23.0679 76.32 22.9352 76.8955C22.789 77.5611 22.6018 78.2171 22.3746 78.8596L22.3015 79.0627C22.2345 78.9368 22.1674 78.8129 22.0984 78.6849C21.946 78.366 21.8221 78.035 21.6922 77.7039L20.9081 75.5915C20.8066 75.3173 20.705 75.0005 20.8574 74.7486C20.969 74.5943 21.1248 74.4775 21.3042 74.4135C21.8555 74.1607 22.4313 73.9654 23.0225 73.8306C23.2095 73.7931 23.394 73.7442 23.575 73.6843C23.4292 74.165 23.3273 74.6579 23.2703 75.1569ZM24.1376 72.5165C24.1115 72.4696 24.0977 72.4168 24.0977 72.3631C24.0977 72.3094 24.1115 72.2566 24.1376 72.2098C24.1963 72.1506 24.2651 72.1025 24.3407 72.0676L24.3996 72.027C24.3184 72.1955 24.227 72.358 24.1376 72.5225V72.5165ZM25.7625 70.2193C25.5319 70.4106 25.3222 70.6257 25.1369 70.8611C24.938 71.1238 24.7588 71.4008 24.6007 71.6898C24.6246 71.5775 24.6164 71.4607 24.5769 71.3529C24.5373 71.2451 24.4681 71.1507 24.3773 71.0805C24.3053 71.041 24.2373 70.9947 24.1742 70.9423C24.1063 70.8518 24.0771 70.7381 24.0931 70.6261C24.1091 70.5141 24.169 70.4131 24.2595 70.3452C24.4464 70.217 24.6649 70.1425 24.8911 70.1299L25.8275 69.9918C25.799 70.071 25.7808 70.1482 25.7605 70.2254L25.7625 70.2193ZM34.5287 138.19C34.5452 137.909 34.5268 137.628 34.4739 137.351C34.5896 137.351 34.7054 137.351 34.8192 137.351C34.7237 137.621 34.6262 137.908 34.5287 138.19Z" fill="url(#paint11_linear)"/>
<path d="M33.5742 55.4308C31.9493 55.6928 30.1416 56.3184 29.5119 57.8417C29.0428 58.9933 29.4063 60.2892 29.5262 61.5261C29.5716 61.8527 29.5599 62.1846 29.4916 62.5072C29.3576 63.0291 28.9879 63.4516 28.6305 63.8558C28.1338 64.369 27.7169 64.9537 27.3935 65.5904C27.101 66.2403 27.0076 67.0121 27.3102 67.6621C27.4132 67.8291 27.4822 68.0148 27.5133 68.2085C27.5337 68.6309 27.0909 68.899 26.7659 69.1692C25.5472 70.1847 25.598 72.0127 25.5879 73.6031C25.5691 76.8459 24.8492 80.0463 23.4775 82.9847C23.9916 83.2451 24.5722 83.3445 25.1436 83.2698C25.715 83.1952 26.2506 82.95 26.6806 82.5663C26.5117 83.2884 26.268 83.9909 25.9535 84.6624C26.9853 85.1621 28.2303 84.3415 28.7483 83.3179C29.2662 82.2942 29.3271 81.1039 29.6947 80.0173C30.0624 78.9307 30.7103 77.9862 30.9967 76.8914C31.0881 76.5299 31.145 76.144 31.3663 75.8434C31.5529 75.6259 31.7722 75.4388 32.0163 75.2889C33.0876 74.5156 33.8907 73.427 34.3135 72.1752C35.5768 72.4535 36.8666 72.7338 38.1543 72.616C39.442 72.4982 40.7582 71.9152 41.4386 70.8144C41.7392 70.3289 41.9017 69.7704 42.1799 69.2707C42.5212 68.6614 43.0228 68.1577 43.3986 67.5748C44.3045 66.1875 44.471 64.4062 44.1034 62.7895C43.7358 61.1727 42.8847 59.7103 41.8692 58.4003C39.9234 55.8736 36.6533 54.9372 33.5742 55.4308Z" fill="#303D5C"/>
<path d="M23.3191 75.7458C23.2277 76.3267 23.116 76.9076 22.986 77.4824C22.8386 78.1471 22.6514 78.8023 22.4254 79.4445C22.2925 79.7257 22.2318 80.0357 22.2487 80.3463C22.2888 80.5365 22.3623 80.7181 22.466 80.8825C23.2074 82.2007 24.2107 83.4742 24.294 84.9853C24.3143 85.3611 24.294 85.7693 24.4971 86.0801C25.0699 84.8465 25.7022 83.6441 26.3942 82.4729C27.1172 81.2542 27.9215 80.0071 28.1287 78.5975C28.2113 77.9359 28.2024 77.2662 28.1023 76.607C28.0068 75.8657 27.8403 75.106 27.3894 74.513C26.8979 73.8711 25.5614 72.9023 24.6819 73.1034C23.6603 73.337 23.4491 74.9192 23.3191 75.7458Z" fill="#6C63FF"/>
<path d="M49.498 82.8507C50.4688 82.4547 51.46 82.0383 52.2298 81.3234C52.7 80.8571 53.1169 80.3401 53.4728 79.7817L55.7578 76.4853C56.2981 75.7013 56.8567 74.8787 56.9765 73.9342C58.3147 72.5214 59.1209 70.6879 59.2574 68.7468C59.2737 68.5538 59.3387 68.2999 59.5316 68.2938C59.617 68.3002 59.6968 68.3387 59.755 68.4015C59.9044 68.5389 60.019 68.7098 60.0896 68.9001C60.1602 69.0904 60.1848 69.2946 60.1613 69.4962C60.4944 69.48 60.8559 69.4719 61.1281 69.6668C61.4002 69.8618 61.4733 70.3452 61.1809 70.5057C61.2788 70.5354 61.3624 70.6 61.4159 70.6872C61.4694 70.7744 61.4891 70.8782 61.4713 70.9789C61.8207 70.9099 62.2045 70.853 62.5133 71.0277C62.822 71.2024 62.9398 71.7142 62.6412 71.9051C62.8153 71.9724 62.9643 72.0919 63.068 72.2471C63.1716 72.4024 63.2247 72.5858 63.2201 72.7724C63.2015 73.1449 63.0625 73.5012 62.824 73.788C61.9466 74.966 60.3989 75.4413 59.3813 76.5015C59.047 76.8722 58.7471 77.2726 58.4856 77.6978L55.5385 82.1825C54.6021 83.6043 53.6414 85.0606 52.305 86.1208C51.9588 86.4249 51.5463 86.644 51.1005 86.7606C50.8772 86.8169 50.6432 86.8141 50.4213 86.7525C50.1994 86.6909 49.9974 86.5726 49.8351 86.4092C49.5406 86.0741 49.4959 85.5968 49.4675 85.1479C49.4188 84.3923 49.5488 83.6124 49.498 82.8507Z" fill="#EE8E9E"/>
<path d="M39.6288 145.136C39.7463 145.253 39.8518 145.381 39.9436 145.518C40.0422 145.68 40.105 145.862 40.1277 146.05C40.1505 146.239 40.1328 146.43 40.0756 146.611C39.9579 146.975 39.7019 147.279 39.3627 147.456C39.2834 147.492 39.2079 147.535 39.1373 147.586C39.0941 147.628 39.0479 147.668 38.9992 147.704C38.9043 147.751 38.798 147.771 38.6925 147.761C37.9034 147.711 37.1222 147.574 36.3628 147.354C36.0134 147.267 35.6438 147.168 35.4001 146.903C35.2494 146.714 35.1376 146.496 35.071 146.264L34.7948 145.494C34.6134 145.029 34.4714 144.549 34.3703 144.06C34.2695 143.569 34.2961 143.06 34.4475 142.581C34.516 142.667 34.5519 142.774 34.549 142.884C34.6303 143.402 34.8336 143.894 35.1421 144.318C35.2066 144.424 35.2844 144.522 35.3736 144.608C35.5756 144.763 35.8142 144.863 36.0663 144.899C36.5514 145.004 37.0448 145.067 37.5408 145.088C37.6095 145.097 37.6794 145.089 37.7439 145.063C37.8236 145.019 37.8838 144.947 37.9125 144.86C37.9836 144.663 37.9836 144.448 37.9125 144.251C37.7785 143.875 37.4108 143.629 37.2362 143.272C37.1041 143.008 37.2849 142.717 37.553 142.941C37.7937 143.167 38.0209 143.407 38.2334 143.66L39.6288 145.136Z" fill="#303D5C"/>
<path d="M37.0758 139.801C36.9966 141.042 36.9417 142.382 37.6201 143.424C37.8659 143.798 38.1929 144.113 38.4711 144.464C38.6307 144.64 38.7365 144.858 38.7758 145.092C38.8144 145.547 38.3879 145.937 37.939 146.022C37.4901 146.107 37.0311 145.965 36.5964 145.819C36.1851 145.717 35.798 145.534 35.457 145.283C34.8659 144.783 34.7095 143.95 34.5917 143.187L34.3155 141.411C34.1063 140.514 34.1947 139.573 34.5674 138.73L35.0223 137.398C35.0521 137.268 35.1234 137.152 35.2254 137.067C35.3313 137.009 35.453 136.986 35.5728 137.002C36.0074 137.024 37.1062 137.183 37.3175 137.644C37.4962 138.044 37.1062 139.324 37.0758 139.801Z" fill="#EE8E9E"/>
<path opacity="0.05" d="M37.0758 139.801C36.9966 141.042 36.9417 142.382 37.6201 143.424C37.8659 143.798 38.1929 144.113 38.4711 144.464C38.6307 144.64 38.7365 144.858 38.7758 145.092C38.8144 145.547 38.3879 145.937 37.939 146.022C37.4901 146.107 37.0311 145.965 36.5964 145.819C36.1851 145.717 35.798 145.534 35.457 145.283C34.8659 144.783 34.7095 143.95 34.5917 143.187L34.3155 141.411C34.1063 140.514 34.1947 139.573 34.5674 138.73L35.0223 137.398C35.0521 137.268 35.1234 137.152 35.2254 137.067C35.3313 137.009 35.453 136.986 35.5728 137.002C36.0074 137.024 37.1062 137.183 37.3175 137.644C37.4962 138.044 37.1062 139.324 37.0758 139.801Z" fill="black"/>
<path d="M46.8392 103.016C46.8401 103.027 46.8401 103.039 46.8392 103.05C46.8134 103.226 46.757 103.396 46.6727 103.552C46.2998 104.367 46.0822 105.244 46.0308 106.139C46.0331 106.361 46.003 106.581 45.9415 106.793C45.8504 106.996 45.7387 107.188 45.6084 107.368C45.2123 108.012 45.1209 108.79 44.9889 109.527C44.8187 110.491 44.5659 111.438 44.2333 112.359C43.7804 113.614 43.171 114.897 43.3782 116.218C43.4556 116.528 43.4951 116.846 43.496 117.166C43.4381 117.52 43.3119 117.858 43.1243 118.163C42.9727 118.464 42.8373 118.772 42.7181 119.088C42.5861 119.425 42.4683 119.77 42.3647 120.119C42.2428 120.544 42.1616 121.048 42.4419 121.389C42.529 121.472 42.606 121.566 42.6714 121.667C42.7242 121.823 42.7242 121.991 42.6714 122.146C42.5103 122.823 42.3383 123.501 42.1555 124.178C42.0133 124.706 41.863 125.23 41.7087 125.754C40.5672 129.586 39.2713 133.38 38.5076 137.307C38.398 137.871 37.6728 138.275 37.1123 138.399C36.83 138.46 36.5374 138.452 36.2585 138.378C35.9796 138.303 35.7223 138.164 35.5077 137.971C35.4691 137.936 35.4325 137.898 35.398 137.861C34.809 137.227 34.7217 136.254 34.7663 135.377C34.9694 131.337 37.0006 127.639 37.9674 123.712C38.317 122.293 38.5279 120.843 38.597 119.382C38.8225 114.507 38.9139 109.353 37.5347 104.667C37.2483 103.692 36.9092 102.591 37.4251 101.718C37.75 101.165 38.3533 100.838 38.9504 100.603C40.1682 100.128 41.4686 99.9015 42.7752 99.9364C44.0817 99.9712 45.3682 100.267 46.5589 100.806C46.5609 100.903 46.5568 101.001 46.5467 101.098C46.495 101.552 46.5478 102.012 46.7011 102.443C46.78 102.624 46.8267 102.818 46.8392 103.016Z" fill="#303D5C"/>
<path d="M30.1395 141.05L29.8815 141.988C29.7441 142.553 29.5607 143.105 29.3331 143.64C29.1387 143.999 28.9756 144.374 28.8457 144.761C28.7733 145.076 28.7452 145.4 28.7624 145.723C28.7571 146.033 28.8017 146.341 28.8944 146.635C29.016 146.926 29.197 147.188 29.4257 147.405C29.6544 147.622 29.9259 147.789 30.2228 147.895C30.8176 148.104 31.4409 148.221 32.0711 148.242C32.2325 148.264 32.3964 148.26 32.5565 148.23C32.7279 148.181 32.8875 148.097 33.0257 147.984C33.8828 147.356 34.3236 146.199 34.4007 145.141C34.3786 144.894 34.3302 144.65 34.2565 144.413C34.1895 144.324 33.5416 144.69 33.8198 144.996C34.2261 145.447 33.0297 145.214 32.4204 145.175C32.1528 145.152 31.8873 145.109 31.6263 145.045L30.6391 144.842C30.3162 144.773 29.9445 144.661 29.8267 144.352C29.7089 144.044 29.9607 143.674 30.1557 143.374C30.6716 142.575 30.8057 141.598 30.9255 140.656C30.9479 140.471 31.1794 139.271 30.7021 139.64C30.5383 139.815 30.424 140.03 30.371 140.264C30.2837 140.518 30.2106 140.784 30.1395 141.05Z" fill="#303D5C"/>
<path opacity="0.05" d="M42.4318 121.391C42.1515 121.05 42.2287 120.546 42.3566 120.121C42.4013 119.963 42.4521 119.807 42.5049 119.65L38.6296 118.338C38.6153 118.687 38.5991 119.033 38.5828 119.378C38.5153 120.839 38.3051 122.29 37.9552 123.71C36.9864 127.634 34.9533 131.333 34.7542 135.371C34.7075 136.301 34.807 137.341 35.4956 137.967C35.7098 138.16 35.9666 138.299 36.2452 138.374C36.5237 138.449 36.816 138.457 37.0981 138.397C37.6607 138.273 38.3838 137.867 38.4955 137.303C39.2633 133.376 40.553 129.584 41.6965 125.748C42.0526 124.557 42.3736 123.358 42.6593 122.148C42.712 121.994 42.712 121.826 42.6593 121.671C42.5957 121.568 42.5192 121.474 42.4318 121.391Z" fill="black"/>
<path d="M31.7238 136.793C31.4171 137.321 30.95 137.788 30.8789 138.393C30.8362 138.757 30.9479 139.122 30.9459 139.49C30.9309 139.794 30.877 140.095 30.7854 140.386C30.4076 141.749 29.973 143.094 29.4815 144.42C29.4007 144.591 29.365 144.779 29.3779 144.968C29.4266 145.279 29.7293 145.484 30.0177 145.608C30.9418 146.002 31.9818 145.975 32.9851 145.935C33.2769 145.947 33.5662 145.876 33.8199 145.732C34.1794 145.486 34.2688 145 34.2911 144.566C34.3602 143.307 34.1469 142.041 34.2911 140.79C34.3419 140.333 34.4374 139.884 34.5085 139.431C34.608 138.802 34.6588 138.139 34.4516 137.536C34.2801 137.103 34.04 136.701 33.7407 136.344C33.4766 135.958 33.1425 135.624 32.7556 135.361C32.6378 135.292 32.3027 135.077 32.1828 135.211C32.1219 135.28 32.1483 135.464 32.1402 135.55C32.1244 135.681 32.1014 135.811 32.0711 135.94C31.9969 136.239 31.8799 136.527 31.7238 136.793Z" fill="#EE8E9E"/>
<path opacity="0.05" d="M39.1698 104.588C38.9891 104.833 39.0256 105.175 39.0987 105.471C39.2267 106.007 39.442 106.521 39.6167 107.043C39.9025 107.98 40.1251 108.936 40.2829 109.903C40.4454 110.776 40.7906 111.749 40.6505 112.629C41.7099 114.645 42.4063 116.832 42.708 119.09C42.7872 119.669 41.5015 120.416 41.5259 120.999C41.5746 122.161 42.5008 122.254 41.8184 123.18C41.7839 123.227 42.0743 124.265 42.0357 124.31C41.7575 124.645 41.404 124.919 41.1055 125.226C40.7204 125.662 40.3909 126.144 40.1244 126.662C38.3574 129.855 35.8023 133.474 36.5903 137.039C36.6064 137.167 36.5827 137.297 36.5224 137.411C36.4621 137.526 36.3681 137.619 36.2532 137.678C36.0199 137.791 35.7646 137.85 35.5057 137.851H35.3839C34.7948 137.217 34.7075 136.244 34.7522 135.367C34.9553 131.327 36.9864 127.628 37.9532 123.702C38.3029 122.283 38.5137 120.832 38.5828 119.372C38.8083 114.497 38.8997 109.342 37.5206 104.657C37.2342 103.682 36.895 102.581 37.4109 101.708C37.7359 101.155 38.3391 100.828 38.9362 100.592C40.1541 100.118 41.4544 99.8913 42.761 99.9262C44.0676 99.9611 45.354 100.257 46.5448 100.796C46.5467 100.893 46.5427 100.991 46.5326 101.088C46.4809 101.542 46.5337 102.002 46.6869 102.433C46.7721 102.617 46.8237 102.815 46.8393 103.018C46.8393 103.018 46.9083 102.232 46.9063 102.244C45.3322 102.469 43.6707 103.499 42.0824 103.733C41.259 103.82 40.4477 103.999 39.6634 104.265C39.4723 104.325 39.3015 104.437 39.1698 104.588Z" fill="black"/>
<path d="M28.2039 95.9391C27.9913 96.6162 27.8037 97.3 27.6413 97.9905C27.569 98.2292 27.5495 98.4808 27.5844 98.7278C27.6352 98.9594 27.7875 99.1665 27.8037 99.4021C27.8403 99.7677 27.5864 100.091 27.4463 100.43C27.0888 101.293 27.4706 102.268 27.8525 103.123L28.9737 105.662L29.8958 107.746C30.17 108.365 30.4421 108.985 30.7082 109.608C31.9066 112.453 32.8851 115.386 33.635 118.381C33.6603 118.516 33.7113 118.646 33.7853 118.763C33.9417 118.966 34.2241 119.031 34.4515 119.157C35.1421 119.534 35.2213 120.668 34.5897 121.139C34.7197 122.664 33.5741 124.137 32.9871 125.551C31.6303 128.8 31.8761 132.456 31.411 135.95L31.937 135.641C32.4428 135.873 32.4245 136.59 32.6967 137.075C33.1029 137.804 34.1022 137.906 34.9309 137.851C35.1891 137.85 35.4438 137.791 35.6763 137.678C35.7914 137.619 35.8856 137.526 35.9459 137.412C36.0062 137.297 36.0298 137.167 36.0135 137.038C35.2274 133.474 37.7805 129.854 39.5496 126.662C39.8153 126.144 40.1442 125.662 40.5286 125.226C40.8292 124.909 41.1806 124.643 41.4609 124.31C42.2408 123.373 42.3404 122.053 42.2875 120.834C42.1637 117.969 41.4077 115.166 40.0736 112.627C40.2158 111.749 39.8705 110.776 39.708 109.903C39.5497 108.936 39.3251 107.981 39.0357 107.045C38.8611 106.519 38.6478 106.007 38.5178 105.471C38.4467 105.175 38.4081 104.833 38.5889 104.588C38.7225 104.436 38.8954 104.324 39.0886 104.265C39.8729 103.999 40.6841 103.82 41.5076 103.732L46.9571 102.95C47.1317 101.831 47.3105 100.584 47.1886 99.459C47.0576 98.4163 46.6235 97.435 45.94 96.6367C45.2566 95.8384 44.3538 95.2583 43.3437 94.9682C43.1061 94.9053 42.8278 94.8647 42.6328 95.015C37.8241 94.0709 32.8529 94.3894 28.2039 95.9391Z" fill="#303D5C"/>
<path d="M33.1456 66.5064C33.225 67.0384 33.1422 67.582 32.9079 68.0663C32.7497 68.3307 32.543 68.563 32.2986 68.7508C31.7717 69.1744 31.1591 69.4786 30.5031 69.6424C30.1172 69.7399 29.6907 69.8049 29.4287 70.1116C29.0468 70.5726 29.3027 71.2713 29.6318 71.7751C30.1964 72.6525 30.9804 73.4467 31.9858 73.7209C32.7983 73.9402 33.6452 73.8062 34.4658 73.9483C35.0609 74.0519 35.6215 74.2977 36.2085 74.4378C37.0438 74.6289 37.9135 74.6084 38.7389 74.3782C39.5642 74.148 40.319 73.7154 40.9349 73.1196C40.0615 72.4494 39.1556 71.7365 38.7007 70.7331C38.3804 70.015 38.3201 69.2079 38.53 68.4501C38.7331 67.7068 39.2105 66.9837 39.0642 66.2159C38.918 65.4482 38.1705 64.9343 37.4393 64.6784C36.768 64.4745 36.0781 64.3377 35.3798 64.2701C34.9959 64.2173 32.5586 63.6791 32.4063 63.9452C32.321 64.0955 32.8267 64.9851 32.8897 65.1821C33.0381 65.609 33.1243 66.055 33.1456 66.5064Z" fill="#EE8E9E"/>
<path d="M36.2186 68.2856C38.9489 68.2856 41.1623 66.0722 41.1623 63.3419C41.1623 60.6116 38.9489 58.3982 36.2186 58.3982C33.4883 58.3982 31.2749 60.6116 31.2749 63.3419C31.2749 66.0722 33.4883 68.2856 36.2186 68.2856Z" fill="#EE8E9E"/>
<path d="M33.6066 71.5131L36.9599 72.0777C37.7842 72.2454 38.6232 72.3298 39.4643 72.3296C39.9235 72.2839 40.3862 72.2839 40.8454 72.3296C41.1623 72.3824 41.4649 72.5022 41.7818 72.5429C42.1738 72.5916 42.5719 72.5165 42.9639 72.5672C43.691 72.6607 44.2902 73.1644 44.8426 73.6457C45.4906 74.2104 46.1872 74.8644 46.238 75.7276C46.2471 75.8256 46.2332 75.9244 46.1974 76.016C46.1337 76.1196 46.0485 76.2083 45.9476 76.276C45.3382 76.7818 44.9868 77.5353 44.5481 78.2015C44.0964 78.8889 43.5336 79.4963 42.8826 79.999C42.7364 79.9056 42.4581 80.1514 42.5211 80.3139C42.584 80.4763 42.7445 80.5881 42.7973 80.7526C42.9172 81.1324 42.448 81.4127 42.253 81.7681C42.058 82.1236 42.1575 82.5562 42.1372 82.9604C42.1128 83.4052 41.9341 83.8297 41.8793 84.2704C41.7432 85.3002 42.253 86.3848 41.8935 87.3577C42.3342 87.3029 42.7323 87.6827 42.8562 88.1072C42.9801 88.5317 42.9009 88.9887 42.8176 89.4234C43.1007 89.5928 43.332 89.8364 43.4867 90.1278C43.6413 90.4192 43.7134 90.7473 43.6951 91.0767C43.6778 91.1156 43.6695 91.1578 43.6707 91.2003C43.6719 91.2428 43.6827 91.2846 43.7022 91.3224C43.7217 91.3602 43.7494 91.3931 43.7833 91.4188C43.8172 91.4445 43.8565 91.4622 43.8982 91.4707C44.2039 91.5981 44.465 91.8134 44.6483 92.0893C44.8316 92.3652 44.9289 92.6892 44.9279 93.0204C44.9144 93.131 44.9247 93.2433 44.9584 93.3495C45.0176 93.4511 45.1005 93.5368 45.2001 93.5993C45.4254 93.7804 45.607 94.01 45.7315 94.2708C45.856 94.5317 45.9201 94.8173 45.9191 95.1064C45.9191 95.4984 45.7566 95.9188 45.4093 96.0955C44.6984 96.4571 43.9368 96.5972 43.1568 96.7658C42.4382 96.9356 41.7106 97.0651 40.9774 97.1537C40.3019 97.209 39.624 97.23 38.9463 97.2167L34.4617 97.1984C33.2004 97.1984 31.939 97.1984 30.6818 97.103C29.5078 97.0237 28.3074 96.8775 27.17 97.1862C27.0278 96.9445 27.2553 96.6663 27.3955 96.4246C27.5561 96.0952 27.6434 95.7348 27.6514 95.3684L27.9357 92.3806C27.9899 91.9698 27.9973 91.5542 27.9581 91.1417C27.8972 90.7009 27.7306 90.2845 27.6453 89.8479C27.4828 89.011 27.6311 88.1458 27.5925 87.2927C27.5345 86.5371 27.4032 85.7888 27.2005 85.0585L26.3109 81.4025C26.1687 80.8155 26.0935 80.1331 25.8742 79.5745C25.1904 77.8142 24.4734 76.0729 23.7232 74.3505C23.6961 74.275 23.6857 74.1945 23.6927 74.1145C23.6997 74.0346 23.724 73.9571 23.7639 73.8874L24.5052 72.5591C24.7036 72.1816 24.9303 71.8197 25.1836 71.4765C25.8097 70.6847 26.6964 70.1406 27.6859 69.941C28.6768 69.7473 29.7042 69.8992 30.5965 70.3716C30.9418 70.5564 31.2627 70.7778 31.612 70.9606C32.2112 71.245 32.9424 71.5578 33.6066 71.5131Z" fill="#6C63FF"/>
<path d="M45.5048 74.7689L46.6727 76.3268C46.78 76.4591 46.8714 76.6036 46.9449 76.7574C47.1196 77.1636 47.0241 77.6429 47.1175 78.0796C47.1903 78.3592 47.3061 78.6257 47.4608 78.8697C47.8998 79.6417 48.3961 80.3797 48.9455 81.0775C49.1993 81.432 49.5119 81.7404 49.8697 81.9895C50.0489 82.1134 50.2526 82.1972 50.4671 82.2354C50.6816 82.2736 50.9017 82.2653 51.1127 82.2109C50.9362 82.2796 50.7915 82.4113 50.7065 82.5806C50.2617 83.4621 50.2292 84.506 50.4181 85.4729C50.4712 85.8047 50.5811 86.1249 50.743 86.4193C50.9052 86.7165 51.1692 86.9451 51.4864 87.0632C51.4665 87.2105 51.4167 87.3522 51.3401 87.4795C51.2635 87.6069 51.1617 87.7173 51.041 87.804C50.9202 87.8907 50.7831 87.9519 50.6379 87.9837C50.4928 88.0156 50.3426 88.0175 50.1967 87.9894C49.9667 87.9205 49.7503 87.8126 49.5569 87.6705L47.6801 86.4518C47.3669 86.2643 47.0742 86.0444 46.8068 85.7958C46.4554 85.4464 46.2116 85.0037 45.8704 84.6442C45.2895 84.0348 44.4365 83.6611 44.0262 82.9218C43.7682 82.4587 43.7235 81.9062 43.5651 81.4066C43.4615 81.0755 43.3092 80.7627 43.2097 80.4296C42.901 79.4019 43.1244 78.2746 43.5936 77.3098C44.0627 76.3451 44.8102 75.5895 45.5048 74.7689Z" fill="#6C63FF"/>
<path d="M41.1034 60.5228C40.6459 59.8132 40.0555 59.1987 39.3648 58.7131C38.4407 58.0245 37.3784 57.4518 36.2268 57.3868C35.7453 57.3622 35.2641 57.4404 34.8152 57.6163C34.7928 56.2209 34.4475 55.2907 33.5742 55.4308C31.9493 55.6928 30.1416 56.3184 29.5119 57.8417C29.0428 58.9934 29.4063 60.2892 29.5262 61.5261C29.5716 61.8527 29.5599 62.1846 29.4916 62.5072C29.3576 63.0292 28.9879 63.4516 28.6304 63.8558C28.1338 64.369 27.7169 64.9537 27.3935 65.5904C27.101 66.2403 27.0076 67.0122 27.3102 67.6621C27.4132 67.8291 27.4822 68.0148 27.5133 68.2085C27.5337 68.6309 27.0909 68.8991 26.7659 69.1692C25.5472 70.1847 25.598 72.0127 25.5879 73.6031C25.5691 76.8459 24.8492 80.0463 23.4775 82.9847C23.9916 83.2451 24.5722 83.3444 25.1436 83.2698C25.715 83.1952 26.2506 82.95 26.6806 82.5663C26.5117 83.2884 26.268 83.9909 25.9535 84.6624C26.9853 85.1621 28.2303 84.3415 28.7483 83.3178C29.2662 82.2942 29.3271 81.1039 29.6947 80.0173C30.0624 78.9307 30.7103 77.9862 30.9967 76.8914C31.0881 76.5299 31.145 76.144 31.3663 75.8434C31.5529 75.6259 31.7722 75.4388 32.0163 75.2889C33.0806 74.5252 31.5126 68.7386 31.929 67.4956C32.5383 67.6316 33.6859 64.652 34.3338 61.6054C34.7856 61.7611 35.2676 61.8091 35.7413 61.7455C35.906 61.7098 36.075 61.6982 36.243 61.711C36.399 61.743 36.5478 61.8036 36.6817 61.8897C37.1612 62.1839 37.6623 62.4412 38.1807 62.6595C39.2531 63.0657 40.4312 63.0068 41.5747 62.9499C41.7296 62.1104 41.5612 61.2434 41.1034 60.5228Z" fill="#303D5C"/>
<g opacity="0.1">
<path opacity="0.1" d="M24.0584 82.9848C25.4343 80.0502 26.1578 76.8523 26.1789 73.6113C26.1891 72.027 26.1363 70.1868 27.3569 69.1774C27.6819 68.9072 28.1247 68.6391 28.1044 68.2167C28.0724 68.0232 28.0035 67.8377 27.9013 67.6703C27.5986 67.0244 27.6982 66.2485 27.9825 65.5986C28.306 64.9614 28.7237 64.3766 29.2215 63.864C29.5769 63.4578 29.9486 63.0373 30.0807 62.5154C30.1487 62.1928 30.1611 61.861 30.1172 61.5343C29.9953 60.2974 29.6338 59.0015 30.103 57.8499C30.7123 56.3753 32.4164 55.7437 34.0007 55.4674C33.8629 55.4235 33.7165 55.4137 33.5742 55.439C31.9493 55.701 30.1416 56.3266 29.5119 57.8499C29.0428 59.0015 29.4063 60.2974 29.5262 61.5343C29.5716 61.8609 29.5599 62.1928 29.4916 62.5154C29.3576 63.0373 28.9879 63.4598 28.6304 63.864C28.1338 64.3772 27.7169 64.9619 27.3935 65.5986C27.101 66.2485 27.0076 67.0203 27.3102 67.6703C27.4132 67.8373 27.4822 68.023 27.5133 68.2167C27.5337 68.6391 27.0909 68.9072 26.7659 69.1774C25.5472 70.1929 25.598 72.0209 25.5879 73.6113C25.568 76.8513 24.8481 80.0488 23.4775 82.9848C23.9608 83.2345 24.5067 83.3369 25.0476 83.2793C24.7019 83.2461 24.366 83.1461 24.0584 82.9848Z" fill="black"/>
<path opacity="0.1" d="M26.5343 84.6545C26.8468 83.9827 27.0884 83.2802 27.2554 82.5583C27.0468 82.7491 26.8097 82.906 26.5526 83.0235C26.3942 83.5808 26.1904 84.1243 25.9433 84.6484C26.2404 84.7897 26.5749 84.8324 26.8979 84.7702C26.7723 84.7471 26.6502 84.7082 26.5343 84.6545Z" fill="black"/>
<path opacity="0.1" d="M35.396 57.6164C35.6981 57.4987 36.0155 57.4249 36.3385 57.397H36.2268C35.9469 57.3825 35.6664 57.4037 35.392 57.4599C35.394 57.5046 35.396 57.5595 35.396 57.6164Z" fill="black"/>
<path opacity="0.1" d="M38.7616 62.6535C38.2438 62.4352 37.7434 62.1779 37.2646 61.8837C37.13 61.7975 36.9806 61.737 36.8239 61.705C36.6703 61.6912 36.5156 61.7007 36.3649 61.7334C36.4749 61.7735 36.581 61.8239 36.6817 61.8837C37.1611 62.1779 37.6622 62.4353 38.1807 62.6535C38.988 62.9198 39.8385 63.0301 40.687 62.9785C40.0316 62.9783 39.3808 62.8684 38.7616 62.6535Z" fill="black"/>
<path opacity="0.1" d="M34.9147 61.5992C34.9147 61.6439 34.8964 61.6886 34.8862 61.7333C35.1296 61.7695 35.3765 61.7763 35.6215 61.7536C35.3809 61.7286 35.1438 61.6768 34.9147 61.5992Z" fill="black"/>
</g>
<path d="M24.6251 84.5264C24.6534 84.788 24.6244 85.0527 24.5402 85.302C24.4561 85.5514 24.3187 85.7795 24.1376 85.9705C23.9317 86.1691 23.7002 86.3392 23.4491 86.4762C23.2068 86.6422 22.9282 86.7474 22.6366 86.7829C22.2437 86.7702 21.8704 86.6082 21.5927 86.33C20.7315 85.5744 20.3009 84.4553 19.9028 83.3808C19.3767 81.959 18.8527 80.5231 18.6273 79.0221C18.3855 77.4134 18.4891 75.7479 18.0281 74.186C18.4343 73.3736 18.6983 72.4677 19.1635 71.6796C19.4586 71.21 19.72 70.7199 19.9454 70.2132C20.3773 69.1343 20.4261 67.9399 20.0836 66.8294C20.165 66.7763 20.2612 66.7504 20.3583 66.7555C20.4554 66.7606 20.5484 66.7964 20.6238 66.8578C20.7715 66.9846 20.8835 67.1477 20.9488 67.331C21.217 67.9576 21.3285 68.6401 21.2738 69.3195C21.239 69.483 21.2583 69.6533 21.3286 69.8049C21.3916 69.8826 21.4726 69.9437 21.5647 69.9826C21.6568 70.0216 21.7571 70.0373 21.8567 70.0283C22.2708 70.0079 22.6805 69.9334 23.0754 69.807C24.3024 69.4939 25.5732 69.3888 26.8349 69.4962C27.0892 69.5037 27.339 69.5646 27.5682 69.6749C27.6815 69.7315 27.7768 69.8184 27.8435 69.926C27.9102 70.0336 27.9457 70.1576 27.946 70.2843L24.9399 70.725C24.7136 70.7377 24.4952 70.8121 24.3083 70.9403C24.2183 71.0081 24.1589 71.1088 24.1429 71.2203C24.1269 71.3318 24.1557 71.4451 24.2229 71.5354C24.2865 71.5873 24.3544 71.6336 24.4261 71.6735C24.5031 71.7319 24.5652 71.8077 24.6072 71.8948C24.6491 71.9819 24.6698 72.0777 24.6674 72.1744C24.665 72.271 24.6397 72.3657 24.5935 72.4506C24.5473 72.5355 24.4815 72.6082 24.4017 72.6627C24.326 72.6976 24.2573 72.7457 24.1986 72.8049C24.0767 72.9694 24.2392 73.1867 24.292 73.3858C24.3148 73.5326 24.2924 73.6829 24.2278 73.8168C24.1633 73.9506 24.0596 74.0617 23.9305 74.1352C23.6698 74.2782 23.3857 74.3738 23.0916 74.4176C22.5014 74.5536 21.9264 74.7489 21.3753 75.0005C21.1959 75.0645 21.0402 75.1813 20.9285 75.3356C20.7802 75.5875 20.8777 75.9043 20.9793 76.1785L21.7633 78.2868C21.8851 78.6179 22.009 78.949 22.1695 79.2678C22.3726 79.6741 22.6143 80.0681 22.8195 80.4865C23.0246 80.9049 23.1586 81.2685 23.3089 81.6666C23.701 82.741 24.491 83.391 24.6251 84.5264Z" fill="#EE8E9E"/>
<path d="M61.12 70.8489H51.7505V79.9198H61.12V70.8489Z" fill="url(#paint12_linear)"/>
<path d="M60.9595 71.0054H51.913V79.7635H60.9595V71.0054Z" fill="#5A01AB"/>
<path d="M59.3915 70.3147C59.2244 70.4389 59.1035 70.6155 59.0482 70.8163C59.0354 70.8577 59.0362 70.9022 59.0505 70.9431C59.0647 70.984 59.0917 71.0193 59.1275 71.0438C59.1724 71.0581 59.2206 71.0581 59.2656 71.0438C59.4905 71.004 59.7007 70.9052 59.8749 70.7574C59.8058 70.7941 59.7444 70.8438 59.6941 70.9037C59.6694 70.934 59.6539 70.9708 59.6495 71.0098C59.6452 71.0487 59.6522 71.088 59.6698 71.123C59.6947 71.1533 59.7256 71.1781 59.7606 71.1959C59.7955 71.2137 59.8337 71.2242 59.8729 71.2266C60.1626 71.2793 60.4606 71.2654 60.7442 71.186C60.6121 71.2352 60.4897 71.3074 60.3827 71.3993C60.3295 71.4461 60.2872 71.504 60.2588 71.5689C60.2304 71.6338 60.2165 71.7042 60.2182 71.775C60.2184 71.8017 60.2243 71.8279 60.2355 71.8521C60.2467 71.8763 60.2629 71.8978 60.2831 71.9152C60.3127 71.9338 60.346 71.9456 60.3806 71.9497C60.6494 71.9969 60.9243 71.9969 61.1931 71.9497C61.2624 71.9469 61.3299 71.9269 61.3895 71.8914C61.4491 71.856 61.4988 71.8062 61.5343 71.7466C61.5481 71.6793 61.5482 71.6099 61.5346 71.5425C61.521 71.4752 61.4939 71.4113 61.4551 71.3546C61.311 71.0446 61.2415 70.7051 61.252 70.3634C61.2608 70.2944 61.251 70.2242 61.2236 70.1603C61.1788 70.0983 61.1155 70.052 61.0428 70.0283C60.7564 69.9023 60.3664 69.7277 60.0475 69.8252C59.7988 69.9436 59.5758 70.1099 59.3915 70.3147Z" fill="#EE8E9E"/>
</g>
<defs>
<linearGradient id="paint0_linear" x1="85.684" y1="67.1239" x2="85.684" y2="58.053" gradientUnits="userSpaceOnUse">
<stop stop-color="#808080" stop-opacity="0.25"/>
<stop offset="0.54" stop-color="#808080" stop-opacity="0.12"/>
<stop offset="1" stop-color="#808080" stop-opacity="0.1"/>
</linearGradient>
<linearGradient id="paint1_linear" x1="4943.37" y1="2966.03" x2="4943.37" y2="2560.93" gradientUnits="userSpaceOnUse">
<stop stop-color="#808080" stop-opacity="0.25"/>
<stop offset="0.54" stop-color="#808080" stop-opacity="0.12"/>
<stop offset="1" stop-color="#808080" stop-opacity="0.1"/>
</linearGradient>
<linearGradient id="paint2_linear" x1="6695.17" y1="4375.68" x2="6695.17" y2="3970.58" gradientUnits="userSpaceOnUse">
<stop stop-color="#808080" stop-opacity="0.25"/>
<stop offset="0.54" stop-color="#808080" stop-opacity="0.12"/>
<stop offset="1" stop-color="#808080" stop-opacity="0.1"/>
</linearGradient>
<linearGradient id="paint3_linear" x1="2806.11" y1="2317.69" x2="2806.11" y2="1912.58" gradientUnits="userSpaceOnUse">
<stop stop-color="#808080" stop-opacity="0.25"/>
<stop offset="0.54" stop-color="#808080" stop-opacity="0.12"/>
<stop offset="1" stop-color="#808080" stop-opacity="0.1"/>
</linearGradient>
<linearGradient id="paint4_linear" x1="3683.54" y1="2911.22" x2="3683.54" y2="2506.12" gradientUnits="userSpaceOnUse">
<stop stop-color="#808080" stop-opacity="0.25"/>
<stop offset="0.54" stop-color="#808080" stop-opacity="0.12"/>
<stop offset="1" stop-color="#808080" stop-opacity="0.1"/>
</linearGradient>
<linearGradient id="paint5_linear" x1="7211.7" y1="4372.71" x2="7211.7" y2="3967.61" gradientUnits="userSpaceOnUse">
<stop stop-color="#808080" stop-opacity="0.25"/>
<stop offset="0.54" stop-color="#808080" stop-opacity="0.12"/>
<stop offset="1" stop-color="#808080" stop-opacity="0.1"/>
</linearGradient>
<linearGradient id="paint6_linear" x1="7987.03" y1="2323.15" x2="7987.03" y2="1918.05" gradientUnits="userSpaceOnUse">
<stop stop-color="#808080" stop-opacity="0.25"/>
<stop offset="0.54" stop-color="#808080" stop-opacity="0.12"/>
<stop offset="1" stop-color="#808080" stop-opacity="0.1"/>
</linearGradient>
<linearGradient id="paint7_linear" x1="7939.22" y1="3640.06" x2="7939.22" y2="3234.95" gradientUnits="userSpaceOnUse">
<stop stop-color="#808080" stop-opacity="0.25"/>
<stop offset="0.54" stop-color="#808080" stop-opacity="0.12"/>
<stop offset="1" stop-color="#808080" stop-opacity="0.1"/>
</linearGradient>
<linearGradient id="paint8_linear" x1="8274.26" y1="3732.81" x2="8274.26" y2="3327.7" gradientUnits="userSpaceOnUse">
<stop stop-color="#808080" stop-opacity="0.25"/>
<stop offset="0.54" stop-color="#808080" stop-opacity="0.12"/>
<stop offset="1" stop-color="#808080" stop-opacity="0.1"/>
</linearGradient>
<linearGradient id="paint9_linear" x1="6861.64" y1="4228.13" x2="6861.64" y2="3823.03" gradientUnits="userSpaceOnUse">
<stop stop-color="#808080" stop-opacity="0.25"/>
<stop offset="0.54" stop-color="#808080" stop-opacity="0.12"/>
<stop offset="1" stop-color="#808080" stop-opacity="0.1"/>
</linearGradient>
<linearGradient id="paint10_linear" x1="6909.5" y1="2976.14" x2="6909.5" y2="2571.03" gradientUnits="userSpaceOnUse">
<stop stop-color="#808080" stop-opacity="0.25"/>
<stop offset="0.54" stop-color="#808080" stop-opacity="0.12"/>
<stop offset="1" stop-color="#808080" stop-opacity="0.1"/>
</linearGradient>
<linearGradient id="paint11_linear" x1="5545.93" y1="52615.2" x2="15611.8" y2="52615.2" gradientUnits="userSpaceOnUse">
<stop stop-color="#808080" stop-opacity="0.25"/>
<stop offset="0.54" stop-color="#808080" stop-opacity="0.12"/>
<stop offset="1" stop-color="#808080" stop-opacity="0.1"/>
</linearGradient>
<linearGradient id="paint12_linear" x1="2655.15" y1="3640.06" x2="2655.15" y2="3234.95" gradientUnits="userSpaceOnUse">
<stop stop-color="#808080" stop-opacity="0.25"/>
<stop offset="0.54" stop-color="#808080" stop-opacity="0.12"/>
<stop offset="1" stop-color="#808080" stop-opacity="0.1"/>
</linearGradient>
<clipPath id="clip0">
<rect width="230" height="155.812" fill="white"/>
</clipPath>
</defs>
</svg>
