<svg xmlns="http://www.w3.org/2000/svg" viewBox="0 0 16 16"><g style="fill:none;stroke-width:1;stroke:none"><g fill="#bdbdbd"><path d="M1 6.5C1 3.5 3.5 1 6.5 1 9.5 1 12 3.5 12 6.5 12 9.5 9.5 12 6.5 12 3.5 12 1 9.5 1 6.5M15.9 15.1L11.4 10.7C12.4 9.6 13 8.1 13 6.5 13 2.9 10.1 0 6.5 0 2.9 0 0 2.9 0 6.5 0 10.1 2.9 13 6.5 13 8.1 13 9.6 12.4 10.7 11.4L15.1 15.9C15.2 15.9 15.4 16 15.5 16 15.8 16 16 15.8 16 15.5 16 15.4 15.9 15.2 15.9 15.1"/></g></g><copyright>Created by mark smith, from the Noun Project</copyright></svg>