<svg width="25" height="25" viewBox="0 0 25 25" fill="none" xmlns="http://www.w3.org/2000/svg">
<path fill-rule="evenodd" clip-rule="evenodd" d="M15.3704 3.53889C15.8333 3.72037 16.2963 3.90185 16.7593 4.08333L18.9815 2.45C19.4444 2.17778 20 2.26852 20.2778 2.54074L22.3148 4.53704C22.6852 4.9 22.6852 5.44444 22.4074 5.80741L20.8333 8.07594C21.0185 8.52963 21.2037 8.98331 21.3889 9.43706L24.1667 9.89075C24.6296 9.89075 25 10.3444 25 10.7981V13.6111C25 14.0648 24.6296 14.5185 24.1667 14.6092L21.3889 15.0629C21.2037 15.5167 21.0185 15.9704 20.8333 16.4241L22.5 18.6019C22.7778 19.0556 22.6852 19.6 22.4074 19.8723L20.3704 21.8685C20 22.2315 19.4444 22.2315 19.0741 21.9592L16.7593 20.4167C16.2963 20.5981 15.8333 20.7796 15.3704 20.9611L14.9074 23.6833C14.8148 24.1371 14.3519 24.5 13.8889 24.5H11.0185C10.5556 24.5 10.0926 24.1371 10.0926 23.6833L9.62963 20.9611C9.16669 20.7796 8.70369 20.5981 8.24075 20.4167L5.92592 21.9592C5.55556 22.2315 5 22.2315 4.62963 21.8685L2.59259 19.8723C2.31481 19.6 2.22222 19.0556 2.5 18.6926L4.16667 16.4241C3.88889 15.9704 3.70371 15.5167 3.61111 15.0629L0.833331 14.6092C0.370371 14.5185 0 14.0648 0 13.6111V10.7981C0 10.3444 0.370371 9.89075 0.833331 9.89075L3.61111 9.43706C3.70371 8.89256 3.88889 8.52963 4.16667 8.07594L2.5 5.80741C2.22222 5.44444 2.31481 4.9 2.68519 4.53704L4.72223 2.54074C5 2.26852 5.55556 2.17778 5.92592 2.45L8.24075 4.08333C8.70369 3.90185 9.16669 3.72037 9.62963 3.53889L10.0926 0.816669C10.0926 0.362963 10.5556 0 11.0185 0H13.8889C14.3519 0 14.8148 0.362963 14.9074 0.816669L15.3704 3.53889ZM12.5 7.07775C9.62963 7.07775 7.22225 9.43706 7.22225 12.25C7.22225 15.0629 9.62963 17.4223 12.5 17.4223C15.3704 17.4223 17.7778 15.0629 17.7778 12.25C17.7778 9.43706 15.3704 7.07775 12.5 7.07775Z" fill="white"/>
</svg>
