<svg width="211" height="161" viewBox="0 0 211 161" fill="none" xmlns="http://www.w3.org/2000/svg">
<g clip-path="url(#clip0)">
<path d="M41.6442 1.63989C41.6442 1.63989 40.911 4.51842 46.0354 12.655C51.1597 20.7916 50.8038 21.9442 50.5082 24.2709C50.2126 26.5976 50.2301 27.8715 47.2528 30.7285C47.2528 30.7285 38.3323 33.6755 37.1402 35.513C35.9481 37.3505 39.1102 44.0312 39.1102 44.0312C39.1102 44.0312 42.1479 52.1462 31.24 55.2596C31.24 55.2596 22.7046 55.2713 20.3379 57.1636C20.3379 57.1636 21.2538 53.8702 18.4068 49.027C15.5597 44.1838 19.4822 39.4619 19.4822 39.4619C19.4822 39.4619 22.6404 37.7125 24.6454 37.5775C26.6504 37.4425 27.2863 36.5188 25.997 34.2C25.997 34.2 24.132 33.2215 21.5494 35.3173C18.9668 37.4131 17.0377 38.9062 14.7876 38.7301C12.5376 38.5539 9.32881 37.599 7.22268 33.4094C5.11655 29.2198 4.00806 23.2964 2.4309 20.592C0.853731 17.8876 0 17.2947 0 17.2947C0 17.2947 1.99334 18.8171 8.87569 13.6491C15.7581 8.48105 19.3499 10.6923 19.3499 10.6923C19.3499 10.6923 24.8807 12.1873 25.7675 22.0009C25.7675 22.0009 27.3758 31.3527 30.6449 25.6876C30.6449 25.6876 29.5383 22.498 27.3272 17.8015C25.116 13.1051 31.0338 8.68456 35.3666 7.20518C39.6995 5.7258 41.6442 1.63989 41.6442 1.63989Z" fill="#FF69B4"/>
<path d="M6.02665 19.367L6.0072 19.318C7.36851 18.7466 13.648 22.1692 18.6693 25.1416L18.642 25.1866C11.5594 20.9951 7.07874 18.9286 6.02665 19.367Z" fill="#444053"/>
<path d="M18.5391 25.1221L18.5935 25.0928C22.6035 27.4703 27.4148 30.4878 31.0183 32.9378C31.3606 33.1707 31.7165 33.4016 32.0801 33.6188L32.0237 33.7108C31.6601 33.4916 31.3022 33.2607 30.958 33.0259C27.3584 30.5778 22.5471 27.4977 18.5391 25.1221Z" fill="#444053"/>
<path d="M31.9186 33.652L32.0081 33.5815C39.2366 37.9473 49.4056 36.9082 49.495 36.9082L48.3729 38.1899C48.2834 38.1958 39.1977 38.0471 31.9186 33.652Z" fill="#444053"/>
<path d="M38.9293 8.2168C38.9293 8.2168 36.5626 14.8486 38.3615 19.5215C40.1604 24.1945 36.4168 35.7732 36.4168 35.7732C36.4168 35.7732 35.1741 40.6438 33.1749 41.8609C33.1749 41.8609 30.2754 45.4831 28.5757 45.8979C26.876 46.3128 22.9671 49.9877 23.0702 52.0209" stroke="#444053" stroke-miterlimit="10"/>
<path d="M42.1304 8.68445C42.1304 8.68445 40.4618 12.0894 37.9784 12.06" stroke="#444053" stroke-miterlimit="10"/>
<path d="M45.4753 13.111C45.4753 13.111 44.466 17.7937 38.2137 19.1028" stroke="#444053" stroke-miterlimit="10"/>
<path d="M48.0793 20.0891C48.0793 20.0891 45.1369 24.8325 38.7971 24.2553" stroke="#444053" stroke-miterlimit="10"/>
<path d="M47.5289 28.9751C47.5289 28.9751 41.9923 32.6246 37.8053 30.6208" stroke="#444053" stroke-miterlimit="10"/>
<path d="M35.0165 8.68445C35.0165 8.68445 36.4634 11.7645 38.0639 10.837" stroke="#444053" stroke-miterlimit="10"/>
<path d="M29.7191 13.3634C29.7191 13.3634 31.6638 17.4963 37.7489 16.7703" stroke="#444053" stroke-miterlimit="10"/>
<path d="M29.1318 19.5784C29.1318 19.5784 34.4837 22.8502 38.8243 21.9638" stroke="#444053" stroke-miterlimit="10"/>
<path d="M31.9498 26.2023C31.9498 26.2023 36.1854 29.6013 38.1729 28.8205" stroke="#444053" stroke-miterlimit="10"/>
<path d="M30.958 28.7365C30.958 28.7365 32.1035 32.3077 30.9775 32.9828" stroke="#444053" stroke-miterlimit="10"/>
<path d="M27.2066 34.0923C27.2066 34.0923 29.3905 31.9104 28.7818 31.5093" stroke="#444053" stroke-miterlimit="10"/>
<path d="M23.1947 15.9679C23.1947 15.9679 25.1063 25.1044 22.6229 27.5701" stroke="#444053" stroke-miterlimit="10"/>
<path d="M15.2018 37.7066C15.2018 37.7066 23.8539 32.1159 24.6084 28.8127" stroke="#444053" stroke-miterlimit="10"/>
<path d="M10.1903 33.7655C10.1903 33.7655 18.329 29.9476 20.5362 26.2903" stroke="#444053" stroke-miterlimit="10"/>
<path d="M15.655 13.0404C15.655 13.0404 19.593 19.6507 17.133 24.2767" stroke="#444053" stroke-width="0.75" stroke-miterlimit="10"/>
<path d="M7.53577 27.7619C7.53577 27.7619 13.5644 25.306 14.7837 22.9402" stroke="#444053" stroke-width="0.75" stroke-miterlimit="10"/>
<path d="M8.80762 15.056C8.80762 15.056 10.8243 18.7975 9.885 20.4237" stroke="#444053" stroke-width="0.75" stroke-miterlimit="10"/>
<path d="M29.7017 37.192C29.7017 37.192 35.1469 36.4582 35.7303 37.8886" stroke="#444053" stroke-miterlimit="10"/>
<path d="M38.4082 48.4204C38.4082 48.4204 38.1145 42.4285 34.7132 40.1116" stroke="#444053" stroke-miterlimit="10"/>
<path d="M23.4767 39.6028C23.4767 39.6028 29.1922 40.2818 31.2128 44.0331" stroke="#444053" stroke-miterlimit="10"/>
<path d="M33.0622 52.7666C33.0622 52.7666 33.9451 48.3774 29.7698 45.2738" stroke="#444053" stroke-miterlimit="10"/>
<path d="M19.3596 44.9058C19.3596 44.9058 24.1008 44.6612 26.6406 46.9292" stroke="#444053" stroke-miterlimit="10"/>
<path d="M25.8939 53.5825C25.8939 53.5825 25.4505 50.0993 24.2137 49.4398" stroke="#444053" stroke-miterlimit="10"/>
<path opacity="0.1" d="M99.4316 38.6244C88.7609 44.0273 77.0906 46.3833 65.7121 48.1993C54.3335 50.0152 42.848 51.4144 31.6348 55.2107C24.4237 57.6528 16.8024 61.6076 13.2474 67.7521C9.82085 73.652 11.0869 79.9433 12.8993 85.4264C14.2606 89.5495 16.0109 93.7215 19.737 96.2419C22.3273 97.9914 25.6898 98.8113 28.5135 100.3C38.3363 105.476 39.929 117.617 38.346 128.784C37.6031 134.023 36.3274 139.33 36.3449 144.465C36.3624 149.599 37.8345 154.687 41.8834 157.72C45.8973 160.726 51.924 161.337 57.8301 160.851C69.831 159.873 81.898 154.865 93.3913 149.484C118.84 137.573 143.217 123.372 167.538 109.206C176.534 103.964 185.571 98.6958 193.854 92.4867C198.453 89.0388 202.994 85.0781 205.117 80.3386C207.822 74.3232 205.759 67.7697 200.306 65.0634C191.166 60.5235 175.884 66.5095 168.002 60.5803C163.648 57.3162 163.08 51.3439 163.79 45.7375C165.311 33.6912 171.596 20.4139 166.799 10.2207C163.504 3.21905 154.835 -0.855113 145.368 0.152666C135.45 1.20937 124.458 7.77069 121.502 16.6157C118.465 25.7248 108.854 33.8438 99.4316 38.6244Z" fill="#6C63FF"/>
<path opacity="0.1" d="M125.014 153.818C135.766 153.818 144.483 151.652 144.483 148.979C144.483 146.306 135.766 144.14 125.014 144.14C114.262 144.14 105.546 146.306 105.546 148.979C105.546 151.652 114.262 153.818 125.014 153.818Z" fill="#6C63FF"/>
<path d="M208.571 26.5564H28.6165C27.275 26.5564 26.1876 27.6507 26.1876 29.0005V129.456C26.1876 130.805 27.275 131.9 28.6165 131.9H208.571C209.912 131.9 211 130.805 211 129.456V29.0005C211 27.6507 209.912 26.5564 208.571 26.5564Z" fill="url(#paint0_linear)"/>
<path d="M208.299 28.0377H28.9102C27.5687 28.0377 26.4812 29.132 26.4812 30.4818V129.105C26.4812 130.455 27.5687 131.549 28.9102 131.549H208.299C209.64 131.549 210.728 130.455 210.728 129.105V30.4818C210.728 29.132 209.64 28.0377 208.299 28.0377Z" fill="white"/>
<path d="M208.299 28.0377H28.9102C27.5687 28.0377 26.4812 29.132 26.4812 30.4818V129.105C26.4812 130.455 27.5687 131.549 28.9102 131.549H208.299C209.64 131.549 210.728 130.455 210.728 129.105V30.4818C210.728 29.132 209.64 28.0377 208.299 28.0377Z" fill="white"/>
<path opacity="0.04" d="M208.299 28.0377H28.9102C27.5687 28.0377 26.4812 29.132 26.4812 30.4818V129.105C26.4812 130.455 27.5687 131.549 28.9102 131.549H208.299C209.64 131.549 210.728 130.455 210.728 129.105V30.4818C210.728 29.132 209.64 28.0377 208.299 28.0377Z" fill="#5A5773"/>
<path d="M209.794 26.85H27.4186C27.1705 26.85 26.9326 26.9491 26.7572 27.1257C26.5818 27.3022 26.4832 27.5416 26.4832 27.7912V31.7754H210.73V27.7912C210.73 27.5416 210.631 27.3022 210.456 27.1257C210.28 26.9491 210.042 26.85 209.794 26.85Z" fill="#5A5773"/>
<path d="M30.1607 30.5816C30.8588 30.5816 31.4247 30.0122 31.4247 29.3097C31.4247 28.6072 30.8588 28.0377 30.1607 28.0377C29.4625 28.0377 28.8966 28.6072 28.8966 29.3097C28.8966 30.0122 29.4625 30.5816 30.1607 30.5816Z" fill="white"/>
<path d="M33.5639 30.5816C34.2621 30.5816 34.828 30.0122 34.828 29.3097C34.828 28.6072 34.2621 28.0377 33.5639 28.0377C32.8658 28.0377 32.2999 28.6072 32.2999 29.3097C32.2999 30.0122 32.8658 30.5816 33.5639 30.5816Z" fill="white"/>
<path d="M36.9672 30.5816C37.6653 30.5816 38.2313 30.0122 38.2313 29.3097C38.2313 28.6072 37.6653 28.0377 36.9672 28.0377C36.2691 28.0377 35.7031 28.6072 35.7031 29.3097C35.7031 30.0122 36.2691 30.5816 36.9672 30.5816Z" fill="white"/>
<path opacity="0.1" d="M190.466 54.6881H40.7963C39.7019 54.6881 38.8146 55.5809 38.8146 56.6821V112.182C38.8146 113.284 39.7019 114.176 40.7963 114.176H190.466C191.56 114.176 192.447 113.284 192.447 112.182V56.6821C192.447 55.5809 191.56 54.6881 190.466 54.6881Z" fill="#6C63FF"/>
<path d="M194.162 52.7611L44.5412 48.9239C43.4471 48.8958 42.5376 49.7655 42.5097 50.8664L41.1044 106.349C41.0765 107.45 41.9408 108.365 43.0349 108.393L192.656 112.23C193.75 112.258 194.659 111.388 194.687 110.287L196.093 54.8053C196.12 53.7044 195.256 52.7891 194.162 52.7611Z" fill="white"/>
<path opacity="0.2" d="M65.5409 61.4961L172.563 64.2337" stroke="#5A5773" stroke-miterlimit="10"/>
<path opacity="0.2" d="M65.329 69.9086L172.351 72.6462" stroke="#5A5773" stroke-miterlimit="10"/>
<path opacity="0.2" d="M65.1169 78.3191L172.139 81.0567" stroke="#5A5773" stroke-miterlimit="10"/>
<path opacity="0.2" d="M64.903 86.7316L171.927 89.4692" stroke="#5A5773" stroke-miterlimit="10"/>
<path opacity="0.2" d="M74.6305 84.6964L74.3602 95.3906" stroke="#5A5773" stroke-miterlimit="10" stroke-dasharray="12 12"/>
<path opacity="0.2" d="M64.691 95.1442L171.713 97.8799" stroke="#5A5773" stroke-miterlimit="10"/>
<path opacity="0.2" d="M86.4641 95.6999L86.8667 79.7574" stroke="#5A5773" stroke-miterlimit="10" stroke-dasharray="12 12"/>
<path opacity="0.2" d="M157.262 78.4972C155.354 78.6635 153.491 77.5873 152.349 76.4562C151.167 75.2821 150.309 73.8379 149.481 72.4329C149.218 71.9887 148.946 71.5308 148.672 71.0886C147.227 68.7834 145.784 67.2336 144.133 66.2101C143.528 65.8352 142.879 65.5368 142.202 65.3217C142.137 65.4771 142.044 65.6191 141.927 65.7405C141.678 66.0022 141.335 66.1535 140.975 66.1612H140.91C140.587 66.1524 140.277 66.0281 140.037 65.8104C139.796 65.5928 139.641 65.296 139.598 64.9734C138.985 65.0026 138.381 65.1274 137.807 65.3432C136.109 65.987 134.82 67.3705 133.647 68.7345C132.227 70.3821 130.858 72.11 129.582 73.8732C129.323 74.2293 129.064 74.5874 128.805 74.9475C127.42 76.8926 125.989 78.9023 124.137 80.4736C121.652 82.5949 118.663 83.5087 116.141 82.9197C113.115 82.2133 110.95 79.5226 109.404 77.2566C109.21 76.963 109.015 76.6695 108.805 76.3701C107.362 74.2176 105.87 71.9926 103.669 70.6952C100.769 68.983 96.7653 69.2785 94.1399 71.3938C92.8603 72.4251 91.8996 73.8262 90.9681 75.1803C90.6492 75.6461 90.3186 76.1275 89.9782 76.5893C88.228 78.9551 86.4641 80.2388 84.5622 80.5167C83.808 80.6008 83.0469 80.6008 82.2927 80.5167C81.791 80.4815 81.2717 80.4423 80.7642 80.456C79.4978 80.5104 78.267 80.8934 77.1912 81.5679C76.1154 82.2423 75.2313 83.1853 74.6247 84.3051L74.3563 95.5688L158.428 97.7213L158.899 79.0862C158.755 79.1651 158.596 79.2125 158.432 79.2253C158.269 79.2382 158.105 79.2162 157.95 79.1608C157.795 79.1054 157.654 79.0178 157.536 78.9038C157.417 78.7898 157.324 78.6519 157.262 78.4992V78.4972Z" fill="#6C63FF"/>
<path opacity="0.2" d="M99.5599 69.5818L98.8928 96.0188" stroke="#5A5773" stroke-miterlimit="10" stroke-dasharray="12 12"/>
<path opacity="0.2" d="M111.285 79.6967L110.865 96.324" stroke="#5A5773" stroke-miterlimit="10" stroke-dasharray="12 12"/>
<path opacity="0.2" d="M122.945 81.6477L122.568 96.6235" stroke="#5A5773" stroke-miterlimit="10" stroke-dasharray="12 12"/>
<path opacity="0.2" d="M134.261 68.2452L133.538 96.9033" stroke="#5A5773" stroke-miterlimit="10" stroke-dasharray="12 12"/>
<path opacity="0.2" d="M145.778 67.2452L145.022 97.1988" stroke="#5A5773" stroke-miterlimit="10" stroke-dasharray="12 12"/>
<path opacity="0.2" d="M158.533 78.507L158.051 97.5314" stroke="#5A5773" stroke-miterlimit="10" stroke-dasharray="12 12"/>
<path d="M142.085 64.0008C141.956 63.876 141.803 63.778 141.637 63.7125C141.47 63.647 141.292 63.6153 141.113 63.6192C140.792 63.6251 140.484 63.7448 140.242 63.9571C140 64.1694 139.841 64.4607 139.792 64.7796C139.78 64.8573 139.775 64.9359 139.777 65.0144C139.777 65.0673 139.777 65.1201 139.788 65.171C139.83 65.4776 139.973 65.761 140.195 65.9752C140.436 66.2172 140.76 66.3572 141.101 66.3666H141.165C141.526 66.3599 141.869 66.2093 142.12 65.9478C142.236 65.826 142.329 65.6841 142.394 65.5291C142.445 65.4073 142.478 65.2788 142.491 65.1475C142.496 65.0882 142.496 65.0287 142.491 64.9694C142.49 64.789 142.454 64.6105 142.384 64.4443C142.314 64.2781 142.213 64.1274 142.085 64.0008ZM142.017 65.4097C141.973 65.505 141.914 65.5918 141.84 65.6661C141.716 65.7952 141.558 65.8874 141.385 65.9325C141.212 65.9776 141.03 65.9738 140.859 65.9217C140.688 65.8695 140.535 65.7709 140.416 65.6368C140.297 65.5026 140.217 65.3381 140.185 65.1612C140.174 65.1103 140.168 65.0586 140.168 65.0066C140.165 64.9277 140.173 64.8488 140.191 64.7718C140.239 64.5583 140.356 64.3671 140.525 64.2288C140.693 64.0904 140.903 64.0129 141.12 64.0086H141.165C141.415 64.0151 141.653 64.1181 141.829 64.2963C142.005 64.4745 142.107 64.7141 142.112 64.9655C142.112 64.9851 142.112 65.0066 142.112 65.0262C142.109 65.1595 142.076 65.2904 142.017 65.4097Z" fill="#6C63FF"/>
<path d="M158.545 79.4248C159.19 79.4248 159.712 78.8991 159.712 78.2506C159.712 77.6022 159.19 77.0765 158.545 77.0765C157.901 77.0765 157.378 77.6022 157.378 78.2506C157.378 78.8991 157.901 79.4248 158.545 79.4248Z" fill="#6C63FF"/>
<path d="M140.168 65.0066C140.168 65.0586 140.174 65.1104 140.185 65.1612C140.053 65.1612 139.921 65.1612 139.796 65.171C139.183 65.2004 138.578 65.3252 138.003 65.5408C136.305 66.1846 135.016 67.5681 133.841 68.9321C132.422 70.5778 131.053 72.3076 129.775 74.0688C129.516 74.4249 129.262 74.785 128.997 75.1451C127.611 77.0902 126.179 79.0979 124.33 80.6712C121.842 82.7905 118.852 83.7043 116.327 83.1153C113.305 82.4108 111.141 79.7182 109.585 77.4522C109.39 77.1606 109.184 76.8651 108.986 76.5657C107.541 74.4132 106.047 72.1883 103.846 70.8909C100.946 69.1786 96.9384 69.4741 94.3169 71.5895C93.0548 72.6188 92.0825 74.0199 91.1509 75.374C90.8301 75.8397 90.4995 76.3231 90.1591 76.7829C88.4089 79.1488 86.6431 80.4325 84.7411 80.7104C83.9869 80.7935 83.2259 80.7935 82.4717 80.7104C81.9629 80.6637 81.452 80.6434 80.9412 80.6497C79.5842 80.7065 78.2696 81.1412 77.1437 81.9055C76.0179 82.6697 75.1249 83.7335 74.5644 84.9782L74.2066 84.8217C74.7981 83.5098 75.7397 82.3887 76.9266 81.5831C78.1134 80.7775 79.4991 80.3189 80.9295 80.2583C81.454 80.2506 81.9786 80.2715 82.5008 80.3209C83.2267 80.4002 83.9589 80.4002 84.6847 80.3209C86.4797 80.0607 88.1677 78.8259 89.846 76.5481C90.1825 76.0922 90.5111 75.6128 90.8301 75.149C91.7771 73.7792 92.7573 72.3487 94.0797 71.2803C95.4817 70.1768 97.1783 69.5182 98.9536 69.3882C100.729 69.2582 102.502 69.6628 104.048 70.5504C106.328 71.8947 107.846 74.1569 109.317 76.3466C109.511 76.6401 109.706 76.9336 109.914 77.2291C111.421 79.4364 113.521 82.0567 116.421 82.7318C118.824 83.2934 121.689 82.4108 124.083 80.3699C125.889 78.8298 127.311 76.8475 128.682 74.9142C128.937 74.5541 129.195 74.194 129.46 73.8359C130.745 72.0748 132.12 70.3293 133.544 68.6718C134.752 67.2707 136.072 65.8481 137.863 65.173C138.483 64.9423 139.135 64.8103 139.796 64.7816C139.926 64.7816 140.061 64.7698 140.185 64.7816C140.17 64.8556 140.164 64.9312 140.168 65.0066Z" fill="#6C63FF"/>
<path d="M158.613 78.4345C156.332 79.2916 153.921 78.0118 152.548 76.6537C151.365 75.4796 150.508 74.0335 149.679 72.6285C149.417 72.1862 149.144 71.7264 148.868 71.2861C147.423 68.979 145.98 67.4291 144.327 66.4057C143.722 66.0318 143.073 65.7341 142.396 65.5192C142.272 65.4782 142.145 65.4429 142.007 65.4097C142.066 65.291 142.099 65.1607 142.103 65.0281C142.231 65.0613 142.357 65.0985 142.491 65.1377C143.206 65.3631 143.89 65.6773 144.528 66.073C146.235 67.1278 147.717 68.7167 149.195 71.0767C149.473 71.5229 149.745 71.9827 150.012 72.4309C150.828 73.8124 151.672 75.2429 152.818 76.3739C154.107 77.6498 156.365 78.8611 158.475 78.0686L158.613 78.4345Z" fill="#6C63FF"/>
<path opacity="0.5" d="M69.3733 59.8386L65.7574 59.7458C65.6607 59.7433 65.5804 59.8202 65.5779 59.9174L65.5423 61.3259C65.5398 61.4231 65.6161 61.5039 65.7128 61.5064L69.3287 61.5992C69.4254 61.6016 69.5057 61.5248 69.5082 61.4276L69.5438 60.0191C69.5463 59.9219 69.47 59.841 69.3733 59.8386Z" fill="#6C63FF"/>
<path d="M69.1585 68.2488L65.5425 68.1561C65.4459 68.1536 65.3656 68.2304 65.3631 68.3277L65.3274 69.7362C65.325 69.8334 65.4013 69.9142 65.4979 69.9167L69.1139 70.0094C69.2106 70.0119 69.2909 69.9351 69.2934 69.8379L69.329 68.4294C69.3315 68.3321 69.2552 68.2513 69.1585 68.2488Z" fill="#6C63FF"/>
<path opacity="0.5" d="M68.9456 76.6629L65.3296 76.5702C65.2329 76.5677 65.1526 76.6445 65.1501 76.7417L65.1145 78.1502C65.112 78.2474 65.1883 78.3283 65.285 78.3307L68.901 78.4235C68.9976 78.4259 69.0779 78.3491 69.0804 78.2519L69.1161 76.8434C69.1185 76.7462 69.0422 76.6654 68.9456 76.6629Z" fill="#6C63FF"/>
<path opacity="0.5" d="M68.7327 85.0731L65.1167 84.9803C65.0201 84.9778 64.9397 85.0547 64.9373 85.1519L64.9016 86.5604C64.8991 86.6576 64.9755 86.7384 65.0721 86.7409L68.6881 86.8337C68.7847 86.8361 68.8651 86.7593 68.8675 86.6621L68.9032 85.2536C68.9057 85.1564 68.8293 85.0755 68.7327 85.0731Z" fill="#6C63FF"/>
<path opacity="0.5" d="M68.5198 93.4852L64.9038 93.3924C64.8072 93.3899 64.7268 93.4668 64.7244 93.564L64.6887 94.9725C64.6862 95.0697 64.7626 95.1506 64.8592 95.153L68.4752 95.2458C68.5718 95.2483 68.6521 95.1714 68.6546 95.0742L68.6903 93.6657C68.6928 93.5685 68.6164 93.4876 68.5198 93.4852Z" fill="#6C63FF"/>
<path opacity="0.5" d="M75.8774 97.197L72.2614 97.1042C72.1648 97.1017 72.0844 97.1786 72.082 97.2758L72.0463 98.6843C72.0438 98.7815 72.1202 98.8623 72.2168 98.8648L75.8328 98.9576C75.9295 98.96 76.0098 98.8832 76.0122 98.786L76.0479 97.3775C76.0504 97.2803 75.974 97.1994 75.8774 97.197Z" fill="#6C63FF"/>
<path opacity="0.5" d="M88.2222 97.5134L84.6062 97.4206C84.5096 97.4181 84.4292 97.495 84.4268 97.5922L84.3911 99.0007C84.3886 99.0979 84.465 99.1787 84.5616 99.1812L88.1776 99.274C88.2742 99.2764 88.3545 99.1996 88.357 99.1024L88.3927 97.6939C88.3952 97.5967 88.3188 97.5158 88.2222 97.5134Z" fill="#6C63FF"/>
<path d="M100.212 98.3747L96.5944 98.2655C96.4977 98.2626 96.417 98.3391 96.4141 98.4364L96.3721 99.8453C96.3692 99.9426 96.4452 100.024 96.5419 100.027L100.159 100.136C100.256 100.139 100.336 100.062 100.339 99.9651L100.381 98.5561C100.384 98.4589 100.308 98.3776 100.212 98.3747Z" fill="#6C63FF"/>
<path opacity="0.5" d="M112.622 98.1387L109.006 98.046C108.91 98.0435 108.829 98.1203 108.827 98.2176L108.791 99.626C108.789 99.7233 108.865 99.8041 108.962 99.8066L112.578 99.8993C112.674 99.9018 112.755 99.825 112.757 99.7278L112.793 98.3193C112.795 98.222 112.719 98.1412 112.622 98.1387Z" fill="#6C63FF"/>
<path opacity="0.5" d="M124.324 98.4406L120.708 98.3479C120.611 98.3454 120.531 98.4222 120.528 98.5194L120.493 99.9279C120.49 100.025 120.567 100.106 120.663 100.108L124.279 100.201C124.376 100.204 124.456 100.127 124.459 100.03L124.494 98.6211C124.497 98.5239 124.42 98.4431 124.324 98.4406Z" fill="#6C63FF"/>
<path d="M135.293 98.7199L131.677 98.6272C131.58 98.6247 131.5 98.7015 131.498 98.7987L131.462 100.207C131.46 100.304 131.536 100.385 131.633 100.388L135.248 100.481C135.345 100.483 135.425 100.406 135.428 100.309L135.464 98.9004C135.466 98.8032 135.39 98.7224 135.293 98.7199Z" fill="#6C63FF"/>
<path d="M146.859 99.0163L143.243 98.9236C143.146 98.9211 143.066 98.9979 143.063 99.0951L143.028 100.504C143.025 100.601 143.101 100.682 143.198 100.684L146.814 100.777C146.911 100.779 146.991 100.703 146.994 100.605L147.029 99.1968C147.032 99.0996 146.955 99.0188 146.859 99.0163Z" fill="#6C63FF"/>
<path d="M159.29 100.16L155.863 100.056C155.714 100.052 155.589 100.17 155.585 100.32L155.548 101.537C155.544 101.688 155.661 101.813 155.811 101.817L159.237 101.921C159.387 101.925 159.511 101.807 159.516 101.657L159.552 100.44C159.556 100.29 159.439 100.164 159.29 100.16Z" fill="#6C63FF"/>
<path d="M190.752 118.485C191.197 118.485 191.629 118.641 191.973 118.925C192.317 119.209 192.553 119.605 192.64 120.045C192.727 120.484 192.66 120.941 192.45 121.336C192.24 121.731 191.9 122.041 191.489 122.212C191.077 122.384 190.619 122.407 190.193 122.277C189.767 122.147 189.398 121.872 189.151 121.499C188.904 121.126 188.792 120.679 188.836 120.233C188.879 119.787 189.075 119.37 189.39 119.053C189.569 118.873 189.781 118.73 190.015 118.632C190.248 118.535 190.499 118.485 190.752 118.485ZM190.752 118.184C190.311 118.184 189.88 118.316 189.514 118.562C189.148 118.808 188.862 119.158 188.694 119.568C188.526 119.978 188.482 120.428 188.568 120.863C188.654 121.298 188.867 121.697 189.178 122.01C189.49 122.324 189.887 122.537 190.32 122.623C190.752 122.709 191.2 122.664 191.606 122.494C192.013 122.323 192.361 122.036 192.605 121.667C192.849 121.298 192.979 120.864 192.978 120.421C192.978 120.127 192.92 119.836 192.808 119.564C192.696 119.293 192.532 119.046 192.325 118.838C192.119 118.631 191.873 118.466 191.603 118.354C191.333 118.241 191.044 118.184 190.752 118.184Z" fill="#6C63FF"/>
<path d="M190.155 121.082L190.271 120.926C190.385 121.038 190.538 121.102 190.697 121.104C190.892 121.104 191.045 121.004 191.045 120.845C191.045 120.687 190.903 120.56 190.51 120.56V120.38C190.861 120.38 190.993 120.262 190.993 120.11C190.993 119.957 190.874 119.885 190.701 119.885C190.565 119.889 190.434 119.942 190.333 120.035L190.209 119.885C190.348 119.761 190.526 119.692 190.711 119.689C191.012 119.689 191.236 119.836 191.236 120.092C191.236 120.272 191.106 120.391 190.915 120.456V120.466C191.013 120.476 191.104 120.521 191.173 120.593C191.241 120.664 191.282 120.758 191.288 120.857C191.288 121.135 191.028 121.303 190.717 121.303C190.613 121.307 190.509 121.29 190.413 121.252C190.316 121.214 190.228 121.156 190.155 121.082Z" fill="#6C63FF"/>
<path d="M199.948 118.617C200.394 118.617 200.825 118.772 201.17 119.056C201.514 119.341 201.75 119.736 201.837 120.176C201.924 120.615 201.856 121.072 201.646 121.467C201.436 121.862 201.097 122.172 200.685 122.344C200.274 122.515 199.816 122.538 199.39 122.408C198.963 122.278 198.595 122.003 198.348 121.63C198.1 121.258 197.989 120.81 198.032 120.364C198.076 119.918 198.272 119.501 198.587 119.184C198.765 119.004 198.977 118.861 199.211 118.763C199.445 118.666 199.695 118.616 199.948 118.617ZM199.948 118.315C199.508 118.315 199.077 118.447 198.711 118.693C198.345 118.939 198.059 119.289 197.891 119.698C197.722 120.108 197.678 120.558 197.764 120.993C197.85 121.428 198.062 121.827 198.374 122.14C198.685 122.453 199.082 122.667 199.514 122.753C199.946 122.84 200.393 122.795 200.8 122.626C201.207 122.456 201.555 122.169 201.8 121.801C202.044 121.432 202.175 120.999 202.175 120.556C202.175 120.261 202.118 119.97 202.006 119.698C201.894 119.426 201.73 119.179 201.523 118.971C201.316 118.763 201.071 118.598 200.801 118.485C200.53 118.373 200.241 118.315 199.948 118.315Z" fill="#5A5773"/>
<path d="M199.977 120.321C199.977 120.225 199.977 120.104 199.991 120.008H199.977C199.923 120.092 199.861 120.176 199.806 120.26L199.417 120.771H200.469V120.976H199.145V120.812L199.935 119.767H200.224V121.43H199.983L199.977 120.321Z" fill="#5A5773"/>
<path d="M194.874 119.276C194.913 119.238 194.964 119.217 195.017 119.217C195.071 119.217 195.122 119.238 195.16 119.276L196.164 120.29C196.183 120.308 196.198 120.33 196.208 120.354C196.218 120.378 196.223 120.404 196.223 120.431C196.223 120.457 196.218 120.483 196.208 120.507C196.198 120.531 196.183 120.553 196.164 120.571L195.176 121.569C195.158 121.59 195.135 121.606 195.111 121.617C195.086 121.628 195.059 121.634 195.032 121.634C195.005 121.634 194.978 121.628 194.953 121.617C194.928 121.606 194.906 121.59 194.888 121.569C194.868 121.551 194.853 121.529 194.842 121.504C194.831 121.479 194.825 121.453 194.825 121.426C194.825 121.399 194.831 121.372 194.842 121.347C194.853 121.322 194.868 121.3 194.888 121.282L195.736 120.421L194.874 119.564C194.854 119.545 194.838 119.523 194.827 119.498C194.816 119.473 194.811 119.446 194.811 119.419C194.811 119.392 194.816 119.365 194.827 119.34C194.838 119.315 194.854 119.292 194.874 119.274V119.276Z" fill="#5A5773"/>
<path d="M193.163 120.421C193.162 120.857 193.29 121.283 193.53 121.645C193.77 122.008 194.112 122.291 194.512 122.458C194.912 122.625 195.352 122.669 195.777 122.584C196.202 122.499 196.592 122.289 196.898 121.981C197.204 121.673 197.413 121.281 197.497 120.853C197.581 120.426 197.537 119.983 197.371 119.58C197.205 119.178 196.924 118.834 196.564 118.593C196.204 118.351 195.78 118.222 195.347 118.223C194.768 118.224 194.213 118.455 193.803 118.867C193.394 119.279 193.164 119.838 193.163 120.421ZM193.5 120.421C193.499 119.989 193.647 119.571 193.918 119.237C194.19 118.903 194.568 118.674 194.989 118.589C195.409 118.504 195.846 118.569 196.225 118.772C196.603 118.975 196.9 119.304 197.064 119.702C197.229 120.101 197.251 120.545 197.127 120.958C197.002 121.371 196.74 121.728 196.383 121.968C196.026 122.208 195.598 122.316 195.171 122.273C194.744 122.231 194.345 122.041 194.042 121.736C193.87 121.564 193.733 121.359 193.64 121.133C193.546 120.907 193.499 120.665 193.5 120.421Z" fill="#5A5773"/>
<path opacity="0.2" d="M75.741 36.9943H33.0505C32.6359 36.9943 32.2999 37.3324 32.2999 37.7496V40.906C32.2999 41.3232 32.6359 41.6614 33.0505 41.6614H75.741C76.1556 41.6614 76.4916 41.3232 76.4916 40.906V37.7496C76.4916 37.3324 76.1556 36.9943 75.741 36.9943Z" fill="#5A5773"/>
<path d="M137.529 148.161C137.206 146.987 136.996 145.95 136.996 145.95C136.996 145.95 137.009 144.658 136.397 143.709L136.385 143.386L136.294 140.999C136.441 140.559 136.625 140.133 136.844 139.725C137.245 138.958 136.712 136.226 136.712 136.226C136.712 136.226 134.979 132.412 135.271 129.939C135.562 127.465 131.603 119.147 131.603 119.147C131.593 118.33 131.677 117.516 131.852 116.718C131.883 116.551 131.892 116.38 131.879 116.21C131.879 116.188 131.879 116.17 131.879 116.147C131.879 116.147 131.879 116.161 131.879 116.167C131.764 114.548 130.374 111.558 130.374 111.558L130.323 105.76C130.323 105.76 131.006 102.312 129.503 97.7799C128.98 96.1988 128.633 94.9308 128.408 93.9484C128.383 93.8388 128.357 93.7312 128.336 93.6295C131.058 93.1031 133.122 92.6745 133.122 92.6745C133.122 92.6745 131.284 86.0702 130.17 84.945C129.055 83.8198 128.06 80.1879 128.06 80.1879C128.06 80.1879 127.323 75.5012 128.169 74.0903C129.015 72.6794 129.053 70.3018 129.053 70.3018C129.053 70.3018 131.049 68.7207 131.28 68.0456C131.512 67.3705 131.881 65.852 131.852 65.0594C131.823 64.2669 131.537 63.5703 131.607 63.1495C131.677 62.7288 130.932 61.1731 131.245 60.41C131.324 60.1758 131.361 59.9293 131.354 59.682C131.354 59.682 131.354 59.6664 131.354 59.6605C131.354 59.6546 131.354 59.6605 131.354 59.6507C131.332 58.9949 131.247 58.3429 131.099 57.7036C130.487 57.2214 129.781 56.8752 129.026 56.688L128.974 56.5119L128.838 56.0403C128.768 55.9973 128.7 55.9601 128.631 55.9268L128.62 55.7566L128.575 55.0815L128.838 53.5551C129.367 50.884 125.845 50.6198 125.845 50.6198C125.617 50.2218 125.25 49.9232 124.816 49.7823C124.1 49.5592 124.851 53.7664 125.191 54.0228C125.446 54.2185 126.265 55.5139 126.66 56.1518L126.722 56.2556C126.667 56.3109 126.616 56.3698 126.568 56.4317L126.737 57.3455L126.763 57.4845C126.542 57.7835 126.366 58.1131 126.239 58.4629C126.239 58.4629 126.908 59.1478 126.811 59.9442C126.714 60.7407 127.076 61.7152 127.093 61.768C127.054 61.725 126.584 61.2514 126.138 61.3884C125.693 61.5254 124.446 61.9539 124.446 61.9539C124.446 61.9539 123.511 62.1496 123.604 62.3629C123.698 62.5762 123.005 63.5135 123.005 63.5135L120.384 61.1986C120.357 61.1281 120.328 61.0577 120.302 60.9833C120.184 60.643 120.097 60.2926 120.042 59.9364C120.315 59.8585 120.582 59.7611 120.841 59.6448C121.103 59.5431 121.337 59.3794 121.524 59.1674C121.767 58.8523 121.8 58.4375 121.889 58.0539C122.06 57.3064 122.473 56.6293 122.747 55.9131C123.218 54.7101 123.342 53.3975 123.105 52.1266C123.049 51.7336 122.902 51.3593 122.675 51.0347C122.239 50.4789 121.483 50.2754 120.925 49.841C120.366 49.4066 119.983 48.7236 119.336 48.4047C118.752 48.119 118.052 48.1816 117.41 48.3147C116.149 48.5701 114.946 49.0605 113.863 49.7608C113.504 49.9936 113.109 50.2637 112.681 50.203C112.315 50.1502 112.037 49.8684 111.792 49.5983C111.792 49.5866 111.792 49.5749 111.802 49.5631L111.773 49.5299C111.528 50.1385 111.419 50.7939 111.454 51.4495C111.454 51.5513 111.462 51.653 111.477 51.7548C111.477 51.79 111.477 51.8253 111.487 51.8605C111.489 51.8898 111.489 51.9192 111.487 51.9485C111.488 51.9939 111.484 52.0393 111.473 52.0836C111.425 52.2163 111.348 52.3371 111.25 52.4377C111.177 52.5285 111.112 52.6254 111.055 52.7274C111.055 52.6921 111.075 52.6569 111.086 52.6236C110.934 52.8665 110.853 53.1483 110.855 53.4357C110.849 53.645 110.925 53.8481 111.067 54.0013C111.198 54.1212 111.341 54.228 111.493 54.3202C111.453 54.6021 111.439 54.887 111.45 55.1715C111.485 56.0191 111.738 56.843 112.184 57.5631C112.63 58.2832 113.253 58.875 113.994 59.2809L114.087 59.4961C114.443 60.3395 114.725 61.3277 114.653 62.2533C114.653 62.3218 114.639 62.3883 114.63 62.449C114.598 62.4842 114.569 62.5214 114.542 62.5586C114.542 62.5586 110.367 62.7543 109.35 61.903C108.333 61.0518 106.952 64.1867 106.952 64.1867C106.952 64.1867 105.466 64.537 105.157 64.2571C104.848 63.9773 103.101 64.2943 103.101 64.2943C102.359 63.6808 101.413 63.3744 100.454 63.4372C99.8535 63.0126 99.1954 62.6765 98.5 62.4392L98.4534 62.4236C98.1478 62.3248 97.8243 62.296 97.5063 62.3394C97.5063 62.3394 95.3885 60.7113 94.7545 59.817C94.1205 58.9227 91.1373 55.6333 91.1237 55.6196L91.1101 55.4533L91.0595 54.9601C90.9754 54.9761 90.8903 54.9865 90.8048 54.9914C90.7879 54.9432 90.7665 54.8864 90.7406 54.8212C90.5579 54.3474 90.3374 53.8894 90.0813 53.4514C90.0813 53.4514 90.058 52.8252 90.233 52.6686C90.408 52.5121 90.0638 50.2226 90.0638 50.2226C90.0638 50.2226 88.0472 45.941 86.5128 49.2559C86.5128 49.2559 83.4596 51.4808 86.1841 53.8271C86.1841 53.8271 87.2537 54.2968 87.4171 54.696C87.524 54.9562 87.9091 55.6744 88.1677 56.1558L88.2825 56.371L88.2533 56.3965L88.3078 56.8035L88.3291 56.962C87.8449 57.2653 87.5201 57.5588 87.6096 57.7663C87.7693 58.1216 87.8843 58.4957 87.9519 58.8797C87.9519 58.8797 91.7635 63.3237 92.31 65.2629C92.31 65.2629 102.286 70.7187 105.511 71.0122L105.067 73.9475C105.067 73.9475 104.962 75.7086 105.028 76.327C105.095 76.9454 104.776 79.8004 104.776 79.8004C104.776 79.8004 104.387 83.99 103.932 84.5908C103.477 85.1915 103.663 87.6885 103.663 87.6885C103.597 88.89 103.428 90.0835 103.158 91.2558C102.747 92.8565 103.158 94.8016 103.158 94.8016C103.158 94.8016 101.676 98.6155 105.47 95.9229C105.47 95.9229 107.378 95.7272 109.575 95.5687C109.575 95.6411 109.575 95.7135 109.575 95.7898C109.575 96.0755 109.587 96.3769 109.597 96.7096C109.649 98.8621 109.75 101.819 109.931 104.054C110.254 108.005 111.751 115.795 111.751 115.795L111.901 119.73C111.839 120.103 111.816 120.481 111.833 120.859C111.858 122.247 112.276 123.599 113.037 124.757L113.437 127.371C113.437 127.371 114.215 129.072 114.258 130.111C114.259 130.196 114.252 130.28 114.239 130.363C114.217 130.497 114.211 130.632 114.219 130.767C114.219 131.96 115.048 134.784 115.048 134.784C115.048 134.784 115.201 137.657 115.631 137.807C116.002 137.937 115.205 139.482 114.968 139.929C114.968 139.901 114.954 139.874 114.948 139.846L114.9 139.934C114.82 140.17 114.783 140.418 114.793 140.666C114.776 140.864 114.816 141.062 114.907 141.237C114.998 141.413 115.136 141.559 115.306 141.658C116.139 142.128 116.592 142.527 115.907 142.721C115.655 142.773 115.406 142.839 115.16 142.917L115.122 142.823C115.033 142.867 114.96 142.939 114.916 143.028C114.871 143.117 114.857 143.218 114.875 143.316C114.863 143.525 114.945 143.831 115.166 144.281C115.909 145.795 116.407 146.361 116.407 146.361L116.734 146.31C116.69 146.438 116.63 146.56 116.557 146.674C116.439 146.859 116.279 147.014 116.09 147.124C115.914 147.24 115.715 147.316 115.507 147.349C115.275 147.365 115.049 147.43 114.843 147.541C114.638 147.651 114.459 147.804 114.316 147.989C113.912 148.56 113.673 149.327 114.542 149.959L117.642 150.903C117.642 150.903 122.93 151.388 122.605 150.21C122.28 149.032 122.072 147.999 122.072 147.999C122.065 147.272 121.891 146.557 121.564 145.909C121.507 145.803 121.442 145.701 121.37 145.605L121.555 145.576C121.555 145.576 121.841 142.936 122.333 142.418C122.445 142.296 122.469 142.208 122.439 142.14C122.486 141.995 122.35 141.917 122.175 141.876C122.163 141.911 122.152 141.944 122.142 141.981C121.977 141.952 121.81 141.941 121.642 141.946C121.642 141.946 121.419 140.576 121.955 140.056C121.998 139.997 122.029 139.93 122.044 139.859C122.06 139.788 122.061 139.714 122.047 139.643C122.044 139.454 122.018 139.267 121.969 139.085C121.969 139.085 121.957 139.107 121.949 139.118C121.621 137.882 120.598 135.935 120.598 135.935C120.598 135.935 120.508 134.686 120.831 134.173C121.154 133.661 120.528 127.383 120.528 127.383C120.528 127.383 120.54 124.336 120.1 122.935C119.66 121.534 120.444 119.834 120.444 119.834C120.444 119.834 120.444 119.8 120.431 119.744C120.435 119.737 120.438 119.73 120.44 119.722C120.44 119.722 120.415 119.526 120.372 119.245C120.372 119.245 120.372 119.264 120.372 119.274C120.256 118.472 120.036 117.02 119.89 116.35C119.682 115.399 119.721 110.807 119.721 110.807L120.417 108.819L121.914 112.145L123.54 116.589C123.54 116.589 124.299 117.511 124.351 118.474C124.351 118.521 124.351 118.568 124.351 118.615C124.351 118.718 124.351 118.81 124.351 118.916C124.348 119.486 124.525 120.041 124.857 120.503C124.857 120.503 125.324 122.612 125.942 123.131C126.56 123.65 126.603 124.696 126.603 124.696C126.603 124.696 127.447 127.751 127.811 128.279C128.116 128.726 128.18 129.98 128.2 130.363C128.2 130.434 128.2 130.475 128.2 130.475C128.2 130.475 128.344 131.573 128.375 132.5C128.375 132.614 128.375 132.725 128.375 132.829C128.375 132.829 128.375 132.813 128.375 132.806C128.384 133.058 128.364 133.311 128.314 133.559C128.314 133.571 128.314 133.586 128.303 133.602C128.303 133.549 128.303 133.496 128.303 133.446C128.176 134.08 128.127 134.728 128.157 135.375C128.18 136.485 128.398 137.79 129.094 138.535C130.3 139.825 131.022 139.629 131.022 139.629C131.022 139.629 130.53 141.318 129.855 141.678C129.829 141.691 129.806 141.708 129.785 141.727C129.785 141.696 129.769 141.662 129.763 141.631C129.692 141.718 129.639 141.818 129.609 141.926C129.579 142.034 129.571 142.148 129.586 142.259C129.565 142.995 130.071 144.167 130.528 144.697C130.693 144.85 130.894 144.958 131.111 145.014C131.078 145.04 131.042 145.064 131.006 145.085C130.931 145.13 130.854 145.171 130.775 145.206C130.666 145.26 130.549 145.296 130.428 145.312C130.197 145.328 129.971 145.393 129.766 145.503C129.561 145.613 129.382 145.766 129.24 145.952C128.836 146.521 128.595 147.288 129.464 147.92L132.566 148.864C132.566 148.864 137.853 149.339 137.529 148.161Z" fill="url(#paint1_linear)"/>
<path d="M117.506 150.909L114.505 149.969C113.663 149.335 113.892 148.568 114.285 147.999C114.42 147.815 114.592 147.663 114.791 147.553C114.989 147.442 115.209 147.376 115.435 147.359C115.635 147.326 115.825 147.25 115.993 147.136C116.178 147.025 116.333 146.87 116.446 146.686C116.648 146.332 116.75 145.929 116.74 145.521C116.74 145.521 119.954 144.437 120.88 145.361C121.045 145.528 121.186 145.718 121.296 145.926C121.614 146.576 121.783 147.289 121.792 148.012C121.792 148.012 121.996 149.046 122.311 150.224C122.626 151.402 117.506 150.909 117.506 150.909Z" fill="#2D293D"/>
<path d="M131.949 148.879L128.947 147.932C128.104 147.298 128.336 146.531 128.727 145.962C128.861 145.778 129.033 145.626 129.232 145.516C129.43 145.405 129.65 145.34 129.876 145.324C129.993 145.307 130.106 145.272 130.211 145.218C130.288 145.183 130.364 145.144 130.436 145.099C131.247 144.607 131.181 143.484 131.181 143.484C131.181 143.484 134.396 142.4 135.323 143.324C135.447 143.449 135.557 143.587 135.65 143.737C136.245 144.686 136.233 145.981 136.233 145.981C136.233 145.981 136.439 147.016 136.753 148.192C137.066 149.368 131.949 148.879 131.949 148.879Z" fill="#2D293D"/>
<path opacity="0.1" d="M120.88 145.353C121.045 145.52 121.186 145.711 121.296 145.919L116.446 146.676C116.648 146.322 116.75 145.919 116.74 145.512C116.74 145.512 119.954 144.429 120.88 145.353Z" fill="black"/>
<path opacity="0.1" d="M135.644 143.737L135.679 144.654C134.971 145.94 131.294 145.807 130.205 145.218C130.283 145.183 130.358 145.144 130.43 145.099C131.241 144.607 131.175 143.484 131.175 143.484C131.175 143.484 134.39 142.4 135.317 143.324C135.441 143.449 135.551 143.587 135.644 143.737Z" fill="black"/>
<path d="M136.072 139.758C135.86 140.167 135.682 140.592 135.541 141.03L135.667 144.322C134.89 145.729 130.566 145.437 129.958 144.713C129.349 143.989 128.655 142.052 129.304 141.692C129.954 141.332 130.428 139.647 130.428 139.647C130.428 139.647 129.73 139.843 128.561 138.551C127.393 137.26 127.61 134.289 127.784 133.573C127.957 132.857 127.663 130.489 127.663 130.489C127.663 130.489 127.642 128.822 127.29 128.293C126.938 127.765 126.123 124.708 126.123 124.708C126.123 124.708 126.084 123.665 125.483 123.143C124.882 122.62 124.429 120.513 124.429 120.513C124.07 119.995 123.899 119.368 123.947 118.738C124.03 117.691 123.159 116.597 123.159 116.597L121.58 112.153L120.125 108.826L119.454 110.815C119.454 110.815 119.423 115.405 119.625 116.356C119.828 117.307 120.174 119.842 120.174 119.842C120.174 119.842 119.408 121.54 119.836 122.941C120.263 124.342 120.254 127.391 120.254 127.391C120.254 127.391 120.868 133.669 120.555 134.181C120.242 134.694 120.333 135.943 120.333 135.943C120.333 135.943 122.171 139.543 121.652 140.064C121.133 140.584 121.35 141.952 121.35 141.952C121.35 141.952 122.517 141.907 122.031 142.428C121.545 142.948 121.282 145.586 121.282 145.586L116.298 146.369C116.298 146.369 115.816 145.803 115.094 144.287C114.373 142.77 115.166 142.907 115.826 142.721C116.485 142.535 116.049 142.134 115.242 141.659C114.435 141.183 114.853 140.046 114.853 140.046C114.853 140.046 115.975 137.958 115.555 137.807C115.135 137.657 114.983 134.784 114.983 134.784C114.983 134.784 114.025 131.399 114.206 130.479C114.386 129.559 113.428 127.379 113.428 127.379L113.039 124.765C111.432 122.227 111.919 119.834 111.919 119.834L111.763 115.791C111.763 115.791 110.304 108.003 109.987 104.05C109.793 101.518 109.682 98.0579 109.635 95.8975C109.608 94.6843 109.599 93.882 109.599 93.882L127.416 91.3146C127.416 91.3146 127.43 92.1462 127.842 93.9759C128.062 94.9543 128.398 96.2263 128.908 97.8094C130.366 102.341 129.711 105.789 129.711 105.789L129.767 111.588C129.767 111.588 131.488 115.401 131.208 116.748C131.043 117.546 130.965 118.359 130.977 119.174C130.977 119.174 134.82 127.497 134.541 129.97C134.263 132.444 135.942 136.258 135.942 136.258C135.942 136.258 136.457 138.991 136.072 139.758Z" fill="#575988"/>
<path opacity="0.05" d="M125.014 118.446L130.432 117.505C130.432 117.505 127.476 120.792 125.014 118.446Z" fill="black"/>
<path opacity="0.1" d="M129.44 112.182C129.44 112.182 129.701 114.112 128.548 114.887C128.548 114.887 130.648 114.472 129.44 112.182Z" fill="black"/>
<path opacity="0.1" d="M128.871 106.028C128.871 106.028 124.462 109.975 122.795 109.727C121.129 109.478 128.871 106.028 128.871 106.028Z" fill="black"/>
<path opacity="0.1" d="M118.336 120.478C118.336 120.478 114.906 121.399 114.855 122.802C114.805 124.205 118.336 120.478 118.336 120.478Z" fill="black"/>
<path opacity="0.05" d="M119.758 137.823C119.758 137.823 114.908 138.929 116.317 139.5C117.727 140.071 120.026 140.478 120.026 140.478C120.026 140.478 121.601 140.506 119.758 137.823Z" fill="black"/>
<g opacity="0.05">
<path opacity="0.05" d="M115.368 140.529C115.243 140.456 115.136 140.356 115.054 140.236C114.972 140.116 114.918 139.978 114.896 139.835L114.849 139.925C114.849 139.925 114.435 141.067 115.238 141.537C115.332 141.59 115.417 141.643 115.501 141.696C115.643 141.662 115.8 141.637 115.948 141.592C116.613 141.4 116.176 140.999 115.368 140.529Z" fill="black"/>
<path opacity="0.05" d="M121.642 139.954C121.772 139.823 121.755 139.504 121.658 139.095C121.45 139.428 121.415 139.931 121.426 140.312C121.471 140.178 121.545 140.056 121.642 139.954Z" fill="black"/>
<path opacity="0.05" d="M120.106 119.246C119.944 119.746 119.853 120.266 119.834 120.79C119.913 120.425 120.027 120.067 120.172 119.722C120.172 119.722 120.147 119.544 120.106 119.246Z" fill="black"/>
<path opacity="0.05" d="M131.208 116.632C131.236 116.481 131.246 116.328 131.237 116.174C131.187 116.489 131.156 116.779 131.134 117.033C131.156 116.898 131.181 116.769 131.208 116.632Z" fill="black"/>
<path opacity="0.05" d="M120.555 134.07C120.617 133.966 120.643 133.62 120.643 133.14C120.504 133.516 120.438 133.914 120.448 134.314C120.474 134.229 120.51 134.147 120.555 134.07Z" fill="black"/>
<path opacity="0.05" d="M121.881 141.887C121.576 142.838 121.409 144.468 121.409 144.468L116.424 145.251C116.424 145.251 115.942 144.686 115.225 143.165C115.162 143.032 115.11 142.913 115.069 142.803C114.775 142.954 114.668 143.271 115.098 144.173C115.82 145.689 116.3 146.255 116.3 146.255L121.284 145.472C121.284 145.472 121.557 142.832 122.035 142.312C122.266 142.061 122.105 141.946 121.881 141.887Z" fill="black"/>
<path opacity="0.05" d="M114.98 134.661C114.98 134.661 115.131 137.535 115.551 137.686C115.746 137.201 115.864 136.745 115.676 136.678C115.256 136.528 115.104 133.653 115.104 133.653C115.104 133.653 114.145 130.27 114.326 129.348C114.507 128.426 113.548 126.248 113.548 126.248L113.159 123.636C111.57 121.109 112.059 118.712 112.059 118.712L111.903 114.671C111.903 114.671 110.444 106.883 110.127 102.93C109.933 100.4 109.822 96.9384 109.775 94.7781C109.775 94.3867 109.76 94.0423 109.754 93.7507L109.612 93.7703C109.612 93.7703 109.612 94.5726 109.647 95.7859C109.696 97.9384 109.797 101.406 110.001 103.936C110.318 107.889 111.777 115.677 111.777 115.677L111.919 119.716C111.919 119.716 111.43 122.113 113.019 124.64L113.408 127.254C113.408 127.254 114.363 129.428 114.186 130.352C114.009 131.275 114.98 134.661 114.98 134.661Z" fill="black"/>
<path opacity="0.05" d="M130.084 143.59C129.654 143.014 129.357 142.349 129.215 141.643C128.721 142.126 129.378 143.905 129.956 144.598C130.565 145.325 134.888 145.617 135.664 144.206L135.632 143.412C134.557 144.576 130.658 144.279 130.084 143.59Z" fill="black"/>
<path opacity="0.05" d="M136.196 138.639C135.984 139.047 135.807 139.473 135.666 139.911L135.687 140.498C135.772 140.281 135.897 139.991 136.076 139.647C136.194 139.314 136.243 138.96 136.218 138.608C136.206 138.619 136.202 138.629 136.196 138.639Z" fill="black"/>
<path opacity="0.05" d="M130.183 139.529C130.328 139.203 130.452 138.867 130.553 138.524C130.553 138.524 129.855 138.719 128.686 137.428C127.836 136.488 127.714 134.659 127.789 133.457C127.609 134.173 127.391 137.144 128.567 138.434C129.324 139.277 129.886 139.486 130.183 139.529Z" fill="black"/>
<path opacity="0.05" d="M127.671 130.373C127.774 131.191 127.833 132.014 127.848 132.839C127.863 132.707 127.886 132.576 127.918 132.447C128.099 131.731 127.797 129.365 127.797 129.365C127.797 129.365 127.776 127.696 127.424 127.168C127.072 126.639 126.257 123.583 126.257 123.583C126.257 123.583 126.218 122.542 125.617 122.017C125.016 121.493 124.559 119.393 124.559 119.393C124.199 118.876 124.028 118.248 124.077 117.618C124.161 116.571 123.299 115.48 123.299 115.48L121.706 111.028L120.252 107.701L119.581 109.697C119.581 109.697 119.581 109.944 119.581 110.331L120.125 108.717L121.58 112.043L123.161 116.489C123.161 116.489 124.032 117.583 123.939 118.628C123.891 119.259 124.061 119.886 124.421 120.405C124.421 120.405 124.876 122.514 125.475 123.035C126.074 123.555 126.117 124.6 126.117 124.6C126.117 124.6 126.938 127.657 127.284 128.185C127.63 128.714 127.671 130.373 127.671 130.373Z" fill="black"/>
</g>
<path d="M128.215 53.5806L127.962 55.1147L128.007 55.7898L128.038 56.2888L126.319 56.5354L126.111 56.1832C125.722 55.5452 124.935 54.2478 124.688 54.0522C124.357 53.7958 123.626 49.5886 124.32 49.8117C124.743 49.9584 125.098 50.2574 125.316 50.6511C125.316 50.6511 128.725 50.9114 128.215 53.5806Z" fill="#FFCDD3"/>
<path opacity="0.1" d="M128.038 56.2888L126.319 56.5354L126.111 56.1832C126.333 55.9075 126.644 55.7178 126.99 55.6464C127.335 55.5751 127.695 55.6265 128.007 55.7918L128.038 56.2888Z" fill="black"/>
<path d="M128.507 57.0971L126.249 57.7155L126.187 57.3769L126.024 56.4631C126.024 56.4631 126.879 55.2185 128.217 56.0717L128.35 56.5355L128.507 57.0971Z" fill="#DCE6F2"/>
<path d="M91.4718 55.1695L89.0914 56.5785C89.0914 56.5785 88.9903 56.3828 88.8523 56.1245C88.6033 55.6451 88.2299 54.923 88.1249 54.6647C87.9655 54.2733 86.9309 53.7919 86.9309 53.7919C84.2919 51.4437 87.244 49.2227 87.244 49.2227C88.7239 45.9097 90.6822 50.2011 90.6822 50.2011C90.6822 50.2011 91.0167 52.4847 90.8475 52.6472C90.6784 52.8096 90.7017 53.4299 90.7017 53.4299C90.9521 53.868 91.1661 54.3261 91.3415 54.7997C91.4271 55.0287 91.4718 55.1695 91.4718 55.1695Z" fill="#FFCDD3"/>
<path opacity="0.1" d="M91.4718 55.1695L89.0914 56.5784C89.0914 56.5784 88.9903 56.3828 88.8522 56.1244C89.1848 55.8231 90.3633 54.782 90.7658 54.8114C90.9599 54.8299 91.1552 54.8299 91.3492 54.8114C91.427 55.0286 91.4718 55.1695 91.4718 55.1695Z" fill="black"/>
<path d="M91.7479 55.9014L89.0681 57.3612L88.9903 56.7741L88.9359 56.3671C88.9359 56.3671 90.4683 54.9405 90.937 54.9738C91.175 54.9984 91.4154 54.9885 91.6507 54.9445L91.7012 55.4395L91.7479 55.9014Z" fill="#DCE6F2"/>
<path d="M121.977 63.9421C121.977 63.9421 110.114 65.7561 112.311 64.942C113.842 64.3745 114.421 63.3589 114.507 62.2533C114.577 61.3277 114.312 60.3395 113.959 59.4961C113.648 58.7504 113.263 58.0384 112.809 57.371C112.809 57.371 121.726 51.976 120.086 56.6274C119.831 57.3312 119.685 58.0704 119.653 58.8191C119.625 59.5623 119.732 60.3045 119.97 61.0088C120.357 62.1543 121.051 63.1696 121.977 63.9421Z" fill="#FFCDD3"/>
<path opacity="0.1" d="M120.086 56.6274C119.831 57.3313 119.685 58.0705 119.653 58.8191C118.822 59.5784 117.879 59.5666 116.671 59.6136C115.742 59.6488 114.727 59.915 113.964 59.4942C113.654 58.7485 113.269 58.0365 112.815 57.3691C112.815 57.3691 121.726 51.976 120.086 56.6274Z" fill="black"/>
<path d="M116.325 59.9424C119.049 59.9424 121.257 57.7205 121.257 54.9798C121.257 52.239 119.049 50.0172 116.325 50.0172C113.602 50.0172 111.393 52.239 111.393 54.9798C111.393 57.7205 113.602 59.9424 116.325 59.9424Z" fill="#FFCDD3"/>
<path opacity="0.1" d="M121.977 63.9421C121.977 63.9421 110.114 65.7561 112.311 64.9421C113.842 64.3746 114.421 63.3589 114.507 62.2533C115.077 61.5841 116.257 61.0792 117.006 60.7935C117.696 60.5307 118.45 60.489 119.165 60.6741C119.446 60.7465 119.715 60.8599 119.964 61.0107C120.353 62.1562 121.049 63.1709 121.977 63.9421Z" fill="black"/>
<path opacity="0.1" d="M128.507 57.0971L126.249 57.7154L126.187 57.3769C126.418 57.0302 126.749 56.7635 127.136 56.6133C127.523 56.4631 127.947 56.4366 128.349 56.5374L128.507 57.0971Z" fill="black"/>
<path opacity="0.1" d="M91.7479 55.9014L89.0681 57.3612L88.9903 56.7742C89.9452 56.1558 91.5612 55.4963 91.7012 55.4396L91.7479 55.9014Z" fill="black"/>
<path opacity="0.1" d="M127.846 93.974C123.26 94.8858 116.728 96.0952 115.674 95.8154C114.799 95.5845 112.039 95.7195 109.645 95.8956C109.618 94.6823 109.608 93.88 109.608 93.88L127.426 91.3126C127.426 91.3126 127.434 92.1443 127.846 93.974Z" fill="black"/>
<path d="M132.408 92.7059C132.408 92.7059 117.311 95.9191 115.66 95.4827C114.009 95.0463 105.659 95.9113 105.659 95.9113C101.987 98.598 103.418 94.788 103.418 94.788C103.418 94.788 103.012 92.8429 103.407 91.2422C103.666 90.0693 103.829 88.8768 103.893 87.6768C103.893 87.6768 103.714 85.1799 104.147 84.5791C104.581 83.9784 104.958 79.7907 104.958 79.7907C104.958 79.7907 105.264 76.9396 105.2 76.3173C105.135 75.695 105.233 73.9378 105.233 73.9378L105.659 71.0025C102.547 70.705 92.8739 65.2376 92.8739 65.2376C92.343 63.2964 88.6481 58.8504 88.6481 58.8504C88.583 58.467 88.4713 58.093 88.3155 57.737C88.0413 57.0795 91.7168 55.6021 91.7168 55.6021C91.7168 55.6021 94.6222 58.9111 95.2368 59.8054C95.8513 60.6996 97.9049 62.3297 97.9049 62.3297C98.2128 62.2881 98.526 62.3176 98.8209 62.4158C98.8375 62.4188 98.8538 62.4234 98.8695 62.4295C99.546 62.6694 100.185 63.0062 100.766 63.4295C102.251 63.2886 103.327 64.2905 103.327 64.2905C103.327 64.2905 105.015 63.9754 105.316 64.2553C105.618 64.5351 107.055 64.1887 107.055 64.1887C107.055 64.1887 108.387 61.048 109.373 61.907C110.359 62.7661 114.4 62.5684 114.4 62.5684C114.911 61.8268 116.201 61.2593 117.01 60.9619C117.7 60.6991 118.454 60.6574 119.168 60.8425C119.478 60.922 119.772 61.0543 120.038 61.2339L122.581 63.5547C122.581 63.5547 123.25 62.6115 123.165 62.406C123.079 62.2006 123.98 61.999 123.98 61.999C123.98 61.999 125.166 61.5763 125.617 61.4354C126.068 61.2945 126.504 61.772 126.541 61.8151C126.525 61.7622 126.175 60.7662 126.267 59.9913C126.358 59.2164 125.712 58.5099 125.712 58.5099C127.025 54.8702 130.411 57.7448 130.411 57.7448C130.411 57.7448 130.858 59.688 130.555 60.4511C130.251 61.2143 130.975 62.772 130.909 63.1907C130.843 63.6095 131.117 64.31 131.148 65.1006C131.179 65.8912 130.817 67.3901 130.588 68.0731C130.358 68.756 128.449 70.3254 128.449 70.3254C128.449 70.3254 128.416 72.7049 127.599 74.1119C126.782 75.5189 127.5 80.2095 127.5 80.2095C127.5 80.2095 128.472 83.8433 129.547 84.9705C130.623 86.0976 132.408 92.7059 132.408 92.7059Z" fill="#656691"/>
<path opacity="0.1" d="M109.206 66.1474C109.206 66.1474 108.698 64.7894 108.278 64.6817C107.86 64.5443 107.452 64.3789 107.057 64.1867L107.304 63.6622C107.304 63.6622 108.877 64.0321 109.141 64.4802C109.406 64.9283 109.206 66.1474 109.206 66.1474Z" fill="black"/>
<path opacity="0.1" d="M100.768 63.4275C100.699 63.8482 97.0298 64.3648 97.0298 64.3648L98.8209 62.408L98.8675 62.4236C99.5457 62.6643 100.186 63.0025 100.768 63.4275Z" fill="black"/>
<path d="M89.8849 58.455C90.0675 58.455 90.2155 58.3061 90.2155 58.1223C90.2155 57.9386 90.0675 57.7897 89.8849 57.7897C89.7023 57.7897 89.5543 57.9386 89.5543 58.1223C89.5543 58.3061 89.7023 58.455 89.8849 58.455Z" fill="#575988"/>
<path d="M90.3341 59.1048C90.5167 59.1048 90.6647 58.9558 90.6647 58.7721C90.6647 58.5884 90.5167 58.4395 90.3341 58.4395C90.1516 58.4395 90.0035 58.5884 90.0035 58.7721C90.0035 58.9558 90.1516 59.1048 90.3341 59.1048Z" fill="#575988"/>
<path d="M90.7716 59.7037C90.9542 59.7037 91.1022 59.5547 91.1022 59.371C91.1022 59.1873 90.9542 59.0383 90.7716 59.0383C90.5891 59.0383 90.441 59.1873 90.441 59.371C90.441 59.5547 90.5891 59.7037 90.7716 59.7037Z" fill="#575988"/>
<path d="M91.2326 60.3532C91.4152 60.3532 91.5632 60.2043 91.5632 60.0205C91.5632 59.8368 91.4152 59.6879 91.2326 59.6879C91.05 59.6879 90.902 59.8368 90.902 60.0205C90.902 60.2043 91.05 60.3532 91.2326 60.3532Z" fill="#575988"/>
<path d="M130.263 58.7447C130.412 58.7447 130.533 58.6229 130.533 58.4727C130.533 58.3225 130.412 58.2007 130.263 58.2007C130.114 58.2007 129.993 58.3225 129.993 58.4727C129.993 58.6229 130.114 58.7447 130.263 58.7447Z" fill="#575988"/>
<path d="M130.327 59.3571C130.477 59.3571 130.598 59.2353 130.598 59.0851C130.598 58.9349 130.477 58.8131 130.327 58.8131C130.178 58.8131 130.057 58.9349 130.057 59.0851C130.057 59.2353 130.178 59.3571 130.327 59.3571Z" fill="#575988"/>
<path d="M130.387 59.9698C130.537 59.9698 130.658 59.848 130.658 59.6978C130.658 59.5476 130.537 59.4258 130.387 59.4258C130.238 59.4258 130.117 59.5476 130.117 59.6978C130.117 59.848 130.238 59.9698 130.387 59.9698Z" fill="#575988"/>
<path opacity="0.1" d="M109.659 77.4385C109.618 77.3896 119.406 88.89 126.383 81.7553C126.391 81.7553 115.001 83.7611 109.659 77.4385Z" fill="black"/>
<path opacity="0.1" d="M104.529 83.812C104.529 83.812 110.12 83.7494 110.765 85.3422L110.83 87.0251C110.674 87.1206 110.497 87.1745 110.316 87.1817C110.134 87.1889 109.953 87.1491 109.791 87.0662C109.208 86.7805 105.773 85.1857 104.614 86.0624L104.529 83.812Z" fill="black"/>
<path d="M104.636 83.8081C104.636 83.8081 109.984 83.7474 110.6 85.2679L110.662 86.8705C110.514 86.9614 110.344 87.0127 110.17 87.0195C109.997 87.0264 109.824 86.9886 109.668 86.9097C109.118 86.6396 105.826 85.1172 104.717 85.9547L104.636 83.8081Z" fill="#656691"/>
<path opacity="0.1" d="M107.113 71.4995C107.735 72.8058 108.511 74.0324 109.424 75.153C110.417 76.394 111.605 77.4634 112.942 78.3191C112.942 78.3191 107.238 72.2588 107.113 71.4995Z" fill="black"/>
<path opacity="0.1" d="M105.036 65.03C105.036 65.03 106.123 69.0416 108.578 70.3233L105.036 65.03Z" fill="black"/>
<path opacity="0.1" d="M103.624 65.4939C103.597 65.4195 102.918 68.7266 106.911 70.386C106.911 70.388 105.223 69.8831 103.624 65.4939Z" fill="black"/>
<path opacity="0.1" d="M127.91 61.8345C127.848 61.8345 129.896 63.0399 130.459 63.6133C130.459 63.6133 129.087 61.7151 127.91 61.8345Z" fill="black"/>
<path d="M115.166 59.5274C115.246 59.7798 115.343 60.0557 115.577 60.181C115.724 60.2471 115.884 60.2766 116.045 60.2671C117.55 60.3042 119.116 60.3101 120.483 59.68C120.739 59.5774 120.966 59.4127 121.144 59.2006C121.38 58.8875 121.411 58.4726 121.496 58.0891C121.662 57.3416 122.052 56.6645 122.325 55.9483C122.783 54.7371 122.901 53.4224 122.667 52.1481C122.614 51.7564 122.471 51.3825 122.249 51.0562C121.829 50.4985 121.094 50.295 120.549 49.8605C120.005 49.4261 119.639 48.7412 119.011 48.4222C118.445 48.1346 117.768 48.1972 117.148 48.3283C115.926 48.5872 114.765 49.0794 113.727 49.7783C113.379 50.0112 112.998 50.2812 112.584 50.2186C112.22 50.1658 111.948 49.8703 111.705 49.5944C111.438 50.2856 111.34 51.0312 111.419 51.7685C111.437 51.8766 111.437 51.9871 111.419 52.0953C111.372 52.2266 111.299 52.3467 111.203 52.4475C110.849 52.8956 110.643 53.5883 111.026 54.013C111.193 54.1969 111.442 54.2908 111.609 54.4787C111.901 54.8172 111.827 55.3221 111.837 55.7683C111.827 55.9235 111.871 56.0774 111.963 56.2027C112.046 56.2744 112.146 56.3234 112.254 56.345C112.361 56.3665 112.472 56.36 112.576 56.326C112.783 56.2536 113.003 56.2237 113.221 56.2379C113.458 56.3047 113.664 56.4512 113.805 56.6528C114.526 57.504 114.836 58.4687 115.166 59.5274Z" fill="#2D293D"/>
<g opacity="0.1">
<path opacity="0.1" d="M121.294 58.8073C121.117 59.0188 120.89 59.1829 120.635 59.2848C119.273 59.9208 117.702 59.9149 116.195 59.8719C116.034 59.8802 115.874 59.8507 115.726 59.7858C115.495 59.6605 115.396 59.3827 115.316 59.1302C114.985 58.0735 114.676 57.1068 113.955 56.2458C113.812 56.0455 113.607 55.8999 113.371 55.8329C113.152 55.8189 112.933 55.8482 112.726 55.919C112.621 55.9533 112.51 55.9601 112.403 55.9389C112.295 55.9177 112.195 55.869 112.111 55.7977C112.02 55.6712 111.976 55.5171 111.985 55.3613C111.975 54.9151 112.049 54.4103 111.759 54.0737C111.596 53.878 111.347 53.7919 111.176 53.606C111.067 53.4681 110.998 53.3034 110.974 53.1292C110.951 52.9549 110.975 52.7776 111.043 52.6158C110.796 53.0464 110.703 53.5943 111.024 53.9465C111.189 54.1304 111.44 54.2244 111.607 54.4142C111.899 54.7508 111.825 55.2556 111.835 55.7018C111.825 55.8571 111.87 56.011 111.961 56.1362C112.044 56.2079 112.144 56.2569 112.252 56.2785C112.359 56.3001 112.47 56.2935 112.574 56.2595C112.781 56.1881 113.001 56.1582 113.22 56.1715C113.456 56.2382 113.662 56.3847 113.803 56.5863C114.532 57.4473 114.84 58.4121 115.164 59.4707C115.244 59.7231 115.341 59.9991 115.575 60.1263C115.722 60.1915 115.883 60.221 116.043 60.2124C117.549 60.2476 119.114 60.2535 120.481 59.6253C120.737 59.5227 120.964 59.3588 121.142 59.1478C121.229 59.0226 121.295 58.8838 121.337 58.7369C121.325 58.7604 121.312 58.7799 121.294 58.8073Z" fill="black"/>
<path opacity="0.1" d="M111.43 51.9525C111.494 51.8779 111.542 51.7905 111.57 51.6961C111.59 51.5887 111.59 51.4787 111.57 51.3713C111.505 50.7657 111.56 50.1531 111.732 49.569L111.703 49.5358C111.436 50.227 111.338 50.9726 111.417 51.7098C111.429 51.7901 111.434 51.8713 111.43 51.9525Z" fill="black"/>
</g>
<path opacity="0.1" d="M114.402 62.5665C114.402 62.5665 120.588 63.1536 121.107 62.1967L114.402 62.5665Z" fill="black"/>
<path opacity="0.1" d="M126.271 59.5391C126.271 59.5391 129.691 59.4119 130.493 60.6721L126.271 59.5391Z" fill="black"/>
<path d="M201.066 124.922C201.066 124.922 202.22 126.438 200.534 128.73C198.847 131.021 197.459 132.954 198.021 134.383C198.021 134.383 200.565 130.129 202.634 130.068C204.703 130.007 203.344 127.477 201.066 124.922Z" fill="#FF69B4"/>
<path opacity="0.1" d="M201.066 124.922C201.168 125.067 201.247 125.228 201.302 125.397C203.322 127.784 204.398 130.013 202.457 130.068C200.648 130.121 198.478 133.375 197.959 134.195C197.976 134.261 197.997 134.327 198.021 134.391C198.021 134.391 200.565 130.137 202.634 130.076C204.703 130.015 203.344 127.477 201.066 124.922Z" fill="black"/>
<path d="M203.211 126.853C203.211 127.387 203.151 127.82 203.077 127.82C203.003 127.82 202.945 127.387 202.945 126.853C202.945 126.319 203.019 126.571 203.093 126.571C203.167 126.571 203.211 126.319 203.211 126.853Z" fill="#FFD037"/>
<path d="M203.946 127.491C203.48 127.745 203.073 127.9 203.038 127.835C203.003 127.771 203.353 127.51 203.816 127.248C204.279 126.986 204.098 127.178 204.135 127.248C204.172 127.319 204.411 127.235 203.946 127.491Z" fill="#FFD037"/>
<path d="M194.976 124.922C194.976 124.922 193.822 126.438 195.506 128.73C197.191 131.021 198.583 132.954 198.021 134.383C198.021 134.383 195.477 130.129 193.408 130.068C191.339 130.007 192.698 127.477 194.976 124.922Z" fill="#FF69B4"/>
<path opacity="0.1" d="M194.976 124.922C194.874 125.067 194.795 125.228 194.74 125.397C192.72 127.784 191.644 130.013 193.585 130.068C195.394 130.121 197.562 133.375 198.083 134.195C198.066 134.261 198.045 134.327 198.021 134.391C198.021 134.391 195.477 130.137 193.408 130.076C191.339 130.015 192.698 127.477 194.976 124.922Z" fill="black"/>
<path d="M192.831 126.853C192.831 127.387 192.891 127.82 192.965 127.82C193.039 127.82 193.097 127.387 193.097 126.853C193.097 126.319 193.023 126.571 192.949 126.571C192.875 126.571 192.831 126.319 192.831 126.853Z" fill="#FFD037"/>
<path d="M192.095 127.491C192.562 127.745 192.969 127.9 193.004 127.835C193.039 127.771 192.689 127.51 192.226 127.248C191.763 126.986 191.942 127.178 191.907 127.248C191.872 127.319 191.629 127.235 192.095 127.491Z" fill="#FFD037"/>
<path opacity="0.1" d="M198.019 145.989C204.678 145.989 210.076 145.156 210.076 144.128C210.076 143.1 204.678 142.267 198.019 142.267C191.36 142.267 185.962 143.1 185.962 144.128C185.962 145.156 191.36 145.989 198.019 145.989Z" fill="#6C63FF"/>
<path d="M204.226 132.336L204.168 132.81L204.088 133.479L204.055 133.759L203.974 134.428L203.939 134.708L203.857 135.375L202.935 142.987C202.852 143.666 201.749 144.197 200.419 144.197H195.623C194.291 144.197 193.19 143.666 193.109 142.987L192.183 135.375L192.103 134.708L192.07 134.428L191.986 133.759L191.953 133.479L191.872 132.81L191.815 132.336C191.769 131.945 192.366 131.628 193.118 131.628H202.931C203.676 131.628 204.275 131.951 204.226 132.336Z" fill="#65617D"/>
<path d="M204.168 132.81L204.087 133.479H191.951L191.872 132.81H204.168Z" fill="#9D9CB5"/>
<path d="M204.053 133.757L203.974 134.428H192.068L191.987 133.757H204.053Z" fill="#9D9CB5"/>
<path d="M203.937 134.706L203.857 135.375H192.183L192.101 134.706H203.937Z" fill="#9D9CB5"/>
</g>
<defs>
<linearGradient id="paint0_linear" x1="118.593" y1="131.9" x2="118.593" y2="26.5564" gradientUnits="userSpaceOnUse">
<stop stop-color="#808080" stop-opacity="0.25"/>
<stop offset="0.54" stop-color="#808080" stop-opacity="0.12"/>
<stop offset="1" stop-color="#808080" stop-opacity="0.1"/>
</linearGradient>
<linearGradient id="paint1_linear" x1="36323.4" y1="82676.5" x2="34205" y2="27875.4" gradientUnits="userSpaceOnUse">
<stop stop-color="#808080" stop-opacity="0.25"/>
<stop offset="0.54" stop-color="#808080" stop-opacity="0.12"/>
<stop offset="1" stop-color="#808080" stop-opacity="0.1"/>
</linearGradient>
<clipPath id="clip0">
<rect width="211" height="161" fill="white"/>
</clipPath>
</defs>
</svg>
