<svg width="26" height="13" viewBox="0 0 26 13" fill="none" xmlns="http://www.w3.org/2000/svg">
<path d="M24.3264 5.544C24.157 5.56527 24.0019 5.64927 23.8915 5.77936C23.782 5.90832 23.7245 6.07327 23.7299 6.24223V10.0355L14.9146 1.20665C14.8336 1.12337 14.7328 1.06213 14.6215 1.02876C14.5096 0.995179 14.3909 0.990928 14.2769 1.01642C14.1573 1.04331 14.0469 1.10201 13.9578 1.18621C13.9575 1.18645 13.9573 1.18669 13.957 1.18693L7.61323 7.10132L2.17263 1.66072C2.11 1.59692 2.03547 1.54601 1.95325 1.51087C1.8706 1.47555 1.7818 1.45685 1.69193 1.45585C1.60205 1.45485 1.51285 1.47156 1.42944 1.50504C1.34603 1.53851 1.27002 1.58809 1.20578 1.65095C1.14152 1.7138 1.09029 1.7887 1.05499 1.87135C1.01969 1.95401 1.00101 2.04282 1.00004 2.13269C0.999065 2.22257 1.01581 2.31175 1.0493 2.39516C1.0828 2.47856 1.13241 2.55455 1.19528 2.61879L1.19699 2.62051L7.10486 8.52841C7.22955 8.65655 7.39959 8.73059 7.57841 8.73459C7.75759 8.73855 7.93114 8.67182 8.0615 8.54882C8.06127 8.54905 8.06173 8.54864 8.0615 8.54882L14.406 2.63376L22.7699 11.011H18.9586C18.8688 11.0099 18.7798 11.0266 18.6965 11.0601C18.6126 11.0938 18.5363 11.1438 18.472 11.2072C18.4076 11.2706 18.3565 11.3462 18.3217 11.4296C18.2868 11.513 18.2688 11.6024 18.2688 11.6928C18.2688 11.7831 18.2868 11.8726 18.3217 11.9559C18.3565 12.0393 18.4076 12.1149 18.472 12.1783C18.5363 12.2417 18.6126 12.2918 18.6965 12.3255C18.7798 12.3589 18.8688 12.3756 18.9586 12.3746H24.4117C24.5925 12.3745 24.7659 12.3027 24.8938 12.1749C25.0216 12.047 25.0935 11.8736 25.0935 11.6928V6.24223C25.0966 6.14491 25.0788 6.04805 25.0414 5.95814C25.0033 5.86673 24.9457 5.78473 24.8727 5.71782C24.7997 5.65091 24.713 5.60068 24.6187 5.57068C24.5243 5.54068 24.4246 5.53155 24.3264 5.544ZM24.3264 5.544C24.3263 5.544 24.3265 5.54395 24.3264 5.544Z" fill="white"/>
<path d="M24.3264 5.544C24.157 5.56527 24.0019 5.64927 23.8915 5.77936C23.782 5.90832 23.7245 6.07327 23.7299 6.24223V10.0355L14.9146 1.20665C14.8336 1.12337 14.7328 1.06213 14.6215 1.02876C14.5096 0.995179 14.3909 0.990928 14.2769 1.01642C14.1573 1.04331 14.0469 1.10201 13.9578 1.18621C13.9575 1.18645 13.9573 1.18669 13.957 1.18693L7.61323 7.10132L2.17263 1.66072C2.11 1.59692 2.03547 1.54601 1.95325 1.51087C1.8706 1.47555 1.7818 1.45685 1.69193 1.45585C1.60205 1.45485 1.51285 1.47156 1.42944 1.50504C1.34603 1.53851 1.27002 1.58809 1.20578 1.65095C1.14152 1.7138 1.09029 1.7887 1.05499 1.87135C1.01969 1.95401 1.00101 2.04282 1.00004 2.13269C0.999065 2.22257 1.01581 2.31175 1.0493 2.39516C1.0828 2.47856 1.13241 2.55455 1.19528 2.61879L1.19699 2.62051L7.10486 8.52841C7.22955 8.65655 7.39959 8.73059 7.57841 8.73459C7.75759 8.73855 7.93114 8.67182 8.0615 8.54882M24.3264 5.544C24.4246 5.53155 24.5243 5.54068 24.6187 5.57068C24.713 5.60068 24.7997 5.65091 24.8727 5.71782C24.9457 5.78473 25.0033 5.86673 25.0414 5.95814C25.0788 6.04805 25.0966 6.14491 25.0935 6.24223V11.6928C25.0935 11.8736 25.0216 12.047 24.8938 12.1749C24.7659 12.3027 24.5925 12.3745 24.4117 12.3746H18.9586C18.8688 12.3756 18.7798 12.3589 18.6965 12.3255C18.6126 12.2918 18.5363 12.2417 18.472 12.1783C18.4076 12.1149 18.3565 12.0393 18.3217 11.9559C18.2868 11.8726 18.2688 11.7831 18.2688 11.6928C18.2688 11.6024 18.2868 11.513 18.3217 11.4296C18.3565 11.3462 18.4076 11.2706 18.472 11.2072C18.5363 11.1438 18.6126 11.0938 18.6965 11.0601C18.7798 11.0266 18.8688 11.0099 18.9586 11.011H22.7699L14.406 2.63376L8.0615 8.54882M24.3264 5.544C24.3265 5.54395 24.3263 5.544 24.3264 5.544ZM24.3264 5.544L24.3549 5.76945M8.0615 8.54882C8.06173 8.54864 8.06127 8.54905 8.0615 8.54882Z" stroke="white"/>
</svg>
