<svg xmlns="http://www.w3.org/2000/svg" viewBox="0 0 100 100"><path d="M68.2 95H31.8c-3.3 0-6.1-2.5-6.6-5.7l-8.9-65.4c-0.2-1.4 0.9-2.7 2.4-2.7h62.5c1.4 0 2.6 1.3 2.4 2.7l-8.9 65.4C74.3 92.5 71.5 95 68.2 95zM20.9 24.8c-0.4 0-0.7 0.4-0.7 0.7l8.6 63.3c0.2 1.5 1.5 2.6 3 2.6h36.3c1.5 0 2.8-1.1 3-2.6l8.6-63.3c0.1-0.4-0.3-0.8-0.7-0.8H20.9z" fill="#5A01AB"/><path d="M82.2 14H65.8V8c0-1.7-1.3-3-3-3H37.3c-1.6 0-3 1.3-3 3v6H17.8c-1 0-1.8 0.8-1.8 1.8 0 1 0.8 1.8 1.8 1.8h64.3c1 0 1.8-0.8 1.8-1.8C84 14.8 83.2 14 82.2 14zM62.2 14H37.9V9c0-0.2 0.2-0.4 0.3-0.4h23.6c0.2 0 0.4 0.2 0.4 0.4V14z" fill="#5A01AB"/><copyright>  Trash by Zach Bogart from the Noun Project</copyright></svg>