<svg width="52" height="53" viewBox="0 0 52 53" fill="none" xmlns="http://www.w3.org/2000/svg">
<path d="M26 23.375C28.2498 23.375 30.449 22.7079 32.3196 21.458C34.1902 20.2081 35.6482 18.4315 36.5091 16.353C37.3701 14.2745 37.5953 11.9874 37.1564 9.78085C36.7175 7.57432 35.6342 5.54749 34.0433 3.95667C32.4525 2.36584 30.4257 1.28248 28.2192 0.843572C26.0126 0.404665 23.7255 0.629928 21.647 1.49088C19.5685 2.35182 17.7919 3.80978 16.542 5.68039C15.2921 7.551 14.625 9.75024 14.625 12C14.625 15.0168 15.8234 17.9101 17.9567 20.0433C20.0899 22.1766 22.9832 23.375 26 23.375ZM26 3.37501C27.7059 3.37501 29.3734 3.88085 30.7918 4.82858C32.2102 5.77631 33.3157 7.12335 33.9685 8.69936C34.6213 10.2754 34.7921 12.0096 34.4593 13.6827C34.1265 15.3557 33.305 16.8926 32.0988 18.0988C30.8926 19.305 29.3557 20.1265 27.6827 20.4593C26.0096 20.7921 24.2754 20.6213 22.6994 19.9685C21.1233 19.3157 19.7763 18.2102 18.8286 16.7918C17.8808 15.3734 17.375 13.7059 17.375 12C17.375 9.71251 18.2837 7.51871 19.9012 5.90121C21.5187 4.28371 23.7125 3.37501 26 3.37501Z" fill="#BDBDBD" stroke="#BDBDBD" stroke-width="0.75"/>
<path d="M28 25.625H24C17.8006 25.625 11.855 28.0877 7.47138 32.4714C3.08772 36.855 0.625 42.8006 0.625 49C0.625 49.8951 0.98058 50.7535 1.61351 51.3865C2.24645 52.0194 3.10489 52.375 4 52.375H48C48.8951 52.375 49.7535 52.0194 50.3865 51.3865C51.0194 50.7535 51.375 49.8951 51.375 49C51.375 42.8006 48.9123 36.855 44.5286 32.4714C40.145 28.0877 34.1994 25.625 28 25.625ZM48 49.625H4C3.83424 49.625 3.67527 49.5592 3.55806 49.4419C3.44085 49.3247 3.375 49.1658 3.375 49C3.375 43.5299 5.54799 38.2839 9.41592 34.4159C13.2839 30.548 18.5299 28.375 24 28.375H28C33.4701 28.375 38.7161 30.548 42.5841 34.4159C46.452 38.2839 48.625 43.5299 48.625 49C48.625 49.1658 48.5592 49.3247 48.4419 49.4419C48.3247 49.5592 48.1658 49.625 48 49.625Z" fill="#BDBDBD" stroke="#BDBDBD" stroke-width="0.75"/>
</svg>
