<svg width="445" height="645" viewBox="0 0 445 645" fill="none" xmlns="http://www.w3.org/2000/svg">
<path d="M325 0H37V645H354.5C512.5 389 437 135 325 0Z" fill="#AC3BFA"/>
<path d="M324.5 0H0V645H324.5C482.5 389 390.333 108.333 324.5 0Z" fill="#5703A5"/>
<path d="M0 532C85 532 157 584 226 584C295 584 344 568.1 372 550.5C372 550.5 359.393 579.5 358 583C357.323 584.701 345.883 608.152 339 620.5C331.722 633.557 324.5 645 324.5 645H0V532Z" fill="#932AE1" fill-opacity="0.5"/>
<path d="M144 582C183 561 295 528.5 380 528.5L367.5 562L346.5 607L325 645L1.01848e-05 645L6.11959e-06 598.5C28 616.1 105 603 144 582Z" fill="#932AE1" fill-opacity="0.5"/>
</svg>
