<svg width="59" height="10" viewBox="0 0 59 10" fill="none" xmlns="http://www.w3.org/2000/svg">
<path d="M7.2887 0.8489C7.2887 1.2732 6.95171 1.6099 6.5399 1.6099H4.39331V8.8113C4.39331 9.2361 4.05633 9.5728 3.64418 9.5728C3.21999 9.5728 2.88301 9.2361 2.88301 8.8113V1.6099H0.748797C0.336986 1.6099 0 1.2732 0 0.8489C0 0.4372 0.336986 0.0998993 0.748797 0.0998993H6.5399C6.95171 0.0998993 7.2887 0.4372 7.2887 0.8489Z" fill="#5703A5"/>
<path d="M9.39852 5.5789H12.0446C11.7949 5.105 11.333 4.8304 10.7716 4.8304C10.1974 4.8304 9.69826 5.1173 9.39852 5.5789ZM13.0305 6.8397H9.18643C9.36105 7.5511 9.99767 8.1 10.7716 8.1C11.171 8.1 11.7573 7.9379 12.0818 7.626C12.3814 7.3385 12.8557 7.3385 13.1427 7.6386C13.4424 7.9255 13.43 8.4118 13.1302 8.6994C12.444 9.3609 11.4828 9.5853 10.7716 9.5853C9.03667 9.5853 7.65137 8.1877 7.65137 6.4528C7.65137 4.7429 9.03667 3.3199 10.7716 3.3199C10.9586 3.3199 11.1334 3.3324 11.3206 3.3701C12.1693 3.5322 12.8933 4.0565 13.3424 4.805C13.5422 5.1546 13.767 5.6162 13.7418 6.0285C13.7418 6.1405 13.692 6.2652 13.6421 6.39C13.5422 6.6273 13.33 6.8397 13.0305 6.8397Z" fill="#5703A5"/>
<path d="M18.6223 6.37761C18.6223 5.51671 17.9108 4.8175 17.062 4.8175C16.2008 4.8175 15.4896 5.51671 15.4896 6.37761C15.4896 7.23921 16.2008 7.9255 17.062 7.9255C17.9108 7.9255 18.6223 7.23921 18.6223 6.37761ZM20.3571 4.0186V8.7989C20.3571 9.1858 20.0449 9.5107 19.6331 9.5107C19.2214 9.5107 18.9717 9.1858 18.9717 8.7989V8.64911C18.4351 9.11121 17.8108 9.3858 17.062 9.3858C15.3896 9.3858 14.0417 8.03791 14.0417 6.37761C14.0417 4.71791 15.3896 3.35711 17.062 3.35711C17.8108 3.35711 18.4351 3.64461 18.9717 4.08131V4.0186C18.9717 3.6322 19.2214 3.3074 19.6331 3.3074C20.0449 3.3074 20.3571 3.6322 20.3571 4.0186Z" fill="#5703A5"/>
<path d="M29.7553 5.7286V5.7788V8.7989C29.7553 9.2237 29.4308 9.5479 29.0189 9.5479C28.6072 9.5479 28.2577 9.2237 28.2577 8.7989V5.7788V5.7286V5.6913C28.2577 5.2044 27.8208 4.83041 27.309 4.83041C26.7599 4.83041 26.3232 5.2044 26.3232 5.6913V5.7286V5.7788V8.7989C26.3232 9.2237 25.986 9.5479 25.5866 9.5479C25.1624 9.5479 24.8378 9.2237 24.8378 8.7989V5.7788V5.7286V5.6913C24.8378 5.2044 24.4011 4.83041 23.8645 4.83041C23.3278 4.83041 22.8909 5.2044 22.8909 5.6913V8.8367C22.8909 9.2361 22.5664 9.5728 22.1421 9.5728C21.7428 9.5728 21.3933 9.2361 21.3933 8.8367V4.0689C21.3933 3.6571 21.7428 3.3074 22.1421 3.3074C22.3791 3.3074 22.6039 3.4323 22.7161 3.6069C23.0658 3.4323 23.4525 3.33241 23.8645 3.33241C24.526 3.33241 25.1251 3.58191 25.5866 4.00621C26.0236 3.58191 26.6226 3.33241 27.309 3.33241C28.6444 3.33241 29.7553 4.3932 29.7553 5.6913V5.7286Z" fill="#5703A5"/>
<path d="M39.8407 4.7801C39.8407 5.1919 39.5038 5.5167 39.0916 5.5167H35.5222V8.7367C35.5222 9.1486 35.1853 9.4727 34.7735 9.4727C34.3614 9.4727 34.0369 9.1486 34.0369 8.7367V0.749001C34.0369 0.337201 34.3614 0 34.7735 0H39.0916C39.5038 0 39.8407 0.337201 39.8407 0.749001C39.8407 1.1608 39.5038 1.498 39.0916 1.498H35.5222V4.0317H39.0916C39.5038 4.0317 39.8407 4.3558 39.8407 4.7801Z" fill="#5703A5"/>
<path d="M43.0487 8.7865C43.0487 9.2107 42.7118 9.5479 42.2875 9.5479C41.7633 9.5479 41.2514 9.2858 40.9272 8.874C40.5526 8.387 40.5775 7.838 40.5775 7.2515V3.51991V0.823605C40.5775 0.411705 40.9145 0.0751038 41.3266 0.0751038C41.7508 0.0751038 42.0878 0.411705 42.0878 0.823605V7.6007C42.0878 7.6386 42.0753 7.6758 42.0753 7.7131C42.0753 7.751 42.0878 7.7882 42.0878 7.8256C42.0878 7.938 42.175 8.0379 42.2875 8.0379C42.7118 8.0379 43.0487 8.3747 43.0487 8.7865Z" fill="#5703A5"/>
<path d="M46.7308 4.7925C45.8445 4.7925 45.1333 5.5043 45.1333 6.39C45.1333 7.2763 45.8445 7.98771 46.7308 7.98771C47.6169 7.98771 48.3283 7.2763 48.3283 6.39C48.3283 5.5043 47.6169 4.7925 46.7308 4.7925ZM46.7308 9.52311C45.0085 9.52311 43.5981 8.1249 43.5981 6.39C43.5981 4.6678 45.0085 3.25771 46.7308 3.25771C48.4532 3.25771 49.8635 4.6678 49.8759 6.4025C49.8635 8.1249 48.4532 9.52311 46.7308 9.52311Z" fill="#5703A5"/>
<path d="M59 7.2515V7.3261C58.9499 8.587 57.8639 9.61 56.5285 9.61C55.867 9.61 55.2556 9.3485 54.8062 8.936C54.357 9.3485 53.7579 9.61 53.084 9.61C51.7234 9.61 50.6128 8.5498 50.6128 7.2515V7.2014V7.1516V4.1186C50.6128 3.7068 50.9499 3.37011 51.3616 3.37011C51.7734 3.37011 52.1104 3.7068 52.1104 4.1186V7.1516V7.2014V7.2515C52.1104 7.7256 52.5474 8.1125 53.084 8.1125C53.6207 8.1125 54.0574 7.7256 54.0574 7.2515V7.2014V7.1516V4.1186C54.0574 3.7068 54.3942 3.37011 54.8062 3.37011C55.2182 3.37011 55.5551 3.7068 55.5551 4.1186V7.1516V7.2014V7.2515C55.5551 7.7256 55.9918 8.1125 56.5285 8.1125C57.0652 8.1125 57.5021 7.7256 57.5021 7.2515V4.0938C57.5021 3.682 57.839 3.3448 58.2509 3.3448C58.6628 3.3448 59 3.682 59 4.0938V7.2515Z" fill="#5703A5"/>
</svg>
